<?xml version="1.0" encoding="utf-8"?>
<!-- Generator: Adobe Illustrator 16.0.0, SVG Export Plug-In . SVG Version: 6.00 Build 0)  -->
<!DOCTYPE svg PUBLIC "-//W3C//DTD SVG 1.1//EN" "http://www.w3.org/Graphics/SVG/1.1/DTD/svg11.dtd">
<svg version="1.1" id="Calque_1" xmlns="http://www.w3.org/2000/svg" xmlns:xlink="http://www.w3.org/1999/xlink" x="0px" y="0px"
	 width="60px" height="60px" viewBox="0 0 60 60" enable-background="new 0 0 60 60" xml:space="preserve">
<path fill="#FFFFFF" d="M20.126,59.644c0.134-0.216,0.204-0.326,0.288-0.461c-0.166-0.115-0.331-0.228-0.55-0.379
	c0.243-0.187,0.43-0.329,0.683-0.523c-0.198-0.15-0.344-0.262-0.477-0.363c-0.255,0.335-0.487,0.64-0.82,1.075
	c-0.259-0.408-0.477-0.712-0.653-1.039c-0.189-0.354-0.349-0.725-0.504-1.096c-0.074-0.177-0.18-0.387-0.142-0.555
	c0.111-0.499-0.182-0.867-0.699-0.842c-0.161,0.008-0.327-0.082-0.47-0.206c-0.379,0.026-0.76,0.053-1.302,0.09
	c0.158-0.536,0.328-0.929,0.381-1.337c0.056-0.42-0.046-0.859,0.002-1.282c0.041-0.356,0.156-0.719,0.311-1.044
	c0.295-0.618,0.834-1.156,0.545-1.939c-0.026-0.077-0.007-0.183,0.021-0.265c0.272-0.817,0.134-1.602-0.189-2.366
	c-0.173-0.403-0.229-0.773-0.02-1.19c0.088-0.174,0.066-0.421,0.044-0.629c-0.091-0.834-0.26-1.661-0.276-2.494
	c-0.009-0.374,0.197-0.817,0.443-1.117c0.478-0.58,0.879-1.149,0.938-1.938c0.022-0.298,0.278-0.577,0.4-0.81
	c0.401,0.17,0.688,0.293,1.092,0.464c-0.083-0.342-0.125-0.517-0.204-0.846c0.335,0.193,0.554,0.319,0.914,0.527
	c-0.401-0.68-0.155-1.098,0.282-1.503c0.374-0.348,0.577-0.939,1.255-0.641c0.012-0.132,0.03-0.173,0.017-0.201
	c-0.092-0.195-0.188-0.388-0.283-0.582c0.249-0.062,0.497-0.152,0.749-0.18c0.421-0.044,0.729-0.198,0.95-0.589
	c0.161-0.284,0.421-0.515,0.639-0.768c0.633-0.726,1.297-1.428,1.887-2.188c0.276-0.355,0.4-0.828,0.615-1.235
	c0.456-0.863,0.999-1.013,1.869-0.553c0.062,0.032,0.175-0.029,0.299-0.054c-0.184-0.209-0.326-0.372-0.523-0.596
	c0.236-0.066,0.393-0.109,0.632-0.178c-0.648-0.617-0.322-1.303-0.215-1.949c0.152-0.923-0.371-1.388-1.059-1.787
	c-0.462-0.268-0.919-0.545-1.375-0.822c-0.041-0.024-0.079-0.073-0.096-0.12c-0.587-1.576-0.833-3.18-0.368-4.836
	c0.165-0.588,0.19-1.148-0.088-1.731c-0.23-0.482-0.375-1.01-0.51-1.529c-0.037-0.147,0.042-0.384,0.151-0.5
	c0.432-0.456,0.409-0.747-0.097-1.081c-0.098-0.064-0.18-0.261-0.16-0.379c0.121-0.793,0.275-1.582,0.413-2.373
	c0.014-0.083,0.02-0.189-0.02-0.257c-0.413-0.717-0.799-1.453-1.271-2.13c-0.197-0.284-0.564-0.469-0.885-0.645
	c-0.835-0.457-1.433-1.144-1.982-1.896c-0.239-0.327-0.537-0.612-0.807-0.918c-0.07-0.079-0.151-0.155-0.199-0.247
	c-0.146-0.282-0.275-0.573-0.471-0.978c0.13-0.305,0.245-0.34,0.894-0.096c0.021-0.104,0.069-0.207,0.055-0.299
	c-0.076-0.475,0.197-0.771,0.587-0.814c0.281-0.032,0.736,0.108,0.86,0.32c0.41,0.707,0.846,1.451,1.008,2.235
	c0.16,0.779,0.661,1.025,1.239,1.23c0.329,0.117,0.647,0.581,1.095,0.113c0.26-0.272,0.638-0.431,0.962-0.64
	c-0.015-0.05-0.028-0.099-0.042-0.149c0.158,0.068,0.329,0.116,0.471,0.207c0.444,0.283,0.89,0.564,1.311,0.878
	c0.308,0.229,0.508,0.18,0.602-0.172c0.164-0.623,0.39-1.152,1.148-1.239c0.097-0.011,0.229-0.323,0.228-0.494
	c-0.016-1.186,0.402-2.292,0.572-3.435c0.136-0.907,0.983-1.242,1.207-2.018c0.027-0.094,0.446-0.174,0.63-0.11
	c0.691,0.245,1.079-0.233,1.503-0.584c0.407-0.338,0.705-0.255,1.011,0.147c0.394,0.516,0.901,0.946,1.379,1.396
	c0.154,0.145,0.376,0.213,0.544,0.348c0.651,0.521,1.042,1.264,0.468,2.052c-0.358,0.492-0.781,1.003-0.472,1.723
	c0.046,0.105-0.199,0.341-0.319,0.512c-0.079,0.113-0.175,0.216-0.303,0.371c0.198,0.074,0.349,0.128,0.558,0.206
	c-0.242,0.635-0.606,1.23-0.669,1.855c-0.069,0.689,0.115,1.411,0.245,2.109c0.023,0.122,0.312,0.217,0.492,0.283
	c0.566,0.206,0.963,0.569,1.238,1.111c0.202,0.395,0.458,0.776,0.752,1.109c0.585,0.666,0.627,1.09,0.156,1.861
	c-0.439,0.717-0.841,1.458-1.269,2.184c-0.396,0.67-0.372,1.259,0.098,1.93c0.413,0.59,0.661,1.301,0.942,1.974
	c0.342,0.818,0.671,1.643,0.945,2.485c0.175,0.538,0.241,1.111,0.37,1.732c-0.64-0.133-0.761,0.208-0.787,0.706
	c-0.024,0.473-0.154,0.941-0.181,1.414c-0.01,0.158,0.137,0.339,0.241,0.488c0.218,0.311,0.393,0.536-0.041,0.886
	c-0.213,0.172-0.195,0.664-0.223,1.015c-0.028,0.364,0.256,0.43,0.548,0.438c0.473,0.015,0.637,0.259,0.546,0.71
	c-0.047,0.248-0.073,0.499-0.11,0.748c-0.106,0.71,0.125,1.241,0.761,1.623c0.609,0.363,0.83,1.241,0.486,1.839
	c-0.265,0.461-0.576,0.896-0.917,1.417c0.568,0.642,1.052,1.426,1.992,1.826c0.629,0.269,1.229,0.677,1.558,1.379
	c0.177,0.378,0.528,0.673,0.789,1.016c0.068,0.092,0.155,0.246,0.123,0.328c-0.504,1.281-0.714,2.659-1.688,3.781
	c-1.086,1.254-1.921,2.721-2.938,4.038c-0.72,0.93-1.269,2.018-2.283,2.701c-0.03,0.02-0.063,0.044-0.077,0.074
	c-0.616,1.256-1.855,1.986-2.629,3.107c-0.032,0.045-0.068,0.085-0.093,0.135c-0.129,0.237-0.229,0.661-0.384,0.682
	c-0.449,0.059-0.92-0.055-1.382-0.083c-0.276-0.015-0.583-0.075-0.825,0.017c-0.542,0.206-1.052,0.496-1.575,0.749
	c-0.048,0.023-0.127,0.066-0.147,0.048c-0.532-0.47-0.909-0.043-1.262,0.257c-0.479,0.407-1.034,0.167-1.545,0.273
	c-0.708,0.148-1.421,0.291-2.112,0.501c-0.223,0.068-0.432,0.313-0.559,0.529c-0.188,0.321-0.383,0.291-0.671,0.174
	c-0.207-0.084-0.482-0.184-0.666-0.115c-0.968,0.359-2.081,0.234-2.952,0.914C20.611,59.656,20.398,59.613,20.126,59.644z"/>
</svg>
