<?xml version="1.0" encoding="utf-8"?>
<!-- Generator: Adobe Illustrator 16.0.0, SVG Export Plug-In . SVG Version: 6.00 Build 0)  -->
<!DOCTYPE svg PUBLIC "-//W3C//DTD SVG 1.1//EN" "http://www.w3.org/Graphics/SVG/1.1/DTD/svg11.dtd">
<svg version="1.1" id="Calque_1" xmlns="http://www.w3.org/2000/svg" xmlns:xlink="http://www.w3.org/1999/xlink" x="0px" y="0px"
	 width="60px" height="60px" viewBox="0 0 60 60" enable-background="new 0 0 60 60" xml:space="preserve">
<polygon fill="#FFFFFF" points="7.529,48.764 10.562,45.732 10.562,43.217 12.237,41.541 12.237,40.123 11.754,40.605 
	11.754,38.381 13.222,36.914 13.222,35.092 14.825,36.695 14.825,35.545 13.306,34.025 13.306,32.965 14.126,32.145 14.126,30.32 
	11.569,27.763 11.569,26.773 10.453,25.657 10.453,24.903 11.442,23.915 9.046,21.517 8.497,21.517 8.497,20.647 6.885,20.647 
	6.466,20.228 6.466,19.55 3.548,16.633 2.758,16.633 2.202,17.188 1.532,17.188 1.532,16.004 0.308,14.779 1.92,14.779 
	2.307,14.392 1.694,13.779 2.693,13.779 2.161,13.247 0.63,13.247 0.63,12.327 1.694,11.264 3.532,11.264 6.369,11.264 6.74,10.894 
	7.304,11.458 9.529,13.682 10.433,13.682 11.302,12.812 13.173,14.682 13.173,13.102 14.107,13.102 14.107,14.069 15.333,14.069 
	15.913,13.488 15.269,12.844 15.688,12.425 15.688,9.877 14.736,8.926 14.736,6.653 15.776,7.693 15.776,7.104 17.203,7.104 
	17.591,7.491 17.074,8.007 17.688,8.62 17.688,9.361 19.009,9.361 19.525,9.877 20.879,9.877 21.814,10.812 22.685,10.812 
	23.507,9.991 24.49,9.991 23.757,9.256 23.757,8.781 24.445,8.092 25.135,8.092 25.822,7.405 28.811,7.405 30.542,5.675 
	30.633,5.089 30.633,2.719 32.624,0.729 35.904,0.729 36.287,1.111 36.287,2.59 36.645,2.947 38.097,2.947 38.097,4.009 
	40.192,6.104 41.516,6.104 42.272,6.862 41.805,7.33 42.353,7.878 42.353,8.911 44.804,8.911 44.804,10.265 45.255,10.716 
	46.932,10.716 46.932,11.683 47.576,12.327 51.188,12.327 51.51,12.651 51.51,14.262 52.382,15.133 53.123,15.133 55.638,15.133 
	56.589,16.085 58.539,16.085 59.692,17.237 57.25,19.68 57.25,22.001 57.25,24 55.863,25.386 55.863,26.193 54.977,27.08 
	54.22,27.08 54.22,26.451 53.252,26.451 52.542,27.161 53.059,27.676 53.059,28.256 48.48,32.836 48.48,33.803 49.399,34.012 
	50.35,34.012 50.842,33.521 51.575,33.521 51.575,35.803 52.671,36.898 51.672,37.898 51.672,38.832 53.301,40.461 52.382,41.381 
	51.704,41.381 51.704,42.25 50.737,42.25 50.156,42.832 52.671,45.346 51.123,46.895 51.123,47.861 52.703,49.441 55.058,49.441 
	55.058,50.182 54.283,50.955 54.283,51.988 53.123,51.988 50.802,54.311 49.834,54.311 49.319,54.826 49.319,55.922 47.254,55.922 
	46.706,56.471 46.094,55.857 44.933,55.857 43.966,54.891 42.998,54.891 42.998,54.051 41.58,54.051 39.517,54.051 39.517,52.955 
	37.71,52.955 36.807,52.051 36.228,52.051 34.969,53.311 33.39,53.311 30.697,56.002 30.697,57.533 31.528,58.365 29.327,58.365 
	28.42,59.271 26.812,57.664 26.038,58.438 25.265,58.438 24.651,57.824 24.104,57.824 24.104,56.695 23.458,56.051 22.942,56.566 
	21.459,55.084 20.428,55.084 19.428,54.084 19.428,55.277 17.396,55.277 16.622,54.504 15.204,54.504 14.527,53.826 12.754,53.826 
	12.754,52.504 10.948,52.504 9.852,51.408 8.69,51.408 9.593,50.506 8.949,49.861 8.24,49.861 "/>
</svg>
