<?xml version="1.0" encoding="utf-8"?>
<!-- Generator: Adobe Illustrator 16.0.0, SVG Export Plug-In . SVG Version: 6.00 Build 0)  -->
<!DOCTYPE svg PUBLIC "-//W3C//DTD SVG 1.1//EN" "http://www.w3.org/Graphics/SVG/1.1/DTD/svg11.dtd">
<svg version="1.1" id="Calque_1" xmlns="http://www.w3.org/2000/svg" xmlns:xlink="http://www.w3.org/1999/xlink" x="0px" y="0px"
	 width="60px" height="60px" viewBox="0 0 60 60" enable-background="new 0 0 60 60" xml:space="preserve">
<path fill="#FFFFFF" d="M52.101,27.64c-0.585-1.193-1.003-1.583-1.511-2.727c-0.343-0.352-0.633-0.743-0.871-1.172
	c-0.053-0.462,0.949-1.459,0.511-1.976c-1.595-1.887-0.074-3.773-2.57-5.176c-1.532-0.861,0.28-1.737,0.465-2.783
	c0.222-1.246-0.026-2.442-0.42-3.637c-0.29-0.88-2.442-1.218-2.29-2.001c0.294-1.527-1.985-2.502-1.698-1.535
	c-0.581-0.57-2.054-2.546-2.776-2.29c-0.281,0.1-2.812,0.363-1.978,1.222c-1.978-0.17,2.33-1.616,2.205-1.539
	c-0.096-0.347-0.441-0.342-1.041,0.015c-0.886-0.52-1.425-0.238-1.623,0.846c-0.792,1.14-3.547,1.222-3.771,2.399
	c0.138-0.171,0.29-0.348,0.429-0.501c-0.28,0.496-0.514,1.013-0.703,1.55c-0.306-0.076-3.04-0.73-3.089-0.818
	c0.144,0.259,1.308-2.392,1.378-2.88c-0.74-0.123-3.996-0.075-4.098,0.359c0.317-1.547-0.768-0.493-1.534-0.984
	c2.737-0.21-0.762-3.347-0.896-3.131c-1.592,0.686-2.465-0.092-4.408-0.296c-0.396,1.102,0.995,1.819,1.462,2.595
	c0.916,1.524-2.196,1.348-1.663,2.176c-0.142-0.22,2.898,2.243,0.897,2.072c0.259,0.577,0.623,1.078,0.907,1.478
	c-0.973,0.177-1.482-0.962-2.143,0.016c-0.437,0.646-0.335,1.602-0.037,2.275c-2.072-0.801-0.556,0.009-1.377,0.749
	c-0.49,0.251-0.787,0.048-0.891-0.607c1.103,0.066-0.247-1.562-0.692-1.564c-1.223-0.005-3.948,1.252-4.009,1.238
	c-0.044,1.38-0.173,1.306,1.176,1.635c-1.256,0.432-0.483,5.623-2.032,5.109c-1.856-0.614-0.614,2.612,0.317,1.396
	c1.28,1.209-0.696,2.412-1.437,3.24c1.772,0.747-1.791,1.083-1.53,1.558c-1.404-1.399-2.383,0.179-1.552,1.496
	c0.584,0.927-0.212,3.513,0.214,3.377c-0.16,0.159-1.82,1.067-1.482,1.383c0.778,0.728,0.329,0.753,0.501,1.556
	c0.048,0.227,0.903,1.141,0.697,1.223c0.381,0.49,0.507,1.607,1.145,2.523c-2.316-0.217-1.479,3.124-0.234,3.896
	c0.181,0.755,0.562,0.372-0.071,1.493c-0.635,1.126,0.413,1.241,0.688,2.096c0.258,0.802,2.313,2.106,2.584,1.623
	c0.717,0.725,1.551-0.443,1.903,0.26c0.493,0.984,2.822,1.194,3.764,1.378c-1.644,1.072-5.291,8.456-3.64,10.107
	c0.863,0.863,1.394,0.738,2.902,0.526c0.446-0.063,2.23-0.029,2.226-0.071c0.864-0.985-0.477-0.063-0.638-0.543
	c-0.58-1.711,2.158,0.017,2.324,0.075c2.287,0.793,0.669-0.997,0.793-1.184c0.867,0.3,2.626,2.222,3.51,1.991
	c0.605-0.158,0.758,0.355,1.289,0.132c0.314,0.667,1.341,1.337,1.341,1.337c-0.087,0.262-0.174,0.525-0.262,0.787
	c1.854-0.165,1.017-1.896,1.551-2.446c0.039,0.415,3.962,1.228,3.929,1.42c0.82-0.172,1.531-1.333,2.112-1.548
	c1.589-0.588,2.161,0.223,3.212-1.242c-0.002,1.16,1.87,0.275,2.442,0.432c0.954,0.262,2.211,2.953,1.467-0.409
	c-0.025-0.113-0.945-1.86-1.191-2.757c-0.155-0.56,3.277-2.841,3.49-4.037c1.68,1.429,1.604-0.691,1.148-1.817
	c-0.589-1.457-2.017-1.171-3.082-2.574c-1.454-1.218-2.39-1.949-3.433-3.414c-0.502-0.706-0.276-1.131-0.246-1.977
	c0.042-1.146-1.78-1.739-1.964-3.214c0.829-0.148,0.66,0.822,1.195,1.087c-0.409-1.676,10.212-5.38,9.881-6.217
	c-0.107-0.269-1.152-0.344-0.508-0.989c0.789-0.789,1.726,1.582,2.033,1.521C52.007,30.995,52.13,28.497,52.101,27.64
	C51.921,27.271,52.131,28.534,52.101,27.64z"/>
</svg>
