<?xml version="1.0" encoding="utf-8"?>
<!-- Generator: Adobe Illustrator 16.0.0, SVG Export Plug-In . SVG Version: 6.00 Build 0)  -->
<!DOCTYPE svg PUBLIC "-//W3C//DTD SVG 1.1//EN" "http://www.w3.org/Graphics/SVG/1.1/DTD/svg11.dtd">
<svg version="1.1" id="Calque_1" xmlns="http://www.w3.org/2000/svg" xmlns:xlink="http://www.w3.org/1999/xlink" x="0px" y="0px"
	 width="60px" height="60px" viewBox="0 0 60 60" enable-background="new 0 0 60 60" xml:space="preserve">
<g>
	<polygon fill="#FFFFFF" points="3.941,33.054 4.181,32.979 4.65,33.262 5.051,33.048 5.671,32.935 5.865,33.035 6.181,32.489 
		5.949,31.87 5.083,31.568 4.466,31.635 4.405,32.147 4.029,32.261 3.831,32.534 3.596,32.331 3.56,32.629 3.388,32.731 
		3.892,32.928 	"/>
	<polygon fill="#FFFFFF" points="59.227,28.838 58.771,28.575 59.022,28.292 59.16,27.752 59.045,27.787 58.987,27.509 
		58.782,27.392 58.68,26.931 58.512,27.06 58.471,26.857 58.224,26.863 58.184,27.027 58.084,26.89 57.904,26.886 57.335,27.251 
		56.642,27.035 56.616,26.611 56.698,26.579 56.405,26.139 56.466,25.891 56.128,25.73 55.776,25.152 55.499,25.303 55.275,25.173 
		55,25.198 54.827,25.385 54.239,24.234 54.302,23.904 53.849,23.787 53.617,23.443 53.826,23.143 53.585,23.129 53.304,22.933 
		52.896,23.13 52.86,23.309 52.683,23.386 52.729,23.517 52.572,23.551 52.379,23.513 52.299,23.631 52.208,23.446 52.033,23.563 
		51.791,23.368 51.425,23.578 51.104,23.549 50.918,23.768 50.658,23.659 50.612,23.749 50.585,23.656 50.575,23.808 50.375,23.867 
		50.312,23.729 50.149,23.728 50.021,24.152 49.188,23.93 48.989,23.498 48.634,23.314 48.2,21.837 47.594,21.867 47.361,21.32 
		46.711,20.854 46.562,20.935 46.496,21.199 45.682,21.169 45.549,21.669 44.815,21.478 44.456,21.728 44.203,21.755 43.953,22.073 
		43.772,21.989 43.719,21.743 43.475,21.624 43.033,21.547 42.755,21.741 42.545,21.673 42.202,21.215 41.757,21.296 41.519,20.982 
		41.576,20.88 39.957,21.182 39.338,21.523 39.01,21.396 38.912,21.612 38.758,21.489 38.619,21.58 38.666,22.109 37.885,23.004 
		37.823,23.706 37.19,24.572 37.09,24.917 36.747,25.057 36.354,24.815 36.236,24.858 36.245,25.051 36.025,25.068 36.063,25.192 
		35.442,25.166 35.408,25.559 34.938,25.902 34.861,25.993 34.95,26.076 34.704,26.268 34.546,26.152 34.079,26.298 33.759,26.713 
		33.433,26.819 33.544,26.533 33.413,26.288 33.085,26.239 33.045,26.131 32.943,26.335 32.741,26.241 32.537,26.45 32.425,26.307 
		32.619,26.061 32.561,25.923 32.104,25.645 31.914,25.816 31.658,25.798 31.442,25.341 31.263,25.356 31.102,25.211 30.664,25.631 
		30.193,25.82 29.878,27.148 29.709,27.216 29.697,27.361 29.473,27.132 29.095,27.367 28.97,27.252 28.225,27.313 27.841,27.536 
		27.729,27.742 26.802,27.494 26.562,27.607 26.351,27.514 26.157,27.678 25.788,27.44 25.495,27.714 25.036,27.693 24.845,27.76 
		24.679,27.675 24.639,27.8 24.193,27.837 24.067,28.523 23.94,28.635 23.693,28.602 23.562,28.778 23.731,29.049 23.568,29.479 
		23.599,30.104 24.115,30.36 24.363,30.67 24.288,30.782 24.285,30.781 23.968,30.72 23.386,30.841 23.238,31.192 22.586,31.528 
		21.683,31.456 21.294,31.615 20.914,31.456 19.527,31.883 17.655,31.56 17.273,31.558 17.042,31.688 16.772,31.545 16.55,31.711 
		16.096,31.775 15.797,31.689 15.133,31.773 14.52,31.556 13.631,30.719 13.25,30.772 12.956,30.198 12.315,29.926 12.065,29.385 
		11.257,28.514 10.673,28.483 10.495,28.216 9.861,28.289 9.199,28.819 9.383,28.955 9.175,29.278 9.363,29.397 9.211,29.646 
		9.247,29.807 9.109,30.062 8.532,30.138 8.47,30.255 8.827,30.526 8.786,30.654 9.013,30.904 8.823,31.104 8.981,31.944 
		9.155,32.188 7.365,32.441 7.266,32.422 7.214,32.026 6.881,32.514 6.18,32.494 5.864,33.04 5.67,32.938 5.05,33.052 4.649,33.266 
		5.368,33.285 5.526,33.511 5.562,33.845 5.46,33.982 5.904,34.341 5.677,34.719 5.358,34.849 5.509,35.18 5.306,35.529 
		5.306,35.529 4.815,35.828 4.69,36.05 4.151,36.003 4.032,36.252 3.933,36.035 3.594,36.021 3.725,36.348 3.643,36.667 
		3.481,36.721 3.74,36.942 3.959,37.639 3.769,37.988 3.458,37.999 3.521,38.437 3.322,38.591 3.43,38.849 3.65,38.81 3.733,39.061 
		3.657,39.389 4.192,39.316 4.306,39.588 4.064,39.629 4.051,39.802 3.724,40.002 3.816,40.26 4.227,40.464 3.551,40.711 
		3.524,40.813 3.601,40.899 3.762,40.803 4.154,41.174 3.915,41.262 3.609,41.123 3.591,41.258 3.451,41.28 3.29,41.124 
		2.949,41.21 2.75,41.064 2.678,41.243 2.338,41.207 2.253,41.014 2.099,41.658 1.918,41.659 1.648,41.988 1.434,41.944 
		1.279,42.352 0.72,42.837 1.084,43.012 1.782,42.745 2.271,42.792 2.73,43.216 2.669,43.633 2.456,43.724 2.418,43.939 
		2.572,43.979 2.479,44.254 2.811,44.769 2.92,44.673 2.963,44.94 3.437,45.013 3.351,45.468 3.119,45.4 3.062,45.641 3.372,46.031 
		3.577,46.079 3.907,46.626 4.152,46.705 4.208,47.019 4.325,47.071 4.245,47.413 4.722,47.668 4.886,47.902 5.125,47.853 
		5.473,47.98 5.415,48.142 5.54,48.104 5.944,48.803 6.064,48.699 6.299,48.961 6.595,48.88 6.865,49.118 6.953,49.026 
		7.085,49.278 7.208,49.289 7.276,49.631 7.514,49.816 7.8,49.757 7.846,50.075 8.235,49.768 8.574,49.847 8.869,49.344 
		8.873,49.353 8.575,49.858 8.236,49.782 7.847,50.088 7.801,49.769 7.514,49.828 7.276,49.644 7.37,50.271 7.952,50.714 
		8.122,50.683 8.152,50.911 8.458,50.957 9.09,51.389 9.255,51.366 9.455,51.604 9.75,51.591 9.741,51.726 9.94,51.831 9.899,52.36 
		10.2,52.281 10.175,52.469 10.368,52.466 10.118,52.734 10.397,52.718 10.541,52.907 10.363,52.949 10.701,52.993 10.563,53.329 
		10.907,53.316 10.595,53.524 10.798,53.682 11.007,53.667 10.93,53.9 11.146,53.829 11.045,54.098 11.237,54.045 11.202,53.756 
		11.407,54.018 11.563,53.829 11.578,54.062 11.459,54.063 11.457,54.171 11.707,54.193 11.396,54.275 11.333,54.177 11.336,54.406 
		11.666,54.344 11.697,54.528 11.896,54.442 12.045,54.6 12.117,54.313 12.919,54.511 13.252,54.479 13.733,54.892 13.993,55.586 
		13.995,55.586 14.143,55.741 14.743,55.804 14.907,56.026 15.481,56.053 15.803,56.598 16.188,56.275 16.386,56.355 16.984,56.226 
		17.713,56.588 17.898,56.54 18.061,56.29 18.462,56.447 18.617,56.315 18.99,56.421 19.113,56.63 19.569,56.646 19.921,56.819 
		20.151,56.491 20.519,56.896 20.869,56.935 20.856,56.633 21.163,56.582 21.243,56.231 21.506,56.37 21.824,56.122 21.96,56.156 
		21.959,55.98 22.383,55.677 22.316,55.506 22.454,55.225 22.521,55.332 22.65,55.234 22.544,55.077 22.726,54.972 22.712,54.728 
		23.095,54.715 23.862,55.201 23.986,55.184 24.023,54.818 23.89,54.696 23.891,54.694 24.023,54.814 24.494,54.793 24.459,54.667 
		24.599,54.719 24.834,54.485 25.711,54.62 25.599,54.329 25.757,54.133 26.332,54.121 26.211,53.682 26.562,53.195 26.817,53.239 
		26.92,53.722 28.108,53.72 28.206,53.821 28.086,53.496 28.79,53.05 28.931,53.239 29.228,53.111 29.662,52.682 29.658,52.503 
		30.172,52.205 29.999,51.896 30.43,51.663 30.518,51.477 31.106,51.571 31.36,51.323 31.526,51.439 31.647,51.357 31.123,50.405 
		31.594,49.897 31.356,49.49 31.597,49.9 31.125,50.409 31.65,51.361 32.202,51.875 32.698,52.099 33.685,51.512 34.48,51.573 
		34.591,51.867 34.826,51.882 35.065,51.539 35.162,51.5 35.207,51.688 35.478,51.892 35.835,51.714 36.3,52.146 36.299,52.145 
		36.406,52.075 36.419,52.182 36.555,52.112 36.679,51.271 36.555,52.113 36.419,52.183 36.471,52.245 36.759,51.882 37.327,51.586 
		37.438,51.826 37.558,51.714 38.275,51.887 38.544,51.582 38.584,51.307 38.977,51.468 39.792,52.126 39.936,51.822 40.117,51.913 
		40.436,51.643 40.568,51.116 40.831,51.146 40.753,50.616 40.971,50.277 40.736,50.1 40.817,49.336 40.651,48.915 40.655,48.914 
		40.822,49.338 40.739,50.102 40.974,50.279 41.807,50.127 42.183,50.438 42.253,50.269 42.422,50.242 42.481,50.414 43.1,50.385 
		43.21,50.594 43.445,50.664 43.783,50.432 43.883,49.96 44.459,49.906 44.405,49.606 44.615,49.389 44.681,48.693 44.827,48.552 
		45.447,48.636 45.4,48.53 45.597,48.202 45.459,47.776 45.269,47.76 45.155,47.458 45.28,46.947 45.418,46.897 45.666,46.445 
		45.517,46.335 45.615,45.998 46.072,45.753 46.446,45.938 46.531,45.646 46.835,45.438 46.631,45.047 46.977,45.028 47.155,45.147 
		47.463,44.716 47.447,44.478 47.082,44.138 47.389,43.695 47.4,43.241 48.091,42.898 48.205,42.623 48.078,42.103 48.403,42.026 
		48.777,41.646 48.657,41.541 48.84,41.174 48.754,40.957 48.584,40.883 48.441,40.985 48.582,40.884 48.501,40.664 48.78,40.606 
		49.16,39.944 49.727,39.831 49.948,39.016 50.304,38.808 50.243,38.183 50.558,37.723 50.482,37.542 51.006,36.454 51.61,36.412 
		51.822,35.962 51.804,35.468 51.589,35.147 51.708,34.637 51.921,34.345 52.059,34.477 52.137,34.372 52.009,34.216 52.358,34.074 
		52.645,33.603 52.416,32.814 52.169,32.66 52.417,32.814 52.646,33.602 53.037,33.653 53.498,32.408 53.761,32.302 53.813,31.897 
		54.266,31.736 54.269,31.429 54.599,31.655 55.243,31.762 55.403,30.961 55.692,30.872 56.274,31.362 56.798,31.369 57.404,31.165 
		57.678,30.562 58.224,30.467 58.067,29.83 58.367,29.846 58.816,29.624 59.28,29.055 	"/>
</g>
</svg>
