<?xml version="1.0" encoding="utf-8"?>
<!-- Generator: Adobe Illustrator 16.0.0, SVG Export Plug-In . SVG Version: 6.00 Build 0)  -->
<!DOCTYPE svg PUBLIC "-//W3C//DTD SVG 1.1//EN" "http://www.w3.org/Graphics/SVG/1.1/DTD/svg11.dtd">
<svg version="1.1" id="Calque_1" xmlns="http://www.w3.org/2000/svg" xmlns:xlink="http://www.w3.org/1999/xlink" x="0px" y="0px"
	 width="60px" height="60px" viewBox="0 0 60 60" enable-background="new 0 0 60 60" xml:space="preserve">
<path fill="#FFFFFF" d="M19.675,27.123l-0.017-0.047l-0.014-0.061l-0.021,0.005l-0.028,0.076l-0.041,0.047l-0.043,0.018l-0.009,0.04
	l0.035,0.033l0.055,0.019l0.059,0.002l0.041-0.026l0.011-0.039v-0.022l-0.008-0.015L19.675,27.123z M21.115,25.748l0.03-0.042
	l-0.019-0.057l-0.032-0.052l-0.037-0.036l-0.041-0.015l-0.051,0.026l-0.034,0.062l-0.045,0.145l-0.027,0.03l-0.037,0.024
	l-0.033,0.031l-0.014,0.054l-0.031,0.013l-0.062-0.001l-0.043-0.032l0.019-0.083l-0.157,0.004l-0.071-0.01v0.049l-0.055,0.038
	l0.015,0.01l0.008-0.001l0.002,0.007l0.004,0.028l-0.099,0.007l-0.074-0.007l-0.051-0.02l-0.093-0.052l-0.044-0.011l-0.088,0.008
	l-0.107,0.031l-0.089,0.061l-0.042,0.099l0.023,0.15l0.075,0.081l0.094,0.033l0.345,0.011l0.023-0.003l0.021-0.034l0.021-0.087
	l0.084,0.071l0.164-0.085l0.038,0.096l0.046-0.124h0.055l0.056,0.051l0.055,0.034l0.012,0.021l0.042,0.103l0.016,0.031l0.05,0.024
	l0.042-0.004l0.032,0.006l0.02,0.051l0.062-0.075l-0.022-0.106l-0.073-0.093l-0.08-0.036l0.075-0.031l0.056-0.042l0.041-0.063
	l0.028-0.095l-0.025-0.067l0.002-0.066L21.115,25.748z M20.533,28.54l-0.01,0.096l0.079,0.022l0.012-0.095l-0.041-0.062
	L20.533,28.54z M23.17,28.493l-0.058-0.124l-0.073-0.064l-0.054-0.03l-0.031,0.03l0.003,0.069l-0.061,0.046l0.041,0.069l0.156,0.161
	l0.061,0.037l0.069-0.066l-0.042-0.057L23.17,28.493z M29.066,52.603l-0.064-0.04l-0.03-0.03l-0.037,0.007l-0.035,0.021
	l-0.042,0.013L28.8,52.567l0.022,0.055l0.038,0.041l0.049,0.012l0.062-0.033l0.05,0.037l0.067,0.027l0.064-0.004l0.047-0.061
	l-0.059-0.009L29.066,52.603z M27.96,52.418l-0.034-0.097l-0.046-0.033l-0.073,0.007l-0.023,0.037l0.028,0.056l0.044,0.067
	l0.072,0.053l0.061,0.003l-0.006-0.053L27.96,52.418z M27.815,58.506l-0.16-0.152l-0.027,0.053l-0.025,0.009l-0.028-0.016
	l-0.038-0.01l-0.017-0.011l-0.04-0.049l-0.027-0.013l-0.022,0.006l-0.03,0.024l-0.019,0.006l-0.051,0.039l0.012,0.086l0.033,0.084
	l0.018,0.037l0.101,0.122l0.145,0.105l0.145,0.019l0.096-0.138l-0.009-0.117L27.815,58.506z M12.204,45.887l-0.065,0.027
	l-0.188,0.039l-0.064,0.043l-0.023,0.086l0.034,0.068l0.104,0.106v0.034l-0.012,0.06l0.061,0.036l0.086,0.007l0.066-0.029
	l0.025-0.085l-0.024-0.218L12.204,45.887z M18.638,24.48l-0.009-0.016l-0.007-0.01l-0.06-0.054l-0.08,0.046l-0.093,0.217l0.07,0.118
	l0.09-0.005l0.08-0.094l0.053-0.11l-0.03-0.081L18.638,24.48z M18.541,38.595l-0.119-0.111l-0.022-0.057l-0.004-0.048l-0.017-0.033
	l-0.059-0.013l-0.027-0.017l-0.022-0.043l-0.013-0.056l-0.021-0.341l-0.015-0.073l-0.127-0.256l-0.016-0.102l-0.027-0.075
	l-0.118-0.161l-0.025-0.069l-0.005,0.061l-0.044-0.052l0.015-0.051l0.054-0.027l0.064,0.017v-0.035l-0.037-0.069l0.041-0.037
	l0.138-0.048l-0.054-0.01l-0.048-0.017l-0.04-0.033l-0.028-0.053l-0.047,0.037l-0.035,0.002l-0.024-0.031l-0.008-0.067l-0.023-0.019
	l-0.151-0.075v-0.035l0.041-0.008l0.032-0.021l0.023-0.038l0.021-0.049l-0.082-0.017l-0.062,0.031l-0.062,0.043l-0.083,0.021
	l-0.025-0.011l-0.075-0.049l-0.043-0.019l-0.042,0.007l-0.037,0.024l-0.034-0.001l-0.033-0.065l0.035-0.006l-0.006-0.009
	l0.003-0.026l0.19,0.017l0.057-0.02l-0.019-0.076l0.051-0.074l0.016-0.1l0.021-0.086l0.07-0.038l0.063,0.022l0.069,0.034
	l0.063,0.007l0.047-0.063l-0.077-0.05l-0.12-0.043l-0.115-0.006l-0.062,0.061h-0.02l-0.012-0.008l-0.025-0.029l-0.006,0.015
	l0.001,0.014l-0.001,0.011H17.42l0.021-0.087l-0.014-0.053l-0.047-0.012l-0.076,0.035l0.032,0.079H17.25l0.039-0.086l0.074-0.332
	l0.007,0.024l0.012,0.026l0.009,0.026l0.043-0.056l0.025-0.053l0.012-0.055l0.006-0.069l-0.014-0.009l-0.005,0.001l-0.003-0.004
	l-0.007-0.024H17.42l-0.028,0.028l-0.022-0.01l-0.027-0.029l-0.04-0.027l0.032-0.04l-0.036-0.054l-0.022,0.007l-0.018,0.03
	l-0.025,0.017l-0.057-0.011l-0.054-0.02l-0.052-0.003l-0.053,0.033l0.025,0.015l0.012,0.018l0.007,0.021l0.013,0.025l-0.04,0.03
	l-0.027,0.048l-0.047,0.11l-0.026-0.13l0.001-0.056l0.024-0.041l-0.042-0.043l-0.026-0.048l-0.027-0.039l-0.048-0.021l0.015-0.022
	l0.009-0.021l0.012-0.017l0.021-0.018v-0.036h-0.042l-0.035-0.003l-0.031-0.013l-0.036-0.021v0.036l-0.152-0.146l-0.069-0.025
	L16.5,35.007l-0.069-0.05l-0.017-0.026l-0.03,0.019l-0.024,0.008l-0.06,0.01v-0.036l0.012-0.025l0.005-0.016L16.3,34.817h-0.03
	l-0.013,0.052l-0.005,0.041l0.004,0.03l0.015,0.026l-0.045-0.04l0.003-0.19l-0.043-0.073l-0.045,0.012l-0.036-0.007l-0.023-0.027
	l-0.009-0.05l-0.077,0.038l-0.093,0.025l-0.08,0.046l-0.034,0.098l0.002,0.229l-0.023,0.085L15.7,35.199l-0.026-0.041l-0.116,0.115
	l-0.062,0.024l-0.286,0.035l-0.08,0.038l-0.062,0.135l-0.062,0.081l-0.072,0.072l-0.051,0.027l-0.026,0.021l-0.045,0.096
	l-0.029,0.039l-0.04,0.021l-0.133,0.05l0.017,0.011l0.002,0.003v0.007l0.009,0.021L14.586,36l-0.149,0.257l-0.071,0.079
	l-0.243,0.185l-0.056-0.03l-0.073-0.012l-0.103,0.004l-0.286,0.133l-0.027,0.084l-0.066,0.083l-0.084,0.074l-0.326,0.142
	l-0.082,0.016l-0.096-0.011l-0.235-0.069l-0.466-0.065l-0.136-0.082l-0.186-0.246l-0.016-0.062l0.009-0.07l0.017-0.068l0.003-0.044
	l-0.03-0.044l-0.037,0.001l-0.031-0.006l-0.013-0.064h-0.031l-0.038,0.062l-0.046,0.104l-0.014,0.095l0.056,0.041l0.073,0.034
	l0.028,0.082L11.826,36.7l-0.024,0.087l-0.317,0.751l0.051,0.017l0.031,0.035l0.061,0.1l0.024,0.025l0.022,0.013l0.055,0.004
	l0.022,0.014l-0.009,0.034l-0.018,0.026l-0.011-0.001l-0.014,0.131l-0.048,0.082l-0.067,0.053l-0.072,0.038v0.034l0.028,0.141
	l0.025,0.085l0.036,0.078l0.019-0.124l0.043-0.11l0.071-0.062l0.096,0.031l-0.046,0.078l-0.04,0.108l0.086,0.041l0.213-0.13
	l0.102-0.008l0.085,0.096l0.032,0.123l0.019,0.137l0.033,0.109l0.077,0.046l0.064,0.057l0.061,0.128l0.045,0.144l0.016,0.103
	l-0.045,0.284l0.011,0.109l0.093,0.076l0.031-0.041l0.106,0.076l0.091,0.093l0.056,0.122l0.001,0.163l-0.071,0.253l0.016,0.289
	l0.017,0.1l0.075,0.145l0.02,0.074l-0.012,0.082l-0.036,0.084l-0.043,0.063l-0.037,0.028l-0.03,0.008l-0.074,0.026l-0.126,0.009
	l-0.013-0.002l-0.069,0.042l-0.031,0.043l0.012,0.021l0.06-0.032l0.053,0.075l-0.003,0.067l-0.051,0.115l-0.003,0.063l0.033,0.2
	l-0.007,0.037l-0.013,0.034l-0.013,0.035l0.003,0.042l0.016,0.04l0.01,0.01l0.012,0.003l0.062,0.059l0.054,0.038l0.027,0.047
	l-0.037,0.061l0.027,0.039l0.04-0.138l0.03-0.051l0.048-0.033l-0.032,0.004l-0.024-0.005l-0.019,0.007l-0.014,0.028l-0.029-0.034
	l0.116-0.082l0.131,0.01l0.122,0.074l0.091,0.109l0.036,0.08l0.006,0.06l-0.013,0.173l-0.012,0.074l-0.034,0.098l-0.047,0.091
	l-0.047,0.055l0.028-0.018l0.023-0.025l0.019-0.03l0.015-0.037h0.027l-0.042,0.066L13.1,42.853l-0.054,0.091l-0.011,0.093
	l0.042,0.043l0.214,0.067l-0.115,0.027l-0.089-0.033l-0.071-0.076l-0.131-0.21l-0.037-0.029l-0.057-0.011l-0.008,0.029l0.01,0.142
	l-0.018,0.051v0.036l0.02,0.058l0.013,0.245l0.052,0.226l0.007,0.104l-0.033,0.073l0.032,0.04l-0.049,0.1l-0.068,0.18l-0.057,0.09
	l-0.114,0.146l-0.032,0.062l-0.004,0.023l0.015,0.017l0.06,0.144l0.006,0.046l-0.016,0.081L12.58,44.75l-0.072,0.088l-0.019,0.049
	l0.034,0.104l0.147,0.111l-0.006,0.082l0.069,0.118l-0.024,0.101l-0.208,0.243l-0.02,0.04l0.004,0.045l0.03,0.077l0.023,0.018
	l0.029,0.003l0.026,0.015l0.012,0.06l0.004,0.047l0.012,0.037l0.019,0.027l0.026,0.019l-0.013-0.053l0.026-0.009l0.039,0.022
	l0.029,0.039l0.014,0.067l-0.003,0.133l0.018,0.057l0.05-0.036l0.045,0.028l0.035,0.064l0.018,0.091l0.018,0.034l0.002,0.021
	l0.091-0.056l0.058,0.038l-0.039,0.083l-0.019,0.027l0.069,0.013l0.097,0.051l0.033-0.029h0.033l0.053,0.23l0.033,0.285l0.097-0.023
	l0.05,0.093L13.5,47.335l-0.062,0.091v0.037l0.065,0.016l0.073,0.002l0.041,0.032l-0.033,0.099l0.025,0.037l0.06-0.037l-0.015-0.108
	l0.071-0.103l0.109-0.078l0.091-0.039l0.095,0.011l0.114,0.055l0.102,0.085l0.061,0.103v-0.11l0.094,0.093l0.057,0.043l0.049,0.015
	l0.034-0.022l0.046-0.075l0.021-0.016l0.043-0.004l0.029-0.013l0.425-0.433l0.035-0.065l0.03,0.024l0.013,0.006l0.045-0.03h-0.032
	l0.046-0.188l0.065-0.111l-0.004-0.039l-0.025-0.028l-0.024-0.032l-0.034-0.086l-0.024-0.096l-0.012-0.107l0.011-0.119l0.033-0.104
	l0.052-0.073l0.169-0.18l0.004-0.023v-0.043l-0.021-0.028l-0.104,0.022L15.27,45.7l-0.003,0.005l-0.012-0.027l-0.034-0.02
	l-0.025-0.024l0.02-0.043V45.55l-0.056-0.024l0.006-0.017l0.043-0.006l0.061,0.014l0.037,0.033l0.034,0.047l0.034,0.023l0.04-0.029
	l0.168,0.198l0.098,0.093l0.122,0.039l0.016-0.034l0.046-0.074l0.07-0.076l0.079-0.037l0.151,0.017l0.079,0.024l0.059,0.035
	l0.028-0.039l0.031,0.036l0.054,0.035l0.058,0.028l0.044,0.012l0.035,0.021l0.096,0.105l0.041,0.022l0.024,0.02l0.105,0.124
	l0.086,0.041l0.038,0.028l0.02,0.048h0.031l0.063-0.04l0.063-0.019l0.065,0.009l0.065,0.051l-0.018,0.044l-0.002,0.025l0.015,0.018
	l0.032,0.019l0.018-0.108l0.071-0.05l0.076-0.03l0.036-0.052l0.01-0.055l0.038-0.107l0.008-0.041l-0.015-0.037l-0.03-0.029
	l-0.014-0.031l0.032-0.048l-0.024-0.131l0.061-0.152l0.106-0.121l0.115-0.042v-0.035l-0.097-0.071l-0.033-0.051l-0.013-0.081
	l0.006-0.079l0.051-0.235l0.105-0.286l0.024-0.171l-0.069-0.097l0.103-0.351l0.012-0.149l-0.029-0.241l0.011-0.072l0.019-0.058
	l0.019-0.04l0.01-0.034l0.009-0.079l0.039-0.089l0.009-0.055l-0.005-0.077l-0.024-0.131l-0.005-0.068l0.006-0.133l0.022-0.137
	l0.037-0.114l0.052-0.064v-0.033l-0.02-0.012l-0.017-0.019l-0.019-0.011v-0.034h0.028l-0.025-0.059L17.97,42.1l0.021-0.066
	l0.03-0.07l0.02-0.013l0.028-0.001l0.026-0.014l0.014-0.049l-0.008-0.035l-0.025-0.001l-0.031,0.017l-0.024,0.019l-0.039-0.149
	l0.025-0.173l0.155-0.411l0.008-0.084l-0.093-0.069l-0.093-0.132l-0.034-0.029l-0.061-0.029l-0.044-0.071l-0.098-0.281l-0.009-0.051
	l-0.018-0.23l0.005-0.085l0.037-0.107l0.045-0.073l0.103-0.091l0.054-0.062l0.074-0.157l0.049-0.073l0.062-0.031l0.091-0.028
	l0.052-0.073l0.068-0.2l0.093-0.155l0.036-0.084l0.013-0.119l0.013-0.055l0.048-0.094l0-0.055L18.541,38.595z M12.921,46.546
	l-0.003,0.005l-0.027,0.021l-0.028,0.002L12.84,46.56l-0.009-0.03l-0.047-0.155l-0.113-0.021l-0.132,0.009l-0.107-0.07l-0.06,0.11
	v0.035h0.032v0.041l-0.018,0.114l0.064,0.176l0.152,0.258l0.016,0.04l0.004,0.036l0.015,0.027l0.05,0.007l0.045-0.012l0.019-0.022
	l0.04-0.147l0.031-0.181l0.039-0.076l-0.017-0.038l0.02-0.038l0.083-0.07l-0.02-0.013L12.921,46.546z M12.016,35.687l-0.082,0.07
	l-0.053,0.058l-0.024,0.044v0.053l-0.006,0.054l-0.017,0.052l-0.034,0.052l0.154,0.012l0.019-0.124l0.001-0.153l0.099-0.075
	l0.242-0.04l0.037-0.052l0.015-0.066l-0.012-0.064l-0.04-0.043l-0.019-0.036l-0.009-0.034l0.002-0.043l-0.054,0.041l-0.022,0.026
	l-0.008,0.026l-0.016,0.021l-0.075-0.011l-0.027,0.007l-0.008,0.058l0.008,0.075l-0.008,0.066L12.016,35.687z M16.956,35.033
	l0.029-0.015l0.033,0.027l0.034,0.046l0.025,0.002l0.018-0.04l-0.001-0.026l-0.013-0.03l0.035-0.152l0.001-0.039l-0.004-0.023
	l-0.016-0.043l-0.029-0.028l-0.033-0.007l-0.026,0.047l-0.031,0.074l-0.013,0.049l0.018,0.037l-0.044,0.105L16.956,35.033z
	 M16.909,34.682l-0.013-0.043l-0.024-0.038l-0.032-0.009l-0.026,0.024L16.79,34.62l-0.017,0.008l-0.008,0.047l-0.018,0.037
	l-0.029,0.024l-0.031,0.015l-0.019,0.021v0.043l0.017,0.049l0.077,0.015l0.167-0.035l-0.006-0.021l-0.012-0.022l-0.008-0.026
	l0.005-0.045L16.909,34.682z M40.036,49.952l-0.057,0.11l0.011,0.085l0.062,0.078l0.1,0.095l0.048-0.038l0.037-0.035l-0.023-0.072
	l-0.034-0.062l-0.047-0.05l-0.067-0.034v-0.076H40.036L40.036,49.952z M41.117,48.14l0.03-0.021l0.021-0.032l0.012-0.035
	l0.021-0.036l0.008-0.042l-0.021-0.021l-0.027-0.013l-0.038-0.01l-0.027,0.009l-0.015,0.024l-0.02,0.021l-0.041,0.021l-0.03,0.028
	v0.02l0.081,0.074L41.117,48.14z M40.031,49.478l-0.139-0.001l-0.062,0.037l-0.037,0.088l-0.006,0.091l0.034,0.041l0.059,0.027
	l0.055,0.055l0.059,0.04l0.075-0.013v-0.038l-0.021-0.023l-0.014-0.023l-0.022-0.062h0.111v-0.033l-0.021-0.013l-0.036-0.04
	l-0.028-0.022l0.03-0.077L40.031,49.478z M54.905,40.869l-0.011-0.039l0.022-0.063l-0.029-0.013l-0.021-0.026l-0.019-0.033
	l-0.262-0.629l-0.28-0.387l-0.037-0.037l-0.075-0.034l-0.061-0.083l-0.109-0.183l-0.137-0.116l-0.048-0.052l-0.086-0.147
	l-0.029-0.021l-0.082-0.018l-0.385-0.22l-0.345-0.287l0.023-0.245L52.921,38.2l-0.099-0.092l-0.018-0.057l-0.002-0.048l-0.017-0.037
	l-0.062-0.013l-0.107,0.035l-0.048-0.002l0.004-0.128l-0.143-0.07l-0.325-0.061l-0.4-0.294l-0.431-0.178l-0.046-0.028l-0.359-0.093
	l-0.151-0.101l-0.086-0.023l-0.065-0.03L50.303,36.7l-0.148-0.117l-0.069-0.022l-0.056-0.032l-0.158-0.234l-0.143-0.141
	l-0.306-0.225l-0.61-0.337l-0.719-0.233l-0.087-0.09h-0.027v0.041h-0.028l-0.086-0.074l-0.991-0.336l-0.164-0.113l-0.065-0.065
	l-0.074-0.06l-0.255-0.07l-0.663-0.361l-0.785-0.36l-0.057-0.061l-0.064-0.05l-0.265-0.085l-0.254-0.176l-0.115-0.11l-0.091-0.131
	l-0.064-0.187l-0.02-0.226l0.036-0.21l0.105-0.143l0.427-0.222l0.149-0.12l0.11-0.137l0.073-0.065l0.085-0.027l0.077-0.035
	l0.086-0.082l0.074-0.09l0.037-0.062v-0.099l-0.002-0.072l-0.038-0.208l-0.03-0.106l0.012-0.088l-0.076,0.003l-0.086-0.152
	l-0.119-0.036l-0.005-0.01l-0.351-0.09l-1.057,0.129l-0.683-0.039l-0.692,0.119l-0.19-0.005l-0.496-0.114l-0.487,0.002l-0.091-0.019
	l-0.085-0.017l-0.08-0.043l-0.172-0.126l-0.075-0.026l-0.044-0.031l-0.114-0.15l-0.058-0.052l-0.175-0.059l-0.338-0.062
	l-0.148-0.068l-0.15-0.125l-0.081-0.05l-0.07-0.015l-0.025-0.006l-0.069-0.032l-0.048-0.082l-0.026-0.11l-0.025-0.231l-0.032-0.087
	l-0.064-0.055l-0.17-0.033l-0.241-0.099l-0.148-0.096l-0.55-0.541l-0.174-0.289l-0.129-0.113l-0.303-0.199l-0.265-0.237
	l-0.608-0.727l-0.027-0.062l-0.023-0.086l-0.259-0.418l-0.087-0.181l-0.15-0.386l-0.163-0.588l-0.166-0.601l-0.069-0.481
	l-0.058-0.203l-0.136-0.29l-0.049-0.081l-0.019-0.048l-0.025-0.206l-0.018-0.041l-0.066-0.114l-0.599-1.535l0.031-0.091
	l-0.037-0.076l-0.074-0.052l-0.08-0.021l-0.041-0.042l-0.048-0.095l-0.06-0.095l-0.082-0.043l-0.012-0.012l-0.008-0.025L34,21.208
	l-0.024-0.013l-0.024,0.007l-0.013,0.012l-0.01,0.013l-0.012,0.005l-0.022,0.023l-0.033,0.042l-0.04,0.023l-0.111-0.066
	l-0.196-0.068l-0.042-0.052L33.39,21.1L32.9,20.795l-1.28-1.123l-0.036-0.039l-0.04-0.065l-0.279-0.113l-0.164-0.134l-0.08-0.048
	l-0.2-0.029l-0.01-0.004l-0.183-0.061l-0.079-0.045l-0.128-0.103l-0.123-0.126l-0.238-0.322l-0.113-0.046l-0.153-0.122l-0.134-0.145
	l-0.085-0.157l-0.171-0.169l-0.114-0.158L29.2,17.623l-0.078-0.218l-0.025-0.117l-0.008-0.124l-0.013-0.028l-0.058-0.078L29,17.022
	l-0.011-0.042l-0.017-0.153l-0.128-0.587l-0.015-0.258l0.024-0.414l-0.01-0.064l-0.036-0.039l-0.037-0.092l-0.056-0.188
	l-0.025-0.254l0.029-0.233l0.11-0.405h-0.057v-0.037l0.108-0.098l0.044,0.002L29,14.215l0.109,0.107l0.043,0.065l0.078,0.069
	l0.092-0.009l0.076-0.056l0.034-0.102l-0.033-0.006l-0.053-0.022l-0.029-0.008v-0.04l0.048-0.017l0.032-0.043l0.004-0.044
	l-0.106-0.046l0.003-0.056l0.048-0.096l0.013-0.039l0.036-0.051l0.048-0.029l0.047,0.022l0.021,0.064l-0.017,0.073l-0.063,0.136
	l0.033,0.051l0.028,0.065l0.02,0.058l0.006,0.026l0.123-0.148l0.057-0.097l0.023-0.094l0.008-0.19l0.018-0.064l0.032-0.005h0.025
	l0.011-0.036l0.015-0.032l0.035-0.057l-0.017-0.039l0.041-0.063l0.004-0.055l-0.026-0.06l-0.046-0.044l-0.06-0.022l-0.069,0.002
	v0.044l0.014,0.003l0.028-0.005l0.014,0.002l-0.056,0.043l-0.089-0.092l-0.084-0.111l-0.043-0.027l-0.034-0.026l-0.067-0.071
	l0.013-0.062l-0.051-0.042l-0.075-0.038L29.2,12.848l0.049,0.086l0.025,0.072l-0.012,0.073L29.2,13.17l-0.058-0.081l0.024-0.015
	l0.012-0.013l0.019-0.011l0.035-0.006v-0.04l-0.056-0.079l-0.042-0.086l-0.051-0.086L29,12.683l0.011,0.041l0.007,0.017l0.014,0.023
	l-0.091,0.008l-0.042-0.06l0.003-0.105l0.041-0.131v0.025l0.005,0.058l-0.005,0.039l0.046,0.025l0.042,0.015l-0.028-0.224L29,12.216
	l-0.025-0.083l-0.047-0.086l-0.025-0.086l0.039-0.09l-0.046,0.022l-0.094,0.095l-0.061,0.047l0.013,0.013l0.005,0.003l0.013,0.021
	l-0.081-0.001l-0.07-0.044l-0.038-0.07l0.014-0.086l-0.04-0.037l-0.017-0.036l0.012-0.031l0.046-0.018l-0.018-0.104l0.004-0.086
	l-0.017-0.062l-0.083-0.035l0.019,0.068l-0.011,0.081l-0.032,0.069l-0.046,0.028l-0.05-0.023l-0.037-0.125l-0.045-0.054l0.022-0.127
	l0.036-0.016l0.047,0.034l0.055,0.023l0.089-0.015l0.032-0.042l0.019-0.064l0.047-0.08l-0.035-0.079l0.018-0.021l0.04-0.002
	l0.032-0.02l0.012-0.06l-0.004-0.042l0.008-0.043l0.042-0.059l-0.044-0.043L28.687,10.8l0.017-0.057l0.038-0.055h-0.027v-0.037
	l0.084-0.162l0.154-0.15l0.171-0.095l0.136,0.003l-0.012,0.058l0.056,0.018l0.076-0.01l0.051-0.028v-0.037l-0.14-0.058l-0.026-0.055
	l0.053-0.096l0.029,0.126h0.028l0.031-0.033l0.072,0.066l0.068,0.003v-0.036l-0.04-0.072l0.069-0.108l0.112-0.1l0.09-0.049
	l0.015,0.085l0.034,0.054l0.079,0.085l0.028-0.004l0.107-0.077l0.051-0.021l-0.035,0.076l-0.046,0.05l-0.061,0.028l-0.073,0.009
	l-0.037,0.038l-0.005,0.084l-0.023,0.072l-0.091,0.013v-0.044l0.041,0.002l0.016-0.002l-0.002-0.006l-0.014-0.022l-0.013-0.017
	l-0.003,0.009l-0.009-0.014l-0.042,0.016l-0.045,0.003l-0.047-0.005l0.058,0.081l-0.029,0.028l-0.021,0.002l-0.016-0.024l-0.02-0.05
	h-0.03l-0.002,0.055l-0.015,0.028L29.5,10.376l-0.04-0.006l0.02,0.054l-0.027,0.064l-0.047,0.077l-0.032,0.088l0.057-0.012
	l0.115-0.072l0.152-0.038l0.034-0.021l0.07-0.06l0.414-0.154l0.708-0.341l0.682-0.446l0.158-0.037l0.33-0.012l0.103-0.032
	l0.044-0.061l0,0l0.031-0.101l0.146-0.122l0.049-0.085L32.31,9.135l-0.086,0.012l-0.069-0.045L32.134,9l0.045-0.083l0.084-0.052
	l0.094-0.006V8.815L32.31,8.791l-0.016-0.057l0.013-0.056l0.035-0.026l0.05,0.019l0.035,0.083l0.042,0.021l0.034-0.019l0.048-0.085
	L32.7,8.617l0.044-0.006l0.026,0.015l0.102,0.103l0.036,0.018l0.405,0.095l0.074-0.026l0.052,0.087l0.171,0.036l0.036,0.103
	l-0.027,0.05l-0.065,0.043l-0.075,0.033l-0.061,0.016l0.104,0.046l0.11-0.034l0.1-0.075l0.073-0.078l0.046-0.023l0.115-0.021
	l0.022-0.038l0.021-0.024l0.153-0.074l-0.112-0.021l-0.018-0.116l0.045-0.131l0.069-0.062l0.097,0.018l0.229,0.102L34.55,8.71
	l0.331,0.349l0.055,0.072l0.062,0.115l0.015,0.104l-0.076,0.035l0.157,0.082l0.04,0.066l0.038,0.043l0.052,0.016l-0.091,0.02
	l-0.124-0.015L34.896,9.6l-0.048,0.074l-0.029,0.044l0.206-0.017l0.165,0.088l0.199-0.02l0.083-0.104l0.081-0.099l0.032-0.078
	L35.58,9.477l-0.003-0.006L35.54,9.467l-0.062-0.035l-0.044-0.049l-0.333-0.562l-0.29-0.131l-0.04-0.032L34.605,8.53l-0.069-0.021
	l-0.145-0.018l-0.117-0.063l-0.029-0.059L34.21,8.302l0.014-0.205l0.126-0.286l0.037-0.086l0.03-0.115l0.031-0.124l-0.072-0.113
	l-0.02,0.006l-0.122,0.027l-0.136,0.065l-0.125,0.009L33.86,7.35l-0.002-0.008l-0.002-0.006l-0.003-0.005l-0.005-0.006l-0.02-0.016
	l-0.055-0.063l0.064-0.059l0.021-0.014l0.033-0.043l0.013-0.041l-0.011-0.039l-0.035-0.035l0.097-0.128l0.072-0.055l0.394-0.3
	l0.119-0.221l-0.017-0.06l-0.016-0.054L34.468,6.19L34.411,6.18l-0.123,0.014l-0.107-0.018l-0.126-0.124l-0.079-0.056l-0.116-0.022
	l-0.058-0.034l-0.126-0.01l-0.063-0.022l0.061,0.107l-0.114,0.018l-0.036-0.053l-0.014-0.083L33.453,5.82V5.819v0.002l-0.027-0.15
	l-0.022-0.072l-0.032-0.061l0.108-0.067l0.019-0.031l0.061-0.104l0.055-0.127l0.045-0.056l0.056-0.006l0.05-0.023l0.1-0.074
	l0.194-0.104L34.16,4.84l0.09-0.126l0.102-0.097L34.492,4.6l0.104,0.003l0.078-0.042l0.036-0.072l0.01-0.022l0.007-0.155
	l0.023-0.032l0.016-0.037l0.008-0.043V4.15l-0.066,0.013l-0.063-0.007L34.14,3.992l-0.179-0.007l-0.033-0.021l-0.059-0.066
	L33.84,3.886l-0.255,0.018L33.4,3.871l-0.425,0.091l-0.169-0.008l-0.089-0.036l-0.266-0.163l-0.342-0.08l-0.979-0.068L30.894,3.45
	l-0.104-0.035l-0.037-0.012l-0.033,0.004l-0.066,0.027l-0.039,0.001l-0.038-0.018L30.499,3.36l-0.032-0.015l-0.009-0.003
	l-0.207-0.021l-0.242,0.032l-0.061-0.006l-0.07-0.033l-0.129-0.088l-0.127-0.022l-0.101-0.018l-0.17-0.068l-0.144-0.129l-0.08-0.195
	l-0.037-0.133l-0.069-0.045l-0.087-0.012L28.847,2.57l-0.04-0.028l-0.024-0.024l-0.009-0.041l0-0.079l0.011-0.07l0.016-0.043
	l0.011-0.043l-0.002-0.074l-0.037-0.135l-0.066-0.045l-0.176-0.006L28.474,1.96l-0.026-0.029l-0.022-0.038l-0.048-0.049L28.331,1.82
	l-0.098-0.018l-0.044-0.018l0.061-0.062l0-0.056L28.221,1.61l-0.027-0.068L28.168,1.4L28.15,1.331L28.123,1.27l0.044-0.106
	l0.253-0.141l0.089-0.121l0.002-0.084l0.001-0.078l-0.099-0.033l-0.199,0.039l-0.07,0.014l-0.425,0.22l-0.298,0.015l-0.184,0.065
	l-0.179,0.096l-0.144,0.113l-0.19,0.031l-0.045,0.03l-0.082,0.067l-0.049,0.011l-0.078-0.029l-0.135-0.102l-0.08-0.009l-0.032,0.005
	L26.192,1.27l-0.005-0.002h-0.002l-0.216-0.043L25.87,1.235L25.749,1.27h0l-0.002,0.001l0,0l-0.039,0.021l-0.039,0.007L25.63,1.293
	l-0.034-0.022l-0.022-0.029l-0.025-0.023l-0.027-0.015l-0.074-0.019l-0.042,0.011l-0.037,0.028l-0.031,0.047l0,0.001l-0.143,0.138
	l-0.128-0.007l-0.13-0.062l-0.149-0.033l-0.294,0.049l-0.29,0.094l-0.075,0.045l-0.271,0.269l-0.035,0.076L23.78,2.053L23.701,2.24
	l-0.004,0.023l0.005,0.063l-0.007,0.03l-0.018,0.02L23.63,2.398l-0.017,0.016L23.52,2.575l-0.059,0.061l-0.06,0.009l-0.07-0.023
	l-0.146-0.014l-0.071,0.01l-0.14,0.048l-0.041,0.002L22.89,2.65l-0.071-0.062L22.781,2.57l-0.042-0.001l-0.081,0.022l-0.04-0.002
	l-0.12-0.067l-0.05-0.019L22.36,2.532L22.315,2.53L22.29,2.478l0.02-0.03l0.093-0.076l0.021-0.042l-0.04-0.061l-0.32-0.192
	l-0.064-0.016l-0.075,0.008l-0.424,0.116l-0.173-0.019l-0.137-0.11l-0.021,0.196l-0.015,0.055l-0.024,0.039l-0.091,0.11l0.007,0.09
	l0.03,0.089l0.011,0.084l-0.051,0.077l-0.072,0.045l-0.017,0.056l0.004,0.069l-0.01,0.086L20.9,3.124l-0.045,0.043l-0.019,0.058
	l0.034,0.116l0.076,0.087l0.178,0.02l0.088,0.073l0.031,0.117L21.24,3.794l-0.033,0.15l-0.026,0.043l-0.033,0.055l-0.076,0.014
	l-0.299-0.078L20.627,3.99l-0.054-0.009L20.527,3.96L20.5,3.932l-0.022-0.03l-0.033-0.029l-0.173-0.06l-0.018-0.066l0.022-0.124
	l-0.008-0.068L20.203,3.5l-0.108,0.002l-0.397,0.113l-0.04,0.022l-0.018,0.045L19.588,3.88l-0.034,0.047l-0.091,0.09L19.428,4.07
	l-0.006,0.044l-0.001,0.133l-0.018,0.064l0.005,0.057l0.011,0.044l0.02,0.034l0.036,0.024l-0.073,0.125l0.066,0.082l0.123,0.048
	l0.186,0.037l0.073,0.029l0.031,0.066l-0.032,0.133l-0.031,0.04L19.73,5.11l-0.032,0.059l-0.021,0.082l-0.002,0.054l0.017,0.052
	l0.038,0.066L19.901,5.6l0.055,0.107L19.9,5.822l-0.117,0.073l-0.176,0.066L19.469,5.96l-0.003-0.137l-0.042-0.103l-0.165-0.146
	l-0.061-0.083L19.17,5.359l-0.003-0.12L19.14,5.141l-0.104-0.068L18.95,5.05l-0.083-0.006l-0.182,0.032l-0.28,0.143l-0.085,0.027
	l-0.055-0.011l-0.102-0.062l-0.044-0.001l-0.046,0.052l-0.009,0.069l0.008,0.068l-0.003,0.048l-0.063,0.088L17.929,5.53l-0.48-0.007
	l-0.097-0.035l-0.089-0.06L17.21,5.355l-0.083-0.219l-0.037-0.03l-0.092-0.052l-0.031-0.029l-0.008-0.034l0.006-0.092l-0.024-0.581
	l-0.013-0.037l-0.034,0.008l-0.067,0.05l-0.028,0.038l-0.014,0.042l-0.021,0.036l-0.045,0.018L16.685,4.46l-0.107-0.102
	l-0.003-0.075l-0.082-0.022l-0.204,0.025L16.208,4.36l-0.072,0.146l-0.033,0.149l0.04,0.081l0.056,0.039l0.008,0.061l-0.01,0.076
	v0.086l0.056,0.214l0.006,0.078l-0.026,0.133L16.11,5.68l-0.062,0.216l-0.038,0.062l-0.049,0.045l-0.05,0.023L15.866,6.06
	l-0.023,0.06l-0.02,0.069l-0.03,0.059l-0.002,0.004l-0.304,0.205l-0.079,0.117L15.393,6.65l0.009,0.135L15.39,6.859l-0.035,0.057
	l-0.039,0.023l-0.092,0.028l-0.108,0.083l-0.018,0.068l0.075,0.209l-0.138,0.127L15.027,7.47l-0.002,0.016L15.027,7.5l0.009,0.015
	l0.045,0.046l0.035,0.109l0.038,0.057l0.041,0.022l0.091,0.019l0.039,0.025l0.047,0.1l-0.016,0.102l-0.104,0.203L15.117,8.36
	l-0.125-0.023l-0.137-0.061L14.69,8.327l0.016-0.093l0.025-0.071l0.016-0.073L14.74,7.985l-0.023-0.078l-0.035-0.079l-0.073-0.13
	l-0.041-0.096L14.54,7.565l-0.027-0.022l-0.241-0.128l-0.063-0.023l-0.071-0.005l0.007-0.016l0.016-0.029l0.073-0.169l0.12-0.145
	l0.062-0.142l-0.107-0.14l-0.062-0.021l-0.129,0.002l-0.067-0.01l-0.033-0.021l-0.03-0.056l-0.013-0.005l-0.021-0.009L13.927,6.64
	l-0.064,0.057l-0.031,0.018L13.758,6.71l-0.194-0.113l-0.082-0.029l-0.04-0.02l-0.265-0.391l-0.119-0.121l-0.116-0.059l-0.109-0.045
	L12.757,5.87L12.71,5.773l-0.016-0.147l0.015-0.155l0.068-0.312l0.014-0.174l-0.002-0.184l-0.017-0.137l-0.057-0.083l-0.12-0.021
	l-0.056,0.012L12.361,4.61l-0.114,0.062l-0.089,0.095l-0.036,0.077l0.016,0.026l0.028,0.021l0.001,0.061l-0.025,0.056l-0.041,0.049
	l-0.048,0.037l-0.119,0.061L11.73,5.425l-0.088,0.061l-0.181,0.041l-0.09,0.041L11.29,5.649l-0.042,0.06L11.23,5.761l0.015,0.023
	l0.098,0.085l0.124,0.238l0.012,0.222l-0.09,0.194l-0.183,0.158l-0.046,0.016l-0.085,0.009L11.03,6.739L11,6.801l-0.01,0.069v0.066
	l-0.023,0.171L10.961,7.12L10.92,7.209l-0.002,0.013l-0.053,0.067l-0.029,0.025l-0.04,0.012l-0.297,0.067l-0.11,0.078l-0.092,0.176
	l-0.005,0.01l-0.014,0.062l0.003,0.032l-0.01,0.02l-0.051,0.028l-0.026-0.002L10.12,7.774l-0.116,0.003L9.803,7.704L9.762,7.708
	L9.731,7.723l-0.036,0.01L9.644,7.714L9.638,7.699L9.559,7.585L9.497,7.526L9.43,7.488L9.003,7.382L8.934,7.419l-0.04,0.068
	L8.848,7.546L8.76,7.558L8.636,7.61L8.389,7.791L8.254,7.838L7.94,7.805L7.885,7.823L7.768,7.896L7.51,8.003L7.384,8.025
	L7.247,8.028L7.119,8.002L7.021,7.943l-0.188-0.21l-0.06,0.029L6.729,7.818L6.695,7.891l-0.026,0.08L6.611,8.066l-0.084,0.07
	l-0.094,0.05L6.344,8.212L6.24,8.211L6.211,8.216L6.196,8.214L6.163,8.191L6.146,8.189L6.127,8.205L6.109,8.232L6.097,8.259V8.27
	L5.972,8.286L5.909,8.325L5.855,8.412l-0.022,0.1L5.829,8.618L5.84,8.725l0.047,0.248l0.085,0.128l0.113,0.084l0.109,0.021
	L6.25,9.228l0.095,0.095l0.057,0.042l0.135,0.035l0.052,0.036l0.025,0.088l-0.01,0.034L6.556,9.663l-0.011,0.05l0.009,0.048
	L6.598,9.83l0.016,0.044l0.024,0.247l0.031,0.087l0.191,0.106l0.182,0.137l0.014,0.022l0.027,0.043l0.03,0.074l0.034,0.066
	l0.056,0.042l0.18,0.078l0.032,0.025l-0.003,0.073l-0.038,0.092l-0.086,0.154l-0.135,0.162l-0.021,0.034l0.021,0.172l0.042,0.119
	v0.093l-0.114,0.096l-0.08,0.146l-0.028,0.029l-0.022-0.01L6.898,11.9l-0.033-0.013l-0.147,0.04l-0.149,0.068l-0.054,0.052
	l-0.073,0.127l-0.06,0.056l-0.038,0.009l-0.098,0.002l-0.033,0.015l-0.022,0.05l0.019,0.032l0.025,0.027l-0.009,0.037L6.09,12.468
	l-0.151-0.054l-0.153-0.083l-0.147-0.024l-0.031,0.015L5.531,12.38l-0.037,0.021l-0.033,0.005l-0.076-0.003L5.349,12.41
	l-0.146,0.084L5.19,12.506l-0.062,0.052l-0.049,0.066l0.073,0.112l0.068,0.06l0.007,0.041l-0.005,0.048l0.012,0.053l0.05,0.087
	l0.043,0.037l0.146,0.013l0.11,0.08l0.026,0.17l-0.007,0.33l0.073,0.123l0.137,0.118l0.288,0.169l0.08,0.019l0.207-0.041
	l0.073,0.007l0.208,0.086l0.075,0.083l0.018,0.029l0.01,0.035L6.769,14.3l-0.004,0.016l0.001,0.028l-0.008,0.005l-0.02,0.092
	l-0.004,0.008l0.048,0.128l0.022,0.145l0.016,0.05l0.127,0.24l0.024,0.077l-0.074,0.001l-0.151-0.045l-0.077,0.001l-0.097,0.053
	l-0.076,0.095l-0.03,0.119l0.046,0.125l-0.058,0.043L6.31,15.729l-0.212,0.164l-0.044,0.078l0.013,0.183l0.092,0.163l0.128,0.135
	l0.109,0.091l-0.141,0.077L6.227,16.67l-0.036,0.183L6.18,16.889l-0.001,0.028l0.016,0.055l0.017,0.026l0.091,0.108l0.034,0.058
	l0.049,0.117l0.024,0.045l0.037,0.039l0.083,0.06l0.039,0.046l0.026,0.058l0.015,0.054l0.019,0.051l0.039,0.045l0.057,0.023
	l0.049-0.009l0.05-0.018l0.056-0.004l0.053,0.015l0.246,0.131l0.168,0.062l0.444,0.274l0.08,0.034l0.109,0.019l0.057,0.019
	l0.029,0.042l0.021,0.049l0.04,0.038l0.04,0.01l0.168,0.005l0.727-0.21l0.12-0.01l0.172-0.112l0.13,0.022l-0.058,0.188l0.05,0.108
	l0.093,0.093l0.049,0.106l0.018,0.035L9.627,18.69l-0.046,0.062L9.52,18.798L9.474,18.85l-0.027,0.07l-0.035,0.13L9.38,19.117
	l-0.093,0.104l-0.216,0.183l-0.085,0.134l-0.181,0.2l-0.065,0.12l0.019,0.146l0.083,0.277l0.044,0.001l0.043,0.018l0.033,0.026
	h0.055l0.116-0.039h0.514l0.176-0.04l0.206-0.137l0.728-0.178l0.3-0.202l0.102-0.025l0.051-0.027l0.021-0.046l0.01-0.029
	l0.027-0.032l0.031-0.027l0.109-0.045l0.124-0.144l0.096-0.022v-0.037l-0.063-0.119l0.068-0.136l0.198-0.224l0.031-0.069
	l0.026-0.089l0.005-0.044l-0.005-0.094l0.013-0.042l0.098-0.144l0.054-0.062l0.063-0.055l0.121-0.071l0.233-0.075l0.104-0.052
	l0.059-0.064l0.001-0.062l-0.009-0.063l0.023-0.069l0.022-0.021l0.063-0.042l0.012-0.014l0.005-0.042l0.013-0.032l0.042-0.065
	l-0.021-0.113l0.091-0.118l0.31-0.209l0.102-0.1l0.05-0.02l0.071-0.013l0.257-0.186l0.032-0.006l0.035,0.006h0.032l0.028-0.021
	l0.043-0.05l0.122-0.102l0.052-0.028l0.106-0.019l0.271,0.021l0.044,0.066l0.032,0.021l0.097,0.021l0.192,0.005l0.039-0.016
	l0.122,0.068l0.203,0.074l0.421,0.077l0.117,0.062l0.078,0.136l-0.009,0.066l0.077,0.061l0.191,0.075l-0.003-0.09l0.017-0.073
	l0.03-0.062l0.04-0.057l0.134,0.101l0.439,0.245l0.028,0.132l0.201,0.087l0.029,0.056l0.032,0.046l0.071,0.01l0.078-0.012
	l0.05-0.023l0.022,0.075l0.039,0.052l0.051,0.038l0.189,0.088l0.069,0.05l0.029,0.073l0.026,0.008l0.146,0.171l0.043,0.021
	l0.05,0.013l0.123,0.009l0.042,0.025l0.113,0.109l0.046,0.024l0.213,0.198l0.201,0.093l0.028,0.046l0.024,0.076l0.042,0.007
	l0.016-0.029l-0.055-0.034l0.024-0.048l0.011-0.018l0.025-0.017v-0.036l-0.039-0.014l-0.032-0.023l-0.025-0.035l-0.021-0.047
	l0.019-0.015l0.02-0.018l0.019-0.01l-0.027-0.043l0.075-0.009l0.134,0.121l0.046-0.03l0.069,0.076l0.141,0.113l0.065,0.067
	l0.038,0.023l0.042-0.006l0.034-0.024l0.014-0.033l0.019-0.024l0.041,0.011l0.068,0.034l0.086,0.025l0.153,0.105l0.079,0.024
	l0.062,0.05l0.129,0.221l0.185,0.135l0.123,0.203l0.174,0.427l0.052,0.216l0.129,1.387l0.093,0.437l0.038,0.091l0.137,0.067
	l0.06,0.067l0.267,0.371l0.334,0.698l0.047,0.115l0.019,0.116l0.007,0.234l0.016,0.12l0.034,0.098l-0.03,0.074l-0.015,0.123v0.121
	l0.014,0.068l-0.092,0.316l-0.062,0.104l-0.104,0.089l0.092,0.282l0.079,0.086l0.117-0.054l-0.013-0.022l-0.018-0.06l0.185-0.06
	l0.206,0.006l0.205,0.055l0.29,0.134l0.053,0.04l0.04,0.058l0.02,0.077l-0.013,0.037l-0.024,0.024l-0.012,0.038l0.003,0.132
	l-0.007,0.107l-0.04,0.091l-0.1,0.084l0.667,0.23l0.221,0.119l0.12,0.13l0.036,0.021l0.037,0.034l0.023,0.081l0.02,0.092
	l0.022,0.067l0.2,0.118l0.102,0.084l0.014,0.11l0.068,0.033l0.042,0.091l0.037,0.107l0.054,0.078l0.036-0.005l0.048-0.024
	l0.041-0.005l0.031,0.102l0.087,0.144l0.009,0.091l-0.002,0.139l-0.038,0.134l-0.064,0.094l-0.094,0.007l-0.12-0.043l-0.059,0.02
	l-0.051,0.075l0,0.062l0.033,0.088l0.051,0.064l0.117,0.04l0.056,0.072l0.033,0.028l0.008-0.007l0.03-0.01h0.041l0.039,0.017
	l0.011-0.073l0.061-0.092l0.014-0.086l0.029-0.045l0.067-0.02l0.077-0.001l0.056,0.01l0.309,0.113l0.122,0.002l-0.032-0.039
	l0.046-0.004l0.046,0.007l0.042,0.015l0.039,0.021v0.042l0.103,0.036l0.287,0.153l0.208,0.06l0.5,0.392l0.1,0.153l0.226,0.469
	l0.029,0.093l0.011,0.089l0.019,0.048l0.091,0.122l0.033,0.077l0.059,0.046l0.064,0.102l0.055,0.109l0.021,0.07l0.051-0.012
	l0.323-0.009l0.074,0.036l0.075,0.052l0.068,0.061l0.055,0.065l0.042,0.02l0.118,0.018l0.024,0.041l0.015,0.072l0.037,0.043
	l0.047,0.028l0.407,0.317l0.096,0.133l0.102,0.182l0.048,0.111l0.02,0.109l0.003,0.113l0.015,0.108l0.035,0.099l0.065,0.08
	l0.033,0.014l0.125,0.024l0.036,0.012l0.065,0.055l0.109,0.034l0.066,0.051l0.44,0.398l0.407,0.483l0.31,0.474l0.065,0.064
	l0.03-0.06l0.049-0.041l0.103,0.042l0.292,0.189l0.062,0.014l0.328,0.016l0.087,0.028l0.132,0.079l0.126,0.108l0.232,0.271
	l0.056,0.085l0.081,0.16l0.049,0.071l0.04,0.093l0.015,0.091l0.033,0.072l0.099,0.031l0.093-0.025l0.1-0.136l0.154-0.052l0.15-0.099
	l0.074-0.031l0.339-0.065l0.161,0.004l0.652,0.31l0.081,0.095h0.031l0.03-0.043l0.022,0.025l0.022,0.054l0.04,0.04l0.039,0.009
	l0.132-0.009l-0.05-0.165l0.128-0.084l0.262-0.036l0.026,0.049l0.065,0.001l0.125-0.032l0.055,0.022l0.288,0.257l0.256,0.324
	l0.136,0.235l0.11,0.222l0.01,0.057l0.008,0.117l0.015,0.053l0.051,0.054l0.147,0.098l0.232,0.411l0.097,0.262l0.034,0.202
	l-0.047,0.227l0.026,0.039l0.116,0.017l0.03,0.016l-0.005-0.075l-0.017-0.072l-0.005-0.065l0.026-0.051l0.057-0.013l0.064,0.023
	l0.101,0.061l0.128,0.018l0.069,0.083l0.089-0.001l0.038-0.108l0.045-0.059l0.104-0.036l0.115-0.011l0.076,0.005l0.075,0.06
	l0.154,0.172l0.074,0.092l0.066,0.043l0.049,0.06l0.047,0.026l0.065,0.033l0.09-0.024l0.075,0.061l0.056,0.081l0.024,0.1
	l-0.014,0.089l-0.135,0.051l-0.165,0.164l-0.027,0.068l-0.046,0.036l-0.031,0.017l-0.085,0.008l-0.091,0.046l-0.04,0.104
	l0.007,0.114l0.055,0.077l0.056-0.072l0.19-0.102l0.085-0.073l0.208-0.05l0.062-0.044l0.124,0.069l0.116,0.035l0.114-0.023
	l0.176-0.154l0.051-0.017l0.22,0.013l0.052-0.013l0.124-0.098l0.135-0.054l0.125,0.036l0.116,0.094l0.106,0.111l0.11,0.139
	l0.114,0.188l0.363,0.776l0.093,0.186l0.011,0.156l-0.025,0.057l-0.089,0.037l-0.038,0.036l-0.043,0.03l-0.05,0.011l-0.039,0.021
	v0.052l0.027,0.095l-0.029,0.117l-0.106,0.146l0.019,0.093l0.045,0.02l0.067,0.057l0.08-0.021l0.037,0.039l0.041,0.027l0.113,0.049
	l0.083,0.081l0.05,0.11l0.051,0.034l0.078,0.014l0.127-0.036l0.07-0.009l0.061,0.026l0.263,0.277l0.082,0.039l0.102,0.064
	l0.124,0.142l0.065,0.144l-0.073,0.062v0.036l0.045,0.004l0.045-0.006l0.042-0.014l0.04-0.021l0.048,0.013l0.121,0.161l0.073,0.028
	l0.207,0.028l0.081-0.033l0.127-0.161l0.148-0.093l0.074-0.115l0.093-0.055l0.314,0.024l0.059-0.024l0.002,0.069l0.023,0.04
	l0.088,0.075l0.114,0.189l0.144,0.152l0.061,0.091l0.027,0.111l0.029,0.076l0.139,0.209l0.032,0.122l-0.053,0.208l0.008,0.032
	l0.031,0.022l0.021,0.056l0.021,0.105v-0.032l0.073,0.547l0.039,0.091l0.087,0.142l0.058,0.206l0.04,0.14l0.032,0.135l0.037,0.066
	l0.118,0.084l0.118,0.12l0.104,0.195l0.157,0.208l0.161,0.504l0.035,0.188l0.17,1.264l0.236,0.546l0.062,0.1l0.062,0.044
	l0.086,0.019l0.062,0.05l0.042,0.08l0.022,0.108l0.007,0.227l-0.028,0.228l-0.058,0.201l-0.092,0.151l-0.111,0.093l-0.069,0.036
	l-0.063,0.017l-0.301-0.036L44.4,48.391l-0.146,0.068l-0.264,0.178l-0.174,0.059l-0.079,0.042l-0.032,0.062L43.7,48.85l-0.006,0.03
	l0.006,0.029l0.037,0.057l0.025,0.024l0.056,0.026l0.03,0.021l0.123,0.139l0.066,0.148l0.009,0.179l-0.056,0.229l-0.313,0.653
	l-0.059,0.238l-0.012,0.029l-0.061,0.053l-0.012,0.027l-0.038,0.04l-0.428,0.131l-0.142,0.064l-0.074,0.111l0.022,0.182l0.036,0.127
	l0.006,0.1l-0.026,0.093l-0.06,0.097l-0.015,0.082l0.036,0.094l0.109,0.168l-0.085,0.079l-0.014,0.098l0.043,0.109l0.086,0.114
	l0.078,0.07l0.101,0.067l0.11,0.052l0.111,0.029l0.756-0.04l0.246,0.075l0.062-0.031l0.197-0.042l0.06-0.038l0.055-0.049
	l0.046-0.061l0.04-0.068l0.06-0.166l0.111-0.561l0.073-0.172l0.572-0.709l0.142-0.126l0.398-0.208l0.133-0.047l0.128-0.108
	l0.045-0.013l0.058-0.082l0.165-0.155l0.034-0.07l0.03-0.39v-0.138l-0.075-0.359l-0.042-0.405l0.001-0.096l-0.01-0.017l-0.049-0.036
	l0.016-0.125l0.051-0.096l0.053-0.083l0.046-0.151l0.047-0.068l0.104-0.1l0.252-0.129l0.036-0.037l0.035-0.044l0.166-0.123
	l0.464-0.211l0.403-0.11l0.094-0.008l0.101,0.016l0.063,0.04l0.107,0.127l0.084-0.054l0.119-0.037l0.103,0.02l0.037,0.109
	l0.062-0.111l0.037-0.049l0.031-0.021l0.015-0.022l0.141-0.127l-0.003-0.029l0.003-0.211l0.019-0.037l0.042-0.036l0.081-0.057
	l-0.059-0.009l-0.142-0.051l-0.028-0.029l-0.015-0.044l-0.099-0.196l-0.01-0.163l0.075-0.31l0.023-0.171l-0.016-0.062l-0.072-0.12
	l-0.029-0.062l-0.014-0.071l0.002-0.071l0.031-0.301l0.152-0.365l-0.146-0.016l-0.148-0.072l-0.131-0.104l-0.089-0.103l-0.052-0.079
	l-0.05-0.059l-0.067-0.036l-0.104-0.012l-0.074-0.023l-0.197-0.164l-0.25-0.125l-0.038-0.041l-0.025-0.086l-0.062-0.079
	l-0.077-0.067l-0.064-0.044l-0.136-0.046l-0.522-0.029l-0.141-0.062l-0.19-0.131l-0.125-0.155l0.053-0.137v-0.035l-0.109-0.141
	l-0.052-0.15l0.008-0.164l0.068-0.175l0.144-0.26l0.197-0.186l0.065-0.127l0.069-0.058l0.041-0.068l-0.075-0.165l-0.06-0.204
	l-0.012-0.068l0.032-0.207l0.085-0.127l0.064-0.059l0.164-0.149l0.152-0.259l0.062-0.039l0.028-0.057l0.102-0.32l0.087-0.174
	l0.339-0.49l0.203-0.296l0.269-0.26l0.308-0.146l0.312,0.021l0.038,0.014l0.094,0.001l0.041,0.019l0.024,0.037l0.02,0.051
	l0.022,0.043l0.035,0.019l0.085-0.028l0.077-0.054l0.076-0.033l0.089,0.037l-0.021,0.027l-0.008,0.013l0.177-0.059l0.081,0.006
	l-0.03,0.09l-0.085,0.046L49.607,38.9l-0.082,0.031l0.085,0.095l-0.021,0.086l-0.082,0.071l-0.097,0.044l0.054,0.078l0.112,0.061
	l0.235,0.084l0.229,0.135l0.071,0.02l0.027,0.016l0.073,0.073l0.029,0.021l0.044,0.007l0.087-0.009l0.04,0.002l0.226,0.131
	l0.075,0.019l1.403,0.075l0.065,0.024l0.207,0.165v0.035h-0.055l0.047,0.048l0.026,0.073l0.008,0.092l0.001,0.104l0.028,0.079
	l0.062,0.072l0.112,0.093l0.123,0.14l0.059,0.132l-0.034,0.118L52.62,41.21l0.045,0.03l0.11,0.037l0.045,0.047l0.027,0.078
	l-0.008,0.062l-0.039,0.038l-0.065,0.004v0.04l0.051,0.051l0.269,0.404l0.039,0.027l0.056,0.021l0.152,0.104l0.131,0.124
	l0.103,0.047l0.104,0.068l0.055,0.011h0.173l0.069,0.022l0.201,0.161l0.034,0.019l0.035,0.012l0.09,0.008l0.022-0.018l0.042-0.074
	l0.022-0.02l-0.011-0.044l0.057-0.289l-0.002-0.064l-0.029-0.14l0.009-0.051l0.039-0.119l0.016-0.114l0.014-0.057l0.096-0.237
	l0.152-0.114l0.055-0.062l0.036-0.161l0.065-0.053l0.035-0.055l0.006-0.053L54.905,40.869z M29.709,19.433l-0.031,0.058
	l-0.003,0.008l-0.012,0.012l-0.007,0.015l-0.002,0.018l0.004,0.018l-0.075,0.127l-0.13,0.018l-0.125-0.064l-0.059-0.123l0.042-0.138
	l0.064-0.065l0.044-0.043l0.133-0.069l0.121-0.02l0.029,0.055l0.014,0.097L29.709,19.433z M29.13,10.665l0.042-0.023l0.006-0.068
	l-0.069-0.055h-0.072l-0.057,0.093l0.018,0.079l0.069,0.015L29.13,10.665z M29.232,10.734l0.119,0.002l0.056,0.011l0.054,0.027
	l-0.098-0.089l-0.077-0.017l-0.073,0.051l-0.083,0.116l-0.1,0.196l-0.034,0.109l0.007,0.035L29.232,10.734z M39.629,49.387
	l0.007-0.052l0.024-0.061l0.012-0.026l0.021-0.022l-0.042-0.061l-0.064-0.021l-0.152,0.006l-0.088,0.065l0.125,0.104L39.629,49.387z
	 M33.615,37.146l-0.021,0.026l-0.019,0.053l0.052-0.026l0.021-0.059L33.615,37.146z M32.58,48.565l0.086-0.081l-0.007-0.017
	l-0.042-0.031l-0.069,0.001L32.5,48.477l-0.019,0.04l0.002,0.039l0.049,0.021L32.58,48.565z M38.424,49.296l0.05-0.005l-0.001-0.02
	l-0.024-0.028l-0.014-0.057l-0.051-0.04l-0.074-0.019l-0.016,0.005l0.005,0.065l0.033,0.069L38.424,49.296z M42.59,51.046
	l0.06-0.071l0.17-0.112l0.042,0.005l0.034-0.007l0.023-0.025l0.014-0.046l-0.148-0.025l-0.237-0.105l-0.129-0.014l-0.064,0.028
	l-0.168,0.158l-0.163,0.077l-0.05,0.046l-0.093,0.063l-0.33,0.114l-0.122,0.021l-0.074-0.002l-0.068-0.016l-0.051-0.036l-0.02-0.069
	l0.023-0.127l-0.014-0.056H41.2l0.015,0.016l-0.017,0.044l-0.003,0.012l0.006,0.013l0.014,0.041l-0.157,0.306L40.95,51.42
	l-0.229,0.082l-0.073,0.039l-0.073,0.029l-0.079-0.018l-0.023-0.021l-0.043-0.068l-0.016-0.018l-0.041-0.01l-0.134,0.01
	l-0.107-0.035l-0.051-0.005l-0.027-0.022l-0.075-0.097l-0.041-0.022l-0.118-0.01l-0.04,0.01l-0.039,0.018l-0.059,0.037l-0.317,0.081
	l-0.085,0.007l-0.138-0.012l-0.047,0.021l-0.158,0.192l-0.118,0.116l-0.137,0.094l-0.516,0.195l-0.199,0.038l-0.134-0.064
	l-0.197,0.105l-0.225,0.062l-0.242,0.013l-0.51-0.071L36.53,52.13l-0.061,0.006l-0.096-0.014l-0.088-0.033l-0.177-0.101
	l-0.055,0.058l-0.288,0.05l-0.058,0.037l-0.052,0.049l-0.059,0.044l-0.172,0.04l-0.186,0.1l-0.092,0.023l-0.268-0.038l-0.091,0.002
	l0.01-0.019l0.002-0.007l0.018-0.014l-0.06-0.03l-0.196-0.04l-0.121-0.075l-0.146-0.125l-0.124-0.054l-0.041-0.038l-0.028-0.06
	l-0.006-0.049l0.008-0.091l-0.116-0.088l-0.511,0.04l-0.061-0.15l-0.015-0.049l-0.005-0.17L33.374,51.3l-0.159-0.11l-0.01-0.024
	L33.2,51.129l-0.006-0.035l-0.023-0.014l-0.032,0.005l-0.057,0.028L33,51.134l-0.047,0.028l-0.049,0.015l-0.064-0.024l-0.036,0.119
	l-0.096,0.045l-0.116-0.001l-0.095-0.018l-0.144-0.061l-0.042-0.01l-0.048,0.015l-0.048,0.035l-0.023,0.045l0.022,0.046l-0.145,0.13
	l0.009,0.047l0.039,0.051l0.009,0.049l0.007,0.065l0.006,0.033l-0.006,0.021l-0.036,0.041l-0.142,0.112l-0.348,0.156l-0.181,0.026
	l-0.133-0.078l-0.003-0.047l-0.05-0.038l-0.118-0.06l-0.043-0.043l-0.115-0.206l-0.104-0.243l-0.021-0.096l-0.048-0.006
	l-0.049,0.006l-0.025-0.062l-0.05,0.091l0.017,0.135l0.006,0.129l-0.086,0.079l-0.053-0.007l-0.067-0.02l-0.057-0.002l-0.022,0.047
	l-0.022,0.084l-0.054,0.063l-0.128,0.092l-0.134-0.051l-0.111,0.09l-0.109,0.123l-0.128,0.054l0.046,0.054l-0.005,0.076
	l-0.026,0.086l-0.025,0.141l-0.099,0.198L29.6,52.701l-0.001,0.007l0.004,0.037l0.011,0.047l0.038,0.059l0.008,0.025l-0.004,0.046
	l-0.022,0.098l-0.009,0.003l-0.03,0.146l0.009,0.017l-0.02,0.019l-0.061,0.039l-0.006-0.023l-0.072,0.036l-0.001,0.064l0.039,0.073
	l0.049,0.062l0.035,0.062l0.012,0.062l0.006,0.069l0.02,0.078l0.038,0.088l0.062,0.106l0.072,0.09l0.073,0.038l0.167,0.004
	l0.06,0.03l0.07,0.075l0.174,0.291l0.097,0.09l0.16,0.014l0.349-0.062l0.34-0.012l0.337,0.041l0.132,0.059l0.108,0.116l0.017,0.044
	l0.026,0.106l0.027,0.048l0.039,0.021l0.044-0.007l0.062-0.031l0.513,0.071l0.022,0.018l0.041,0.073l0.022,0.017l0.047,0.014
	l0.034,0.03l0.047,0.063l0.093,0.053l0.023,0.022l0.104,0.199l0.049,0.024l0.052,0.019l0.039,0.024l0.077,0.076l0.178,0.106
	l0.207,0.166l0.131,0.082l0.149,0.054l0.192,0.033l0.145,0.045l0.124,0.088l0.355,0.353l0.133,0.095l0.15,0.064l0.181,0.037
	l0.159,0.062l0.257,0.204l0.185,0.024l0.042-0.015l0.078-0.049l0.038-0.011l0.47-0.038l0.157,0.028l0.345,0.162l0.294,0.193
	l0.382,0.37l0.103,0.146l0.34,0.731l0.048,0.06l0.329,0.078l0.068-0.016l0.074,0.049l0.247,0.095l0.054,0.053l0.054,0.092
	l0.248,0.036l0.071,0.067l0.052-0.021l0.013,0.013l0.02,0.043l0.276-0.141l0.147-0.021l0.152,0.056l0.162,0.115l0.105,0.046
	l0.046-0.037l0.019-0.033l0.038-0.003l0.058,0.018l0.051,0.029l0.032,0.032l0.062,0.084l0.076,0.063l0.086,0.023l0.086-0.026
	l0.083-0.079l0.002-0.063l-0.073-0.31l-0.078-0.168l-0.02-0.104l0.052-0.047l0.006-0.061l0.212-0.543l0.067-0.103l0.089-0.044
	l0.065-0.021l0.063-0.042l0.074-0.039l0.099-0.005v-0.038l-0.019-0.035l0.011-0.012l0.037-0.021l-0.029-0.036l0.147-0.082
	l0.023-0.009l0.022,0.027l0.044,0.021l0.03-0.016l-0.011-0.084l-0.036-0.064l-0.036-0.021l-0.087,0.012l-0.032-0.034l-0.009-0.064
	l0.025-0.044l0.062,0.035l0.021-0.127l-0.019-0.075l-0.061-0.038l-0.102-0.01l-0.075-0.041l-0.062-0.087l-0.012-0.076l0.077-0.013
	V56.67l-0.06-0.033l-0.071,0.052l-0.092-0.111l-0.045-0.162l0.062-0.106l-0.024-0.063l0.052-0.024h0.045l0.023,0.036l-0.005,0.091
	l0.035-0.054l0.029-0.061l0.039-0.022l0.068,0.065l-0.04-0.126l-0.063-0.089l-0.08-0.053l-0.157-0.031l-0.29-0.162l-0.029-0.042
	l-0.029-0.071l-0.019-0.09l-0.012-0.52L40.588,55l0.021-0.088l0.08-0.147l0.2-0.239l0.062-0.191l0.025-0.113l0.051-0.155
	l0.008-0.108l0.014-0.051l0.06-0.06l0.018-0.052l-0.007-0.062l-0.044-0.1l-0.006-0.056l0.025-0.072l0.117-0.181l0.105-0.086
	l0.072-0.11l0.081-0.165l0.376-0.591l0.45-0.576l0.112-0.273l0.205-0.336l-0.066,0.002l0.013-0.077L42.59,51.046z M37.519,49.322
	l-0.061,0.021l0.015,0.065l0.061-0.021L37.519,49.322z M35.422,37.506l-0.029,0.108l0.044,0.04L35.53,37.7l0.034,0.03l0.056-0.033
	l0.069-0.023l0.062-0.007l0.041,0.021l0.06-0.057l0.029-0.019l-0.014-0.044l0.001-0.031l0.013-0.034L35.8,37.447l-0.265-0.095H35.45
	l0.017,0.056l0.014,0.021l-0.037,0.024L35.422,37.506z"/>
</svg>
