<?xml version="1.0" encoding="utf-8"?>
<!-- Generator: Adobe Illustrator 16.0.0, SVG Export Plug-In . SVG Version: 6.00 Build 0)  -->
<!DOCTYPE svg PUBLIC "-//W3C//DTD SVG 1.1//EN" "http://www.w3.org/Graphics/SVG/1.1/DTD/svg11.dtd">
<svg version="1.1" id="Calque_1" xmlns="http://www.w3.org/2000/svg" xmlns:xlink="http://www.w3.org/1999/xlink" x="0px" y="0px"
	 width="60px" height="60px" viewBox="0 0 60 60" enable-background="new 0 0 60 60" xml:space="preserve">
<path fill="#FFFFFF" d="M37.271,43.641l-0.037-0.057l-0.059-0.031l-0.055-0.029l-0.027-0.021l-0.086,0.102l-0.004,0.146l0.062,0.131
	l0.12,0.057l0.064,0.002l0.033-0.008l0.014-0.043l0.004-0.09l-0.007-0.086L37.271,43.641z M37.499,46.029l-0.089,0.074l-0.022,0.117
	l0.061,0.092l0.085-0.006l0.082-0.078l0.044-0.119l-0.057-0.084L37.499,46.029z M36.786,44.912l-0.037,0.043l-0.028,0.025
	l-0.015,0.027l-0.033,0.131l-0.003,0.043l0.043,0.07l0.049-0.053l0.04-0.115l0.018-0.113v0.01l0.004-0.016v-0.006l-0.005-0.061
	L36.786,44.912z M36.819,44.938L36.819,44.938l-0.003-0.012L36.819,44.938z M36.808,47.732v-0.004l-0.009-0.002L36.808,47.732z
	 M37.792,46.85l-0.03-0.021L37.71,46.83l-0.041,0.055l0.007,0.064l0.04,0.029l0.052,0.008l0.038-0.016l0.017-0.033l0.001-0.021
	l-0.018-0.051L37.792,46.85z M36.384,45.568l-0.046-0.014l-0.033,0.016l-0.019,0.064l0.002,0.008v0.02l-0.004,0.025l-0.021,0.037
	l-0.005,0.021l0.026,0.014l0.039-0.012l0.046-0.057l0.032-0.01l0.017-0.02L36.406,45.6L36.384,45.568z M36.7,44.5l0.037,0.049
	l0.043-0.043l-0.035-0.039L36.7,44.5z M36.801,44.691l-0.017-0.006l-0.012,0.006l0.008,0.016L36.801,44.691z M36.533,45.199
	l-0.01,0.008v0.01l-0.005,0.014l-0.025,0.021v0.021l0.021-0.01l0.024,0.01l0.035-0.025l-0.022-0.039L36.533,45.199z M5.753,50.086
	l0.018-0.029l-0.018-0.018l-0.008,0.006l-0.011,0.01l-0.021-0.002l-0.006,0.021l0.009,0.012H5.753L5.753,50.086z M5.747,50.418
	l0.013-0.012l0.008-0.018L5.735,50.4L5.747,50.418z M7.01,50.516l-0.021,0.018l0.001,0.02l0.028-0.01L7.01,50.516z M4.191,50.807
	l-0.018-0.004L4.169,50.82l0.009,0.014L4.191,50.807z M7.546,51.213l0.02,0.027l0.018-0.008l-0.018-0.033l-0.022-0.031l-0.04-0.021
	l0.018,0.037l0.011,0.002l0.006,0.01v0.008L7.546,51.213z M7.493,51.379l0.002-0.041l-0.028-0.014l-0.012,0.018l0.019,0.018
	l0.01,0.025L7.493,51.379z M4.632,51.561l0.003,0.01l0.041,0.016l0.006-0.018l-0.024-0.021L4.632,51.561z M4.832,51.693l0.029,0.018
	h0.011l0.002-0.047L4.858,51.67L4.832,51.693z M7.584,51.732l0.012-0.016l0.002-0.018l-0.002-0.006l-0.023-0.008l-0.016,0.008
	L7.552,51.76l0.019-0.021L7.584,51.732z M9.517,52.404l0.016,0.006l0.007-0.014l0.017-0.01l0.013-0.02l-0.006-0.014l-0.02-0.002
	l0.003-0.021l-0.025-0.027l-0.009-0.014l-0.016,0.025l0.013,0.047h0.012v0.014L9.517,52.404z M8.353,53.088l0.01-0.002l-0.006-0.008
	l-0.025-0.031l-0.02,0.012l-0.018,0.035v0.021v0.016l0.002,0.023l0.016,0.002l0.03-0.041l0.037,0.057l0.002-0.02l0.001-0.01
	l-0.008-0.037L8.353,53.088z M3.342,53.596l0.028-0.057l-0.035,0.006l-0.026-0.006l-0.014,0.029l-0.019,0.01l0.016,0.014
	l0.028-0.006L3.342,53.596z M3.172,53.707l-0.02,0.004l0.006,0.012l0.009,0.012l-0.006,0.02l-0.007,0.014l0.007,0.018l0.011-0.014
	l0.017,0.004l-0.01-0.027l0.016-0.047L3.172,53.707z M12.584,55.389l-0.012-0.008l-0.015,0.068l0.037,0.045l-0.008-0.061
	L12.584,55.389z M8.762,56.031l-0.016-0.004l-0.017,0.02v0.016l0.009,0.01l0.014-0.014L8.762,56.031z M6.563,56.607H6.54
	l-0.005,0.018l-0.003,0.008l0.003,0.01l-0.001,0.014L6.522,56.66l-0.015,0.021l0.004,0.018l0.025-0.014l0.018-0.01l-0.007-0.014
	v-0.014L6.563,56.607z M43.309,5.14l0.041-0.052l-0.03-0.029l-0.03,0.006l-0.018,0.013l-0.035,0.008l0.018,0.042L43.309,5.14z
	 M42.99,5.106l-0.009,0.019l-0.016,0.016l-0.027,0.021l-0.005,0.037h0.032l0.059-0.021l0.04-0.063l-0.027-0.031V5.061L42.99,5.106z
	 M37.594,26.639l0.022-0.011l-0.019-0.025l-0.032,0.005l-0.019,0.027v0.01l-0.002,0.017l0.028,0.028l0.005-0.005l-0.005-0.007
	l0.008-0.021L37.594,26.639z M43.971,28.004h-0.014l-0.01-0.014l0.002-0.03l0.008-0.017l0.014-0.029l-0.002-0.03l-0.013-0.015
	l-0.03,0.011l-0.024,0.006l-0.023,0.019l0.009,0.022l0.009,0.012l-0.009,0.007l0.004,0.028l0.016,0.017l0.02,0.054l0.025,0.017
	l0.015-0.019l0.018-0.021l-0.006-0.013L43.971,28.004z M36.566,29.614h0.007l0.04-0.036l0.02-0.007l0.013-0.025L36.67,29.5
	l0.01-0.033l0.003-0.03l-0.002-0.033l-0.02,0.006l-0.005,0.014l-0.017,0.007l-0.011,0.019l-0.018,0.034l-0.015,0.014l-0.005,0.009
	l-0.021,0.017l0.007,0.019l-0.004,0.024l-0.017,0.019l-0.006,0.01l0.001,0.018H36.566z M42.41,29.982l-0.017,0.021l-0.011,0.007
	l0.022,0.036l0.014-0.005l0.009-0.044l-0.002-0.034L42.41,29.982z M43.819,30.13l-0.023-0.009l-0.021-0.011l-0.017-0.01
	l-0.018,0.014l-0.032,0.042l0.042,0.068l0.051,0.05l0.023-0.034l-0.003-0.018l-0.004-0.02l0.013-0.041L43.819,30.13z M43.315,30.104
	l-0.034,0.03l0.004,0.018l-0.009,0.024l0.016,0.033l0.052-0.036l-0.018-0.031L43.315,30.104z M43.562,30.326l-0.019-0.011
	l-0.006-0.021l-0.008-0.021l-0.018-0.02l-0.005-0.015l-0.037-0.024l-0.014,0.01l-0.009-0.004l-0.005,0.011l-0.011,0.024v0.018
	l0.016,0.005l0.014,0.007l0.019,0.027l0.024,0.033h0.031l0.021,0.018h0.005v-0.01l-0.005-0.007L43.562,30.326z M36.406,42.57
	l-0.017,0.012l0.003,0.006l0.022,0.01L36.406,42.57z M22.182,43.91l-0.008-0.012l-0.026,0.008l-0.018,0.01l-0.019,0.01l-0.017,0.016
	l0.01,0.004l0.003,0.018l0.02,0.008l0.018,0.012l0.017,0.014l0.018,0.014h0.017l0.011-0.027l-0.007-0.012l0.009-0.012l-0.004-0.031
	l-0.021,0.008l-0.013,0.002l-0.005,0.014l-0.005-0.014l0.01-0.01L22.182,43.91z M22.308,44.018l0.03-0.02l-0.001-0.031l-0.031-0.016
	l-0.015-0.01l-0.014,0.008l-0.009,0.012l-0.002,0.023l0.011,0.018l0.021,0.031L22.308,44.018z M21.94,44.023v0.018l-0.004,0.016
	l0.028,0.016l0.036-0.031l0.013,0.01l0.009-0.006l0.003,0.014l-0.015,0.008l-0.009,0.014l0.023-0.008l0.028-0.008l0.011-0.016
	l-0.007-0.018l-0.014-0.01l0.001-0.016l-0.001-0.027l-0.015-0.016l-0.013,0.016l-0.004,0.018h-0.012l-0.006-0.014l-0.007,0.006
	l-0.005,0.016l-0.01-0.012l-0.011-0.008l-0.015-0.004l0.002,0.021l-0.009,0.008L21.94,44.023z M12.203,44.57l0.013-0.01l-0.008-0.02
	l-0.009-0.004l-0.016,0.004l-0.022-0.025l0.003,0.084L12.203,44.57z M12.6,44.594l-0.016-0.033l-0.002-0.021l-0.038,0.035
	l0.019,0.055L12.6,44.594z M20.596,44.627l0.003-0.039l-0.011-0.021l-0.034,0.027l0.007,0.029l0.025,0.055L20.596,44.627z
	 M20.732,44.871l-0.013-0.033l-0.021,0.027v0.041h0.006L20.732,44.871z M19.823,44.902l0.021-0.021l-0.008-0.012l-0.022-0.002
	L19.8,44.855l-0.016-0.004l0.002,0.014l0.014,0.029L19.823,44.902z M19.511,44.928l-0.024,0.012l-0.021-0.008l0.018,0.043
	l0.005,0.027l0.009,0.008l0.011,0.023l0.017-0.031l0.009-0.01l0.011-0.018l-0.002-0.012l-0.013,0.002l0.004-0.027L19.511,44.928z
	 M20.678,44.955l-0.017,0.025l-0.014,0.064l0.029-0.039L20.693,45l0.005-0.025l0.005-0.033l-0.018-0.01L20.678,44.955z M19.153,45
	h0.011l0.006-0.006l-0.005-0.014l-0.027-0.014H19.11l-0.005,0.018l-0.025,0.004l-0.002,0.008h-0.007l-0.007-0.008l-0.021,0.021
	l0.04,0.041l0.032,0.031l0.016,0.01l0.037-0.006l0.009-0.016l-0.001-0.025l-0.008,0.004l-0.009,0.004l-0.008-0.006l-0.015,0.002
	l0.001-0.027L19.153,45z M19.769,44.971l0.008,0.043l0.009,0.025l-0.004,0.02l0.004,0.023h0.018l0.022-0.018l0.021-0.025
	l0.018-0.006l0.007-0.008l0.022-0.01l0.001-0.014L19.88,44.98l-0.017-0.006l-0.022-0.016l-0.013,0.018l-0.018,0.012l-0.007,0.006
	h-0.016l-0.007-0.014L19.769,44.971z M10.854,45.162l0.019-0.02l0.026-0.008l0.015-0.008l0.031-0.037l-0.01-0.014l-0.011-0.002
	l-0.005-0.01l-0.021-0.012l0.01,0.031l-0.022,0.02l-0.025,0.021l-0.048,0.012l0.03,0.043L10.854,45.162z M19.251,45.139l0.018-0.023
	l-0.004-0.012l-0.025,0.004L19.2,45.133l0.021,0.029l0.018-0.014L19.251,45.139z M18.808,45.199l0.02,0.004l0.024-0.004l-0.01-0.021
	l-0.03-0.025l-0.03,0.004l-0.015,0.01l0.018,0.027l0.013-0.006L18.808,45.199z M15.753,45.252l-0.019-0.014l-0.02,0.014l-0.003,0.02
	l-0.006,0.014l-0.021,0.027l-0.018,0.008l0.007,0.012h0.018l0.021,0.014l0.009-0.008l0.022,0.008l-0.004-0.018l0.014-0.033
	L15.753,45.252z M19.489,45.242l0.016,0.039l0.017,0.029l0.014,0.01l0.019-0.039l-0.036-0.031L19.489,45.242z M23.708,45.363
	l0.013-0.004l0.009,0.01l0.048-0.016l0.007-0.012h-0.041L23.708,45.363z M23.655,45.373l-0.031,0.029l-0.015-0.014l-0.005,0.014
	l0.003,0.018l0.025,0.008h0.003l0.013-0.014l0.009-0.018l0.009-0.004l0.002-0.016l0.009-0.008l-0.003-0.01L23.655,45.373z
	 M19.358,45.465l0.002,0.027l0.006,0.008l0.01-0.01l0.017-0.02l0.027-0.018l0.007-0.012l0.043,0.004l-0.005-0.018l0.002-0.004
	l0.009-0.01v-0.008l-0.039,0.014l-0.025,0.016l-0.017-0.047l-0.018-0.004l-0.002,0.029l0.009,0.014l-0.014,0.018L19.358,45.465z
	 M8.572,45.521l-0.009,0.041l0.025-0.027L8.572,45.521z M17.968,45.535l-0.018-0.006l-0.025,0.01l-0.005,0.006l0.004,0.039
	l0.05-0.01L17.968,45.535z M16.448,45.691l-0.03,0.02l-0.042,0.039l-0.005,0.031l0.006,0.035l0.021-0.016l0.014,0.002l0.009,0.016
	h0.006l0.018-0.012l0.014-0.004l0.001-0.018l0.023-0.033l-0.017-0.037L16.448,45.691z M18.298,45.762l0.009-0.014l-0.01-0.018
	l-0.004-0.016l-0.008-0.012l-0.012,0.006l-0.008,0.014v0.012l0.025,0.035L18.298,45.762z M15.287,45.717v0.035l0.019-0.004
	l0.016,0.016l0.041-0.023l-0.011-0.018l-0.027-0.01L15.287,45.717z M16.842,45.803l-0.06-0.053l-0.03,0.074l0.038,0.025
	L16.842,45.803z M18.443,45.773l-0.027-0.006l-0.017,0.002l0.026,0.041l0.038-0.01L18.443,45.773z M23.045,45.791l0.002,0.02
	l-0.011,0.014l-0.015,0.01l-0.003,0.021l0.018,0.021l0.002-0.006l0.015-0.008l0.013-0.01l0.01-0.053l-0.022-0.02L23.045,45.791z
	 M15.627,45.816l-0.043-0.023l-0.027,0.014l0.008,0.061l0.011,0.023l0.028,0.016l0.058-0.051l-0.016-0.043L15.627,45.816z
	 M19.091,45.939l-0.024,0.012l0.024,0.039l0.034-0.027l-0.016-0.006L19.091,45.939z M10.649,46.074l0.028,0.008l0.01,0.018
	l0.003-0.043l-0.003-0.014l-0.011-0.004l-0.032-0.014l-0.021-0.012l0.008,0.047L10.649,46.074z M16.02,46.268l0.018-0.043
	l-0.014-0.051l-0.012,0.016L16,46.211l-0.007,0.02l0.006,0.031L16.02,46.268z M13.471,46.336v0.039L13.45,46.4l-0.013,0.016
	l0.013,0.006l0.021,0.023l0.018,0.006l0.013,0.021l0.023,0.018l0.012,0.029l0.029-0.031l-0.038-0.02l-0.031-0.041v-0.043
	l-0.007-0.043l0.014-0.025L13.471,46.336z M15.618,46.361l0.02,0.027l0.054,0.014l0.004-0.012l-0.007-0.021l-0.018-0.02
	l-0.029-0.016L15.618,46.361z M15.188,46.439l0.009,0.014l0.022,0.006l-0.007-0.014l-0.018-0.043L15.188,46.439z M10.442,46.445
	l-0.007-0.025l-0.012,0.027l0.021,0.006L10.442,46.445z M18.571,46.418l-0.018,0.006l-0.022,0.02l0.008,0.016l0.023,0.02h0.012
	l0.013-0.014l0.01-0.006l-0.009-0.025v-0.02L18.571,46.418z M16.119,46.482l-0.031-0.016l-0.044,0.012l-0.018,0.006l0.005,0.031
	l0.01,0.016l-0.012,0.021l-0.001,0.014l0.013,0.021l0.016-0.021l0.021-0.029l0.009-0.014l0.011-0.021L16.119,46.482z M15.899,46.564
	l0.006,0.01l0.009-0.01l0.021-0.008l0.006-0.016l0.022-0.008l0.013-0.027l0.019-0.021l-0.017-0.002l-0.014-0.004l-0.007,0.004
	l-0.016,0.002l-0.021,0.018l-0.013,0.018l0.004,0.031l-0.011,0.006L15.899,46.564z M13.81,46.605l-0.02,0.025v0.033l0.03,0.018
	l0.01,0.008l0.001,0.02l0.008-0.008l0.025-0.006l0.018-0.01l0.037-0.043l0.032-0.016l0.009-0.039l0.028-0.031h0.021l-0.004-0.014
	l-0.022-0.035l-0.017,0.006l-0.009-0.033L13.95,46.5l-0.012,0.016l-0.005,0.016l-0.011,0.012L13.9,46.557l0.015,0.01l0.007,0.027
	l-0.004,0.02L13.897,46.6l-0.024,0.006l0.002,0.025l-0.021,0.004l-0.017-0.01l-0.009-0.016l0.005-0.012L13.81,46.605z
	 M10.907,46.525l-0.01-0.02l-0.012,0.055l0.01-0.008L10.907,46.525z M16.434,46.547l-0.016-0.008l-0.017,0.021l-0.016,0.049
	l0.017,0.018l0.025-0.02l0.015,0.002l0.011-0.006l-0.004-0.012v-0.023L16.434,46.547z M15.426,46.619l-0.001,0.016l0.007,0.004
	l0.039,0.033l0.006-0.004l-0.002-0.043l-0.016-0.035l-0.021,0.006L15.426,46.619z M16.089,46.68l-0.01-0.008l-0.024,0.006
	l-0.014,0.008L16,46.684l-0.013-0.004l-0.015,0.01l-0.003,0.014l0.021,0.012l0.017,0.006l0.058-0.021L16.089,46.68z M16.5,46.73
	h-0.018l-0.011,0.023l-0.008,0.02h-0.012h-0.019l-0.007-0.002l-0.019,0.018l-0.017,0.035l0.023-0.02l0.016,0.012l-0.003,0.043
	l-0.001,0.033l-0.006,0.018l0.016,0.018l0.012-0.004l0.018-0.016l0.021,0.01L16.5,46.91l0.005-0.014l-0.02-0.01l-0.005-0.012
	l-0.018-0.021l0.018-0.045l0.037-0.008v-0.047l0.008-0.016l0.009-0.023l-0.019,0.002h-0.01L16.5,46.73z M9.762,46.816L9.8,46.834
	l-0.012-0.031l-0.014-0.018L9.77,46.768l-0.035-0.004l0.018,0.031L9.762,46.816z M14.601,46.934l-0.011-0.02l-0.002-0.018
	l-0.011-0.018l-0.019,0.018l0.009,0.031l0.018,0.021L14.601,46.934z M14.451,46.984l-0.005-0.023l-0.006-0.008l-0.003-0.018h-0.015
	l-0.002,0.039l-0.018-0.004l-0.02-0.004l0.008,0.02l0.061,0.016L14.451,46.984L14.451,46.984z M23.018,46.992l-0.012-0.002
	l-0.004,0.018l0.006,0.031l0.016-0.008l0.015-0.016L23.047,47l0.001-0.031l-0.016,0.002L23.018,46.992z M15.985,46.992l0.018,0.004
	l0.017,0.031l0.007-0.025l-0.032-0.023L15.985,46.992z M9.366,47.334l0.016-0.004l0.025,0.006v-0.012l-0.03-0.02l-0.028-0.006
	l0.005,0.051L9.366,47.334z M14.779,47.473l0.012,0.031l0.068-0.055l-0.023-0.043l0.016-0.027l-0.003-0.016l-0.011-0.014l0.02-0.031
	l-0.017-0.002l-0.005,0.018l-0.009,0.016l-0.007,0.012l-0.008,0.014L14.811,47.4l0.012,0.006l-0.013,0.035L14.779,47.473z
	 M7.117,47.422l0.023,0.002l-0.002-0.012l0.007-0.018l-0.009-0.006l-0.011-0.012l-0.03,0.016l0.005,0.039L7.117,47.422z
	 M15.857,47.406l-0.013,0.025l0.021-0.008l0.021-0.004l0.011-0.008l0.003-0.008l-0.012-0.002h-0.022L15.857,47.406z M9.205,47.842
	l-0.039-0.066l-0.015,0.066l-0.01,0.027l0.021,0.021L9.205,47.842z M7.805,47.961l0.023-0.014l0.002-0.006v-0.018L7.825,47.92
	l-0.01-0.004L7.81,47.898l0.006-0.01l0.004-0.043l-0.024,0.002l-0.001,0.02l-0.007,0.014l-0.009,0.01l-0.005,0.008l0.005,0.008
	l-0.005,0.012L7.805,47.961z M7.496,48.049h0.01l0.006-0.008l0.012-0.014l0.014-0.01l-0.023-0.039l-0.039,0.006L7.46,47.979
	l-0.014,0.006l-0.004,0.018l0.013,0.02l0.021,0.014L7.496,48.049z M7.863,48.121l0.041-0.033l0.002-0.018l-0.023-0.027l-0.017,0.002
	l-0.017,0.02v0.021l0.002,0.029L7.863,48.121z M8.132,48.166l0.013,0.02l0.025-0.018v-0.047l-0.041,0.02h0.01L8.132,48.166z
	 M7.401,48.43l-0.033-0.014l0.036,0.051L7.401,48.43z M6.771,48.525l0.013-0.01l0.011,0.002h0.009l0.011-0.004l0.004-0.01
	l0.006-0.012h0.022l-0.017-0.014l-0.021-0.012l-0.005-0.014l-0.016-0.004L6.78,48.467l-0.02,0.029l-0.034,0.01l-0.002,0.049h0.018
	l0.004-0.02L6.771,48.525z M7.274,48.621l-0.012-0.062l-0.002,0.01l0.005,0.016l0.002,0.002l-0.007,0.018L7.274,48.621z
	 M15.436,48.721l0.008-0.057l-0.019,0.029L15.436,48.721z M15.482,48.77l0.015-0.014l-0.015-0.023l-0.02-0.006l-0.022,0.008
	l0.034,0.02L15.482,48.77z M14.196,49.086l0.009,0.01l0.022,0.021l0.027-0.018l0.003-0.016l-0.031-0.002l-0.022-0.004L14.196,49.086
	z M15.814,49.156l-0.008,0.014l0.024,0.008l0.01-0.021l0.012-0.021l-0.016-0.018l-0.015-0.01l0.006,0.023l-0.001,0.01L15.814,49.156
	z M15.539,49.303l-0.004,0.012l-0.009,0.012l-0.006,0.002l-0.019,0.018l-0.031,0.018l-0.018-0.01l-0.018,0.01h0.019l0.013,0.014
	l0.004,0.008l0.004,0.018l0.002,0.018l0.015,0.008l0.012-0.008l-0.009-0.02l0.001-0.012v-0.01l0.018-0.008l0.017-0.012l0.026-0.01
	l-0.007-0.039L15.539,49.303z M5.547,49.521l0.032,0.014l0.017-0.107l0.016-0.01l-0.016-0.016l-0.006-0.01l-0.021-0.033
	l-0.031-0.027l-0.006,0.053l0.004,0.086l0.01,0.012v0.014L5.547,49.521z M5.251,49.357l-0.013-0.025L5.215,49.34l-0.001,0.041
	l0.023,0.004L5.251,49.357z M6.99,49.441v-0.035L6.969,49.4l-0.015,0.014l-0.013,0.025l0.006,0.018l0.022,0.018l0.006,0.018
	L6.953,49.51l0.004,0.016l0.032-0.029v-0.033l-0.014-0.023l0.007-0.006L6.99,49.441z M15.327,49.535l0.001-0.021l-0.018,0.012
	l-0.022-0.002l-0.013-0.014l0.01-0.021h0.003h0.004l-0.004-0.018l-0.01-0.01l-0.012,0.01l-0.018-0.004l-0.01,0.006l-0.021-0.004
	l-0.016-0.018l-0.013,0.018l0.009,0.027l0.049-0.002l0.014,0.016l0.005,0.025l0.006,0.008l0.026,0.01l0.046,0.018l0.004-0.006
	l-0.018-0.012L15.327,49.535z M4.872,49.506l-0.013-0.027L4.853,49.49l0.006,0.016H4.872L4.872,49.506z M14.334,49.518l0.021-0.027
	l-0.003-0.012l-0.023,0.018L14.334,49.518z M6.828,49.613l0.024,0.008v-0.047l-0.017-0.02l-0.018,0.01H6.798L6.787,49.58
	l-0.025,0.006l-0.015,0.006l-0.024,0.004l-0.008,0.008l0.031,0.012l0.024,0.002l0.028,0.02L6.828,49.613z M7.261,49.596
	l-0.025-0.008l-0.001,0.016l0.004,0.008l0.02,0.01L7.261,49.596z M15.661,49.697l-0.019,0.031l0.008,0.014l0.014-0.033l0.017-0.004
	L15.661,49.697z M14.394,49.752l0.002,0.004l0.034-0.027l-0.019-0.021l-0.018,0.016V49.752z M15.369,49.742l0.038-0.031
	l-0.049,0.006L15.369,49.742z M6.206,50.078l0.015,0.014l0.03,0.018l0.005-0.078l-0.028,0.01L6.206,50.078z M5.967,50.043
	l-0.013-0.008l-0.026,0.021l-0.002-0.029L5.91,50.039l-0.029,0.025l-0.012,0.021l-0.015,0.021l0.004,0.016l0.03-0.006l0.011,0.004
	l0.005,0.002l-0.009,0.016l0.011,0.012l0.018-0.012l0.018-0.014l0.014-0.027L5.944,50.08l0.014-0.027L5.967,50.043z M14.122,50.135
	l-0.005,0.033l0.008,0.012h0.014l0.012,0.002l0.023-0.029l0.049-0.02l-0.021-0.016h-0.024l0.005-0.008l0.009-0.021l0.017-0.018
	l0.009-0.016l-0.017-0.004h-0.021l-0.011,0.01l-0.008,0.012l-0.009,0.016l-0.007,0.02l0.004,0.014l-0.014,0.006L14.122,50.135z
	 M14.631,50.232l-0.002-0.023L14.6,50.232l-0.021,0.021l0.012,0.004l0.016,0.031l0.02-0.021l0.009-0.018l-0.003-0.006V50.232
	L14.631,50.232z M15.731,50.318l-0.004,0.008l0.028,0.004l0.041-0.016l-0.013-0.021L15.731,50.318z M7.09,50.371v-0.033l-0.03-0.014
	l-0.014-0.01L7.037,50.32l-0.008-0.002v0.006v0.006v0.006L7.022,50.33l-0.007,0.006l0.002,0.002l-0.013-0.01l0.002-0.021v-0.008
	l-0.008,0.008l-0.007,0.002l-0.005,0.02l0.024,0.07l0.048,0.016L7.09,50.371z M5.011,50.459l0.013-0.045L5.006,50.4l-0.014-0.014
	l-0.021,0.002L4.959,50.4v0.021l0.008,0.014L5.011,50.459z M15.866,50.857l0.022-0.008l0.009,0.004l0.017-0.012l0.007-0.016
	l-0.044-0.008L15.866,50.857z M5.103,50.986l-0.037,0.018l-0.004,0.035l0.015-0.006l0.021,0.006l0.014,0.004l0.006,0.008
	l0.012-0.002l0.005-0.01l-0.005-0.014l0.009-0.02l0.034,0.012l0.02-0.008l-0.002-0.012l-0.006-0.02l0.004-0.025L5.18,50.916
	l-0.012-0.037l-0.024-0.01l-0.013,0.014l-0.007,0.039l0.004,0.045l-0.011,0.02H5.103z M14.135,50.922l-0.021-0.002l-0.002,0.029
	l0.023,0.006l0.019-0.014L14.135,50.922z M15.881,51.057L15.88,51.08l0.006,0.002l0.011-0.012l0.007-0.018l-0.005-0.004
	L15.881,51.057z M3.948,51.119l-0.006-0.023l0.03-0.008l-0.024-0.031l-0.021,0.029L3.91,51.131l0.025,0.037L3.948,51.119z
	 M14.157,51.1l-0.008-0.01l-0.001,0.025l-0.003,0.023l0.019,0.014l0.005-0.006l0.007-0.018l-0.008-0.023L14.157,51.1z
	 M13.848,51.314l-0.02-0.018l-0.015,0.012L13.8,51.316l0.006,0.004l0.003,0.006l-0.006,0.016l0.011,0.016l-0.004,0.01h0.023
	l0.018-0.006l-0.01,0.006l-0.002,0.014h0.006l0.017-0.031l0.023-0.029h-0.026L13.848,51.314z M9.737,51.654l0.032-0.016l0.041-0.049
	l-0.003-0.049L9.77,51.537L9.74,51.531l-0.024,0.01l-0.01,0.025l0.011,0.008L9.71,51.582l0.006,0.01L9.714,51.6l0.01,0.008
	L9.74,51.6l-0.002,0.023L9.737,51.654L9.737,51.654z M9.227,52.406h-0.01l-0.006-0.004L9.21,52.404L9.203,52.41l-0.007,0.021
	l-0.021-0.004l-0.016,0.021l0.038,0.021l0.016-0.004l0.004,0.004l0.008,0.008L9.2,52.484l0.001,0.02h0.015l0.006,0.004l0.022-0.027
	l0.045-0.016l-0.021-0.012l-0.006-0.016l-0.021-0.006l-0.007,0.008l-0.005-0.012l0.002-0.012L9.227,52.406z M8.764,52.811
	l-0.009,0.02l-0.01,0.02l-0.007,0.012l-0.015,0.014l0.01,0.027l0.009,0.002l0.014,0.014l0.019-0.021l0.005-0.021l0.011-0.043
	l0.015-0.02l0.013-0.014V52.77l-0.023,0.027L8.764,52.811z M8.86,52.885L8.85,52.857H8.83l0.007,0.027l-0.002,0.027l-0.016,0.027
	l0.033,0.043l0.01-0.018v0.018l0.006,0.021l0.024-0.055l-0.01-0.006L8.881,52.93l0.006-0.014L8.86,52.885z M7.759,54.42v-0.018
	l-0.018-0.01L7.73,54.396l-0.028,0.006l-0.018,0.033l-0.016,0.039L7.674,54.5l0.003,0.027l0.014,0.006l0.027,0.02l0.007-0.027
	l0.006-0.008l-0.013-0.01v-0.021l0.014-0.012l0.018-0.002l0.021-0.016l-0.017-0.014L7.759,54.42z M9.53,58.006l0.072,0.029
	l0.012-0.018L9.6,57.992l-0.019-0.006l-0.03-0.02l-0.023,0.01l-0.029,0.01L9.496,58l-0.025-0.008l0.011,0.02l0.021-0.008
	L9.53,58.006z M9.19,58.018L9.17,58.002l-0.021,0.01l-0.027,0.014l-0.039,0.035l-0.02-0.008l-0.012,0.021l-0.012,0.02l-0.001,0.002
	l0.018,0.012l0.024,0.018l0.015,0.008l0.002-0.029l0.034,0.004l0.037-0.012l0.028,0.006l0.032-0.045l-0.014-0.039H9.19L9.19,58.018z
	 M10.876,58.152l-0.02,0.02l-0.033,0.033l0.005,0.02l-0.011,0.031l-0.002,0.033h0.013l0.02,0.002l0.019,0.006l0.031-0.08
	l-0.012-0.018L10.876,58.152z M38.365,17.981l0.021-0.021l0.003-0.024h-0.009l-0.028-0.008l-0.021,0.013l-0.009,0.02l0.01,0.018
	l0.012,0.007L38.365,17.981z M11.743,43.631l0.025-0.004l0.023-0.012l0.015-0.02l0.002-0.025l-0.013-0.014H11.78l-0.014-0.004
	v-0.012l0.007-0.018l-0.008-0.008l-0.037-0.006l-0.021,0.027l0.022,0.082L11.743,43.631z M20.764,44.74l0.021,0.004l0.057-0.08
	l0.007-0.033l-0.007-0.004l-0.021-0.002l-0.037-0.033L20.748,44.6l-0.053,0.035l-0.023,0.004l-0.025,0.018l-0.005,0.008l0.01,0.012
	l0.027,0.016l0.06,0.025L20.764,44.74z M20.532,44.76l-0.062-0.074l-0.017,0.006l-0.026-0.014l-0.003,0.021l0.041,0.09l0.027,0.012
	h0.03l0.015,0.006l0.028-0.025l0.003-0.008l-0.017-0.002L20.532,44.76z M6.277,45.447l0.086-0.08l0.006-0.027l-0.023-0.018
	l-0.021,0.01L6.314,45.34L6.29,45.336l-0.022,0.01l-0.012,0.018l-0.003,0.012l0.013,0.062L6.277,45.447z M18.169,45.438
	l-0.003-0.045l-0.02-0.023l-0.018,0.012l-0.017,0.008l-0.043,0.059l-0.003,0.023l0.007,0.014l0.005,0.064h0.021l0.009-0.021
	l-0.007-0.02l0.006-0.018L18.169,45.438z M17.639,45.674h0.021l0.048,0.039l0.061-0.018l0.019,0.033h0.024l0.03-0.059l0.03-0.023
	l0.009-0.012l-0.021,0.002h-0.02l-0.016-0.002l-0.018-0.014l-0.012-0.02l-0.005-0.031l-0.018-0.012l-0.076,0.021l-0.03-0.008
	l-0.015,0.002l-0.008,0.023l0.002,0.027l-0.023,0.035L17.639,45.674z M16.955,45.736l-0.013,0.012l-0.044,0.012l-0.034,0.039
	l-0.013,0.033l-0.002,0.023l0.013,0.018l0.023,0.012l0.086-0.025l0.051-0.041l0.014-0.049l-0.028-0.02l-0.006-0.02l-0.007-0.01
	l-0.017,0.004l-0.014,0.01L16.955,45.736z M9.546,46.852l0.038-0.031L9.6,46.764l-0.037-0.01l-0.048,0.014l-0.021,0.016l0.014,0.039
	L9.546,46.852z M14.272,47.213l-0.055,0.043l0.015,0.023l0.023,0.016l0.042-0.008l0.044-0.021l0.008-0.035l-0.041-0.037
	L14.272,47.213z M13.369,47.482l0.038-0.031l0.009-0.016l-0.013-0.02l-0.018-0.006l-0.015-0.006h-0.016l-0.03,0.027l-0.034,0.01
	l-0.03,0.021l-0.004,0.018l0.056,0.012L13.369,47.482z M26.172,48.367l-0.085-0.004l-0.023,0.021l-0.008,0.031l0.015,0.004
	l0.017-0.002l0.028,0.012l0.024,0.033h0.009l0.072-0.041l0.009-0.016l0.009-0.018l-0.01-0.008L26.172,48.367z M7.437,48.623
	l0.03-0.014l0.011-0.018l0.015-0.002l0.007-0.008l0.006-0.02l0.014-0.018l0.015-0.004l0.034,0.008l0.028-0.004l0.002-0.014
	l-0.026-0.018l-0.034-0.027l-0.001-0.012l0.003-0.014l0.008-0.008v-0.012l-0.006-0.014l-0.01-0.012l-0.048-0.029l-0.013,0.006
	L7.464,48.41l0.019,0.033l-0.003,0.01l-0.052,0.082l-0.031,0.025l-0.015,0.023l0.02,0.025L7.437,48.623z M6.504,48.506L6.495,48.5
	l-0.021,0.018l-0.01,0.031l-0.002,0.035l-0.004,0.02L6.434,48.66l-0.017,0.117l0.011,0.043l0.045,0.002l0.029-0.018l-0.005-0.105
	l0.007-0.039l-0.002-0.031l-0.007-0.018v-0.016l0.002-0.021l-0.003-0.018l0.012-0.035L6.504,48.506z M5.296,49.402l0.007,0.006
	l0.011,0.023l0.015,0.014l0.018-0.014l0.012-0.016l0.051,0.01l0.043-0.002l0.004-0.014L5.45,49.4l-0.016-0.01l-0.012-0.018
	l0.006-0.014l0.014-0.01l0.017-0.002l0.006-0.016l-0.033-0.006l-0.054,0.016L5.362,49.34L5.32,49.307l-0.009,0.008l-0.015,0.027
	l-0.014,0.002L5.27,49.359l-0.011,0.02l0.013,0.016L5.296,49.402z M6.913,50.002h-0.02L6.89,50.014l0.001,0.018l0.012,0.01
	l0.01,0.006l-0.002,0.01l-0.023,0.016l-0.009,0.014l-0.05-0.008l-0.011,0.008l0.007,0.008l0.007,0.012l0.021,0.016l0.037,0.004
	l0.017-0.016l0.012-0.016l0.038-0.02l0.017-0.018l0.009-0.021L6.978,50.02l0.06,0.006l0.009-0.016l0.048-0.035l0.009-0.025
	l0.004-0.014l-0.008-0.012v-0.01L7.115,49.9l0.007-0.016l-0.019-0.004l-0.02,0.008l-0.046-0.01l-0.008,0.01l-0.003,0.014
	l-0.022,0.02l-0.043,0.082L6.943,50.01L6.913,50.002z M9.678,51.625l-0.017,0.018l-0.006,0.012l0.006,0.049l0.001,0.074l0.016-0.01
	l0.043-0.061v-0.049l-0.02-0.039L9.678,51.625z M9.26,52.631l0.072-0.059l0.048-0.07l-0.004-0.023l-0.027-0.002l-0.021-0.01
	l-0.021,0.004l-0.034,0.035l-0.016,0.047l-0.005,0.033l-0.057,0.027L9.18,52.617l-0.014,0.018l0.004,0.004L9.26,52.631z
	 M51.066,6.369l0.109-0.04l-0.058-0.017h-0.141l-0.047-0.026l-0.045-0.035l-0.069-0.027l-0.07-0.013h-0.058l-0.012,0.032
	l0.254,0.095L51.066,6.369z M17.71,38.674l-0.008,0.115v0.109l0.062-0.064l0.074-0.094l0.037-0.102l-0.044-0.076l-0.085,0.025
	L17.71,38.674z M17.833,38.562l-0.085-0.053l-0.01,0.021l0.01,0.031H17.833z M15.137,47.207l-0.054-0.023l-0.054-0.002l-0.041,0.023
	l-0.021,0.051l0.049-0.008l0.098,0.049l0.064,0.01l0.05-0.01l0.002-0.012l-0.068-0.051L15.137,47.207z M52.646,7.207h-0.02
	l0.001,0.002L52.646,7.207z M55.205,8.88l-0.034,0.04l-0.012,0.065l0.032,0.02l0.043-0.02l0.02-0.051l0.025-0.033l0.117-0.03
	l0.037-0.023l-0.009-0.041l-0.048-0.048l-0.102-0.073l-0.077-0.033l-0.259-0.055l0.399,0.205l-0.04,0.032L55.205,8.88z
	 M17.601,38.902l-0.066-0.021L17.5,38.92l0.001,0.027l0.01,0.027l0.016,0.02l0.019,0.008l0.116-0.006l0.044,0.006l-0.038-0.049
	L17.601,38.902z M8.978,59.252l-0.057-0.051l-0.084-0.018l-0.068-0.029L8.745,59.15l0.008,0.025l0.015,0.02l0.014,0.018l0.016,0.01
	L8.84,59.25l0.017,0.018l0.007,0.023l0.018,0.033l0.041,0.004l0.087-0.023l-0.002-0.016L8.978,59.252z M6.491,57.889l0.013-0.014
	l-0.009-0.014l-0.009,0.004L6.491,57.889z M36.952,17.411l0.087-0.045l0.022-0.037l-0.011-0.025l-0.017-0.01h-0.053l-0.021-0.01
	l-0.023,0.001l-0.013,0.023v0.029l0.015,0.058L36.952,17.411z M8.12,57.932L8.115,57.9l-0.036-0.027l-0.021-0.016l-0.023-0.01
	l-0.019,0.008l-0.03,0.027l-0.023,0.014L7.949,57.91l0.018,0.031l0.002,0.016l0.007,0.008l0.047,0.021h0.036l0.035-0.02L8.12,57.932
	z M15.428,45.32l-0.032-0.01l-0.042,0.023l-0.05,0.029l-0.038,0.051l-0.058,0.094l0.001,0.033l0.035,0.02l0.052-0.018l0.089-0.076
	l0.06-0.064l0.002-0.018l-0.003-0.035L15.428,45.32z M17.039,45.674H17.1l0.069-0.018l0.034-0.031l0.008-0.041l0.028-0.07
	l0.011-0.086l-0.011-0.031l-0.023,0.023l-0.038,0.051l-0.033,0.025l-0.035-0.004l-0.089,0.043l-0.009,0.004l-0.024,0.018
	l-0.011,0.045l0.021,0.051L17.039,45.674z M16.292,46.613l0.044-0.041l0.002-0.035l0.007-0.016l0.013-0.02l0.004-0.021l0.005-0.041
	V46.4l-0.009-0.01l-0.016,0.023l-0.036,0.033l-0.021,0.012l-0.012,0.008l-0.022,0.016l-0.031,0.031l-0.028,0.043l0.006,0.049
	l0.035,0.023L16.292,46.613z M9.634,51.525l-0.02-0.02l-0.03-0.014l-0.023,0.01l-0.025,0.02l-0.009,0.008l-0.003-0.014l-0.009,0.002
	L9.468,51.59l0.003,0.023l0.025,0.018l0.013,0.027l-0.017,0.049l0.009,0.043l0.038,0.031l0.017,0.012l-0.01-0.037l0.025-0.008
	l0.041-0.012l0.018-0.041l0.008-0.057l-0.004-0.041l-0.019-0.023l0.011-0.021L9.634,51.525z M5.259,50.475l-0.013-0.031
	l-0.012-0.029l-0.033-0.027l-0.054-0.02l-0.022,0.004v0.01l-0.006,0.012l-0.011,0.012v0.012l0.011,0.016l0.003,0.021l0.015,0.021
	l0.018,0.02l0.005,0.016l-0.014,0.004l-0.058-0.031H5.064l-0.002,0.031l0.011,0.059l0.006,0.006l0.013,0.01l0.012,0.02l0.016,0.004
	l0.045-0.016l0.029,0.006l0.022,0.023l0.012,0.006v0.033h0.02l0.013-0.027l0.005-0.121l-0.002-0.01L5.259,50.475z M4.832,50.627
	l0.019,0.008l0.043,0.051l0.019,0.016l0.015,0.012l0.013,0.021v0.018l-0.013,0.014l0.008,0.01l0.027,0.002l0.02,0.018l0.008,0.031
	h0.015l0.013-0.031l-0.006-0.023l-0.009-0.014l0.006-0.018l0.024-0.008l0.012-0.041l-0.009-0.078L5.027,50.57L5.02,50.562
	l-0.013-0.016l-0.01,0.016l-0.004,0.041l-0.016,0.016l-0.025-0.014l-0.008,0.008l0.01,0.047l-0.017-0.008L4.891,50.6l-0.056-0.016
	l-0.032,0.029l0.01,0.023L4.832,50.627z M29.894,34.588l-0.021-0.029l-0.044,0.018l-0.031,0.041l-0.025,0.016l-0.029,0.004
	l-0.03-0.02l-0.022-0.025l-0.024-0.008l-0.019,0.006l-0.024,0.016l-0.026,0.012l-0.027,0.002l-0.021,0.01l-0.018,0.016l-0.018-0.01
	l-0.013-0.029l-0.022-0.014l-0.018,0.027l0.03,0.062l0.061,0.074l0.026,0.041l0.01,0.002l0.05-0.018l0.03-0.002l0.039-0.023
	l0.056-0.021l0.056-0.004l0.05-0.021l0.023-0.031l-0.006-0.033l0.003-0.031L29.894,34.588z M19.63,45.133l0.021-0.018l0.022-0.018
	l0.015-0.027l-0.004-0.049l-0.024-0.043l-0.024-0.004l-0.01,0.021l-0.041,0.049l-0.011,0.043l0.022,0.045l0.022,0.012L19.63,45.133z
	 M16.61,45.812l0.024-0.002l0.017,0.012l0.002,0.023l0.009,0.008l0.021-0.012l0.025-0.018l0.018-0.037l-0.021-0.045l-0.051-0.027
	l-0.03-0.01l-0.06-0.014l-0.043,0.012l-0.019,0.037l0.026,0.031L16.61,45.812z M16.114,51.049l-0.013-0.014l-0.011-0.006
	l-0.018-0.016l-0.016,0.021l-0.013,0.043l0.002,0.045l0.01,0.049l0.019,0.014l0.043-0.02l0.022-0.025l0.001-0.029l-0.01-0.033
	L16.114,51.049z M6.717,48.379l0.027,0.004l0.014-0.004l0.008-0.018l0.022-0.008l0.04,0.018l0.047,0.008l0.041-0.018l0.026-0.037
	l-0.009-0.027L6.88,48.303l-0.005-0.02l-0.01-0.025l-0.029-0.002l-0.053,0.037l-0.056,0.053L6.717,48.379z M17.403,38.826
	l0.041,0.008l0.028-0.039l-0.033-0.066l-0.01-0.041l0.032-0.02l0.029,0.002l0.015,0.004l0.007,0.021v0.035l0.01,0.016l0.021,0.018
	l0.028,0.01l0.025-0.008l0.032-0.021l0.006-0.023l-0.01-0.029l-0.006-0.039l0.019-0.066l0.044-0.016l0.045-0.014l0.011-0.029
	l-0.011-0.033l-0.041-0.002l-0.051,0.012l-0.058-0.023l-0.074,0.076l-0.138,0.109l-0.061,0.076l0.051,0.049L17.403,38.826z
	 M7.601,54.514L7.58,54.457L7.56,54.529l-0.028,0.074l-0.045,0.055l-0.065,0.023l-0.048,0.025L7.335,54.77L7.271,54.91l-0.023,0.037
	l0.003,0.045l0.021,0.039l0.043,0.018l0.069-0.008l0.029-0.025L7.451,54.9l0.105-0.189l0.031-0.029l0.041-0.027L7.626,54.59
	L7.601,54.514z M15.083,46.619l-0.076,0.029l-0.046,0.084l0.02,0.088l0.047,0.082l0.024,0.074l0.031-0.018l0.016-0.016l0.014-0.016
	l0.023,0.027l0.034-0.016l0.054,0.018l0.039-0.004l0.012-0.025l0.01-0.039l0.018-0.02l0.043,0.033l0.022-0.029l0.03,0.029
	l0.001,0.033l-0.001,0.037l0.011,0.031l0.026,0.012h0.067l0.034,0.012l0.012-0.037l0.006-0.037l0.003-0.09l0.013-0.027l0.03-0.02
	l0.074-0.021l0.031,0.01l0.025-0.002l0.065-0.09l0.035-0.039l-0.05,0.004l-0.08-0.01l-0.037,0.006l-0.019,0.018l-0.008,0.039
	l-0.02,0.023l-0.016,0.004l-0.047-0.006l-0.02,0.002l-0.064,0.049l-0.039,0.023l-0.044,0.002l-0.085-0.125l-0.057-0.037
	l-0.081-0.035L15.083,46.619z M15.844,46.057l-0.058,0.062l0.071,0.027l0.166-0.004l0.071,0.039l0.045-0.018l0.033-0.088
	l-0.011-0.07l-0.079,0.039l-0.008-0.049l-0.002-0.045l-0.007-0.041l-0.026-0.047l0.021-0.004l0.011-0.016l0.002-0.016l0.01-0.016
	l-0.023-0.021l-0.036-0.002l-0.04,0.008l-0.039,0.027l-0.03,0.039l0.039,0.094l-0.035,0.053L15.844,46.057z M17.416,45.605
	l-0.051,0.016l-0.017,0.018l-0.026,0.074l0.027,0.023l0.123-0.023l0.094-0.033l0.054-0.055l0.01-0.074l-0.033-0.115l-0.045-0.082
	l-0.061,0.016l-0.066,0.066l-0.057,0.076l0.028,0.002l0.022,0.014l0.016,0.023l-0.003,0.037L17.416,45.605z M7.324,47.43
	l-0.002,0.033l0.013,0.047l0.02,0.035l0.034,0.012l0.032-0.021l0.041-0.086l0.041-0.018l0.077-0.02l0.049-0.049v-0.049L7.56,47.281
	V47.26l0.017-0.008l0.027-0.014l0.018-0.006l-0.016-0.023l-0.018-0.02l-0.025-0.018L7.537,47.16l0.016-0.023l0.006-0.02v-0.049
	l-0.029-0.051l-0.202-0.061v0.035L7.322,47.01l-0.026,0.031l-0.011,0.027l0.003,0.059l-0.003,0.029l-0.03,0.078l0.002,0.039
	l0.028,0.033v0.025l-0.03-0.006l-0.032,0.002l-0.021,0.018v0.033l0.018,0.02L7.324,47.43z M6.937,48.727l-0.052-0.064l-0.023,0.012
	l-0.04,0.014v0.029l0.019,0.01l0.009,0.012l0.004,0.014l0.013,0.016l-0.199,0.08L6.569,48.93l0.001,0.119l-0.095,0.117l-0.01,0.059
	l0.042,0.074H6.436L6.4,49.305l-0.021,0.018l-0.005,0.031l0.017,0.023l0.021,0.018l0.011,0.014l-0.021,0.031l-0.044,0.014
	l-0.05,0.008l-0.034,0.014L6.426,49.5l0.17-0.082l0.119-0.15l0.001-0.174l0.051-0.012l0.047-0.025l0.023-0.037l-0.014-0.053
	l0.046-0.055l0.05-0.09L6.937,48.727z M5.714,50.232l0.034-0.09l-0.063-0.012L5.51,50.174l-0.036-0.018l0.008-0.107l0.012-0.051
	l0.017-0.051l0.057-0.107l0.006-0.037l-0.011-0.029l-0.035-0.053l-0.011-0.029l0.009-0.037l0.024-0.037l0.006-0.025l-0.039-0.025
	l-0.019,0.148l-0.004,0.117l-0.052,0.086l-0.01,0.037v0.072l-0.019,0.064l-0.009-0.018L5.38,50.039l-0.01-0.02l-0.018,0.072
	L5.34,50.189l-0.029,0.062l-0.068-0.031l-0.046,0.051l-0.027,0.014l-0.03,0.01v0.021l0.107,0.021l0.028,0.018l0.061,0.096
	l0.013,0.002l-0.024,0.152l-0.006,0.084l0.021,0.062l0.033,0.021l0.012-0.029v-0.045l0.006-0.033l0.028-0.025l0.02-0.008
	l0.017-0.008l0.021-0.035l0.002-0.023l-0.003-0.084l0.001-0.039l0.006-0.033l0.036-0.092l0.078,0.021l0.066-0.035L5.714,50.232z
	 M42.495,2.031l0.099,0.09l0.164,0.104l0.048,0.015l0.052-0.009l0.112-0.083l0.017-0.021l0.018-0.058l0.038-0.041l0.02-0.045
	l-0.023-0.063l-0.104-0.147L42.857,1.69l-0.1-0.067l-0.102-0.034l-0.071,0.019l-0.039,0.021l-0.107,0.129l0.011,0.019l0.017,0.043
	l0.016,0.028l-0.045,0.084L42.495,2.031z M42.038,0.848l-0.024,0.209l0.018,0.092l0.036,0.097l0.078,0.155l-0.017,0.035
	l-0.003,0.025l0.02,0.059l0.044-0.123l0.027-0.125l0.046-0.448l-0.013-0.08L42.198,0.71l-0.055,0.019l-0.046,0.028l-0.042-0.001
	l-0.042-0.081l-0.01-0.02l-0.013-0.018L41.975,0.63l-0.019,0.005l-0.022,0.019l0.089,0.146L42.038,0.848z M37.189,14.791
	l0.006,0.035v0.084l0.008,0.036l0.017,0.037l-0.009,0.046l0.018,0.045l0.031,0.034l0.03,0.013l0.118-0.114l0.046-0.09l0.013-0.096
	l0.005-0.101l0.02-0.107l0.103-0.152l0.031-0.085l-0.049-0.048l-0.031,0.011l-0.091,0.062l-0.035,0.015l-0.034,0.004l-0.068,0.02
	l-0.035,0.004l-0.048,0.034l-0.042,0.065l-0.028,0.077l-0.013,0.077l0.009,0.042L37.189,14.791z M8.653,53.199l-0.018,0.059
	l0.021,0.051l0.045,0.029l0.056-0.014l0.018-0.037l0.055-0.148l0.011-0.041l-0.021-0.072L8.785,53H8.714l-0.065-0.027l-0.033-0.006
	l-0.024,0.016l-0.006,0.053L8.597,53.1l0.026,0.059L8.653,53.199z M21.026,44.67l0.029,0.055l0.048-0.008l0.058-0.016l0.057-0.002
	l0.062,0.029l0.016,0.039L21.28,44.9l0.056-0.014l0.036-0.051l0.033-0.062l0.044-0.049l0.065-0.016l0.026,0.021l-0.014,0.033
	l-0.058,0.01v0.021l0.044-0.006l0.039,0.006l0.029,0.02l0.015,0.035l0.067-0.201l0.018-0.105l-0.013-0.047l-0.017-0.037
	l-0.008-0.035l0.015-0.031h-0.042l-0.108,0.027l-0.11,0.012l-0.035,0.012l-0.129,0.082l-0.078,0.023l-0.087-0.027l-0.013,0.039
	l0.005,0.047l-0.001,0.039L21.026,44.67z M17.537,45.873l-0.017,0.02l-0.008,0.049v0.064l0.032,0.025l0.051-0.023l0.152-0.154
	l0.023-0.039l-0.01-0.018l-0.017,0.004l-0.032-0.004l-0.021-0.02l-0.016-0.025l-0.051-0.021l-0.068,0.02l-0.021,0.047l0.023,0.057
	l0.009,0.027l-0.016-0.004L17.537,45.873z M5.435,49.16l0.021,0.018l0.033,0.021l0.049,0.012l0.025-0.004l0.021-0.043l0.048-0.037
	L5.633,49.1l-0.02-0.031l-0.024-0.055l-0.021-0.006l-0.049,0.037L5.49,49.057l-0.044,0.02l-0.042,0.051L5.401,49.16l0.016-0.004
	L5.435,49.16z M4.682,50.92l0.023,0.01l0.057,0.037l0.027,0.008l0.021-0.01l0.039-0.061l0.038-0.045l0.004-0.025l-0.017-0.047
	l-0.011-0.016l-0.023-0.02l-0.073-0.051l-0.018,0.01l0.013,0.035l0.013,0.033l0.009,0.031l0.003,0.012l0.002,0.01l-0.005,0.012
	l-0.01-0.01l-0.012-0.02l-0.011-0.043l-0.02-0.043L4.7,50.713l-0.028,0.004L4.665,50.74l0.003,0.031l-0.003,0.113L4.682,50.92z
	 M8.893,52.775l-0.002,0.037l0.013,0.01l0.026-0.016l0.028-0.008l0.031-0.014l0.033-0.029l0.03-0.037l0.01-0.02L9.044,52.67
	l-0.051-0.023l-0.035,0.012l-0.005,0.014l-0.007,0.006l-0.019,0.004l-0.017,0.018l-0.015,0.039L8.893,52.775z M7.81,54.371
	l0.014,0.012l0.018,0.01l0.022,0.021l0.043,0.006l0.041-0.029l0.029-0.002l0.027-0.004l0.023-0.023l0.008-0.023l-0.003-0.012
	l-0.008-0.016l-0.002-0.021l0.007-0.023l-0.009-0.023l0.004-0.016l0.016-0.016l-0.016-0.006l-0.047,0.01l-0.015,0.018l0.014,0.035
	l-0.011,0.023l-0.023-0.01l-0.116-0.098l-0.06-0.016l-0.041,0.021L7.699,54.23l-0.007,0.037v0.023l0.011,0.014l0.022-0.006
	l0.023-0.035l0.034-0.018l0.011,0.012l-0.021,0.014l0.002,0.027l0.021,0.029l0.012,0.023L7.81,54.371z M6.021,45.178l0.045,0.004
	l0.014-0.055l0.016-0.049l0.027-0.033l0.048-0.014l-0.014,0.043L6.15,45.121l0.003,0.043l0.017,0.043l0.055-0.084l0.043,0.055
	l-0.009,0.086L6.15,45.26l0.036,0.064l0.062,0.016l0.062-0.025l0.028-0.068l0.007-0.039l0.018-0.025l0.021-0.02l0.016-0.025
	L6.396,45.1L6.38,45.066v-0.031l0.042-0.029l-0.024-0.012l-0.023-0.006L6.35,44.996l-0.032,0.01l0.036-0.127l0.056-0.105
	l0.191-0.238L6.624,44.5l0.031-0.146l0.01-0.023l0.009-0.047l-0.031-0.047l-0.049-0.045l-0.03-0.039l0.028-0.01l0.032,0.018
	l0.028,0.025l0.021,0.002l0.033-0.045l0.011-0.105l0.02-0.053L6.649,43.91l-0.03-0.016l-0.017-0.006l-0.018-0.006l-0.016,0.006
	l-0.036,0.016L6.516,43.91l-0.005,0.014l-0.07,0.064L6.38,44.074l-0.034,0.012H6.283L6.23,44.102l-0.04,0.035l-0.03,0.061
	l-0.017,0.119L6.128,44.34l-0.01,0.02l0.006,0.033l0.084,0.078v0.021l-0.099,0.1l-0.027,0.055l-0.013,0.059l0.004,0.053l0.023,0.02
	l0.051-0.031l0.019,0.027L6.082,44.85l-0.013,0.004l-0.014-0.006H6.044l-0.006,0.014l0.002,0.053L6.011,45.07l-0.027,0.053
	l-0.052-0.02L5.921,45.16l0.038,0.016L6.021,45.178L6.021,45.178z M5.768,46.068l0.035,0.01l0.032,0.018l0.018,0.027v0.045
	l0.148-0.121l0.089-0.111l0.004-0.018l0.01-0.027l0.021-0.186l0.008-0.01l0.036-0.01l0.011-0.008l0.013-0.018l0.042-0.246
	l0.01-0.029l-0.023,0.006L6.17,45.408L6.151,45.41l-0.016-0.018l-0.012-0.047l-0.008-0.012l-0.13,0.008l-0.052-0.008l-0.02,0.021
	l-0.013-0.002L5.897,45.32l-0.002-0.027L5.89,45.266l-0.007-0.021L5.871,45.23l-0.052,0.043l-0.022,0.283l-0.019,0.096l-0.027,0.082
	l-0.014,0.129l0.006,0.135L5.768,46.068z M23.63,44.238l-0.069,0.018l-0.047,0.043l-0.085,0.123l-0.052,0.037l-0.118,0.055
	l-0.051,0.047l-0.018,0.031l-0.026,0.064l-0.018,0.025l-0.024,0.021l-0.054,0.035l-0.024,0.021l-0.243,0.434l-0.214,0.131
	l-0.006,0.137l0.071,0.096l0.107-0.049l0.02,0.023l-0.024,0.129l0.091,0.057l0.134,0.008l0.116-0.037l0.043-0.037l0.035-0.041
	l0.048-0.035l0.075-0.018l0.052-0.016l0.053-0.041l0.04-0.059l0.015-0.062l-0.021-0.047l-0.071-0.078l-0.015-0.064l-0.01-0.025
	l-0.043-0.059l-0.011-0.043l0.004-0.031l0.035-0.109l0.068-0.127l0.163-0.223l0.065-0.131l0.018-0.023l0.033-0.059l0.025-0.061
	l-0.005-0.045L23.63,44.238z M33.502,32.084l0.029,0.018l0.034,0.006l0.067-0.01l0.323-0.117l0.357-0.244l0.041-0.059l0.041-0.146
	l0.032-0.072l0.129-0.207l0.027-0.072l-0.002-0.152l-0.104-0.01l-0.145,0.039l-0.106-0.012l-0.024,0.068l-0.025,0.002l-0.017-0.047
	l0.002-0.076l0.016-0.072l0.135-0.308l0.061-0.235l0.039-0.256l0.001-0.043l-0.018-0.019l-0.074,0.003l-0.037,0.011l-0.025,0.025
	l-0.126,0.221l-0.081,0.058l-0.139,0.148l-0.025,0.041l-0.058,0.043l-0.059,0.055l-0.048,0.125L33.6,30.967l-0.038,0.07
	l-0.018,0.078l-0.01,0.08l0.002,0.092l0.046,0.115l0.206-0.076l0.084,0.119l-0.036,0.059l-0.1,0.113l-0.032,0.066v0.172
	l-0.017,0.049l-0.033,0.023l-0.148,0.033l-0.026,0.016l-0.009,0.039l0.009,0.039L33.502,32.084z M18.082,38.213l0.146,0.129
	l0.019,0.014h0.067l0.123,0.023h0.023l0.034-0.029l0.011-0.033l-0.008-0.035l-0.037-0.029l0.023-0.025l0.028-0.021l0.027,0.002
	l0.022,0.045l0.041-0.021l0.018-0.039l0.01-0.189l-0.046-0.062l-0.014-0.02l-0.013-0.035l-0.012-0.023l-0.017-0.01l-0.04-0.014
	l-0.019-0.016l-0.008-0.016l-0.01-0.035l-0.01-0.012l-0.028-0.012l-0.033-0.006l-0.022-0.016l-0.005-0.045l-0.253,0.17l-0.04,0.074
	l-0.027,0.234l0.016,0.037L18.082,38.213z M9.423,51.896L9.41,51.871l-0.007-0.025L9.385,51.83H9.36l-0.064,0.047l-0.114,0.037
	l-0.045,0.021l-0.069,0.051l-0.061,0.07L8.98,52.072l-0.046,0.006L8.917,52.09l-0.018,0.018L8.898,52.16l0.028,0.053l0.061,0.094
	l0.072-0.029l0.06-0.014l0.122-0.008l0.058-0.045l0.033-0.01l0.014,0.041L9.344,52.32l0.002,0.043l0.012,0.016l0.096-0.08
	l0.128-0.346l0.103-0.068l-0.034-0.053L9.598,51.84l-0.093,0.045l-0.056,0.012H9.423z M8.653,52.779l0.062-0.137l0.015-0.025
	l0.073-0.029l0.027-0.02l0.026-0.033l0.014-0.02l0.006-0.029l0.01-0.094L8.88,52.363L8.873,52.34l-0.009-0.029l-0.01-0.305
	l-0.027-0.152l-0.089-0.09l-0.064-0.006l-0.059,0.02l-0.055,0.021l-0.079,0.02l-0.062,0.035l-0.041,0.008L8.346,51.85L8.32,51.83
	l-0.028-0.018l-0.037-0.006l0.065,0.115l0.019,0.072l-0.033,0.078l-0.043,0.062l-0.035,0.07l-0.017,0.072l0.019,0.057l-0.026,0.02
	l-0.018,0.025l-0.015,0.035l-0.003,0.039l0.016,0.082l0.035,0.068l0.052,0.029l0.068-0.027l0.048,0.018l0.023,0.006l0.031,0.002
	l-0.035,0.035l-0.032,0.008l-0.039-0.002l-0.041,0.006l-0.061,0.041l-0.095,0.084l-0.013,0.023l-0.011,0.037v0.016l0.053-0.029
	l0.033,0.006l0.033,0.002l0.036-0.029l-0.046,0.189l0.003,0.031h0.054l0.075-0.031l0.074-0.045l0.042-0.031l0.068-0.088l0.025-0.025
	l0.069-0.035L8.653,52.779z M4.863,51.412L4.867,51.4v-0.006l-0.011-0.043l-0.056-0.141L4.78,51.188l-0.084-0.074l0.016-0.064
	l-0.023-0.062l-0.046-0.035l-0.053,0.01l0.003-0.031l0.003-0.027l0.006-0.021l0.01-0.018L4.542,50.84l-0.158,0.152l-0.088-0.029
	l-0.009,0.02l-0.012,0.014l-0.009,0.008l-0.012,0.01l-0.017-0.07l-0.052-0.041l-0.055,0.002l-0.026,0.049v0.068L4.1,51.043
	l-0.021,0.041l-0.005,0.02l0.002,0.018l0.008,0.018l0.01,0.018l0.007,0.016l0.009,0.037l0.005,0.039l-0.002,0.039l-0.006,0.035
	L4.067,51.42l-0.004,0.021L4.058,51.41l-0.011-0.08l-0.005-0.016L4.021,51.32L4,51.35l-0.014,0.035l-0.007,0.029h0.022L3.97,51.475
	l0.029,0.049l0.063,0.027l0.074,0.01l0.153-0.01l0.072,0.02l0.06,0.068l0.038-0.021l0.024-0.033l0.015-0.041l0.008-0.055
	l-0.01-0.014l-0.016-0.006l-0.009-0.018l0.012-0.037l0.011-0.018l0.026-0.006l0.017-0.016l0.026-0.006l0.142,0.02l0.082-0.002
	l0.04,0.006L4.863,51.412z M11.541,57.914l-0.064-0.025l-0.021,0.016l-0.017,0.018l-0.033,0.045l-0.151,0.309l-0.108,0.166
	l-0.009,0.025l0.013,0.025l0.019,0.025l0.01,0.029v0.115l-0.012,0.102l-0.028,0.088l-0.044,0.084l-0.13,0.191l-0.047,0.107
	l-0.015,0.115l0.012,0.15l0.02,0.066l0.044,0.027l0.046-0.01l0.059-0.023l0.055-0.029l0.04-0.033l0.058-0.119l0.026-0.283
	l0.043-0.135l0.126-0.166l0.019-0.064l0.006-0.041l0.038-0.094l0.079-0.328l0.006-0.072l-0.01-0.193L11.541,57.914z M56.718,9.561
	L56.68,9.555L56.671,9.55l-0.01-0.009l-0.015-0.01l-0.02-0.005l-0.018,0.009L56.57,9.578l-0.028,0.01l-0.144-0.01l-0.045,0.01
	l-0.039,0.024l-0.018,0.03l-0.01,0.03L56.269,9.7l-0.041,0.022l-0.082,0.02l-0.036,0.031l-0.128,0.143l-0.117,0.101l-0.02,0.03
	l0.017,0.058l0.035,0.034l0.028,0.031l-0.018,0.052l-0.076-0.065l-0.073-0.035l-0.259-0.027l-0.1-0.027l-0.09-0.047l-0.052-0.065
	l0.051-0.017l-0.018-0.03L55.24,9.883l-0.055-0.013l-0.048-0.019L55.119,9.81l0.006-0.049l0.029-0.034l0.089,0.021l0.192,0.166
	L55.532,9.9l-0.149-0.115l-0.104-0.144l-0.063-0.162l-0.082-0.356L55.097,9.02L55.08,8.951l-0.048-0.04l-0.011-0.035l-0.009-0.091
	L54.99,8.7l-0.033-0.073L54.918,8.57L54.72,8.355l-0.043-0.064L54.55,8.006l-0.008-0.034V7.92l0.009-0.049l0.044-0.064l0.029-0.093
	l0.034-0.08l0.019-0.087l-0.028-0.079l0.048-0.153l0.069-0.153l0.078-0.139l0.279-0.359l0.026-0.067l0.031-0.207l0.033-0.087
	l0.185-0.245l0.067-0.157l0.003-0.187l-0.017-0.045L55.396,5.57l-0.022-0.084l-0.03-0.001l-0.032,0.019l-0.012,0.022l-0.027,0.086
	l-0.061,0.074L55.09,5.802l-0.148,0.282L54.89,6.129l-0.058,0.02l-0.146,0.154L54.47,6.441l-0.035,0.048l-0.273,0.326l-0.359,0.39
	L53.67,7.293l-0.146,0.03L53.002,7.28l-0.431-0.077l-0.107-0.032l-0.05-0.024l-0.13-0.1L52.257,7.03l-0.029-0.031l-0.049-0.141
	L52.15,6.826l-0.045-0.02l-0.03-0.055l-0.041-0.128l0.021-0.121l-0.061-0.049l-0.084,0.034L51.868,6.61l-0.012,0.066l-0.029,0.072
	l-0.032,0.064l-0.032,0.043l-0.045,0.022l-0.045-0.003l-0.1-0.047l0.064-0.205l0.043-0.057l0.056-0.031l0.039-0.01V6.51L51.72,6.462
	l-0.104-0.051l-0.369-0.021l-0.049,0.017l-0.052,0.041L51.059,6.55l-0.024-0.009l-0.45-0.007l-0.042-0.013l-0.038-0.028
	l-0.045-0.047l-0.015,0.013l-0.031,0.018l-0.042-0.16l-0.016-0.028l-0.073-0.076l-0.016-0.029l0.047-0.031l0.253,0.031V6.155
	l-0.692-0.271l-0.452-0.278l-0.026-0.022l-0.083-0.101L49.31,5.462l-0.052-0.127l-0.036-0.024L49.09,5.276l-0.057-0.049
	l-0.116-0.131l-0.05-0.025L48.806,5.05l-0.264-0.212l-0.233-0.249l-0.188-0.136l-0.127-0.207l-0.099-0.055L47.3,3.507l-0.148-0.261
	l-0.109-0.075l-0.051-0.086l-0.229-0.496l-0.978-1.222l-0.117-0.115l-0.264-0.202L45.28,0.919l-0.118-0.233l-0.051-0.034
	L45.068,0.63l-0.031-0.054l-0.051-0.129l-0.05-0.041l-0.079,0.019l-0.078,0.067l-0.048,0.074L44.727,0.61v0.059l-0.004,0.052
	l-0.021,0.022l-0.034,0.012l-0.104,0.079l-0.152,0.041l-0.146,0.018l-0.07,0.027h-0.037l-0.015-0.042l-0.003-0.057l-0.007-0.047
	L44.113,0.74l-0.035-0.03l-0.054,0.058l-0.025,0.071l-0.008,0.073l0.005,0.067l0.035,0.138l-0.003,0.07l-0.066,0.116l-0.009,0.039
	l-0.007,0.041L43.93,1.43l-0.023,0.041l-0.062,0.077L43.827,1.58L43.8,1.772l0.037,0.184l0.417,0.907l0.095,0.301l0.092,0.518
	l0.039,0.534l-0.012,0.193L44.33,5.149l-0.252,0.478l-0.032,0.152l0.046,0.897l-0.01,0.177L44.057,7.03l-0.054,0.196l-0.077,0.149
	l-0.095,0.116l-0.175,0.146l-0.055,0.037l-0.06,0.022l-0.13,0.021L43.341,7.75l-0.072,0.047l-0.052,0.052l-0.082,0.149l-0.046,0.103
	l-0.017,0.08l0.017,0.095l0.073,0.186L43.15,8.54l0.027,0.038l0.056,0.167l-0.052,0.078l-0.038,0.073L43.137,8.98l0.035,0.112
	l0.172,0.264l0.038,0.114l0.002,0.193l-0.053,0.183l-0.077,0.16l-0.082,0.123l-0.207,0.224l-0.233,0.18l-0.085,0.046l-0.04,0.009
	l-0.058,0.001l-0.037-0.01l-0.066-0.038l-0.074-0.016l-0.127-0.053l-0.114-0.015l-0.031-0.01l-0.055-0.075l0.023-0.074l0.031-0.057
	l-0.035-0.02l-0.069,0.007l-0.232,0.097l-0.317,0.049l-0.043-0.013l-0.03-0.02l-0.042-0.063l-0.031-0.034l-0.221-0.105l-0.063-0.05
	l-0.091-0.12L40.87,9.918l-0.263-0.196L40.553,9.7L40.53,9.683L40.497,9.65l-0.036-0.032l-0.043-0.004l-0.027,0.023L40.38,9.677
	l-0.011,0.044l-0.017,0.037l-0.057,0.045l-0.077,0.015l-0.151-0.002l-0.093,0.314l0.026,0.168l0.094,0.116l0.115,0.095l0.102,0.11
	l0.149,0.217l0.021,0.057l0.021,0.097l0.045,0.066l0.032,0.062l-0.018,0.08l-0.055,0.068l-0.129,0.089l-0.209,0.209l-0.05,0.062
	l-0.078,0.172l-0.046,0.078l-0.055,0.034l-0.023,0.042l-0.005,0.094l-0.021,0.1l-0.066,0.051l-0.063-0.017l-0.048-0.048
	l-0.069-0.119l-0.068-0.054l-0.052,0.017l-0.043,0.061L39.405,12.2l-0.026,0.038l-0.024,0.02l-0.036,0.004l-0.035,0.011
	l-0.027,0.023l-0.127,0.166l-0.05,0.033l-0.073,0.019l-0.298,0.017l-0.123,0.058l-0.103,0.153l-0.035,0.158l0.052,0.31l0.001,0.186
	l-0.038,0.188l-0.032,0.089l-0.129,0.213l-0.038,0.084l-0.014,0.08l0.028,0.166l0.03,0.101l0.036,0.045l0.139,0.112l0.095,0.035
	l0.026,0.021l0.061,0.119l0.016,0.021l0.003,0.019l0.056,0.071l0.31,0.138l0.102,0.107l0.157,0.283l0.1,0.118l-0.019,0.062
	l0.004,0.079l0.018,0.079l0.021,0.064l-0.013,0.025l-0.006,0.067l-0.006,0.047l-0.03,0.02l-0.021,0.017l-0.013,0.021v0.024
	l0.021,0.035l0.001,0.024l-0.006,0.091l-0.009,0.038l-0.029,0.039l-0.021,0.005l-0.068-0.007l-0.017,0.017l-0.033,0.168l-0.158,0.26
	l-0.051,0.255l-0.057,0.129l-0.015,0.088l0.011,0.084l0.095,0.235l0.043,0.17l0.03,0.079l0.043,0.032l0.033,0.013l0.079,0.06
	l0.037,0.014l0.03-0.006l0.05-0.022l0.032-0.001l0.145,0.068l0.077,0.012l0.032-0.066l0.02-0.083l0.047-0.079l0.055-0.066
	l0.048-0.04l0.388-0.125l0.096-0.072l0.033-0.135l-0.03-0.33l0.059-0.149l0.054-0.027l0.163-0.046l0.036-0.027l0.029-0.03
	l0.186-0.098l0.032-0.075l0.05-0.175l0.031-0.073l0.059-0.048l0.074-0.014l0.074,0.025l0.056,0.052l0.02,0.073l-0.036,0.043
	l-0.049,0.037l-0.022,0.06l0.027,0.058l0.065-0.018l0.142-0.084h0.15l0.155,0.05l0.26,0.149l0.145,0.038l0.113-0.045l0.188-0.193
	l0.053-0.035l0.066-0.028l0.143-0.021l0.032-0.034l-0.052-0.079l-0.232-0.219l-0.073-0.046l-0.073-0.017l-0.08-0.008l-0.069-0.019
	l-0.059-0.036l-0.054-0.047l-0.203-0.269l-0.051-0.052l-0.118-0.08l-0.051-0.052l-0.147-0.209l-0.051-0.114l-0.182-0.129
	l-0.063,0.029l-0.058,0.017l-0.197,0.018l-0.117,0.039l-0.071,0.009l-0.055-0.023l-0.228-0.254l-0.098-0.079l-0.318-0.172
	l-0.089-0.106l-0.032-0.186l0.021-0.188l0.049-0.178l0.066-0.164l0.168-0.3l0.112-0.138l0.125-0.109l0.132-0.061l0.076-0.006
	l0.22,0.037l0.201-0.034l0.071,0.001l0.148,0.064l0.516,0.593l0.033,0.168l0.017,0.034l0.026,0.03l0.063,0.05l0.084,0.027
	l0.035,0.027l-0.007,0.045l-0.025,0.012l-0.121-0.027l-0.013,0.017l0.014,0.038l0.029,0.039l0.02,0.022l0.037,0.019l0.04,0.004
	l0.037-0.008l0.035-0.015l0.048-0.047l0.175-0.252l0.055-0.062l0.239-0.171l0.032-0.019l0.036-0.011l0.037-0.003l0.034-0.013
	l0.062-0.061l0.084-0.039l0.508-0.4l0.375-0.153l0.267-0.059l0.277-0.008l0.278,0.074l0.22,0.124l0.064,0.017l0.049,0.028
	l0.171,0.202l0.15,0.099l0.462,0.212l0.131,0.097l0.18,0.187l0.551,0.394l0.265,0.086l0.647,0.38l0.622,0.219l0.479,0.319
	l0.078,0.071l0.069,0.084l0.031,0.075l0.027,0.042l0.064,0.065l0.067,0.057l0.051,0.017l0.035-0.056l0.038-0.184l0.082-0.077
	l0.037-0.084l0.084-0.336l0.014-0.093l0.007-0.085l-0.004-0.094L49.18,14.38l0.021-0.195l0.053-0.173l0.304-0.563l0.39-0.616
	l0.195-0.24l0.464-0.399L50.9,11.83l0.479-0.343l0.434-0.208l0.427-0.111l0.069-0.003l0.04,0.019l0.021,0.041l0.013,0.047
	l0.014,0.038l0.028,0.034l0.025,0.02l0.229,0.082l0.095,0.017l0.08-0.045l0.237-0.023l0.438,0.104l0.125-0.043l-0.035-0.042
	l-0.051-0.041l-0.04-0.046l-0.02-0.059l0.011-0.05l0.026-0.062l0.031-0.054l0.026-0.023l0.02-0.011l0.031-0.053l0.022-0.021
	l0.024-0.008h0.015l0.02,0.006l0.035,0.002l0.059,0.018l0.007,0.047l-0.006,0.052l0.005,0.041l0.081,0.079l0.095,0.038l0.105,0.004
	l0.203-0.034l0.046-0.013l0.026-0.028l0.013-0.056l-0.017-0.045l-0.059-0.102l0.149,0.048l0.076-0.002l0.072-0.045l0.02-0.034
	l0.007-0.028l0.01-0.017l0.117-0.012l0.03-0.017l0.028-0.038l-0.052-0.02h-0.051l-0.038-0.017l-0.013-0.075l0.021-0.058l0.038-0.034
	l0.05-0.019l0.235-0.037l0.084-0.034l0.068-0.065l0.066-0.035l0.313-0.007l0.096-0.031l0.052-0.008l0.081,0.051l0.061,0.016
	l0.062,0.008l0.036-0.012l-0.043-0.025l0.087-0.113l0.019-0.034l0.018-0.049l0.027-0.104l0.018-0.045l0.023-0.033l0.082-0.083
	l0.026-0.043l0.019-0.037l0.023-0.027l0.044-0.011l0.089,0.019l0.034-0.009l0.048-0.051l0.027-0.018l0.119-0.027l0.04-0.019
	l0.054-0.081l0.034-0.02h0.066l0.025-0.017l0.018-0.037l-0.035-0.021L56.718,9.561z M14.586,50.346l-0.017-0.018l-0.022-0.014
	l-0.126,0.078v-0.018l-0.003-0.041l0.003-0.02l-0.038,0.018l-0.022-0.008l-0.018-0.02l-0.018-0.012l-0.029,0.006l-0.032,0.016
	l-0.033,0.004l-0.029-0.014L14.1,50.217l-0.011-0.043l0.062-0.1l0.018-0.057l0.02-0.025l0.021-0.014l0.158-0.031l0.049-0.023
	l0.014-0.045l-0.033-0.088l-0.035,0.068l-0.019,0.021l-0.027,0.012l-0.027-0.008l-0.029-0.018l-0.021-0.031l-0.01-0.045h-0.017
	l-0.007,0.041l-0.015,0.043l-0.025,0.021l-0.066-0.039l-0.041,0.004l-0.036,0.01l-0.022-0.006L14,49.805l0.065-0.049l0.049-0.047
	l-0.031-0.07l-0.078,0.047l-0.1,0.014l-0.062-0.043l0.032-0.113l0.061-0.07l0.036-0.021l0.016-0.033l0.008-0.037l0.015-0.027
	l0.029-0.043l0.068-0.146h-0.064l-0.111,0.061l-0.065,0.016l-0.211-0.01l-0.188-0.047l-0.394,0.006L13,49.182l-0.06-0.025
	l-0.039-0.047l-0.03-0.24l0.02-0.051l0.077-0.012L13,48.822l0.024,0.021l0.032,0.018h0.038l0.028-0.02l0.041-0.068l0.026-0.012
	l0.076-0.02l0.012-0.047l-0.009-0.057l0.016-0.051l0.057-0.021l0.049,0.023l0.054,0.01l0.073-0.062l0.025-0.062l0.05-0.336
	l-0.011-0.078l-0.029-0.072l-0.211-0.271l-0.035-0.057l-0.062,0.008l-0.061-0.037l-0.052-0.02l-0.036,0.049l-0.053-0.016
	l-0.079,0.004l-0.07,0.029l-0.029,0.041l-0.019,0.051l-0.088,0.145l-0.039,0.049l-0.109,0.061l-0.144,0.023l-0.15-0.004
	l-0.124-0.029l-0.186-0.111l-0.055-0.016l-0.201,0.01l-0.066-0.01L11.63,47.85l-0.063-0.062l-0.051-0.068l-0.045-0.104l-0.095-0.164
	l-0.03-0.07l-0.012-0.096l-0.008-0.029l-0.092-0.059l-0.016-0.027l-0.009-0.035l-0.014-0.014v-0.012l0.035-0.045l0.021-0.041
	L11.245,47l-0.013-0.025l0.007-0.047l0.024-0.037l0.06-0.037l0.021-0.027l0.001-0.018l-0.019-0.037l-0.001-0.02l0.009-0.021
	l0.028-0.045l0.005-0.025l-0.035-0.047l-0.076,0.033l-0.079,0.061l-0.042,0.045l-0.048,0.064l-0.039,0.029l-0.051,0.008h-0.086
	l-0.025-0.018l-0.017-0.033l-0.011-0.035l-0.011-0.016l-0.116-0.027l-0.146,0.025l-0.084-0.008l-0.038-0.057l-0.014-0.012
	l-0.038-0.004l-0.039,0.006l-0.024,0.01l-0.093,0.143l-0.065,0.051l-0.063,0.008l-0.148-0.012l-0.048,0.01l-0.02,0.018l-0.011,0.021
	l-0.026,0.031l-0.068,0.047H9.771l-0.023-0.023L9.71,47.09l-0.016,0.027l-0.032,0.023l-0.021,0.012l-0.016,0.021l-0.006,0.043
	l0.059,0.15l0.003,0.082l-0.071,0.035L9.559,47.5L9.52,47.543L9.478,47.59L9.43,47.635l-0.119,0.061l-0.032,0.047l0.045,0.047
	l0.03-0.037l0.054-0.049l0.059-0.039h0.048l0.023,0.053l-0.013,0.084l-0.038,0.08l-0.048,0.033l-0.026,0.008l-0.03,0.037
	l-0.028,0.008H9.195L9.18,47.979l-0.013,0.018l-0.013,0.018l-0.021,0.002l-0.016-0.012l-0.013-0.016l-0.008-0.016l-0.008-0.01
	l-0.002-0.008L9.069,47.91L9.055,47.9l-0.041-0.012l-0.02-0.018l-0.02-0.037l-0.009-0.082l-0.014-0.035l-0.034-0.018l-0.021,0.014
	L8.87,47.771l-0.022,0.021l-0.021,0.014l-0.025,0.004H8.766l-0.017,0.018l-0.08,0.109l-0.031,0.014L8.61,47.947l-0.03,0.006
	l-0.032,0.029l-0.019,0.031l-0.003,0.025l0.015,0.018l0.038,0.008l0.027,0.01l0.008,0.051l0.029,0.01l0.097-0.021h0.039L8.759,48.16
	l-0.034,0.031l-0.041,0.02l-0.04,0.006l-0.012,0.008l-0.027,0.049l-0.014,0.018H8.495l-0.046,0.012l-0.03,0.033l-0.052,0.092
	l-0.035,0.039l-0.036,0.018l-0.095,0.008l-0.021-0.01l-0.012-0.021v-0.057l-0.014-0.016l-0.058,0.008l-0.014-0.006l0.003-0.055
	l0.044-0.051L8.126,48.24l-0.061-0.07l-0.083-0.018l-0.091,0.004l-0.081-0.018l0.007,0.051L7.79,48.285l-0.003,0.057l0.049,0.105
	l0.013,0.051L7.822,48.52L7.779,48.5l-0.023-0.045L7.738,48.41l-0.021-0.02l-0.033,0.012l-0.03,0.025l-0.027,0.033l-0.007,0.031
	l0.06,0.098l0.162,0.074l0.032,0.092L7.86,48.793l-0.03,0.025L7.8,48.852l-0.013,0.055l-0.009,0.133l0.009,0.053L7.746,49.07
	l-0.034-0.031L7.69,49l-0.017-0.094l-0.021-0.064l-0.032-0.045L7.351,48.85l-0.047-0.012l-0.024-0.039l0.002-0.084l-0.13,0.074
	l-0.073,0.01l-0.045-0.061l-0.062,0.041l-0.018,0.072l0.018,0.184l0.016,0.047l0.002,0.023l-0.01,0.025l-0.021,0.016L6.94,49.158
	l-0.013,0.01l-0.009,0.047l-0.001,0.088l-0.014,0.043h0.081l0.029,0.012l0.055,0.049l0.031,0.012l0.031-0.004l0.021-0.016
	l0.022,0.025l0.013,0.018l-0.004,0.021l-0.009,0.033l0.032,0.014l0.036,0.021l0.025,0.029l0.011,0.037l-0.008,0.041l-0.047,0.057
	l-0.007,0.051h0.02L7.26,49.73l0.049-0.006l0.024-0.018l0.013-0.025L7.358,49.6l0.009-0.031l0.025,0.018l0.013,0.018l0.006,0.025
	l-0.002,0.039l0.089-0.047l0.016-0.004l0.027,0.039l-0.018,0.039L7.49,49.727l-0.018,0.029l-0.009,0.029l-0.012,0.027v0.02
	l0.029,0.01l0.073,0.061l0.022,0.014l0.029-0.055l0.039,0.004l0.079,0.053l-0.013,0.053l0.045-0.004l0.071-0.021l0.062-0.002
	l0.164,0.148l0.028,0.039l-0.014,0.09l-0.018,0.08l-0.002,0.078l0.159,0.287l0.061,0.051l-0.017,0.025l-0.231-0.113l-0.116-0.012
	l-0.033,0.098l-0.022-0.008l-0.007-0.01l-0.012-0.01l-0.023,0.033l-0.028,0.014l-0.022-0.016l-0.009-0.045l-0.024-0.01l-0.047-0.029
	l-0.03-0.031l0.027-0.018v-0.008L7.619,50.49l-0.005-0.041l0.005-0.135l0.024,0.031l0.016,0.043l0.019,0.039l0.029,0.016l0.021-0.02
	l-0.002-0.039l-0.019-0.068l-0.015-0.109L7.669,50.16l-0.045-0.031l-0.065-0.062l-0.061,0.078l-0.031,0.018l-0.018-0.045
	l0.016-0.057l0.064-0.076l0.007-0.043l-0.015-0.018H7.5l-0.018,0.014l-0.008,0.006l-0.011-0.004l-0.025,0.006l-0.011-0.002
	l-0.001-0.008l0.003-0.033l-0.002-0.01l-0.06-0.051l-0.085-0.051L7.2,50.092l-0.055,0.133l-0.007,0.07l0.016,0.072l0.02,0.025
	l0.029,0.029l0.026,0.035l0.012,0.047l0.004,0.043l0.012,0.037l0.026,0.055l0.034,0.057l0.076,0.1l0.036,0.068l0.03-0.037
	l0.043-0.031l0.039-0.006l0.018,0.039l0.005,0.047l0.019,0.02l0.025,0.016l0.033,0.029l0.062,0.131l0.045,0.051l0.063-0.01
	l-0.009,0.096l-0.039,0.084l-0.102,0.145L7.6,51.553l-0.02,0.031l-0.037,0.023L7.51,51.621l-0.03,0.021l-0.028,0.041l0.12-0.008
	l0.103-0.055l0.258-0.264l0.032-0.051l0.141-0.297l0.045,0.025l0.075-0.006l0.079-0.02l0.055-0.021l0.093-0.061l0.034-0.014
	l0.043-0.012l0.104,0.012l0.131-0.039l0.036,0.01l0.018,0.025v0.02l-0.011,0.018L8.8,50.971l0.007,0.025l0.015,0.021l0.021,0.016
	l0.011,0.084l-0.008,0.025L8.82,51.184l-0.031,0.041L8.753,51.26l-0.039,0.016l-0.041-0.018l-0.016,0.105l0.04,0.09l0.048,0.066
	l0.013,0.035l0.045,0.043l0.06-0.021l0.064-0.045l0.074-0.037l0.023-0.021l0.02-0.029l0.008-0.021l0.197-0.062l0.047-0.037
	l0.021-0.057l0.009-0.094l0.009-0.035l0.044-0.066l0.011-0.047l0.008-0.115L9.39,50.859l-0.064-0.148l-0.102-0.098L9.1,50.578
	l-0.131,0.033l-0.114,0.084l-0.067,0.025l-0.116-0.039l-0.08-0.018l-0.052-0.031l0.03-0.074l0.032-0.016l0.075-0.004l0.03-0.018
	l0.03-0.029l0.061-0.035l0.022-0.02l0.051-0.07l0.027-0.062l0.005-0.059l-0.019-0.057L8.738,49.91l-0.087-0.098L8.617,49.75
	l-0.005-0.088l0.096,0.039l0.084-0.084L8.88,49.5l0.107-0.062l0.052,0.02l0.089,0.082l0.041,0.021l0.042,0.004l0.07,0.02
	l0.083,0.012l0.012,0.02l-0.002,0.031l0.015,0.043l0.02,0.023l0.066,0.049l0.013,0.006l0.016,0.004l0.017,0.004l0.018,0.012
	l0.006,0.02l-0.001,0.047l0.019,0.07l-0.005,0.158l0.021,0.238L9.6,50.387l0.089,0.051l0.143,0.148l0.234,0.193l0.039,0.07
	l0.006,0.025l0.011,0.014l0.007,0.016l-0.011,0.021l-0.034,0.049l-0.016,0.027l-0.006,0.023l0.011,0.039l0.02,0.043l0.032,0.035
	l0.044,0.02v0.025h-0.029l-0.026,0.008l-0.051,0.018l-0.046-0.004l-0.036,0.016l-0.063,0.061l-0.213,0.109l-0.054,0.043l-0.03,0.051
	l0.043,0.021l0.052-0.021l0.501-0.098h0.082l-0.035,0.088l-0.048,0.061L9.995,51.73L9.978,51.76l0.013,0.047l0.068,0.055
	l0.026,0.049l-0.089-0.002l-0.034,0.014l-0.026,0.037l0.052,0.051l0.012,0.094l-0.027,0.09l-0.065,0.039l-0.078,0.109l-0.017,0.025
	l0.013,0.104l-0.005,0.045L9.79,52.553l-0.08-0.076l-0.023,0.008l-0.023,0.068l-0.004,0.035l0.01,0.031l-0.006,0.033l-0.014,0.02
	l-0.04,0.025l-0.01,0.02l-0.03,0.09l-0.224,0.24l-0.002,0.012l0.002,0.053l-0.005,0.014l-0.025,0.008L9.305,53.15l-0.03,0.098
	l-0.011,0.023l-0.037,0.037L9.16,53.355l-0.059,0.02l-0.095-0.121L8.88,53.301l-0.083,0.1l0.067,0.072l-0.093,0.186l-0.014,0.07
	l0.014,0.021l0.058,0.037l0.013,0.02l0.003,0.039l0.017,0.066l0.004,0.041l-0.022,0.236l0.014,0.066l0.028,0.043l0.084,0.088
	l-0.037-0.02l-0.041-0.006H8.802l0.007,0.049l-0.004,0.16l0.009,0.035l0.048,0.018l0.142,0.086l0.041,0.031l0.116,0.182l0.088,0.102
	l0.031,0.055l0.006,0.068l-0.044,0.074l0.031,0.09l-0.018,0.117l-0.036,0.127l-0.021,0.119l-0.035,0.07l-0.166,0.129l-0.05,0.084
	l-0.041-0.035l-0.061-0.076l-0.034-0.014l-0.027-0.006l-0.041-0.016l-0.027-0.004l-0.024,0.012L8.61,55.857l0.065,0.041l0.092,0.072
	l0.08,0.082l0.036,0.066l-0.019,0.045l-0.004,0.025l0.013,0.014l0.022,0.008l0.018,0.023l0.01,0.025l0.009,0.084l0.015,0.047
	l0.025,0.037l0.036,0.021l0.083-0.031l0.07-0.002l0.55,0.066l0.057,0.027l0.034,0.051l0.03,0.086l0.002,0.051l0.015,0.021
	l0.048,0.023H9.94l0.035-0.018h0.034l0.039,0.043l0.054-0.061l0.059-0.023l0.051-0.029l0.022-0.072l0.01-0.061l0.039-0.125
	l-0.007-0.043l-0.039-0.033l-0.143-0.078l-0.041-0.014l-0.049-0.031l-0.033-0.07l-0.037-0.148l-0.092-0.203L9.83,55.699l0.003-0.068
	l0.036-0.146l0.039-0.104l0.051-0.084l0.028-0.127l0.022-0.037l0.083-0.098l0.015-0.027l0.011-0.092l0.01-0.037l0.097-0.117
	l0.128-0.041l0.139,0.016l0.138,0.041l0.088,0.084l0.017,0.129l-0.035,0.143l-0.069,0.113l-0.054,0.057l-0.03,0.016l-0.038,0.004
	l-0.042-0.016l-0.012-0.027l0.01-0.094l-0.031-0.061l-0.075-0.02l-0.078,0.008l-0.048,0.014l-0.045,0.029l-0.067,0.059l-0.036,0.057
	l0.033,0.027l0.03,0.006l0.054,0.031l0.18,0.035l0.03,0.061l0.007,0.141l0.036,0.078l0.086,0.117l0.068,0.117l0.04,0.104
	l0.031,0.119l0.018,0.129l-0.003,0.141l-0.021,0.137l-0.042,0.143l-0.051,0.133l-0.054,0.1l-0.045,0.037L10.358,57l-0.023,0.051
	l-0.039,0.285l0.051-0.021l0.083-0.053l0.12-0.107l0.049-0.031l0.105-0.021l0.06-0.027l0.052-0.035l0.021-0.035l0.024-0.025
	l0.167-0.033l0.052-0.021l0.052-0.031l0.048-0.035l0.039-0.035l0.034-0.051l0.052-0.111l0.029-0.049l0.084-0.09l0.05-0.033
	l0.115-0.027l0.142-0.104l-0.094-0.025l-0.022-0.012l-0.001-0.025l0.043-0.068l0.012-0.031l-0.026-0.043l-0.062-0.037l-0.075-0.021
	l-0.131-0.02l-0.025-0.033l0.009-0.053l0.104-0.188l0.036-0.045l0.046-0.035l0.116-0.053l0.064-0.018l0.061-0.008l0.033,0.004
	l0.058,0.018l0.079,0.008l0.016,0.014l0.007,0.016l0.02,0.031l0.06,0.064l0.015,0.018l0.008,0.039l-0.002,0.061l0.016,0.025
	l0.049,0.025l0.058-0.004l0.125-0.021l-0.005,0.016l-0.004,0.004l-0.016,0.02l0.021,0.01l0.01,0.006l0.012,0.014l0.02-0.02
	l0.008-0.02l0.003-0.025l0.012-0.033l0.041-0.053l0.016-0.035l0.03-0.168l0.01-0.029l0.039-0.037l0.014-0.02v-0.074l-0.007-0.021
	l-0.013-0.012L12.5,55.436l0.003-0.043l0.013-0.033l0.04-0.07l0.01-0.006l0.016-0.059l0.036-0.045l0.099-0.08L12.7,54.988
	l0.076-0.396l0.01-0.031l0.046-0.057l0.009-0.031l-0.011-0.033l-0.083-0.09l-0.03-0.049l-0.019-0.057l-0.007-0.064l0.004-0.068
	l0.191-0.402l0.081-0.354l-0.02-0.156v-0.025l0.044-0.049l0.038-0.164l0.07-0.143l0.037-0.18l0.031-0.072l0.025-0.023l0.016-0.01
	l0.01-0.016l0.008-0.086l0.022-0.094l0.012-0.033l0.025-0.012l0.038-0.01l0.031-0.016l0.013-0.051l-0.004-0.037l-0.037-0.098
	l0.058-0.035l0.067-0.006l0.066-0.016l0.061-0.07l-0.054-0.062l-0.019-0.012l-0.051,0.004l-0.035-0.043l-0.01-0.045l0.054-0.107
	l-0.013-0.057l0.033-0.016l0.071,0.002l0.043-0.016l0.018-0.021l0.055-0.096l0.011-0.041l-0.001-0.027l-0.006-0.012v-0.004
	l0.007-0.016l0.017-0.02l0.041-0.031l0.026-0.045l0.05-0.016l0.079-0.018h0.013l0.014,0.008l0.015-0.008l0.004-0.059l0.018-0.064
	l0.01-0.012l0.015-0.006l0.014-0.018l0.006-0.029v-0.096l0.029-0.076l0.142,0.018l0.059-0.053l0.045,0.002l0.057-0.023l0.048-0.041
	l0.02-0.051l-0.017-0.018l-0.089,0.012l-0.04-0.006l0.024-0.041l0.026-0.02l0.027-0.014l0.025-0.025l0.033-0.057l-0.015-0.029
	l-0.026-0.012l-0.015-0.027l0.038-0.051l0.08-0.039l0.091-0.023l0.067-0.008l-0.01-0.025L14.586,50.346z M22.75,47.082l-0.099-0.004
	v-0.025l0.026-0.004l0.029-0.018l0.025-0.004v-0.021l-0.171,0.006l-0.047-0.023l0.051-0.084l0.035-0.02l0.042-0.018l0.033-0.027
	l0.016-0.045l-0.01-0.053l-0.053-0.104L22.508,46.5h-0.04l-0.04,0.01l-0.035-0.006l-0.016-0.043l-0.003-0.047l-0.016-0.08
	l-0.003-0.035l0.004-0.021l0.021-0.066l0.018-0.016l0.003-0.053l0.03-0.086l0.013-0.107l0.014-0.027l0.018-0.027l0.029-0.053
	l-0.021-0.029l-0.022-0.021l-0.026-0.018l-0.036-0.006l0.061-0.018l0.02-0.01l0.025-0.025l0.011-0.023l0.029-0.078V45.59h-0.029
	l-0.104,0.088l-0.056,0.014l0.05-0.049l0.014-0.033l-0.017-0.018l-0.044-0.002l-0.042,0.01l-0.062,0.027l-0.37,0.039l-0.038-0.014
	l-0.037-0.035l-0.03-0.037l-0.015-0.031l-0.015-0.025l-0.038-0.002l-0.082,0.014l-0.047-0.016l-0.064-0.066l-0.039-0.018
	l-0.038-0.01l-0.121-0.068l0.046-0.105l-0.037-0.045l-0.069-0.023l-0.062-0.051l-0.017,0.029l-0.067,0.08l-0.021,0.018l-0.052-0.016
	l-0.014-0.037v-0.104l-0.013-0.047L21,45.016l-0.029-0.02l-0.051,0.006l-0.009,0.035l-0.004,0.051l-0.019,0.021l-0.049-0.057
	l-0.041,0.08l-0.021,0.027l-0.106-0.027h-0.03l-0.049,0.02h-0.026l-0.032-0.01l-0.039-0.033l-0.056-0.016l-0.048-0.035l-0.027-0.008
	l-0.03,0.002l-0.05,0.02l-0.027,0.006l-0.036,0.018l-0.03,0.045l-0.021,0.051l-0.025,0.037l-0.095,0.061l-0.188,0.088l-0.084,0.068
	l-0.072,0.068l-0.093,0.074l-0.085,0.029l-0.057-0.059l-0.053,0.02l-0.086-0.02l-0.091-0.037l-0.066-0.037l0.045,0.062l0.049,0.037
	l0.052,0.031l0.051,0.045l0.036,0.049l0.026,0.051l0.016,0.064l0.005,0.158l-0.019,0.166l-0.021,0.07l-0.041,0.055l-0.109,0.096
	L19.22,46.42l-0.034,0.049l-0.043,0.045l-0.052,0.039l-0.063,0.02l-0.075-0.006l-0.149-0.055L18.73,46.5l-0.226,0.021l-0.056-0.008
	h-0.017l-0.036,0.008l-0.033,0.016l-0.028,0.02l-0.03,0.008l-0.033-0.014l-0.038,0.084l-0.078,0.059l-0.095,0.037l-0.084,0.021
	l-0.048,0.002l-0.052-0.002l-0.046-0.014l-0.037-0.027l-0.116-0.107l-0.018-0.018l-0.018-0.107l-0.042-0.098l-0.216-0.336
	l-0.031-0.023l-0.028-0.004l-0.021-0.012l-0.02-0.039l-0.062,0.053l-0.037,0.016l-0.051,0.008v0.023l0.046,0.002l0.041,0.023
	l0.02,0.041l-0.012,0.045l-0.041,0.033l-0.089,0.035l-0.105,0.09l-0.165,0.092l-0.052,0.068l-0.017,0.107l-0.008,0.117l-0.032,0.094
	l-0.091,0.035l-0.055,0.047l-0.017,0.107l-0.008,0.125l-0.025,0.102l0.003,0.111l-0.062,0.15l-0.095,0.133l-0.089,0.057
	l-0.047,0.012l-0.324,0.182l-0.051,0.014l-0.027,0.021l-0.088,0.105l-0.019,0.035l-0.021,0.059l-0.05,0.047l-0.416,0.242
	l-0.082,0.09l-0.036-0.018l-0.046,0.012l-0.052,0.021l-0.045,0.014l-0.102,0.064l-0.023,0.004l-0.005,0.01l0.037,0.021l-0.073,0.031
	l-0.133,0.033l-0.108,0.082l-0.065,0.043l-0.044,0.043l0.019,0.043l0.155-0.104l0.078-0.031v0.057l0.081,0.004l0.024-0.004
	l0.028-0.016l0.011-0.014l0.008-0.018l0.019-0.025l0.234-0.174l0.108-0.062l0.104-0.039h0.076l0.024-0.018l0.014,0.002l0.027,0.016
	l0.028-0.064l0.055,0.008l0.124,0.08l-0.029,0.01l-0.022,0.016l-0.021,0.023l-0.01,0.027h0.043v0.025l-0.053,0.068v0.084
	l0.034,0.047l0.059-0.049l-0.012,0.102l-0.006,0.023l-0.024,0.018l-0.051,0.006l-0.021,0.016l-0.017,0.039l0.012,0.037l0.027,0.025
	l0.041,0.01h0.348v0.027l-0.06,0.014l-0.035,0.037l-0.021,0.055l-0.013,0.066l0.043-0.035l0.043-0.004l0.049,0.014l0.056,0.025
	l-0.028,0.037l-0.037,0.105l-0.052,0.086l-0.008,0.016l-0.021,0.01l-0.033,0.006l-0.012-0.006l-0.012-0.014l-0.053-0.021l-0.1-0.021
	L15.65,49.42l0.041,0.02l0.045,0.014l0.031,0.039l0.045,0.027l-0.026,0.002l-0.057,0.025l0.015,0.053l0.03,0.018l0.089,0.004
	l0.034,0.01l-0.009,0.027l-0.023,0.025l-0.013,0.014l-0.016-0.002l-0.069-0.004v0.023l0.042,0.012l0.019,0.035v0.049l-0.019,0.053
	h0.062l-0.034,0.043l-0.061,0.012l-0.064,0.004l-0.047,0.02l0.197,0.072l0.03,0.014l0.034,0.111l0.008,0.053l-0.031,0.025
	l0.006,0.033l-0.038,0.168l0.025,0.053l0.041,0.035l0.051,0.008l0.052-0.023l-0.017-0.012l-0.026-0.027l-0.019-0.008L16,50.367
	l0.037-0.006l0.049,0.025l0.061,0.006l-0.041-0.053l0.051,0.018l0.133,0.092h0.025l0.039-0.008l0.214-0.002l0.025,0.057
	l-0.027,0.057l-0.092,0.096l-0.043,0.068l-0.054,0.141l-0.039,0.055l0.021,0.096l0.189-0.111l0.026-0.008l0.056,0.041l0.085,0.078
	l0.045,0.023l0.06,0.02h0.063l0.054-0.029l0.042-0.045l0.046-0.033l0.042,0.004l0.028,0.059l0.036-0.08l0.068-0.012l0.074,0.027
	l0.052,0.041l0.016,0.027l0.032,0.07l0.017,0.025l0.021,0.02l0.057,0.027l0.023,0.027l0.053-0.061v-0.064l-0.033-0.066l-0.039-0.053
	l-0.061-0.053l-0.023-0.029l-0.02-0.043l-0.009-0.033v-0.074l-0.013-0.043l0.118-0.078l0.022-0.125l-0.015-0.15l0.017-0.166
	l0.045-0.08l0.059-0.029l0.141,0.008l0.041-0.008l0.013-0.02l0.007-0.031l0.014-0.041l0.063-0.125l0.157-0.24l0.034-0.021
	l0.029,0.008l0.03,0.031l0.037-0.039l-0.01-0.023l-0.021-0.025l-0.006-0.039l0.034-0.064l0.042-0.041l0.037-0.049l0.017-0.086
	l0.006-0.014l0.016-0.012l0.015-0.014l0.003-0.025l-0.003-0.016l-0.013-0.014l-0.004-0.018l-0.012-0.027l-0.019-0.023l-0.009-0.029
	l0.02-0.045l-0.015-0.07l0.048-0.076l0.07-0.064l0.062-0.043l0.02,0.018l0.021,0.012l-0.011,0.062l0.019-0.01l0.055-0.084
	l0.03-0.025l0.027-0.018l0.033-0.006l0.049-0.004l0.071-0.012l0.075-0.031l0.05-0.047l-0.016-0.059l0.202-0.111l0.133-0.037
	l0.121-0.111l0.066-0.043l0.129-0.025l0.136,0.004l0.521,0.105l0.119,0.045l0.163,0.152l0.128,0.08l0.057,0.053l0.034,0.059
	l0.058,0.121l0.154,0.207l0.024,0.025l0.066,0.016l0.057,0.047l0.099,0.115l0.013-0.051l0.007-0.051l0.001-0.111l0.008-0.053
	l0.027-0.104l0.021-0.137l0.112-0.295l0.185-0.254l0.025-0.064l0.012-0.049l0.03-0.014l0.045-0.006l0.044-0.02l0.034-0.041
	l0.021-0.049l0.003-0.051l-0.016-0.035l0.062-0.072l0.253-0.129l0.233-0.203l0.076-0.027l0.019-0.016l0.073-0.109l0.108-0.064
	l0.025-0.012l0.081-0.014l0.101-0.043l0.088-0.055l0.037-0.066l-0.043,0.021L22.75,47.082z M45.303,25.195l-0.016-0.014
	l-0.088-0.083l-0.011-0.042l0.027-0.067l-0.017-0.024l-0.005-0.021l0.007-0.026l0.015-0.038l-0.073,0.014l-0.14,0.15l-0.017-0.053
	l0.013-0.057l0.04-0.086l0.009-0.061l0.009-0.175l0.023-0.095l0.006-0.019l0.035-0.038l0.013-0.03l-0.008-0.031l-0.007-0.027
	l0.002-0.022l-0.01-0.018l-0.072-0.248l-0.01-0.049l-0.01-0.125l-0.019-0.035l-0.02-0.025l-0.018-0.033l-0.036-0.073l0.009-0.026
	l0.034-0.051l0.017-0.039l-0.006-0.042l-0.013-0.043l-0.018-0.084l-0.024-0.02l-0.035-0.01l-0.034-0.018l-0.195-0.185l-0.041-0.062
	l-0.015-0.096l0.028-0.083l0.059-0.049l0.033-0.048l-0.038-0.083l-0.035-0.03l-0.085-0.034l-0.037-0.031l-0.012-0.037l0.016-0.039
	l0.029-0.034l0.029-0.013l0.023-0.047l-0.034-0.101l-0.084-0.157l-0.056-0.067l-0.019-0.034l-0.011-0.05l-0.006-0.025l-0.047-0.101
	l-0.02-0.014l-0.075-0.096l-0.016-0.027l-0.027-0.084l-0.069-0.114l-0.208-0.239l-0.138-0.109l-0.013-0.006l-0.063,0.003
	l-0.064,0.019l-0.03-0.001l-0.119-0.13l-0.027-0.051l-0.017-0.043l-0.131-0.602l-0.059-0.694l-0.025-0.101l0.03-0.173l-0.033-0.43
	l0.024-0.149l-0.016-0.032L43.258,18.9l-0.001-0.035l0.001-0.04l0.054-0.266l0.021-0.041l0.013-0.047l0.057-0.376l0.016-0.034
	l0.04-0.065l0.017-0.041l0.013-0.048l0.004-0.046l-0.017-0.099l-0.037-0.015l-0.049,0.041l-0.047,0.061l-0.086,0.085l-0.111,0.059
	l-0.126,0.028l-0.139-0.004l-0.147-0.063l-0.1-0.11l-0.08-0.121l-0.095-0.099l-0.178-0.138l-0.072-0.032l-0.115-0.013l-0.037-0.015
	l-0.029-0.023l-0.024-0.027l-0.025-0.023l-0.032-0.009l-0.071-0.03l-0.05-0.051l-0.043-0.01l-0.042,0.09v0.02l0.024,0.013
	l0.001,0.024l-0.01,0.018l-0.025,0.04l-0.012,0.02l-0.035,0.097l-0.153,0.258l-0.007,0.041l-0.017,0.02l0.018,0.101l-0.004,0.032
	l-0.075,0.097l-0.011,0.041l-0.004,0.085l-0.007,0.039l-0.062,0.128l-0.001,0.079l-0.01,0.079l-0.019,0.081l-0.033,0.081
	l0.102,0.146l0.069,0.02l0.134-0.109l0.041-0.016l0.095-0.013l0.039-0.017l0.108-0.067l0.356-0.037l0.163-0.052l0.114-0.163h-0.04
	l0.008-0.032l0.015-0.03l0.019-0.025l0.021-0.024l0.144,0.1l0.045,0.041l0.095,0.129l0.038,0.08l0.023,0.147l0.004,0.043
	l-0.014,0.047l-0.015,0.024l-0.052,0.06l-0.019,0.03l-0.015,0.084l-0.004,0.264l-0.014,0.079l-0.167,0.407l-0.051,0.076
	l-0.055,0.034l-0.071-0.007l-0.058-0.018l-0.056-0.035l-0.169-0.156l-0.068-0.044l-0.062-0.02l-0.13-0.174l-0.049-0.05l-0.065,0.018
	l-0.042-0.011l-0.035,0.005l-0.05,0.073l-0.031,0.079l-0.004,0.056l0.021,0.05l0.036,0.067l-0.084,0.148l-0.094,0.129l-0.123,0.065
	l-0.161-0.037l-0.106-0.106l-0.059-0.155l-0.058-0.457l-0.043-0.134l-0.012-0.123l-0.019-0.086v-0.05l0.012-0.042l0.043-0.087
	l0.012-0.038l-0.038-0.167l-0.107-0.097l-0.132-0.029l-0.119,0.042l-0.058,0.045l-0.065,0.037l-0.068,0.006l-0.07-0.049
	l-0.083-0.106l-0.051-0.046l-0.137-0.053l-0.026,0.011l-0.019,0.095l-0.011,0.043l-0.006,0.043l0.015,0.041l0.019,0.095
	l-0.036,0.097l-0.065,0.054l-0.074-0.04l-0.046,0.031l0.043,0.059l0.121,0.079l0.027,0.073l0.012,0.097l0.038,0.06l0.12,0.076
	l-0.027,0.052l0.019,0.092l-0.036,0.024l-0.021-0.014l-0.035-0.037l-0.034-0.041l-0.024-0.051l-0.019,0.031l-0.021,0.049
	l-0.015,0.033l-0.002,0.045l0.005,0.1l-0.02,0.072l-0.041,0.253l-0.079,0.249l-0.037,0.067l-0.054,0.049l-0.187,0.076l-0.122,0.103
	l-0.065,0.008l-0.193-0.06h-0.078l-0.064,0.024l-0.027,0.056l-0.016,0.093l-0.04,0.07l-0.318,0.265l-0.06,0.066l-0.01,0.076
	l0.064,0.056l0.146,0.077l0.035,0.068l0.017,0.075l0.009,0.174l-0.01,0.177l0.013,0.062l0.04,0.077l0.17,0.196l0.021,0.067v0.52
	l-0.015,0.023l-0.059,0.074l-0.014,0.043l-0.016,0.084L38.89,22.94l-0.229,0.484l-0.104,0.117l-0.144,0.056l-0.068-0.007
	l-0.184-0.051l-0.109-0.082l-0.007,0.059l0.021,0.094l0.027,0.07l-0.045,0.018l0.012,0.045l0.065,0.085l0.025,0.043l0.042,0.103
	l0.026,0.033h0.201l0.055-0.017l0.034-0.034l0.029-0.044l0.04-0.044l0.136-0.021l0.138,0.073l0.117,0.115l0.072,0.106l0.059,0.153
	l0.039,0.169l0.021,0.18l0.008,0.18l-0.045,0.706l-0.071,0.332l-0.118,0.297l-0.042,0.045l-0.167,0.127l-0.013,0.066l-0.055,0.169
	l-0.017,0.079l-0.009,0.161l-0.011,0.077l-0.036,0.071l-0.02,0.066l-0.016,0.197l-0.017,0.075l-0.276,0.839l-0.081,0.146
	l-0.098,0.13l-0.22,0.243l-0.104,0.143l-0.095,0.158l-0.151,0.387l-0.114,0.211l-0.061,0.164l-0.034,0.146l-0.091,0.802
	l-0.021,0.067l-0.051,0.075l-0.321,0.351l-0.212,0.164l-0.946,0.479l-0.214,0.189l-0.146,0.256l-0.131,0.49l-0.06,0.148
	l-0.086,0.123l-0.212,0.225l-0.079,0.129l-0.069,0.152l-0.066,0.115l-0.085,0.1l-0.238,0.162l-0.414,0.41l-0.232,0.186l-0.114,0.061
	l-0.062,0.018l-0.349,0.008l-0.048,0.031l-0.074,0.076l-0.207,0.16l-0.272,0.117l-0.296,0.09l-0.356,0.178l-0.496,0.129l-0.228,0.08
	l-0.071,0.082l-0.005,0.039l0.005,0.135l-0.005,0.039l-0.03,0.076L31.01,35.84l-0.027,0.072l-0.061,0.072l-0.125,0.104l-0.122,0.043
	l-0.155,0.008l-0.16-0.02l-0.127-0.031l-0.263-0.104l-0.118-0.076l-0.085-0.107l-0.01-0.137l0.131-0.33l0.027-0.162v-0.303
	l-0.021-0.074l-0.049,0.047l-0.081,0.145l-0.069,0.023l-0.06-0.035l-0.089-0.105l-0.061-0.01l-0.062,0.035l-0.058,0.014
	l-0.039-0.078l0.026-0.049l0.036-0.043l0.014-0.041l-0.036-0.051l0.152-0.213l0.006-0.078l0.015-0.031l0.031,0.018l0.061,0.064
	l0.06,0.014l0.103,0.045h0.061l0.049-0.035l0.144-0.166l0.031-0.08l0.04-0.078l0.064-0.035h0.219l0.056-0.018l0.045-0.02L30.54,34
	l0.041-0.053l0.019-0.068l-0.029-0.055l-0.084-0.098l0.023-0.047l0.035-0.104l0.025-0.035l0.044-0.018l0.045,0.002l0.043,0.012
	l0.039,0.004l0.096-0.039l0.01-0.066l-0.015-0.088l0.035-0.096l-0.124-0.105L30.56,33.17l-0.456,0.18l-0.072,0.045L30,33.449
	l-0.035,0.027l-0.405,0.186l-0.054,0.012l-0.187,0.01l-0.052,0.016l-0.129,0.061l-0.106,0.082l-0.074,0.107l-0.029,0.143
	l0.005,0.082l-0.009,0.027l-0.027,0.041l-0.039,0.035l-0.009,0.021l-0.005,0.045l-0.018,0.078l-0.036,0.076l-0.016,0.082
	l0.022,0.096l0.084-0.045l0.027,0.059l-0.002,0.191l0.018,0.109l0.079,0.18l0.026,0.107l0.004,0.09l-0.004,0.045l-0.023,0.074
	l0.016,0.041l0.019,0.041l0.013,0.037l-0.013,0.078l-0.22,0.535l-0.147,0.264l-0.676,0.855l-0.125,0.23l-0.052,0.033l-0.056,0.018
	l-0.143,0.096l-0.264,0.305l-0.222,0.051l-0.026,0.018l-0.02,0.018l-0.011,0.029l-0.007,0.137l-0.011,0.041l-0.02,0.018
	l-0.021,0.029l-0.2,0.232l-0.05,0.082l-0.041,0.09l-0.037,0.156l-0.048,0.055l-0.057,0.047l-0.044,0.057l0.038,0.062l0.089,0.102
	l0.02,0.057l0.007,0.092l0.021,0.059l0.237,0.32l0.024,0.057v0.059l-0.021,0.158l-0.029,0.076l-0.006,0.033l0.011,0.072
	l-0.004,0.039l-0.026,0.031l-0.06-0.004l-0.024-0.068V40.09l-0.062-0.125l-0.105,0.02l-0.067,0.092l0.046,0.088l-0.026,0.049
	l-0.006,0.043l0.012,0.066l0.024,0.055v0.031l-0.036,0.016l-0.205,0.035l-0.103-0.01l-0.025,0.004l-0.025-0.002l-0.009-0.014
	l-0.01-0.02l-0.039-0.059l-0.015-0.014l-0.037,0.01l0.002,0.031l0.021,0.035l0.015,0.016l0.008,0.051l0.024,0.029l0.019,0.02
	l0.012,0.027l-0.018,0.047l-0.038,0.016l-0.042-0.004l-0.032-0.018l-0.004,0.047l0.014,0.037l0.021,0.031l0.033,0.014l-0.068,0.053
	l-0.064-0.027l-0.063-0.047l-0.057-0.004l-0.021-0.047l-0.03-0.012l-0.082,0.01l-0.028,0.021l0.021,0.053l0.058,0.078l0.067-0.037
	l0.019,0.043l-0.024,0.07l-0.062,0.051l-0.039,0.006l-0.278-0.006v-0.025l0.039-0.029l0.052-0.055l0.043-0.059l0.014-0.037
	l-0.046-0.027l-0.062,0.039l-0.092,0.088l-0.026,0.008l-0.06,0.033l-0.026,0.014l-0.03,0.004l-0.086-0.004l-0.057-0.02l-0.008-0.053
	l0.012-0.066v-0.068l-0.03,0.061l-0.021,0.029l-0.021,0.014l-0.029-0.008l-0.001-0.018l0.005-0.023l-0.008-0.029l-0.023-0.035
	l-0.022-0.043l-0.012-0.045l0.018-0.055l-0.051,0.004l-0.044,0.027L24.913,40.6l-0.032,0.031l-0.041,0.014h-0.088l-0.039,0.016
	l-0.045,0.07l0.021,0.078l0.063,0.047l0.086-0.02v0.094l-0.022,0.021l-0.044-0.01h-0.061l-0.051,0.037l-0.044,0.057l-0.033,0.027
	l-0.018-0.045l0.007-0.029l0.028-0.072l0.008-0.039l-0.005-0.047l-0.014-0.008l-0.015,0.008l-0.011,0.006l-0.214-0.129l0.021-0.008
	l0.017-0.008l0.02-0.01h0.027l-0.041-0.053l-0.018-0.033l-0.005-0.041l-0.052,0.023l-0.039,0.029l-0.028,0.045l-0.009,0.068
	l-0.011,0.033l-0.025-0.008l-0.014-0.043l0.009-0.072l0.036-0.053l0.11-0.129l0.021-0.037l0.016-0.062l0.034-0.059l0.049-0.035
	l0.052,0.014l0.02-0.051l-0.006-0.066l-0.037-0.084l-0.048-0.072l-0.048-0.035l-0.057-0.018l-0.047-0.041l-0.055-0.029l-0.08,0.012
	l-0.183,0.092l-0.062,0.016l-0.057,0.021l-0.112,0.117l-0.052,0.039l-0.063,0.02l-0.074,0.006l-0.027,0.012l-0.046,0.053
	l-0.032,0.012l-0.017,0.012l-0.065,0.049L23.34,40.35h-0.033l-0.062-0.02l-0.03-0.004l-0.109,0.023l-0.028-0.012l-0.023-0.023
	l-0.028-0.02l-0.037-0.018l-0.036-0.006l-0.302,0.033l-0.12,0.035l-0.062,0.008l-0.303-0.051l-0.07,0.016l-0.127,0.074l-0.128,0.027
	l-0.2,0.09l-0.028,0.006h-0.028l-0.03,0.008l-0.155,0.102l-0.051,0.064l-0.023,0.025l-0.026,0.01l-0.487,0.098l-0.388,0.004
	l-0.516,0.086l-0.271-0.016l-0.281-0.084l-0.139-0.021l-0.147,0.027l-0.054,0.023l-0.117,0.072l-0.101,0.094l-0.11,0.033
	l-0.06,0.037l-0.086-0.037l-0.118-0.029l-0.106-0.043l-0.046-0.086l-0.014-0.051l-0.019-0.045l0.004-0.045l0.047-0.055l0.05-0.016
	h0.049l0.043-0.01l0.032-0.051l-0.137,0.012l-0.057,0.016l-0.057,0.027l-0.018-0.018l-0.033-0.021l-0.016-0.016l-0.009,0.02
	l-0.021,0.018l-0.014,0.018l-0.056-0.018h-0.117l-0.06-0.01l-0.056-0.041l-0.041-0.035l-0.035-0.01l-0.037,0.059v-0.027l-0.04,0.041
	l-0.045,0.062l-0.054,0.055l-0.062,0.025l-0.079-0.004l-0.04,0.012l-0.016,0.031l-0.008,0.049l-0.021,0.018h-0.313l-0.037,0.014
	l-0.034,0.027l-0.162,0.07l-0.051,0.012h-0.015l-0.028,0.002l-0.024,0.01l-0.022,0.018l0.051,0.041l-0.043,0.016l-0.133-0.006
	l-0.053,0.01l-0.065,0.025l-0.059,0.037l-0.033,0.051l0.028,0.023l0.078,0.047l0.03,0.01l0.032,0.018v0.043l-0.021,0.08
	l-0.015,0.082l-0.03,0.078l-0.041,0.068l-0.04,0.043l-0.193,0.092l-0.049,0.014l-0.054,0.021l-0.117,0.107l-0.063,0.023
	l-0.219,0.152l-0.019,0.037l-0.018,0.098l-0.017,0.031l-0.084,0.078l-0.145,0.211l-0.057,0.055l-0.057,0.027l-0.135,0.023
	l-0.06,0.025l-0.147,0.16l-0.112,0.045l-0.062,0.059l-0.117,0.146l-0.041,0.068l-0.018,0.051l-0.069,0.002l-0.032,0.02l-0.075,0.109
	l-0.179,0.203l-0.061,0.043l-0.067,0.016l-0.003,0.014l-0.074,0.055l-0.016,0.01l-0.012,0.031l-0.014,0.086l-0.018,0.033
	l-0.047,0.031l-0.146,0.039l-0.114,0.018l-0.128,0.037l-0.071,0.004l-0.062,0.064l-0.038,0.02l-0.084-0.043l-0.052,0.014
	l-0.048,0.031l-0.034,0.039l0.027,0.041l0.004,0.033l-0.018,0.021l-0.092,0.018l-0.013,0.018l-0.001,0.035l-0.016,0.039
	l-0.043,0.059L12.914,44.4l-0.118,0.088l-0.064,0.016l-0.021,0.018l0.021,0.072l-0.018,0.033l-0.164,0.145l-0.007,0.037l0.044,0.066
	l-0.398,0.145l-0.149,0.012l-0.022,0.006l-0.04,0.029l-0.021,0.012l0.009-0.053l0.013-0.049l0.02-0.043l0.022-0.035l0.031,0.021
	l0.032,0.018l0.031,0.004l0.033-0.016l-0.042-0.059l-0.031-0.025l-0.038-0.002l-0.084,0.018l-0.045,0.018l-0.065,0.01l-0.004,0.018
	l0.009,0.027l0.013,0.119l-0.015,0.035l-0.06-0.006l-0.04-0.033l-0.048-0.107l-0.038-0.041l-0.041,0.018l-0.076-0.041L11.5,44.887
	l-0.032,0.021l-0.043,0.018l-0.043,0.006l-0.041-0.006l-0.025-0.018l-0.021-0.025l-0.023-0.021l-0.042-0.01l-0.044,0.012
	l-0.034,0.031l-0.025,0.043l-0.016,0.043l0.042,0.014l0.009-0.01l0.018-0.031l0.031,0.014l0.117,0.025l0.011,0.043l0.018,0.014
	l-0.001,0.008l-0.05,0.025l-0.126,0.027l-0.021,0.012l-0.02,0.027l-0.044,0.008l-0.051-0.008l-0.035-0.016l-0.021,0.043
	l-0.009,0.045l-0.013,0.115l-0.013,0.027l-0.021,0.025l-0.012,0.025l0.017,0.035l0.046,0.037l0.006,0.016l0.01,0.041l0.043,0.074
	l0.017,0.092l0.014,0.025l0.01,0.035l-0.008,0.049l-0.03,0.059l-0.036,0.033l-0.04,0.025l-0.038,0.035l-0.038,0.059l0.003,0.043
	l0.021,0.035l0.015,0.051l0.015,0.037l0.073,0.064l0.016,0.025l-0.008,0.051l-0.008,0.035l0.003,0.035l0.032,0.043l-0.02,0.051
	l-0.005,0.072l-0.019,0.059l-0.061,0.018v0.023l0.04,0.02l0.018,0.029l0.018,0.012l0.05-0.033l0.146-0.15l0.124-0.174l0.079-0.061
	l0.115,0.006l0.051,0.025l0.119,0.121l0.093,0.053l0.026,0.008l0.002,0.018l-0.004,0.023l0.012,0.053l0.005,0.035l0.007,0.029
	l0.017,0.014l0.026-0.01l0.024-0.018l0.017-0.02l0.005-0.006l0.022-0.012l0.021-0.012h0.016l0.006,0.033l0.011,0.023l0.023,0.01
	l0.026-0.006l0.023-0.016l0.023,0.049l0.045-0.006l0.152-0.098l0.033-0.031l0.071-0.104l0.084-0.16l0.02-0.023l0.034,0.023
	l0.014,0.059l-0.01,0.068l-0.025,0.051l0.027,0.014l0.022-0.008l0.018-0.023l0.015-0.033l0.009,0.021l0.015,0.025l0.018,0.021
	l0.022,0.006l0.026-0.012l0.006-0.016v-0.016l0.013-0.014l0.003-0.021l0.029-0.027h0.01l0.016-0.025l-0.002-0.018l-0.014-0.027
	l0.041-0.02l0.032,0.016l0.053,0.057l0.026,0.018l0.097,0.031l0.002-0.01l0.015-0.012l0.02,0.002l0.009,0.031l0.004,0.023
	l0.004,0.014l0.014,0.006l0.02-0.004l0.047-0.021l0.014-0.041l-0.013-0.047l-0.025-0.041l0.024-0.039l0.016,0.004l0.011,0.021
	l0.015,0.014h0.082l0.036-0.012l0.095-0.041l0.039-0.025l0.046,0.014l0.117-0.047l0.069,0.025l-0.024,0.012l-0.018,0.035
	l-0.027-0.008l-0.004-0.006l-0.015,0.002l-0.009,0.004l-0.019,0.004l-0.008,0.016l0.037,0.041l0.024-0.014l0.017-0.016l0.016-0.006
	l0.019-0.025l0.014-0.006l0.022-0.021l0.085,0.031l0.043,0.035l0.028,0.008l0.004,0.021l-0.051,0.053l-0.094,0.076l0.008,0.057
	l0.035,0.02l0.109-0.004v-0.021h-0.044l0.064-0.084l0.057-0.016l0.059,0.035l0.069,0.064l0.03,0.018l0.085,0.035l0.033,0.021
	l0.077,0.109l0.017,0.018l0.069,0.012l0.193,0.068l0.055,0.033l0.034,0.027l0.04,0.023l0.029,0.037l0.012,0.064l-0.013,0.053
	l-0.03,0.023l-0.038-0.004l-0.024-0.039l-0.008,0.031l-0.022,0.055l-0.011,0.016l-0.064,0.053l-0.009,0.061l0.044-0.002l0.062-0.035
	l0.093-0.082l0.135-0.078l0.036-0.043l-0.006-0.059l-0.065-0.137l-0.015-0.066l0.005-0.094l0.022-0.029l0.044-0.01l0.075-0.031
	l0.097-0.117l-0.006-0.129l-0.037-0.15l0.009-0.158l0.036-0.061l0.042-0.027l0.035-0.039l0.016-0.09l-0.018-0.137l-0.02-0.078
	l-0.027-0.053l0.275-0.322l0.103-0.084l0.116-0.061l0.066-0.01l0.113,0.066l0.061,0.002l0.06-0.018l0.049-0.029l0.064,0.035
	l0.025,0.027l0.016,0.037l-0.024,0.006l-0.037,0.016l-0.023,0.006l0.018,0.045l-0.006,0.029l-0.012,0.031v0.047l0.012,0.016
	l0.043,0.051l0.038,0.092l0.054,0.051l0.024,0.047l-0.044,0.053l0.029,0.045l0.035,0.002l0.083-0.047l0.011-0.012l0.011-0.018
	l0.015-0.018l0.028-0.006l0.005,0.012l0.01,0.023l0.012,0.025l0.015,0.014l0.09-0.004l0.145-0.098l0.073-0.021l0.093-0.004
	l0.044-0.01l0.021-0.025l-0.018-0.041l-0.027-0.037l-0.003-0.025l0.048-0.01l0.063-0.043l0.061-0.07l0.056-0.029l0.05,0.086
	l0.093-0.062l0.088-0.037l0.326-0.031l0.127-0.035l0.082-0.068l-0.021-0.117L17.756,45l0.031,0.018l0.03,0.004h0.028l0.034,0.006
	l0.06,0.033l0.048,0.041v0.029l-0.065,0.012l-0.043,0.123l-0.062,0.016l0.012-0.047l0.004-0.059l-0.014-0.033l-0.033,0.023
	l-0.05,0.068l-0.031,0.037l-0.016-0.002l-0.004,0.148l0.018,0.064l0.051,0.025l0.026-0.016l0.072-0.072l0.055-0.02l0.036-0.033
	l0.018-0.012l0.016,0.008l0.039,0.033l0.022,0.01l0.052-0.031l0.018-0.068l-0.02-0.078l-0.062-0.047l0.039-0.047l0.056-0.035
	l0.052-0.051l0.053-0.186l0.06,0.021l0.029,0.07L18.261,45v0.027l0.077-0.004l0.064,0.02l0.031,0.045l-0.028,0.062l-0.028,0.016
	l-0.043,0.008l-0.037,0.014l-0.017,0.029l0.017,0.033l0.035,0.006l0.045-0.014l0.09-0.047l0.049-0.041l0.219-0.283l0.031-0.078
	l-0.024-0.02l0.015-0.064l0.035-0.018l0.08,0.004l0.038-0.018l0.067-0.047l0.032-0.012l0.066,0.035l-0.041,0.076l-0.122,0.145
	l0.193-0.08l0.017-0.014l0.017-0.018l0.021-0.014l0.057-0.012l0.025-0.014l0.019-0.02l0.009-0.027l0.031-0.021l0.137-0.074
	l0.087-0.031l0.048-0.035l0.047-0.023l0.051,0.023l0.019-0.027l0.009,0.041l0.016,0.033l0.018,0.02l0.022-0.016l0.077,0.066
	l0.034,0.092l0.044,0.074l0.099,0.021l-0.015-0.092l0.116-0.002l0.237,0.045l0.053-0.084l0.04-0.121l0.051-0.084l0.089,0.033
	l-0.012-0.033l-0.004-0.008l-0.008-0.01l0.041-0.037l0.048-0.031l0.039-0.043l0.001-0.066l-0.031-0.045l-0.051-0.014l-0.057,0.01
	l-0.051,0.021l-0.08,0.09l-0.049,0.035l-0.039-0.021l-0.014-0.064l0.034-0.035l0.055-0.02l0.076-0.049l0.046-0.01h0.107l0.058,0.016
	l0.067,0.07l0.043,0.016l0.091-0.016l0.106-0.043l0.089-0.064l0.039-0.084l-0.041,0.023l-0.026,0.006l-0.025-0.006l-0.021-0.018
	l0.048-0.033l0.021-0.012l0.056-0.012l0.05-0.033l0.022-0.008l0.018-0.018l0.061-0.086l0.019-0.01l0.06-0.008l0.025-0.01
	L21.23,43.82l-0.032-0.014l-0.024-0.061h0.037l0.084,0.039l0.086,0.012l0.155,0.037h0.084l-0.006-0.043l0.019-0.041l0.031-0.031
	l0.039-0.016l0.024,0.01l0.026,0.021l0.034,0.018l0.043,0.006l0.026-0.02l0.078-0.107l0.017-0.01l0.016,0.004l0.011-0.004
	l0.004-0.031l0.006-0.023l0.016-0.021l0.021-0.01l0.016-0.008l-0.002,0.055l0.018,0.029l0.027,0.014l0.042,0.006l0.018-0.004
	l0.021-0.01l0.018-0.014l0.017-0.016l0.02-0.01l0.019,0.004l0.016,0.014l0.021,0.008l0.396-0.037l0.15,0.037l0.055,0.035
	l0.117,0.096l0.1,0.035l0.169,0.113l0.094,0.105l0.062,0.051l0.064,0.021l0.057,0.01l0.206,0.068l0.117-0.006l0.159-0.041
	l0.133-0.064l0.034-0.066l0.275-0.104l0.029-0.02l0.054-0.043l0.03-0.01l0.042,0.004l0.029,0.012l0.093,0.066l0.03,0.012
	l0.038,0.006l0.063-0.006l0.113,0.191l0.013,0.068l-0.031,0.051l0.047,0.107l-0.017,0.1l-0.052,0.084l-0.084,0.088l-0.009,0.014
	l-0.013,0.01l-0.031,0.006l-0.008,0.012l-0.007,0.055l-0.007,0.02l-0.338,0.357l-0.054,0.043l-0.069,0.041l-0.393,0.168
	l-0.109,0.096l0.026,0.121l0.054,0.033l0.063,0.023l0.051,0.037l0.041,0.152l0.047,0.041l0.05,0.031l0.032,0.061l-0.011,0.053
	l-0.109,0.006L24.01,45.98l-0.006,0.012v0.033L24,46.045l-0.012,0.006l-0.023,0.014l-0.008,0.004l-0.063,0.127l0.051,0.006
	l0.069,0.027l0.061,0.035l0.029,0.035l-0.005,0.055l-0.023,0.053l-0.036,0.045l-0.029,0.018l-0.047,0.01L23.918,46.5l-0.033,0.039
	L23.874,46.6l0.05,0.051l0.009,0.033l-0.049,0.016l-0.02,0.014l-0.002,0.035l0.012,0.066l-0.012,0.014l-0.021-0.002l-0.021,0.006
	l-0.01,0.031l0.02,0.041l0.05-0.002l0.101-0.027l0.059,0.021l0.037,0.039l0.061,0.105l0.072,0.084l0.085,0.082l0.06,0.035
	l0.08,0.057l0.084,0.043l0.083,0.016l0.052,0.023l0.155,0.119l0.034,0.045L24.798,47.6l-0.083,0.018l-0.062,0.029l0.02,0.086
	l0.018,0.012l0.051,0.008l0.018,0.006l0.016,0.023l0.036,0.066l0.014,0.033l0.004,0.043l0.01,0.045l0.026,0.045l0.11,0.084
	l0.126,0.059l0.464,0.148l0.094,0.016l0.306,0.115l0.009,0.018l-0.024,0.051l-0.007,0.027l0.031-0.01l0.06-0.033l0.021-0.115
	l0.012-0.031l0.014-0.021l0.02-0.012l0.05-0.02l0.178-0.109l0.046-0.016l0.048-0.029l0.125-0.133l0.027-0.039l-0.066,0.033v-0.051
	l0.043-0.119l0.014-0.062l0.061-0.039l0.027-0.107l0.111-0.156l0.167-0.455l0.063-0.107l0.076-0.045l0.033-0.002l0.018-0.014
	l0.031-0.047l0.023-0.025l0.015-0.012l0.104-0.016l0.023-0.023l0.015-0.064l0.055,0.021l0.016-0.037l-0.021-0.051l-0.07-0.014
	v-0.021l0.045-0.035l0.041-0.045l0.02,0.039l0.024,0.041l0.036,0.021l0.045-0.021l0.007-0.031l-0.003-0.1l0.006-0.02l0.011-0.018
	l-0.025-0.039l-0.057-0.055l-0.009-0.049l-0.021-0.031l-0.034-0.012H27.35v-0.027l0.038-0.025l0.048-0.078l0.019-0.02l0.026,0.012
	l0.035,0.074l0.032,0.016l0.023-0.004l0.029-0.012l0.022-0.018l0.018-0.018l0.017-0.051l-0.009-0.021l-0.025-0.014l-0.032-0.025
	l0.006-0.109l0.116-0.107l0.146-0.076h0.102l0.03-0.035l0.139-0.094l0.095,0.037l0.036-0.002l-0.026-0.062l0.017-0.02l0.018-0.035
	l0.017-0.043l0.031,0.008l0.084,0.043l0.003-0.033l0.008-0.014l0.008-0.01l0.019-0.023l0.056,0.066l0.05-0.008l0.044-0.035
	l0.1-0.043l0.037-0.047l0.005-0.041l-0.057-0.018l0.082-0.045l0.095-0.029l0.052,0.012l-0.05,0.076l-0.017,0.057l0.072,0.016
	l0.092-0.018l0.052-0.041l0.105,0.072l0.004-0.025l0.002-0.012v-0.014l-0.006-0.021l0.062-0.018l0.056,0.018l0.033,0.049
	l-0.024,0.08l-0.042-0.029l0.009,0.018l0.006,0.039l0.007,0.021l-0.036-0.027l-0.064-0.025l-0.063-0.016l-0.047,0.018l0.006,0.043
	l0.058,0.029l0.076,0.021l0.05,0.004l0.051-0.012l0.107-0.039l0.03-0.025l0.014-0.057l-0.009-0.068l-0.02-0.062l-0.023-0.039
	l0.017-0.025l0.018-0.027l0.05-0.045l-0.042,0.004l-0.029-0.012l-0.023-0.021l-0.015-0.023l0.024-0.035l0.03-0.014l0.035,0.004
	l0.037,0.018l0.027-0.137l-0.005-0.041l-0.024-0.037l-0.027-0.002l-0.031,0.004l-0.042-0.016l-0.029-0.037l-0.01-0.033l-0.007-0.041
	l-0.019-0.045l-0.03-0.021l-0.039-0.014l-0.044-0.002l-0.033,0.014l-0.033-0.033l-0.157-0.068l-0.229-0.152l-0.046-0.043
	l-0.044-0.051l-0.049-0.041l-0.062-0.02l-0.138-0.002l-0.052-0.02l-0.032-0.051l0.004-0.039l0.012-0.053l0.003-0.045l-0.029-0.02
	l-0.014-0.012l-0.031-0.061l-0.008-0.016l0.008-0.08l0.018-0.072l0.06-0.143l0.078-0.111l0.178-0.209l0.062-0.141l0.016-0.082
	l0.005-0.086l-0.008-0.02l-0.028-0.033l-0.007-0.021l0.003-0.018l0.017-0.033l0.003-0.023l0.028-0.055l0.066-0.064l0.14-0.098
	l0.058,0.016l0.072-0.035l0.142-0.109l0.061-0.025l0.015-0.012l0.024-0.029l0.014,0.002l0.015,0.014h0.019h0.04l0.026-0.006
	l0.038-0.021l-0.01,0.062l0.02,0.1l-0.011,0.072l-0.02,0.037l-0.068,0.096l-0.062,0.047l-0.026,0.055l-0.021,0.068l-0.013,0.055
	v0.07l0.034,0.119l0.011,0.051l0.018,0.041l0.039,0.051l0.028,0.057l-0.015,0.055l-0.026,0.053l-0.017,0.066l-0.003,0.064
	l0.015,0.059l0.058,0.062l0.104,0.066l0.118,0.053l0.097,0.021l-0.022-0.072l-0.03-0.053l-0.073-0.104l-0.034-0.064l-0.01-0.053
	l0.007-0.193l0.017-0.061l0.024-0.053l0.056-0.09l0.039-0.102l0.027-0.047l0.013,0.098l0.003,0.279l0.038,0.057l0.02,0.021
	l0.035,0.1l0.02,0.033l0.044,0.018l0.083-0.018l0.08,0.029l0.104-0.045h0.034l0.034,0.018h0.055l0.05-0.012l0.041-0.018l0.03-0.031
	l0.014-0.033l0.019-0.027l0.054-0.008l0.08,0.008l0.034-0.008l0.042-0.027l0.104,0.092l0.025,0.035l0.011,0.031l0.012,0.07
	l0.018,0.061l0.016,0.033l0.007-0.018l0.007,0.012l0.012,0.012l0.005,0.012l-0.021,0.018l-0.018,0.004l-0.045-0.008l-0.021,0.004
	l-0.135,0.076l-0.081,0.02l-0.148,0.086l-0.087,0.021l-0.042,0.02l-0.039,0.045l-0.029,0.043l-0.018,0.02l-0.047-0.012l-0.023-0.021
	l-0.011-0.025l-0.019-0.018l-0.08,0.016l-0.044,0.072l-0.031,0.08l-0.044,0.037l-0.017,0.012l0.019,0.025l0.038,0.025l0.031,0.016
	l0.261-0.041L30.8,44.07l0.265-0.055l0.416-0.023l0.09-0.053l0.102,0.062l0.504,0.08l0.469-0.057l0.12,0.008l0.118,0.02l0.515,0.207
	l0.134,0.01v-0.027l-0.052-0.033l-0.043-0.066l-0.022-0.072L33.439,44l0.136-0.256l0.034-0.035l0.198-0.156l0.041-0.061l0.014-0.033
	l0.01-0.033l-0.006-0.043l-0.033-0.07l-0.006-0.039l0.025-0.07l0.052-0.051l0.057-0.047l0.048-0.049l0.04-0.025l0.184-0.078
	l0.03-0.025l0.178-0.092l0.044-0.082l-0.027-0.02l-0.062,0.02l-0.059,0.031l0.013-0.076l0.024-0.053l0.087-0.1l0.112-0.18
	l0.045-0.025l0.138-0.008l0.062-0.018l0.062-0.025l0.136-0.035l0.138,0.014l0.132,0.053l0.122,0.074l0.199,0.217l-0.043,0.039
	l-0.05,0.027l-0.058,0.014l-0.073,0.008l-0.113-0.002l-0.054,0.031l-0.021,0.084l-0.01,0.117l0.01,0.049l0.013,0.037l0.035,0.055
	l0.017,0.039l-0.053,0.021l-0.034,0.031l-0.017,0.049l-0.002,0.074l0.007,0.014l0.015,0.014l0.016,0.023l0.007,0.029l-0.004,0.004
	l-0.018,0.1l0.006,0.068l0.017,0.115l-0.001,0.043l-0.025,0.043l-0.036,0.031l-0.025,0.035l0.001,0.068l0.018,0.035l0.021,0.016
	l0.022,0.006l0.021,0.021l0.013,0.025l0.029,0.098l0.021,0.041l0.035,0.047l0.044,0.043l0.047,0.023l0.105-0.012l0.104-0.062
	l0.173-0.178l0.017,0.041l0.024,0.023l0.028,0.006l0.036-0.018l-0.019-0.057l-0.005-0.068l0.01-0.066l0.024-0.051l0.016-0.027
	l0.034-0.059l0.024-0.029l0.021-0.014l0.053-0.014l0.021-0.016l0.063-0.088l0.021-0.053l0.01-0.062l0.002-0.061l0.013-0.051
	l0.029-0.037l0.05-0.012l0.083-0.057l0.021-0.129l-0.017-0.139l-0.035-0.086l-0.078-0.068l-0.012-0.039l0.003-0.074l0.018-0.09
	l-0.009-0.043l-0.052-0.02l0.065-0.205l0.051-0.076l0.093-0.025l-0.047-0.178l0.062-0.154l0.123-0.121l0.137-0.086l0.121-0.045
	l0.133-0.033l0.271-0.021l0.142,0.008l0.069,0.018l0.052,0.035l0.031,0.016l0.07-0.004l0.034,0.002l0.039,0.02l0.016,0.023
	l0.013,0.025l0.152,0.254l0.004,0.039l0.017,0.023L37.805,42.1l-0.021,0.078l0.006,0.047l0.005,0.016l0.017,0.006l0.073,0.01
	l0.046-0.018l0.036-0.008l0.027-0.018l-0.014-0.033l-0.031-0.039l-0.016-0.027l0.027-0.068l0.061-0.051l0.122-0.074l-0.006-0.014
	l-0.004-0.014l-0.003-0.016l-0.01-0.016l0.058-0.059L38.12,41.77l-0.098-0.041l-0.049-0.072l-0.03,0.018l-0.011,0.012l-0.027-0.051
	l-0.018-0.062l-0.003-0.059l0.016-0.049l0.011-0.059l-0.052-0.105l0.015-0.055l0.045-0.021l0.047,0.01h0.038l0.015-0.049
	l-0.014-0.041l-0.031-0.031l-0.038-0.025l-0.031-0.031l-0.011-0.062l0.067-0.02l0.097-0.012l0.079-0.035l0.041-0.027l0.107-0.047
	l0.029-0.043l-0.003-0.051l-0.023-0.051l-0.059-0.078l0.035-0.061l-0.009-0.088v-0.086l0.059-0.051l0.013,0.057l0.025,0.014
	l0.056-0.018l0.048-0.004l0.027-0.018l0.021-0.031l0.021-0.051l0.041,0.074l0.028,0.023l0.035,0.006l0.05-0.018l0.03-0.039
	l0.02-0.041l0.024-0.033l0.039-0.016l0.049,0.004l0.11,0.016l0.097,0.043h0.019l0.024-0.02l0.05,0.055l0.039,0.061l0.027,0.061
	l0.011,0.07l0.026,0.014l0.056,0.059l0.028,0.064l-0.036,0.029l-0.062,0.027l-0.09,0.125l-0.082,0.059l-0.095,0.125l-0.03,0.027
	l-0.043,0.012l-0.137,0.057l-0.044,0.033l-0.021,0.055l0.033,0.1l-0.013,0.076l-0.038,0.053l-0.052,0.02l-0.061,0.01l-0.06,0.018
	l-0.088,0.053l-0.051,0.02l-0.066,0.006v0.025l0.151,0.061l0.052,0.049l0.089,0.186l-0.005,0.027l-0.026,0.051l-0.031,0.029
	l-0.08,0.055l-0.027,0.029l0.031,0.074l0.013,0.059l-0.002,0.135l0.007,0.041l0.028,0.07l0.008,0.045l-0.012,0.041l-0.035,0.035
	l0.004,0.039l0.062,0.021l0.038,0.029l0.006,0.051l-0.015,0.033l-0.021,0.014l-0.058,0.002l-0.016,0.008l-0.024,0.018l-0.03,0.018
	l-0.036,0.008l-0.06,0.004l-0.029,0.008l-0.024,0.016l0.028,0.051l0.149,0.115l0.026,0.037l0.012,0.023l0.018,0.018l0.041,0.014
	l0.024,0.004l0.03,0.002l0.07-0.006l0.122-0.031l0.062-0.037l0.025-0.045l0.002-0.039l0.016-0.072l0.004-0.043l0.01-0.043
	l0.044-0.072l0.011-0.041l0.026-0.027l0.186-0.113l0.116-0.041l0.051-0.047l0.022-0.08l0.025-0.047l0.068-0.02l0.208,0.01
	l0.052-0.006l0.049-0.016l0.06-0.039l0.042,0.006l0.07-0.014l0.067-0.023l0.031-0.029l0.019-0.072l0.045-0.039l0.061-0.029
	l0.054-0.041l0.052-0.119l0.004-0.152l-0.019-0.148l-0.025-0.104l-0.008-0.318l0.121-0.299l0.186-0.25l0.387-0.361l0.119-0.062
	l0.214-0.031l0.123-0.035l0.086-0.014l0.062-0.02l0.036-0.002l0.031,0.014l0.065,0.041l0.029-0.002l0.017-0.035v-0.049l-0.012-0.051
	l-0.017-0.031l-0.027-0.02l-0.041-0.014l-0.031-0.018l-0.034-0.068l-0.127-0.182l-0.536-0.938l-0.054-0.148l-0.057-0.244
	l-0.033-0.328l-0.017-0.047l0.052-0.074l0.115-0.221l0.021-0.098l-0.005-0.061l-0.039-0.148l-0.002-0.059l0.041-0.273l0.049-0.129
	l0.168-0.299l0.149-0.574l0.028-0.062l0.129-0.201l0.025-0.074v-0.068l0.008-0.043l0.023-0.02l0.025-0.014l0.046-0.053l0.073-0.021
	l0.101-0.068l0.078-0.018l0.025-0.01l0.106-0.104l0.044-0.137L42,34.826l0.053-0.127l0.008-0.041v-0.355l0.021-0.053v-0.121
	l0.064-0.283l0.019-0.123l-0.042-1.045l-0.009-0.037l-0.044-0.055l-0.013-0.027l0.007-0.025l0.03-0.051l0.01-0.031v-0.08
	l-0.017-0.049l-0.03-0.039l-0.044-0.041l-0.07-0.104l-0.055-0.127l-0.061-0.273l-0.04-0.285l-0.006-0.164l0.023-0.164l0.125-0.471
	l0.065-0.142l0.091-0.146l0.107-0.134l0.031-0.021l0.032-0.021l0.023-0.02l0.008-0.03l-0.013-0.035l-0.029-0.012l-0.034,0.004
	l-0.03,0.017l0.018-0.076l0.033-0.069l0.046-0.056l0.055-0.04l0.025,0.02l0.025,0.005l0.026-0.005l0.026-0.02l0.049,0.164
	l0.012,0.024l0.055,0.001l0.018-0.005l-0.01-0.088l0.027-0.095l0.064-0.058l0.085-0.03l0.229-0.055l0.087-0.004l0.065,0.026
	l0.068,0.067l0.029,0.018l0.038,0.01h0.037l0.028-0.01h0.026l0.034,0.036l-0.027,0.084l-0.016,0.025l0.1,0.049l0.026,0.03
	l0.004,0.02l-0.013,0.023l-0.011,0.021l0.011,0.029l0.021,0.013l0.045,0.001l0.02,0.012l0.083,0.086l0.021,0.011l0.037-0.107
	l0.017-0.029l-0.041-0.061v-0.084l-0.013-0.078l-0.074-0.045l0.022-0.053l0.035-0.021l0.045,0.004l0.044,0.018l-0.033-0.052
	l-0.061-0.015l-0.058,0.009l-0.037,0.03l-0.031-0.037l-0.001-0.031l0.001-0.034l-0.021-0.043l0.004-0.024l0.035-0.021l0.076-0.022
	l-0.009-0.018l-0.005-0.014l-0.008-0.014l-0.018-0.012l0.018-0.037l0.047-0.147l0.01,0.042l0.018,0.03l0.024,0.023l0.032,0.009
	l0.013-0.08l0.003-0.065l-0.017-0.058l-0.042-0.062l-0.045,0.057l-0.047-0.026l-0.051-0.062l-0.052-0.048l0.138-0.108l0.018-0.027
	l0.032-0.053l0.021-0.056L43.66,28.83l-0.143-0.01l-0.035-0.018l-0.027-0.041v-0.022l0.055-0.046l0.029-0.018l0.078-0.026
	l0.03-0.023l0.038-0.055l0.016-0.014l0.018,0.002l0.018,0.017l0.015,0.011l0.021-0.015l0.019-0.059l-0.016-0.039l-0.058-0.047
	l-0.03-0.062l-0.02-0.028l-0.033-0.019l0.029-0.048l0.13-0.102l0.042-0.048l0.009-0.029l-0.012-0.035l-0.008-0.075l0.002-0.075
	l0.014-0.035l0.031-0.011l0.057-0.002l0.025-0.004l0.018-0.013l0.017-0.005l0.017,0.011l0.012,0.022l0.011,0.053l0.009,0.019
	l0.067,0.049l-0.017-0.082l-0.072-0.197l-0.02-0.246l0.039-0.044l0.13,0.005l-0.022,0.037L44.1,27.482l0.023,0.04l0.032,0.044
	l0.039,0.035l0.042,0.015l0.04-0.016l0.011-0.038l-0.017-0.037l-0.046-0.017l0.041-0.053l0.03-0.008l0.035,0.005l-0.021-0.044
	l-0.023-0.043l-0.017-0.044l-0.004-0.058l0.057,0.042l0.063,0.004l0.123-0.018l0.125,0.029l0.024-0.015l-0.024-0.035l-0.044-0.038
	l-0.03-0.018v-0.029l0.039,0.001l0.037-0.004l0.039-0.007l0.034-0.015l-0.038-0.041l-0.13-0.069l0.056-0.054l0.168,0.061l0.07-0.032
	l-0.017-0.049l-0.145-0.112l-0.052-0.057l0.078-0.004l0.08-0.024l0.063-0.039l0.031-0.068h-0.1l-0.036-0.021l-0.011-0.061
	l0.071,0.014l0.086-0.033l0.06-0.062l-0.008-0.082v-0.002l-0.043,0.005l-0.102-0.003l-0.001-0.052l0.001-0.052l0.025,0.001
	l0.054-0.002l0.024,0.001l-0.011-0.034l-0.021-0.025l-0.021-0.02l0.15-0.069l0.061-0.057l-0.01-0.096l-0.041,0.042l-0.064,0.041
	l-0.067,0.022l-0.058-0.022l0.064-0.063l0.084-0.061l0.032-0.054l-0.078-0.038l0.034-0.025l0.067-0.061l0.026-0.021l0.035-0.008
	l0.025,0.001l0.03-0.008l0.065-0.006l0.018-0.028l0.001-0.064l0.004-0.057l0.021-0.024l0.038-0.02l-0.025-0.043l-0.043-0.029
	L45.19,25.52l-0.027,0.073l-0.073,0.054l-0.076,0.01l-0.053-0.071l0.04-0.041l0.102-0.04l0.051-0.029l0.105-0.135l0.02-0.012
	l0.009-0.03l0.016-0.012l0.017-0.016l0.003-0.04l-0.009-0.024L45.303,25.195z"/>
</svg>
