<?xml version="1.0" encoding="utf-8"?>
<!-- Generator: Adobe Illustrator 16.0.0, SVG Export Plug-In . SVG Version: 6.00 Build 0)  -->
<!DOCTYPE svg PUBLIC "-//W3C//DTD SVG 1.1//EN" "http://www.w3.org/Graphics/SVG/1.1/DTD/svg11.dtd">
<svg version="1.1" id="Calque_1" xmlns="http://www.w3.org/2000/svg" xmlns:xlink="http://www.w3.org/1999/xlink" x="0px" y="0px"
	 width="60px" height="60px" viewBox="0 0 60 60" enable-background="new 0 0 60 60" xml:space="preserve">
<g>
	<path fill="#FFFFFF" d="M45.432,2.789C45.415,2.759,45.4,2.73,45.387,2.701c-0.133-0.398-0.339-0.693-0.59-0.885
		c-0.029-0.029-0.06-0.043-0.074-0.074C44.59,1.506,44.648,1.3,44.886,1.094c-0.045-0.191-0.191-0.265-0.471-0.236
		c-0.047,0-0.09-0.015-0.119-0.029c-0.163-0.133-0.341-0.207-0.546-0.251c-0.044,0-0.088,0-0.104,0.03
		c-0.028,0.015-0.044,0.06-0.059,0.104c-0.015,0.088-0.059,0.192-0.103,0.309c-0.014,0.045-0.045,0.074-0.06,0.103
		c-0.147,0.134-0.251,0.339-0.324,0.635c0,0.044-0.015,0.074-0.044,0.074c-0.06,0.044-0.073,0.103-0.06,0.206
		c0.029,0.132,0.014,0.235-0.044,0.31c-0.03,0.044-0.044,0.088-0.044,0.133c-0.015,0.265-0.073,0.472-0.192,0.59
		c-0.013,0.029-0.043,0.059-0.043,0.088c-0.016,0.044-0.046,0.074-0.059,0.089c-0.163,0.133-0.236,0.191-0.267,0.191
		c-0.015,0.029-0.044,0.059-0.073,0.073c-0.043,0.06-0.059,0.133-0.059,0.222c0.016,0.191-0.061,0.31-0.221,0.383
		c-0.03,0.015-0.06,0.03-0.09,0.044c-0.044,0.015-0.088,0.03-0.103,0.059c-0.031,0.015-0.044,0.06-0.058,0.104
		c-0.016,0.03-0.031,0.044-0.062,0.059c-0.159,0.044-0.278,0.117-0.367,0.236c-0.028,0.029-0.044,0.044-0.072,0.059
		c-0.044,0.015-0.089,0.029-0.118,0.059c-0.045,0.015-0.075,0.03-0.104,0.044c-0.163,0.015-0.281,0.074-0.368,0.133
		C40.641,4.941,40.61,4.971,40.61,5c-0.028,0.088-0.089,0.147-0.177,0.191c-0.221,0.104-0.399,0.207-0.516,0.295
		c-0.104,0.073-0.177,0.176-0.222,0.309c-0.073,0.207-0.177,0.354-0.294,0.442c-0.045,0.029-0.089,0.059-0.119,0.103
		c-0.044,0.059-0.088,0.118-0.132,0.177c-0.192,0.265-0.398,0.515-0.634,0.751c-0.015,0.03-0.045,0.044-0.073,0.059
		c-0.045,0.015-0.089,0.029-0.12,0.059c-0.177,0.118-0.382,0.177-0.618,0.177c-0.043,0-0.087,0-0.133-0.029
		c-0.103-0.045-0.265-0.059-0.456-0.03c-0.223,0.044-0.414,0.088-0.575,0.163c-0.178,0.074-0.354,0.074-0.53-0.03
		c-0.045-0.015-0.089-0.029-0.147-0.044c-0.119-0.014-0.267-0.029-0.428-0.058c-0.118,0.029-0.251,0.058-0.383,0.058
		c-0.016,0.015-0.045,0.015-0.09,0.03c-0.029,0.015-0.074,0.03-0.074,0.044c-0.028,0.059-0.103,0.073-0.205,0.044
		c-0.045-0.03-0.103-0.044-0.162-0.059c-0.221-0.044-0.369-0.015-0.442,0.132c-0.015,0.03-0.015,0.059-0.015,0.074
		c0,0.103,0.015,0.206,0.045,0.294c0.043,0.162,0.058,0.339,0.058,0.516c0,0.074,0.016,0.148,0.03,0.222
		c0.044,0.176,0.132,0.353,0.251,0.53c0.043,0.044,0.073,0.074,0.118,0.103c0.117,0.089,0.22,0.162,0.294,0.235
		c0.192,0.192,0.266,0.457,0.207,0.752c0,0.059,0,0.089,0.028,0.133c0.046,0.074,0.089,0.191,0.089,0.31
		c0.015,0.059,0,0.088-0.014,0.132c-0.104,0.163-0.208,0.31-0.324,0.472c-0.119,0.163-0.237,0.295-0.355,0.383
		c-0.043,0.03-0.088,0.06-0.116,0.089c-0.046,0.015-0.074,0.044-0.119,0.059c-0.028,0-0.059,0.015-0.073,0
		c-0.267-0.044-0.486-0.132-0.692-0.236c-0.252-0.147-0.531-0.192-0.855-0.133c-0.059,0-0.104,0.015-0.162,0.015
		c-0.235,0.029-0.486,0.029-0.737,0c-0.044,0-0.089,0-0.147,0c-0.104,0-0.162-0.03-0.177-0.104c0-0.029-0.015-0.058-0.059-0.058
		c-0.029-0.016-0.074-0.03-0.118-0.06c-0.06-0.029-0.118-0.058-0.177-0.073c-0.073-0.029-0.133-0.044-0.191-0.074
		c-0.133-0.029-0.265-0.059-0.399-0.088c-0.028-0.014-0.073-0.029-0.117-0.059c-0.073-0.03-0.177-0.06-0.309-0.06
		c-0.163,0-0.31-0.029-0.458-0.103c-0.029-0.015-0.073-0.044-0.104-0.06c-0.058-0.059-0.146-0.088-0.251-0.118
		c-0.132-0.044-0.235-0.089-0.309-0.133c-0.031-0.029-0.074-0.044-0.133-0.044c-0.191-0.015-0.294-0.088-0.266-0.265
		c0.016-0.148-0.015-0.266-0.089-0.31c-0.205-0.163-0.353-0.324-0.456-0.487c-0.029-0.029-0.045-0.059-0.045-0.089
		c-0.028-0.103-0.117-0.147-0.234-0.117c-0.089,0.014-0.192,0.043-0.311,0.104C27.344,9.554,27.3,9.569,27.27,9.599
		c-0.206,0.147-0.427,0.236-0.677,0.28c-0.03,0.015-0.06,0.015-0.09,0.015c-0.295,0.015-0.456,0.147-0.44,0.398
		c0,0.133-0.016,0.251-0.031,0.384c-0.029,0.103-0.043,0.22-0.043,0.324c0-0.029,0-0.059,0-0.059c0-0.014-0.016,0-0.074,0.016
		c-0.045,0.132-0.088,0.22-0.147,0.294c-0.029,0.029-0.045,0.058-0.045,0.088c-0.133,0.413-0.368,0.737-0.677,0.958
		c-0.03,0.015-0.061,0.044-0.061,0.074c-0.073,0.236-0.176,0.457-0.338,0.634c-0.251,0.325-0.517,0.62-0.782,0.914
		c-0.059,0.074-0.117,0.133-0.176,0.192c-0.266,0.235-0.576,0.531-0.929,0.914c-0.161,0.147-0.31,0.266-0.457,0.354
		c-0.044,0.03-0.089,0.059-0.118,0.104c-0.03,0.029-0.162,0.103-0.397,0.192c-0.163,0.073-0.28,0.146-0.354,0.206l-0.089,0.088
		c-0.045,0.074-0.118,0.133-0.208,0.177c-0.028,0-0.058,0.014-0.088,0.044c-0.191,0.104-0.384,0.235-0.589,0.369
		c-0.192,0.147-0.413,0.236-0.664,0.25c-0.044,0.015-0.103,0.015-0.147,0.03c-0.044,0.014-0.088,0.029-0.117,0.059
		c-0.177,0.103-0.354,0.236-0.546,0.398c-0.014,0.029-0.044,0.044-0.073,0.059c-0.104,0.044-0.177,0.089-0.222,0.163
		c-0.029,0.029-0.043,0.044-0.073,0.044c-0.074,0.029-0.133,0.043-0.163,0.088c-0.132,0.118-0.294,0.207-0.486,0.266
		c-0.236,0.074-0.413,0.162-0.531,0.265c-0.014,0.03-0.044,0.044-0.073,0.075c-0.295,0.161-0.56,0.323-0.811,0.441
		c-0.044,0.029-0.088,0.059-0.132,0.088c-0.162,0.177-0.324,0.339-0.472,0.486c-0.221,0.251-0.545,0.473-0.943,0.665
		c-0.118,0.058-0.236,0.118-0.354,0.176c-0.029,0.015-0.059,0.029-0.088,0.044c-0.044,0.016-0.074,0.029-0.088,0.044
		c-0.059,0.088-0.148,0.147-0.28,0.147c-0.044,0.015-0.104,0.015-0.147,0.029c-0.133,0.03-0.222,0.015-0.266-0.044l-0.103,0.075
		c-0.059,0.206-0.089,0.412-0.074,0.619l0.221,0.191c0.03,0.015,0.044,0.044,0.059,0.074c0.059,0.163,0.147,0.324,0.25,0.501
		c0.088,0.117,0.207,0.177,0.353,0.191c0.06,0,0.104,0.015,0.147,0.03c0.325,0.176,0.516,0.398,0.546,0.678
		c0.015,0.015,0,0.044,0,0.073c-0.044,0.163-0.015,0.28,0.088,0.34c0.03,0.014,0.03,0.043,0.03,0.088
		c-0.03,0.207-0.104,0.354-0.222,0.442c0.074,0.088,0.192,0.118,0.369,0.118c0.029,0,0.058,0,0.073,0
		c0.029,0,0.059-0.015,0.073-0.045c0.163-0.147,0.31-0.25,0.458-0.338c0.044-0.015,0.088-0.03,0.133-0.015
		c0.088,0,0.132-0.043,0.147-0.146c0,0,0.029-0.015,0.073,0c0.118,0,0.178,0.073,0.191,0.206c0,0.029,0.015,0.059,0.03,0.073
		c0.147,0.147,0.324,0.266,0.531,0.354c0.044,0.015,0.088,0.029,0.133,0.044c0.162,0.044,0.339,0.088,0.516,0.133
		c0.104,0.015,0.192,0.044,0.28,0.088c0.103,0.044,0.221,0.089,0.384,0.148c0.029,0,0.043,0.029,0.073,0.059
		c0.074,0.103,0.192,0.147,0.369,0.147c0.044-0.014,0.103-0.029,0.162-0.058c0.044-0.016,0.088-0.029,0.133-0.029
		c0.132-0.015,0.236,0.014,0.31,0.043c0.044,0.03,0.088,0.03,0.132,0.044c0.118,0,0.162,0.074,0.147,0.207l-0.087,0.118
		c-0.074,0.073-0.192,0.176-0.386,0.31c-0.027,0.014-0.027,0.044-0.027,0.088c0.015,0.104,0.043,0.192,0.089,0.295
		c0,0.03,0.015,0.059,0.027,0.088c0.06,0.162,0.074,0.369,0.06,0.574c0,0.075-0.028,0.148-0.06,0.207
		c-0.116,0.163-0.221,0.324-0.323,0.487c-0.133,0.221-0.251,0.457-0.324,0.708c-0.015,0.073-0.044,0.146-0.059,0.22
		c-0.089,0.266-0.192,0.501-0.325,0.737c-0.015,0.03-0.029,0.059-0.059,0.074c-0.206,0.25-0.339,0.486-0.398,0.751
		c0,0.015,0,0.044,0.015,0.074c0.118,0.251,0.236,0.457,0.339,0.604c-0.103,0.177-0.207,0.295-0.324,0.339
		c-0.147,0.074-0.235,0.222-0.25,0.442c0,0.029,0,0.06-0.015,0.089c-0.044,0.235-0.147,0.383-0.31,0.457
		c-0.162,0.073-0.25,0.191-0.265,0.338c0,0.03-0.015,0.06-0.015,0.089c-0.044,0.09-0.074,0.191-0.104,0.281
		c-0.103,0.471-0.295,0.854-0.56,1.135c-0.045,0.029-0.075,0.073-0.119,0.103c-0.192,0.221-0.368,0.413-0.516,0.59
		c-0.044,0.029-0.074,0.073-0.133,0.089c-0.088,0.059-0.088,0.132,0,0.22c0.147,0.148,0.309,0.237,0.516,0.252
		c0.074,0.013,0.147,0.013,0.221,0.013c0.06,0,0.104-0.013,0.147-0.042c0.192-0.104,0.398-0.118,0.604-0.031
		c0.044,0.031,0.088,0.031,0.133,0.046c0.191,0.015,0.368,0,0.531-0.03c0.073-0.016,0.132-0.016,0.207,0
		c0.073,0.016,0.147,0.03,0.206,0.058c0.06,0.016,0.119,0.061,0.164,0.105c0.073,0.087,0.131,0.161,0.146,0.219
		c-0.03,0.09-0.134,0.12-0.295,0.12c-0.043,0-0.088,0-0.147,0c-0.191,0.028-0.383,0.043-0.589,0.058
		c-0.014,0.016-0.044,0.03-0.059,0.06c-0.044,0.118-0.103,0.206-0.162,0.281c0.074,0.089,0.191,0.116,0.368,0.116
		c0.03,0,0.06,0,0.075,0c0.236,0,0.457,0.046,0.664,0.118c0.087,0.03,0.146,0.06,0.191,0.104c0.014,0.016,0.058,0.044,0.103,0.059
		c0.029,0,0.045,0.03,0.074,0.045c0.059,0.088,0.191,0.118,0.368,0.072c0.279-0.043,0.383,0.046,0.31,0.281
		c0,0.044-0.03,0.074-0.073,0.104c-0.03,0.015-0.059,0.044-0.089,0.06c-0.059,0.059-0.162,0.102-0.295,0.117
		c-0.014,0-0.045,0.015-0.059,0.044c-0.029,0.044-0.059,0.089-0.089,0.134c0.147,0.087,0.339,0.102,0.59,0.073
		c0.221-0.03,0.368-0.118,0.471-0.267c0.031-0.043,0.075-0.072,0.104-0.117c0.104-0.088,0.206-0.133,0.31-0.133
		c0.191-0.015,0.264-0.133,0.264-0.368c0-0.045,0-0.088,0.031-0.147c0.029-0.104,0.014-0.162-0.045-0.205
		c-0.014,0-0.029-0.031-0.045-0.075c-0.015-0.029-0.028-0.059-0.058-0.074c-0.163-0.118-0.163-0.221-0.044-0.338
		c0.028-0.03,0.073-0.046,0.117-0.03c0.235,0.016,0.413,0.073,0.546,0.178c0.029,0.015,0.073,0.043,0.103,0.059
		c0.118,0.059,0.205,0.132,0.251,0.266c0.044,0.089,0.088,0.221,0.147,0.368c0.074,0.221,0.266,0.325,0.573,0.34
		c0.031,0,0.061,0,0.089,0.028c0.089,0.045,0.177,0.118,0.266,0.178c0.029,0.029,0.074,0.059,0.117,0.103
		c0.193,0.163,0.429,0.25,0.709,0.25c0.088,0,0.117-0.06,0.088-0.161c-0.029-0.162,0-0.28,0.059-0.369
		c0.089,0.133,0.236,0.222,0.443,0.25c0.279,0.03,0.457-0.014,0.56-0.132c0.267,0.044,0.325,0.206,0.163,0.473
		c-0.016,0.029-0.029,0.043-0.061,0.043c-0.132,0.029-0.162,0.103-0.103,0.235c0.014,0.061,0.045,0.119,0.09,0.178
		c0.028,0.073,0.073,0.133,0.115,0.191c0.045,0.088,0.134,0.147,0.268,0.178c0.043,0.013,0.103,0.028,0.162,0.044
		c0.294,0.089,0.471,0.279,0.53,0.604c0.015,0.029,0.015,0.058,0.028,0.088c0,0,0,0-0.014,0c-0.222,0.043-0.442,0-0.648-0.118
		c-0.046-0.029-0.073-0.029-0.104,0c-0.043,0.015-0.072,0.06-0.088,0.104c-0.072,0.163-0.146,0.295-0.236,0.368
		c0.075,0.088,0.192,0.118,0.37,0.118c0.059,0,0.103,0.016,0.146,0.044c0.103,0.073,0.221,0.089,0.369,0.073
		c0.088-0.014,0.117,0.03,0.117,0.133c0.119,0.074,0.207,0.133,0.28,0.191c0.03,0.016,0.058,0.046,0.104,0.074
		c0.028,0.015,0.073,0.061,0.103,0.104c0.015,0.03,0.03,0.06,0.045,0.089c0.074,0.147,0.178,0.294,0.309,0.426
		c-0.176,0.104-0.367,0.162-0.589,0.162c-0.104,0.016-0.147,0.076-0.118,0.208c0,0.043,0.03,0.103,0.06,0.133
		c0.118,0.132,0.25,0.205,0.413,0.235c0.014,0,0.027,0.03,0.027,0.074c0.016,0.103,0.046,0.192,0.089,0.294
		c0.075,0.207,0.163,0.398,0.235,0.531c0.031,0.044,0.046,0.089,0.046,0.134c0.016,0.043,0.028,0.102,0.044,0.161
		c0.015,0.104-0.016,0.146-0.133,0.146c-0.132-0.015-0.235-0.073-0.324-0.221c-0.045-0.059-0.133-0.087-0.251-0.059
		c-0.028,0.015-0.059,0.029-0.073,0.059c-0.103,0.118-0.221,0.089-0.368-0.087c-0.031-0.045-0.074-0.09-0.104-0.104
		c-0.043-0.029-0.073-0.029-0.132-0.029c-0.074,0.014-0.147,0.029-0.22,0.044c-0.074,0.015-0.135,0.03-0.192,0.059
		c-0.045,0.031-0.088,0.045-0.118,0.074c-0.266,0.222-0.486,0.458-0.692,0.737c-0.016,0.015-0.044,0.044-0.089,0.059
		c-0.029,0-0.06,0.014-0.088,0.029c-0.208,0.074-0.339,0.207-0.37,0.384c-0.029,0.104-0.015,0.177,0.045,0.207
		c0.03,0.014,0.045,0.044,0.045,0.088c0.014,0.045,0.028,0.104,0.059,0.146c0.044,0.178,0.088,0.354,0.102,0.532
		c0.016,0.043,0.016,0.089,0.016,0.132c0,0.028,0,0.06,0.016,0.089c0.044,0.117,0.103,0.235,0.205,0.323
		c0.017,0.015,0.061,0.03,0.104,0.03c0.117,0,0.221,0.058,0.294,0.146c0.03,0.029,0.059,0.045,0.089,0.045
		c0.147,0.015,0.251,0.103,0.324,0.265c0.03,0.045,0.044,0.088,0.06,0.133c0,0.029,0.029,0.045,0.058,0.061
		c0.135,0.087,0.267,0.176,0.399,0.293c0.103,0.413,0.072,0.782-0.09,1.063c-0.043,0.088-0.043,0.161,0.016,0.234
		c0.015,0.029,0.044,0.073,0.058,0.118c0,0.029,0.016,0.058,0.045,0.089c0.132,0.176,0.207,0.367,0.192,0.574
		c0,0.191,0.044,0.354,0.161,0.472c0.148,0.147,0.192,0.324,0.148,0.561c-0.029,0.103-0.089,0.19-0.191,0.236
		c-0.03,0.014-0.059,0.043-0.059,0.074c-0.016,0.042-0.03,0.086-0.06,0.116c0.073,0.104,0.206,0.191,0.397,0.236
		c0.281,0.088,0.412,0.236,0.412,0.441c0,0.03-0.015,0.06-0.027,0.089c-0.09,0.177-0.208,0.251-0.325,0.177
		c-0.046-0.03-0.073-0.044-0.118-0.059c-0.089,0.015-0.146,0.028-0.178,0.073c-0.117,0.104-0.176,0.236-0.161,0.384
		c0,0.029-0.015,0.059-0.029,0.073c-0.074,0.089-0.192,0.119-0.384,0.119c-0.015,0-0.044,0.014-0.059,0.043
		c-0.075,0.164-0.103,0.324-0.088,0.503c0.146,0.072,0.294,0.117,0.441,0.117c0.058,0.162,0.015,0.294-0.133,0.368
		c-0.206,0.088-0.354,0.25-0.427,0.486c-0.016,0.059-0.029,0.134-0.06,0.207c-0.028,0.087-0.09,0.162-0.161,0.19
		c-0.044,0.029-0.074,0.06-0.12,0.089c-0.16,0.192-0.264,0.398-0.309,0.619c-0.045,0.161-0.029,0.311,0.029,0.427
		c0.074,0.147,0.163,0.266,0.266,0.339c0.014,0.031,0.029,0.061,0.045,0.104c0.015,0.146-0.059,0.191-0.236,0.146
		c-0.104-0.043-0.191-0.104-0.235-0.206c-0.045-0.059-0.104-0.088-0.206-0.073c-0.222,0-0.37,0.133-0.443,0.354
		c-0.028,0.058-0.044,0.104-0.073,0.147c-0.06-0.103-0.177-0.147-0.354-0.119c-0.118,0.029-0.161,0.105-0.131,0.266
		c0,0.045,0.027,0.104,0.058,0.133c0.089,0.104,0.133,0.206,0.163,0.325c0,0.044,0,0.089-0.045,0.117
		c-0.163,0.178-0.325,0.369-0.458,0.562c-0.029,0.028-0.043,0.073-0.059,0.117c-0.015,0.088-0.089,0.162-0.191,0.236
		c-0.249,0.161-0.311,0.412-0.176,0.736c0.013,0.044,0.013,0.088,0.029,0.133c0,0.133-0.017,0.235-0.061,0.31
		c-0.042,0.103-0.028,0.147,0.044,0.162c0.06,0.015,0.104,0.015,0.147,0.015c0.266,0,0.459,0.073,0.592,0.191
		c0.059,0.06,0.103,0.147,0.103,0.28c0.014,0.059,0.014,0.104,0.029,0.162c0.015,0.177-0.045,0.28-0.192,0.31
		c-0.028,0.015-0.06,0.03-0.088,0.045c-0.147,0.147-0.28,0.339-0.413,0.561c-0.015,0.028-0.044,0.044-0.089,0.059
		c-0.028,0-0.058,0.028-0.089,0.043c-0.086,0.104-0.086,0.178,0,0.236c0.104,0.045,0.163,0.104,0.208,0.177
		c0.015,0.03,0.044,0.045,0.089,0.06c0.028,0,0.058,0.015,0.073,0.015c0.029,0,0.059-0.015,0.089-0.029
		c0.132-0.074,0.249-0.177,0.324-0.266c0.028-0.029,0.059-0.044,0.103-0.029c0.34,0.015,0.634-0.059,0.899-0.206
		c0.045-0.015,0.089-0.03,0.133-0.03c0.324-0.043,0.472-0.221,0.44-0.515c0.252,0,0.398,0.087,0.457,0.294
		c0.016,0.118,0,0.178-0.059,0.205c0.031,0.089,0.074,0.148,0.104,0.178c0.161,0.147,0.383,0.192,0.678,0.178
		c0.25-0.03,0.502-0.046,0.737-0.074c0.028,0,0.059,0,0.073,0c0.133-0.015,0.236-0.044,0.31-0.088
		c0.044-0.016,0.088-0.016,0.133-0.016c0.044,0.016,0.103,0.029,0.146,0.029c0.119,0.016,0.178-0.059,0.178-0.191
		c0.015-0.043,0.015-0.103,0.03-0.146c0.014-0.074,0.028-0.149,0.044-0.207c0-0.06,0.028-0.103,0.073-0.134
		c0.073-0.073,0.192-0.132,0.339-0.19c0.03-0.015,0.044-0.029,0.059-0.059c0.104-0.222,0.236-0.429,0.413-0.634
		c0.031-0.045,0.074-0.074,0.133-0.089c0.191-0.045,0.339-0.118,0.428-0.235c0,0.103,0.015,0.176,0.044,0.235
		c0.015,0.044,0.029,0.089,0.029,0.133c-0.015,0.161-0.104,0.267-0.28,0.324c-0.029,0-0.059,0.03-0.088,0.044
		c0.132,0.147,0.339,0.207,0.59,0.191c0.104-0.015,0.177,0.016,0.206,0.074c0,0.029,0.045,0.029,0.075,0.015
		c0.059-0.015,0.102-0.044,0.146-0.073c0.118-0.147,0.266-0.296,0.441-0.442c0.089-0.089,0.192-0.133,0.295-0.163
		c0.045,0,0.074-0.014,0.088-0.044c0.104-0.072,0.104-0.177-0.014-0.266c-0.118-0.102-0.191-0.235-0.191-0.397
		c-0.015-0.103,0.044-0.207,0.146-0.28c0.221-0.161,0.414-0.31,0.576-0.456c0.088,0,0.117,0.043,0.117,0.146
		c0,0.059,0,0.104,0,0.148c0,0.103,0.015,0.177,0.059,0.25c-0.088,0.162-0.147,0.295-0.162,0.427
		c-0.014,0.044,0.015,0.088,0.074,0.118c0.192,0.148,0.353,0.104,0.516-0.118c0.044-0.088,0.178-0.117,0.34-0.059
		c0.044,0,0.072,0.015,0.088,0.015c0.088,0.016,0.133-0.029,0.133-0.118c0-0.222,0-0.442,0.014-0.663
		c0-0.015,0.029-0.044,0.088-0.058c0.253-0.074,0.487-0.222,0.708-0.399c0.031-0.044,0.074-0.073,0.089-0.134
		c0.059,0.061,0.089,0.104,0.118,0.163c0.045,0.089,0.045,0.163-0.016,0.223c-0.205,0.205-0.353,0.397-0.471,0.573
		c0.162,0.073,0.311,0.162,0.471,0.266c0.031,0.014,0.075,0.029,0.119,0.029c0.206,0,0.339-0.103,0.427-0.295
		c0.074-0.176,0.178-0.354,0.279-0.53c0.062-0.089,0.149-0.148,0.267-0.177c0.119-0.029,0.221-0.029,0.295,0
		c0.191-0.06,0.383-0.074,0.56-0.029c0,0,0.031,0.029,0.045,0.074c0,0.029,0.029,0.043,0.06,0.072
		c0.058,0.044,0.117,0.118,0.162,0.207c0.028,0.088,0.103,0.118,0.191,0.088c0.176-0.043,0.266,0,0.296,0.133
		c0,0.015,0.027,0.015,0.072,0c0.104-0.014,0.19-0.044,0.279-0.088c0.031-0.03,0.074-0.06,0.119-0.074
		c0.028-0.029,0.073-0.044,0.103-0.06c0.162-0.042,0.295-0.131,0.384-0.278c0.059-0.09,0.161-0.119,0.295-0.104
		c0.029,0,0.059,0,0.074,0c0.028,0,0.058-0.015,0.073-0.044c0.102-0.103,0.162-0.25,0.191-0.442c0-0.089-0.029-0.133-0.104-0.162
		c-0.029-0.015-0.06-0.015-0.088-0.029c-0.104-0.015-0.162,0-0.223,0.044c-0.102,0.104-0.205,0.104-0.295,0.015
		c-0.073-0.073-0.132-0.177-0.19-0.279c-0.015-0.045-0.061-0.074-0.118-0.074c-0.089-0.015-0.178-0.029-0.279-0.029
		c0.089-0.177,0.205-0.309,0.383-0.413c0.044-0.015,0.089-0.03,0.132-0.03c0.236-0.027,0.443,0,0.619,0.119
		c0.03,0.016,0.073,0.03,0.119,0.016c0.102-0.016,0.178,0,0.205,0.072c0.016,0.03,0.045,0.074,0.088,0.104
		c0.12,0.089,0.253,0.103,0.399,0.03c0.059-0.03,0.117-0.045,0.19-0.061c0.045-0.014,0.104-0.014,0.148-0.028
		c0.147,0,0.265-0.03,0.384-0.074c0.044-0.015,0.089-0.028,0.131-0.043c0.031-0.016,0.047-0.03,0.075-0.061
		c0.073-0.118,0.191-0.191,0.367-0.236c0.029-0.013,0.045-0.029,0.061-0.058c0.102-0.192,0.279-0.295,0.53-0.295
		c0.059-0.089,0.104-0.177,0.132-0.222c0.089-0.118,0.163-0.25,0.207-0.383c0.03-0.03,0.03-0.073,0.03-0.133
		c0.015-0.265,0.146-0.457,0.382-0.575c0.28-0.133,0.428-0.339,0.428-0.604c0.016-0.266,0.088-0.472,0.222-0.591
		c0.177-0.132,0.25-0.323,0.266-0.59c0-0.043,0.014-0.088,0.043-0.132c0.061-0.073,0.089-0.178,0.089-0.31
		c0.016-0.044,0.016-0.088,0.043-0.146c0.089-0.252,0.208-0.517,0.34-0.826c0.03-0.029,0.045-0.074,0.045-0.133
		c0.06-0.207,0.103-0.398,0.148-0.589c0.027-0.118,0.014-0.221-0.03-0.266c-0.044-0.044-0.089-0.075-0.133-0.089
		c-0.044,0-0.089-0.015-0.134-0.029c-0.028-0.015-0.058-0.015-0.088-0.015c-0.014,0-0.044,0-0.074,0
		c-0.235,0.015-0.368-0.059-0.396-0.251c0-0.029-0.016-0.059-0.029-0.088c-0.06-0.132-0.162-0.179-0.311-0.147
		c0-0.089,0.016-0.192,0.029-0.28c0-0.059,0.015-0.118,0.03-0.162c0.045-0.251,0.058-0.472,0.058-0.663
		c-0.029-0.369-0.043-0.737-0.058-1.105c0-0.222,0.015-0.472,0.045-0.723c0.013-0.061,0.013-0.103,0.044-0.163
		c0.073-0.176,0.116-0.383,0.146-0.589c0-0.045,0-0.074-0.03-0.088c-0.058-0.03-0.073-0.104-0.073-0.206
		c0.016-0.266-0.014-0.486-0.117-0.665c-0.074-0.116-0.133-0.25-0.192-0.382c-0.015-0.03-0.029-0.074-0.059-0.117
		c-0.074-0.134-0.104-0.28-0.088-0.459c0.015-0.043,0.015-0.088,0.015-0.147c0.029-0.338-0.03-0.648-0.133-0.942
		c-0.015-0.029-0.03-0.059-0.03-0.089c-0.089-0.221-0.177-0.442-0.266-0.648c-0.059-0.178-0.147-0.354-0.249-0.544
		c-0.089-0.147-0.178-0.34-0.236-0.576c-0.147-0.428-0.281-0.692-0.443-0.811c-0.146-0.103-0.25-0.221-0.338-0.338
		c-0.045-0.089-0.104-0.178-0.178-0.266c-0.073-0.104-0.162-0.222-0.236-0.34c-0.235-0.368-0.486-0.722-0.75-1.032
		c-0.061-0.088-0.119-0.161-0.177-0.25c-0.236-0.34-0.444-0.723-0.619-1.164c-0.147-0.355-0.311-0.723-0.488-1.121
		c-0.191-0.384-0.338-0.752-0.485-1.076c-0.016-0.029-0.016-0.059-0.016-0.089c-0.015-0.118-0.059-0.221-0.116-0.294
		c-0.134-0.119-0.237-0.324-0.311-0.575s-0.147-0.502-0.191-0.752c0-0.044-0.03-0.088-0.045-0.117
		c-0.088-0.134-0.177-0.252-0.279-0.385c-0.016-0.029-0.029-0.059-0.074-0.059c-0.222-0.073-0.413-0.177-0.574-0.25
		c-0.134-0.073-0.235-0.176-0.339-0.309c-0.133-0.207-0.267-0.369-0.398-0.501c-0.016-0.016-0.045-0.03-0.074-0.03
		c-0.132-0.015-0.235-0.059-0.294-0.118c-0.163-0.147-0.31-0.28-0.428-0.384c-0.073-0.059-0.178-0.118-0.251-0.176
		c-0.176-0.103-0.31-0.207-0.428-0.325c-0.015-0.015-0.044-0.044-0.044-0.074c-0.016-0.044-0.044-0.088-0.06-0.103
		c-0.132-0.133-0.235-0.236-0.338-0.339c-0.016-0.015-0.044-0.044-0.088-0.044c-0.03-0.014-0.075-0.043-0.089-0.059
		c-0.045-0.044-0.104-0.073-0.192-0.103c-0.03-0.015-0.044-0.015-0.074-0.03c-0.088-0.029-0.161-0.044-0.22-0.044l-0.016-0.132
		c-0.088-0.044-0.177-0.073-0.265-0.133c-0.06-0.014-0.103-0.088-0.119-0.177c0-0.029-0.014-0.059-0.028-0.088
		c-0.03-0.073-0.074-0.118-0.119-0.133c-0.072-0.029-0.133-0.088-0.206-0.147c-0.029-0.059-0.073-0.118-0.118-0.162
		c-0.058-0.073-0.103-0.176-0.132-0.295c-0.015-0.073-0.044-0.147-0.044-0.222c-0.016-0.161,0.015-0.309,0.118-0.412
		c0.132-0.177,0.22-0.368,0.249-0.619c0.016-0.043,0.03-0.088,0.045-0.133c0.03-0.074,0.074-0.177,0.088-0.31
		c0-0.015,0-0.044,0-0.073c0-0.044-0.014-0.103-0.014-0.147c-0.015-0.074-0.044-0.148-0.044-0.207
		c-0.015-0.03-0.015-0.06-0.03-0.089c-0.015-0.118-0.045-0.25-0.059-0.412c0.044-0.074,0.059-0.147,0.044-0.251
		c0-0.043,0-0.073,0.015-0.088c0.088-0.06,0.148-0.148,0.163-0.281c0-0.014,0-0.044,0.014-0.074c0-0.044,0.03-0.088,0.059-0.118
		c0.017-0.044,0.045-0.088,0.074-0.118c0.163-0.206,0.31-0.339,0.457-0.442c0.044-0.015,0.074-0.015,0.104-0.03
		c0.059-0.014,0.117-0.044,0.191-0.058c0.133-0.045,0.221-0.089,0.295-0.118c0.206-0.103,0.412-0.221,0.604-0.368
		c0.073-0.045,0.132-0.104,0.206-0.163c0.146-0.132,0.354-0.191,0.604-0.191c0.251,0.015,0.472-0.044,0.648-0.191
		c0.029-0.029,0.073-0.059,0.117-0.089c0.339-0.31,0.724-0.56,1.136-0.781c0.044-0.014,0.074-0.014,0.089-0.014
		c0.118-0.015,0.206-0.059,0.294-0.118c0.178-0.147,0.385-0.251,0.591-0.31c0.147-0.03,0.25-0.074,0.309-0.104
		c0.073-0.044,0.133-0.088,0.192-0.132c0.028-0.03,0.073-0.06,0.117-0.089c0.267-0.236,0.562-0.561,0.854-0.988
		c0.031-0.044,0.059-0.088,0.104-0.118c0.265-0.25,0.545-0.471,0.854-0.693c0.192-0.117,0.369-0.265,0.517-0.442
		c0.117-0.118,0.222-0.265,0.309-0.427c0.045-0.074,0.12-0.177,0.237-0.28c0.03-0.044,0.059-0.088,0.103-0.118
		c0.119-0.133,0.252-0.265,0.413-0.398c0.146-0.132,0.31-0.265,0.473-0.413c0.19-0.147,0.383-0.265,0.604-0.369
		c0.029-0.014,0.059-0.014,0.073-0.014c0.281,0,0.53-0.075,0.737-0.192c0.074-0.043,0.117-0.118,0.132-0.221
		c0.017-0.162,0.017-0.339,0.017-0.516c0-0.118,0.015-0.236,0.028-0.354c0.029-0.25,0.044-0.486,0.044-0.752
		c0-0.236,0.016-0.486,0.03-0.736c0.014-0.089,0.029-0.192,0.044-0.295c0.029-0.088,0.044-0.191,0.059-0.295
		c0.015-0.044,0-0.089-0.015-0.103c-0.044-0.044-0.074-0.104-0.103-0.192c-0.06-0.207-0.133-0.427-0.221-0.664
		c-0.074-0.236-0.089-0.472-0.06-0.722c0.015-0.059,0.015-0.118,0.028-0.162c0.016-0.044,0.031-0.088,0.06-0.103
		c0.03-0.044,0.06-0.104,0.104-0.191c0.043-0.118,0.088-0.222,0.146-0.295c0.029-0.044,0.059-0.088,0.103-0.117
		c0.163-0.119,0.281-0.31,0.326-0.545c0.014-0.074,0.027-0.134,0.072-0.163c0.103-0.147,0.191-0.31,0.266-0.486
		c0.045-0.118,0.073-0.236,0.073-0.383c0.015-0.015,0.015-0.044,0.029-0.074c0.044-0.088,0.089-0.177,0.147-0.295
		c0.015-0.044,0.03-0.088,0.044-0.133c0.089-0.133,0.162-0.265,0.266-0.383c0.03-0.044,0.06-0.089,0.088-0.134
		c0.075-0.058,0.164-0.117,0.267-0.191c0.206-0.103,0.353-0.207,0.472-0.325c0.043-0.029,0.073-0.073,0.103-0.103
		c0.281-0.354,0.575-0.663,0.915-0.943c0.014-0.015,0.044-0.044,0.044-0.074c0.042-0.147,0.089-0.236,0.176-0.295
		c0.163-0.118,0.339-0.221,0.502-0.31c0.088-0.043,0.104-0.104,0.059-0.191c-0.045-0.073-0.103-0.177-0.191-0.31
		c-0.03-0.044-0.059-0.089-0.104-0.118c-0.059-0.043-0.118-0.088-0.177-0.117C45.783,3.792,45.74,3.702,45.754,3.6
		c0.014-0.059,0.045-0.089,0.074-0.118c0.147-0.059,0.162-0.147,0.029-0.236C45.68,3.113,45.548,2.965,45.432,2.789z"/>
</g>
</svg>
