<?xml version="1.0" encoding="utf-8"?>
<!-- Generator: Adobe Illustrator 16.0.0, SVG Export Plug-In . SVG Version: 6.00 Build 0)  -->
<!DOCTYPE svg PUBLIC "-//W3C//DTD SVG 1.1//EN" "http://www.w3.org/Graphics/SVG/1.1/DTD/svg11.dtd">
<svg version="1.1" id="Calque_1" xmlns="http://www.w3.org/2000/svg" xmlns:xlink="http://www.w3.org/1999/xlink" x="0px" y="0px"
	 width="60px" height="60px" viewBox="0 0 60 60" enable-background="new 0 0 60 60" xml:space="preserve">
<polygon fill="#FFFFFF" points="51.254,16.355 56.006,17.085 55.932,17.009 58.171,16.623 58.152,17.036 58.777,17.336 
	58.777,17.662 58.452,17.912 57.837,17.824 57.957,20.46 46.548,26.933 46.557,27.186 46.738,27.248 46.736,27.097 46.838,27.079 
	47.285,27.551 47.119,27.59 47.113,27.638 47.303,27.626 46.088,28.473 46.023,28.317 46.102,28.272 46.25,28.32 46.588,27.979 
	45.902,28.082 41.232,35.289 41.842,37.029 41.68,37.195 43.881,40.066 42.376,41.281 42.093,41.162 40.246,42.391 40.189,43.204 
	39.631,43.279 39.482,44.136 39.564,44.23 39.49,44.729 39.266,44.75 38.866,45.753 38.646,45.7 38.531,46.598 38.943,46.805 
	38.906,45.907 38.971,45.912 39.198,46.771 37.132,47.18 37.107,47.354 35.453,47.451 32.893,50.807 32.611,50.837 31.799,52.05 
	31.32,52.057 30.824,51.404 28.415,52.217 28.183,51.948 28.113,52.045 15.885,52.962 15.15,54.298 14.685,54.139 14.564,54.241 
	14.622,54.859 13.909,55.139 10.677,51.906 10.987,51.79 10.968,51.701 10.748,51.635 10.839,51.214 9.784,50.109 10.302,49.848 
	7.931,47.064 7.796,47.07 8.32,46.288 7.757,46.684 7.517,46.029 7.422,46.896 7.565,47.021 7.524,47.104 6.821,46.619 6.73,46.729 
	5.339,46.465 6.759,41.936 8.078,41.852 8.155,40.984 8.422,40.823 6.731,39.061 8.985,35.447 8.653,34.832 8.206,34.958 
	6.524,31.215 9.152,31.312 10.086,29.314 9.439,28.483 9.521,27.938 10.304,27.822 10.39,22.909 14.349,19.953 14.369,19.737 
	12.724,18.684 13.038,17.98 12.85,17.838 12.991,17.397 12.788,17.127 12.57,17.309 12.224,17.228 12.053,16.885 11.874,17.197 
	10.553,17.028 10.525,16.774 10.016,16.829 10.037,17.158 8.787,17.626 8.613,17.309 7.931,17.349 8.048,17.157 6.726,17.014 
	6.782,16.666 5.567,17.012 5.211,16.476 5.865,15.93 5.778,15.494 5.48,15.442 5.498,15.241 5.382,15.131 2.229,16.379 
	2.301,14.858 2.708,14.803 2.751,14.655 2.588,14.593 2.592,14.543 3.855,13.49 2.572,13.854 2.635,13.673 2.837,13.672 
	2.882,13.506 2.784,13.45 2.811,13.334 3.258,13.398 3.253,13.23 3.746,12.913 3.68,12.875 2.943,13.108 2.425,12.603 2.436,12.452 
	2.79,12.427 2.8,12.528 2.713,12.556 2.707,12.656 2.857,12.667 2.92,12.47 3.092,12.414 2.996,12.122 3.487,11.57 3.219,11.567 
	3.246,11.419 3.151,11.328 2.959,11.685 2.859,11.66 2.808,11.455 2.344,11.859 2.361,12.096 2.189,12.15 2.147,11.778 
	1.965,11.766 2.972,10.544 2.552,10.549 2.443,10.424 2.274,10.446 2.223,10.693 2.04,10.682 1.861,10.35 2.05,10.278 2.085,10.046 
	1.883,10.05 1.997,9.621 1.693,9.398 1.64,9.445 1.439,9.431 1.285,9.723 1.222,9.667 1.52,9.001 1.328,8.636 2.092,8.269 
	1.761,8.195 1.756,8.011 3.206,7.677 3.014,7.562 3.096,7.333 3.245,7.36 3.633,7.069 4.058,7.484 5.802,7.002 5.829,7.122 
	5.701,7.247 5.765,7.521 5.833,7.524 5.83,7.323 5.954,7.231 5.969,7.015 6.237,7.017 6.464,7.603 6.564,7.141 6.737,7.052 
	6.744,6.951 6.189,6.744 6.96,6.514 6.097,6.62 6.021,6.515 6.314,6.167 6.21,5.958 7.219,5.693 7.285,5.463 7.367,5.72 7.56,5.6 
	7.452,5.475 8.494,4.961 8.563,5.167 8.353,5.554 8.381,5.624 9.239,4.861 9.371,4.888 9.202,5.396 9.376,5.291 9.558,5.337 
	9.636,5.644 9.867,5.459 10.569,5.742 10.599,6.03 10.825,6.163 10.846,6.332 11.103,6.501 11.126,6.654 11.887,6.809 11.978,6.948 
	14.583,7.113 14.676,6.969 15.816,6.981 15.837,7.15 17.067,7.305 17.076,7.188 16.965,7.097 17.299,6.851 17.309,6.718 
	17.461,6.711 17.564,6.92 17.697,6.929 18.22,7.603 19.454,7.723 19.272,7.912 26.614,8.861 26.265,9.087 26.314,9.237 
	26.915,9.262 26.964,9.087 26.813,9.037 27.565,8.536 28.115,9.061 28.04,9.335 28.441,9.386 28.541,9.561 28.741,9.436 
	29.818,10.109 29.766,9.859 30.125,9.491 34.877,10.362 35.004,10.161 35.421,10.067 35.809,10.712 36.182,10.736 36.209,11.062 
	37.262,11.262 36.811,12.412 37.387,12.512 37.387,12.161 37.561,12.111 37.663,12.212 37.663,12.41 40.062,13.06 40.062,13.535 
	40.965,14.209 41.089,13.959 44.827,15.148 45.152,14.824 46.652,15.15 46.479,14.2 49.979,15.628 49.753,16.003 49.954,16.229 
	49.878,16.729 "/>
</svg>
