<?xml version="1.0" encoding="utf-8"?>
<!-- Generator: Adobe Illustrator 16.0.0, SVG Export Plug-In . SVG Version: 6.00 Build 0)  -->
<!DOCTYPE svg PUBLIC "-//W3C//DTD SVG 1.1//EN" "http://www.w3.org/Graphics/SVG/1.1/DTD/svg11.dtd">
<svg version="1.1" id="Layer_3" xmlns="http://www.w3.org/2000/svg" xmlns:xlink="http://www.w3.org/1999/xlink" x="0px" y="0px"
	 width="49.885px" height="26.223px" viewBox="6.974 0.376 49.885 26.223" enable-background="new 6.974 0.376 49.885 26.223"
	 xml:space="preserve">
<g>
	<path fill="none" stroke="#FFFFFF" stroke-miterlimit="10" d="M9.421,2.043c0.475,0.859-0.023,2.475-0.092,3.532
		C9.174,8,8.89,10.362,8.564,12.764c-0.267,1.962-0.795,3.893-0.858,5.868c-0.041,1.29-0.263,2.946,0.49,4.028
		c0.916,1.314,3.046,1.516,4.505,1.729c3.964,0.571,8.474,0.311,12.435,0.114c4.599-0.226,9.264,0.431,13.867,0.64
		c3.265,0.146,6.512,0.452,9.767,0.742c0.669,0.062,5.059,0.796,3.793-0.862"/>
	<path fill="none" stroke="#FFFFFF" stroke-miterlimit="10" d="M9.299,1.306c1.535,0.53,3.742,0.583,5.393,0.614
		c3.851,0.075,7.702,0.369,11.555,0.52c6.05,0.236,12.233,0.513,18.257-0.035c2.546-0.231,6.544-1.852,8.799-0.027
		c2.184,1.77,1.144,6.295,1.098,8.684c-0.048,2.712-0.215,5.45-0.366,8.158c-0.103,1.83-1.401,4.873-0.735,6.54"/>
	<path fill="none" stroke="#FFFFFF" stroke-miterlimit="10" d="M9.053,2.043c2.509,2.832,6.691,4.497,9.773,6.615
		c3.98,2.738,7.521,5.952,11.525,8.625c1.034,0.689,1.653,1.079,2.844,0.518c2.2-1.037,4.394-3.27,6.38-4.795
		c3.615-2.778,7.407-5.088,11.184-7.646c1.181-0.801,2.15-1.896,3.275-2.703"/>
	<path fill="none" stroke="#FFFFFF" stroke-miterlimit="10" d="M8.564,2.288c0.818,0.232-0.496,10.713-0.49,12.779
		c0.004,2.042-0.779,5.022-0.124,6.882"/>
	<path fill="none" stroke="#FFFFFF" stroke-miterlimit="10" d="M9.053,2.411C9.602,3.91,8.936,6.353,8.837,7.862
		c-0.133,1.999-0.235,3.996-0.43,5.987c-0.132,1.354-0.326,2.685-0.45,4.026c-0.151,1.632-0.823,4.994,0.607,6.161"/>
	<path fill="none" stroke="#FFFFFF" stroke-miterlimit="10" d="M9.177,2.165c5.865-0.486,12.236-0.123,18.167,0.342
		c4.03,0.314,8.15,0.154,12.2,0.149c3.898-0.005,7.888,0.438,11.793,0.246c0.785-0.039,2.029,0.021,2.771-0.246
		c-0.281-0.18-0.58-0.253-0.932-0.245"/>
	<path fill="none" stroke="#FFFFFF" stroke-miterlimit="10" d="M44.596,2.043C45.93,2.47,54.969,1.257,54.889,2.412"/>
	<path fill="none" stroke="#FFFFFF" stroke-miterlimit="10" d="M48.642,2.165c1.211,0.602,3.146-0.484,4.481,0
		c0.973,0.353,0.969,0.927,1.038,2.088c0.192,3.192-0.102,6.437-0.245,9.612c-0.113,2.512-0.26,5.107-0.498,7.591
		c-0.058,0.622-0.337,5.741-1.347,4.425"/>
	<path fill="none" stroke="#FFFFFF" stroke-miterlimit="10" d="M53.298,2.78c1.041-0.561,1.423,1.391,1.471,2.082
		c0.263,3.876-1.562,7.875-1.471,11.804"/>
	<path fill="none" stroke="#FFFFFF" stroke-miterlimit="10" d="M54.647,3.025c0.84,2.087-0.484,5.78-0.585,7.991
		c-0.12,2.543-0.283,4.981-0.642,7.498c-0.278,1.964-0.828,5.301-0.489,7.123"/>
	<path fill="none" stroke="#FFFFFF" stroke-miterlimit="10" d="M9.053,1.673c6.346,4.75,12.59,10.143,19.361,14.221
		c0.877,0.528,1.932,1.695,2.944,1.911c1.319,0.279,3.252-1.081,4.415-1.788c2.801-1.7,4.903-4.204,7.683-5.896
		c1.889-1.148,3.766-2.279,5.59-3.484c1.593-1.053,3.307-1.797,4.929-2.784c0.743-0.453,1.815-1.303,2.632-0.826"/>
	<path fill="none" stroke="#FFFFFF" stroke-miterlimit="10" d="M11.505,1.428c2.259-0.872,5.939-0.382,8.336-0.368
		c4.01,0.023,8.031,0.247,12.046,0.368c3.489,0.105,7.146,0.177,10.658,0.006c1.69-0.081,3.426-0.058,5.113-0.219
		c1.605-0.153,3.631-0.729,5.149,0.09"/>
	<path fill="none" stroke="#FFFFFF" stroke-miterlimit="10" d="M9.789,1.06c3.492,1.198,8.062,1.004,11.729,1.105
		c4.766,0.13,9.501,0.882,14.255,0.86c3.262-0.016,6.536,0.345,9.814,0.371c2.356,0.019,4.533-0.206,6.854,0.243"/>
	<path fill="none" stroke="#FFFFFF" stroke-miterlimit="10" d="M11.995,1.182c0.575,0.323,1.021,0.783,1.594,1.105"/>
	<path fill="none" stroke="#FFFFFF" stroke-miterlimit="10" d="M13.466,1.428c0.328,0.374,0.696,0.702,1.104,0.984"/>
	<path fill="none" stroke="#FFFFFF" stroke-miterlimit="10" d="M14.202,1.428c0.323,0.419,0.771,0.7,1.225,0.984"/>
	<path fill="none" stroke="#FFFFFF" stroke-miterlimit="10" d="M15.303,1.673c0.298,0.335,0.685,0.555,1.104,0.615"/>
	<path fill="none" stroke="#FFFFFF" stroke-miterlimit="10" d="M16.286,1.673c0.273,0.269,0.686,0.504,0.858,0.492"/>
	<path fill="none" stroke="#FFFFFF" stroke-miterlimit="10" d="M16.653,1.306C17.158,1.581,17.588,2.154,18,2.043"/>
	<path fill="none" stroke="#FFFFFF" stroke-miterlimit="10" d="M17.51,1.182c0.435,0.368,0.894,0.735,1.472,0.737"/>
	<path fill="none" stroke="#FFFFFF" stroke-miterlimit="10" d="M18.859,1.428c0.274,0.138,0.549,0.219,0.857,0.245"/>
	<path fill="none" stroke="#FFFFFF" stroke-miterlimit="10" d="M19.471,0.813c0.359,0.342,0.655,0.698,1.104,0.86"/>
	<path fill="none" stroke="#FFFFFF" stroke-miterlimit="10" d="M20.82,1.06c0.285,0.266,0.644,0.494,0.98,0.614"/>
	<path fill="none" stroke="#FFFFFF" stroke-miterlimit="10" d="M21.677,0.937c0.577,0.155,0.923,0.578,1.473,0.736"/>
	<path fill="none" stroke="#FFFFFF" stroke-miterlimit="10" d="M23.149,1.182c0.347,0.303,0.759,0.591,1.101,0.86"/>
	<path fill="none" stroke="#FFFFFF" stroke-miterlimit="10" d="M24.25,1.428c0.358,0.257,0.673,0.535,0.982,0.859"/>
	<path fill="none" stroke="#FFFFFF" stroke-miterlimit="10" d="M24.986,1.428c0.534,0.248,0.808,0.72,1.227,1.106"/>
	<path fill="none" stroke="#FFFFFF" stroke-miterlimit="10" d="M26.213,1.796c0.393,0.21,0.759,0.455,1.103,0.738"/>
	<path fill="none" stroke="#FFFFFF" stroke-miterlimit="10" d="M26.948,1.428c0.633,0.231,0.979,0.841,1.593,1.106"/>
	<path fill="none" stroke="#FFFFFF" stroke-miterlimit="10" d="M28.541,1.673c0.404,0.249,0.986,0.688,1.226,0.738"/>
	<path fill="none" stroke="#FFFFFF" stroke-miterlimit="10" d="M29.643,1.428c0.481,0.323,0.852,0.737,1.349,0.984"/>
	<path fill="none" stroke="#FFFFFF" stroke-miterlimit="10" d="M31.359,1.796c0.381,0.292,0.68,0.613,0.981,0.983"/>
	<path fill="none" stroke="#FFFFFF" stroke-miterlimit="10" d="M32.341,1.673c0.371,0.287,0.679,0.615,0.98,0.983"/>
	<path fill="none" stroke="#FFFFFF" stroke-miterlimit="10" d="M33.687,2.043c0.383,0.228,0.722,0.495,1.104,0.736"/>
	<path fill="none" stroke="#FFFFFF" stroke-miterlimit="10" d="M34.791,1.919c0.481,0.227,0.939,0.542,1.349,0.859"/>
	<path fill="none" stroke="#FFFFFF" stroke-miterlimit="10" d="M36.261,2.165c0.325,0.152,0.609,0.356,0.856,0.615"/>
	<path fill="none" stroke="#FFFFFF" stroke-miterlimit="10" d="M37.119,1.919c0.65,0.163,1.123,0.67,1.596,1.105"/>
	<path fill="none" stroke="#FFFFFF" stroke-miterlimit="10" d="M38.836,2.288c0.372,0.19,0.71,0.448,0.98,0.737"/>
	<path fill="none" stroke="#FFFFFF" stroke-miterlimit="10" d="M39.571,1.919c0.455,0.036,0.86,0.378,1.103,0.737"/>
	<path fill="none" stroke="#FFFFFF" stroke-miterlimit="10" d="M40.921,1.919c0.4,0.257,0.729,0.587,0.979,0.983"/>
	<path fill="none" stroke="#FFFFFF" stroke-miterlimit="10" d="M41.408,1.428c0.554,0.301,0.856,0.862,1.228,1.352"/>
	<path fill="none" stroke="#FFFFFF" stroke-miterlimit="10" d="M42.76,2.165c0.406,0.268,0.776,0.611,1.1,0.983"/>
	<path fill="none" stroke="#FFFFFF" stroke-miterlimit="10" d="M43.616,2.165c0.501,0.219,1.118,0.896,1.225,1.105"/>
	<path fill="none" stroke="#FFFFFF" stroke-miterlimit="10" d="M44.719,2.411c0.389,0.335,1.114,1.068,1.104,1.105"/>
	<path fill="none" stroke="#FFFFFF" stroke-miterlimit="10" d="M45.578,2.534c0.523,0.175,0.938,0.583,1.102,1.105"/>
	<path fill="none" stroke="#FFFFFF" stroke-miterlimit="10" d="M42.512,1.796c0.261,0.143,0.479,0.359,0.612,0.615"/>
	<path fill="none" stroke="#FFFFFF" stroke-miterlimit="10" d="M43.616,2.288c0.19,0.145,0.405,0.274,0.613,0.368"/>
	<path fill="none" stroke="#FFFFFF" stroke-miterlimit="10" d="M43.859,1.673c0.396,0.326,0.765,0.796,1.104,1.106"/>
	<path fill="none" stroke="#FFFFFF" stroke-miterlimit="10" d="M44.719,1.551c0.549,0.482,1.097,1.131,1.715,1.474"/>
	<path fill="none" stroke="#FFFFFF" stroke-miterlimit="10" d="M45.698,1.428c0.764,0.301,1.066,1.214,1.717,1.721"/>
	<path fill="none" stroke="#FFFFFF" stroke-miterlimit="10" d="M46.433,1.428c0.573,0.415,1.236,1.512,1.718,1.476"/>
	<path fill="none" stroke="#FFFFFF" stroke-miterlimit="10" d="M47.293,1.551c0.592,0.297,1.091,0.97,1.571,1.523
		c0.252,0.229,0.032-0.067,0.022-0.171"/>
	<path fill="none" stroke="#FFFFFF" stroke-miterlimit="10" d="M47.782,1.428c0.717,0.472,1.406,1.552,1.962,1.842"/>
	<path fill="none" stroke="#FFFFFF" stroke-miterlimit="10" d="M48.887,1.673c0.613,0.545,1.015,1.33,1.594,1.843"/>
	<path fill="none" stroke="#FFFFFF" stroke-miterlimit="10" d="M49.499,1.551c0.802,0.765,1.464,1.845,2.326,2.458"/>
	<path fill="none" stroke="#FFFFFF" stroke-miterlimit="10" d="M50.846,2.043c0.845,0.453,1.178,1.426,1.83,2.069
		c0.009-0.167-0.029-0.322-0.115-0.472"/>
	<path fill="none" stroke="#FFFFFF" stroke-miterlimit="10" d="M51.951,2.165c0.42,0.482,0.865,1.121,1.347,1.474"/>
	<path fill="none" stroke="#FFFFFF" stroke-miterlimit="10" d="M52.196,1.428c0.646,0.232,1.344,1.175,1.47,1.598"/>
	<path fill="none" stroke="#FFFFFF" stroke-miterlimit="10" d="M53.298,1.673c0.779,0.407,1.789,1.523,2.083,2.335"/>
	<path fill="none" stroke="#FFFFFF" stroke-miterlimit="10" d="M12.118,1.428c0.473,0.16,0.837,0.067,1.327,0.112
		c2.104,0.191,4.188,0.507,6.298,0.628c3.377,0.193,6.762,0.567,10.146,0.611"/>
	<path fill="none" stroke="#FFFFFF" stroke-miterlimit="10" d="M14.814,1.551c4.51,0.793,8.919,1.055,13.48,1.352"/>
	<path fill="none" stroke="#FFFFFF" stroke-miterlimit="10" d="M7.584,22.44c-0.251,3.026,15.399,2.251,17.637,2.363
		c5.958,0.296,11.689,0.8,17.604,1.085c3.185,0.153,6.442,0.133,9.599-0.026c0.134-0.491,0.203-1.052,0.14-1.578"/>
	<path fill="none" stroke="#FFFFFF" stroke-miterlimit="10" d="M10.279,2.411c-0.21-0.171-0.405-0.25-0.568-0.482
		c4.579,4.714,10.344,8.263,15.77,11.909c1.303,0.876,2.58,1.866,3.797,2.854c0.618,0.501,1.304,1.572,1.96,1.816"/>
	<path fill="none" stroke="#FFFFFF" stroke-miterlimit="10" d="M30.38,17.894c0.963-0.056,1.716-0.26,2.572-0.984"/>
	<path fill="none" stroke="#FFFFFF" stroke-miterlimit="10" d="M8.319,2.288C8.745,4.075,8.38,6.175,8.263,7.977
		c-0.181,2.789-0.153,5.84-0.803,8.564"/>
	<path fill="none" stroke="#FFFFFF" stroke-miterlimit="10" d="M9.053,3.025c0.194,2.587-0.512,5.428-0.618,8.064
		c-0.099,2.481-0.083,4.976-0.236,7.452c-0.044,0.727-0.234,1.979-0.37,2.443c-0.001-0.21-0.007-0.421-0.001-0.632"/>
	<path fill="none" stroke="#FFFFFF" stroke-miterlimit="10" d="M9.912,1.551c1.779,1.728,4.132,3.111,6.145,4.559
		c5.059,3.641,9.903,7.676,14.69,11.662"/>
	<path fill="none" stroke="#FFFFFF" stroke-miterlimit="10" d="M53.91,3.639c-0.405,0.599-1.042,0.827-1.662,1.211
		c-1.574,0.976-3.179,2.108-4.658,3.223c-1.271,0.958-2.659,1.669-3.975,2.563c-3.159,2.147-6.401,3.92-9.314,6.52"/>
</g>
</svg>
