<?xml version="1.0" encoding="utf-8"?>
<!-- Generator: Adobe Illustrator 16.0.0, SVG Export Plug-In . SVG Version: 6.00 Build 0)  -->
<!DOCTYPE svg PUBLIC "-//W3C//DTD SVG 1.1//EN" "http://www.w3.org/Graphics/SVG/1.1/DTD/svg11.dtd">
<svg version="1.1" id="Calque_1" xmlns="http://www.w3.org/2000/svg" xmlns:xlink="http://www.w3.org/1999/xlink" x="0px" y="0px"
	 width="25px" height="25px" viewBox="37.5 37.5 25 25" enable-background="new 37.5 37.5 25 25" xml:space="preserve">
<g>
	<g>
		<path fill="#FFFFFF" d="M47.47,54.917l-6.939,6.014c-0.635,0.551-1.604,0.481-2.155-0.154l-0.249-0.288
			c-0.55-0.635-0.481-1.604,0.153-2.154l6.991-6.059"/>
	</g>
	<path fill="#FFFFFF" d="M53.146,56.895c-5.024,0-9.098-4.073-9.098-9.099c0-5.024,4.073-9.098,9.098-9.098
		c5.025,0,9.099,4.073,9.099,9.098C62.245,52.821,58.172,56.894,53.146,56.895z M59.68,47.796c0-3.672-2.976-6.649-6.648-6.649
		c-3.672,0-6.648,2.978-6.648,6.649s2.977,6.648,6.648,6.648S59.68,51.468,59.68,47.796z"/>
</g>
</svg>
