<?xml version="1.0" encoding="utf-8"?>
<!-- Generator: Adobe Illustrator 16.0.0, SVG Export Plug-In . SVG Version: 6.00 Build 0)  -->
<!DOCTYPE svg PUBLIC "-//W3C//DTD SVG 1.1//EN" "http://www.w3.org/Graphics/SVG/1.1/DTD/svg11.dtd">
<svg version="1.1" id="Calque_1" xmlns="http://www.w3.org/2000/svg" xmlns:xlink="http://www.w3.org/1999/xlink" x="0px" y="0px"
	 width="20px" height="20px" viewBox="0 0 20 20" enable-background="new 0 0 20 20" xml:space="preserve">
<path id="twitter-icon" fill="#FAF6ED" d="M17.5,5.349c-0.555,0.244-1.143,0.411-1.768,0.485c0.637-0.381,1.125-0.984,1.351-1.702
	c-0.595,0.351-1.25,0.607-1.952,0.747c-0.561-0.599-1.363-0.974-2.247-0.974c-1.985,0-3.446,1.854-2.997,3.779
	C7.33,7.558,5.062,6.331,3.544,4.469C2.738,5.852,3.125,7.662,4.497,8.578C3.991,8.56,3.517,8.424,3.101,8.192
	c-0.033,1.428,0.991,2.761,2.471,3.056c-0.435,0.12-0.908,0.146-1.39,0.053c0.391,1.223,1.527,2.109,2.875,2.141
	c-1.295,1.012-2.922,1.464-4.557,1.273c1.363,0.869,2.979,1.38,4.718,1.38c5.714,0,8.942-4.827,8.747-9.155
	C16.564,6.506,17.089,5.965,17.5,5.349z"/>
</svg>
