<?xml version="1.0" encoding="utf-8"?>
<!-- Generator: Adobe Illustrator 16.0.0, SVG Export Plug-In . SVG Version: 6.00 Build 0)  -->
<!DOCTYPE svg PUBLIC "-//W3C//DTD SVG 1.1//EN" "http://www.w3.org/Graphics/SVG/1.1/DTD/svg11.dtd">
<svg version="1.1" id="Calque_1" xmlns="http://www.w3.org/2000/svg" xmlns:xlink="http://www.w3.org/1999/xlink" x="0px" y="0px"
	 width="20px" height="20px" viewBox="0 0 20 20" enable-background="new 0 0 20 20" xml:space="preserve">
<path id="instagram-icon" fill="#FAF6ED" d="M12.611,7.466h4.276v6.565c0,1.6-1.298,2.896-2.893,2.896h-8.85
	c-1.599,0-2.895-1.297-2.895-2.896V7.466h4.256c-0.435,0.613-0.692,1.36-0.692,2.169c0,2.068,1.677,3.746,3.746,3.746
	c2.066,0,3.746-1.678,3.746-3.746C13.306,8.826,13.048,8.079,12.611,7.466z M16.888,5.106v1.9h-4.66
	C11.548,6.317,10.604,5.89,9.56,5.89c-1.044,0-1.989,0.427-2.668,1.117H2.25v-1.9c0-0.976,0.483-1.836,1.222-2.363V5.86h0.594V2.419
	C4.202,2.366,4.34,2.322,4.485,2.289V5.86h0.594V2.212c0.021,0,0.044-0.001,0.066-0.001h0.342V5.86h0.594V2.211h7.914
	C15.59,2.211,16.888,3.507,16.888,5.106z M15.563,3.885c0-0.256-0.209-0.463-0.464-0.463h-1.563c-0.257,0-0.466,0.207-0.466,0.463
	v1.601c0,0.257,0.209,0.465,0.466,0.465H15.1c0.255,0,0.464-0.208,0.464-0.465V3.885L15.563,3.885z M6.674,9.635
	c0-0.863,0.381-1.64,0.986-2.169c0.21-0.186,0.449-0.342,0.709-0.46C8.731,6.843,9.133,6.75,9.56,6.75
	c0.424,0,0.825,0.093,1.188,0.256c0.261,0.118,0.5,0.274,0.711,0.46c0.604,0.529,0.987,1.306,0.987,2.169
	c0,1.591-1.297,2.888-2.886,2.888C7.969,12.523,6.674,11.227,6.674,9.635z M7.436,9.635c0,1.179,0.956,2.132,2.133,2.132
	s2.134-0.953,2.134-2.132s-0.957-2.134-2.134-2.134S7.436,8.456,7.436,9.635z"/>
</svg>
