<?xml version="1.0" encoding="utf-8"?>
<!-- Generator: Adobe Illustrator 16.0.0, SVG Export Plug-In . SVG Version: 6.00 Build 0)  -->
<!DOCTYPE svg PUBLIC "-//W3C//DTD SVG 1.1//EN" "http://www.w3.org/Graphics/SVG/1.1/DTD/svg11.dtd">
<svg version="1.1" id="Calque_1" xmlns="http://www.w3.org/2000/svg" xmlns:xlink="http://www.w3.org/1999/xlink" x="0px" y="0px"
	 width="20px" height="20px" viewBox="0 0 20 20" enable-background="new 0 0 20 20" xml:space="preserve">
<path id="linkedin-icon" fill="#FFFFFF" d="M5.122,2.81c0,1.297-1.042,2.347-2.327,2.347c-1.286,0-2.327-1.053-2.327-2.347
	s1.042-2.347,2.327-2.347C4.08,0.463,5.122,1.514,5.122,2.81z M4.781,6.82H0.844v12.717h3.937V6.82z M11.072,6.82H7.301v12.717
	h3.773c0,0,0-4.716,0-6.675c0-1.787,0.824-2.852,2.398-2.852c1.447,0,2.145,1.022,2.145,2.852s0,6.675,0,6.675h3.916
	c0,0,0-4.645,0-8.053c0-3.405-1.928-5.051-4.627-5.051c-2.697-0.002-3.834,2.1-3.834,2.1V6.82L11.072,6.82z"/>
</svg>
