<?xml version="1.0" encoding="utf-8"?>
<!-- Generator: Adobe Illustrator 16.0.0, SVG Export Plug-In . SVG Version: 6.00 Build 0)  -->
<!DOCTYPE svg PUBLIC "-//W3C//DTD SVG 1.1//EN" "http://www.w3.org/Graphics/SVG/1.1/DTD/svg11.dtd">
<svg version="1.1" id="Layer_1" xmlns="http://www.w3.org/2000/svg" xmlns:xlink="http://www.w3.org/1999/xlink" x="0px" y="0px"
	 width="20px" height="20px" viewBox="0 0 20 20" enable-background="new 0 0 20 20" xml:space="preserve">
<g>
	<g>
		<g>
			<g>
				<path fill="none" d="M14.459,7.106c-2.018,0-3.657,1.641-3.657,3.658s1.642,3.657,3.657,3.657s3.657-1.641,3.657-3.657
					S16.475,7.106,14.459,7.106z"/>
				<path fill="none" d="M5.541,7.106c-2.017,0-3.657,1.641-3.657,3.658s1.641,3.657,3.657,3.657s3.658-1.642,3.658-3.657
					C9.199,8.747,7.558,7.106,5.541,7.106z"/>
				<path fill="#FAF6ED" d="M17.98,7.889c0.172-0.511,0.437-1.113,0.797-1.476H15.79c-0.049-0.016-0.101-0.025-0.149-0.039
					c-0.164-0.254-1.273-1.689-5.718-1.689c-4.875,0-5.739,1.729-5.739,1.729H1.067C1.464,6.811,1.741,7.495,1.91,8.032
					c-0.575,0.762-0.92,1.706-0.92,2.731c0,2.51,2.041,4.551,4.551,4.551c1.391,0,2.637-0.629,3.472-1.615l1.033,1.445l0.892-1.502
					c0.836,1.02,2.104,1.672,3.521,1.672c2.51,0,4.551-2.041,4.551-4.551C19.01,9.675,18.624,8.673,17.98,7.889z M5.541,14.422
					c-2.017,0-3.657-1.642-3.657-3.656c0-2.019,1.641-3.659,3.657-3.659s3.658,1.641,3.658,3.659
					C9.199,12.78,7.558,14.422,5.541,14.422z M14.459,14.422c-2.018,0-3.657-1.642-3.657-3.656c0-2.019,1.642-3.659,3.657-3.659
					s3.657,1.641,3.657,3.659C18.116,12.781,16.475,14.422,14.459,14.422z"/>
			</g>
			<path fill="#FFFFFF" d="M10.201,5.21c3.115,0,4.287,1.296,4.287,1.296s-3.331-0.556-4.442,3.549
				C8.936,5.95,5.603,6.506,5.603,6.506S6.775,5.21,9.893,5.21H10.201z"/>
		</g>
	</g>
	<circle fill="#FAF6ED" cx="5.541" cy="10.765" r="0.741"/>
	<g>
		<path fill="#FAF6ED" d="M3.995,9.218c-0.414,0.414-0.641,0.962-0.641,1.548c0,0.584,0.227,1.133,0.641,1.545
			c0.412,0.414,0.961,0.642,1.546,0.642c1.206,0,2.187-0.979,2.187-2.187c0-1.208-0.98-2.188-2.187-2.188
			C4.956,8.577,4.407,8.805,3.995,9.218z M4.469,11.837c-0.287-0.287-0.444-0.667-0.444-1.071c0-0.406,0.157-0.788,0.444-1.073
			c0.286-0.286,0.667-0.445,1.072-0.445c0.837,0,1.517,0.68,1.517,1.518c0,0.836-0.68,1.517-1.517,1.517
			C5.136,12.28,4.755,12.123,4.469,11.837z"/>
	</g>
	<circle fill="#FAF6ED" cx="14.459" cy="10.765" r="0.74"/>
	<g>
		<path fill="#FAF6ED" d="M12.912,9.218c-0.412,0.414-0.641,0.962-0.641,1.548c0,0.584,0.229,1.133,0.641,1.545
			c0.414,0.414,0.963,0.642,1.547,0.642c1.206,0,2.188-0.979,2.188-2.187c0-1.208-0.98-2.188-2.188-2.188
			C13.875,8.577,13.326,8.805,12.912,9.218z M13.387,11.837c-0.285-0.287-0.443-0.667-0.443-1.071c0-0.406,0.158-0.788,0.443-1.073
			c0.287-0.286,0.668-0.445,1.072-0.445c0.836,0,1.516,0.68,1.516,1.518c0,0.836-0.68,1.517-1.516,1.517
			C14.055,12.28,13.674,12.123,13.387,11.837z"/>
	</g>
</g>
</svg>
