<?xml version="1.0" encoding="utf-8"?>
<!-- Generator: Adobe Illustrator 16.0.0, SVG Export Plug-In . SVG Version: 6.00 Build 0)  -->
<!DOCTYPE svg PUBLIC "-//W3C//DTD SVG 1.1//EN" "http://www.w3.org/Graphics/SVG/1.1/DTD/svg11.dtd">
<svg version="1.1" id="Calque_1" xmlns="http://www.w3.org/2000/svg" xmlns:xlink="http://www.w3.org/1999/xlink" x="0px" y="0px"
	 width="99.667px" height="90px" viewBox="0 -0.5 99.667 90" enable-background="new 0 -0.5 99.667 90" xml:space="preserve">
<g>
	<path fill="#6C6C6C" d="M93.5,78.683c-0.256,0-0.504,0.024-0.746,0.077L61.139,24.002c-0.221-0.382-0.629-0.585-1.04-0.563
		c-0.419-0.028-0.833,0.177-1.056,0.563l-9.165,15.872l-0.008-0.189L36.365,62.901h-7.566l25.449-43.948
		c0.254,0.056,0.518,0.176,0.785,0.176c2.018,0,3.66-1.595,3.66-3.612c0-2.017-1.645-3.637-3.66-3.637
		c-2.017,0-3.656,1.651-3.656,3.669c0,0.93,0.35,1.605,0.922,2.252l-26.11,45.1h-7.697l30.6-52.823
		c0.248,0.055,0.504,0.171,0.771,0.171c2.018,0,3.657-1.595,3.657-3.61c0-2.02-1.642-3.636-3.657-3.636
		c-2.019,0-3.657,1.649-3.657,3.668c0,0.935,0.353,1.795,0.933,2.443l-31.6,54.733c-0.312,0.54-0.127,1.232,0.414,1.549
		c0.178,0.103,0.373,0.149,0.563,0.149c0.047,0,0.092,0.178,0.136,0.173c0.028,0.001,0.061,0.183,0.092,0.183h9.988
		c0.032,0,0.063,0.005,0.097,0.005S26.89,65.9,26.921,65.9h8.127h1.873c0.031,0,0.062,0.005,0.096,0.005
		c0.034,0,0.066-0.005,0.099-0.005h24.956l3.691,6.215l-50.994-0.064c-0.479-1.459-1.854-2.561-3.473-2.561
		c-2.018,0-3.66,1.619-3.66,3.637c0,2.019,1.644,3.646,3.66,3.646c1.627,0,3.01-1.075,3.48-2.549l52.295-0.504l3.849,6.182H9.65
		c-0.474-1-1.855-2.057-3.482-2.057c-2.016,0-3.656,1.883-3.656,3.896c0,2.016,1.642,3.654,3.656,3.654
		c1.61,0,2.979-1.496,3.467-2.496H72.91c0.633,0,1.143-0.389,1.143-1.018c0-0.312-0.123-0.348-0.318-0.551l-9.051-15.434h0.016
		l-0.838-1.631c-0.053-0.186-0.146-0.442-0.281-0.577l-12.396-21.51l3.791-6.586l25.562,44.304
		c-0.588,0.646-0.946,1.504-0.946,2.443c0,2.021,1.642,3.656,3.657,3.656c2.018,0,3.656-1.644,3.656-3.658
		c0-2.018-1.64-3.656-3.656-3.656c-0.256,0-0.51,0.023-0.752,0.076L56.283,33.311l3.809-6.599l30.699,53.171
		c-0.59,0.648-0.951,1.513-0.951,2.457c0,2.017,1.643,3.658,3.66,3.658c2.016,0,3.656-1.644,3.656-3.658
		C97.156,80.323,95.514,78.683,93.5,78.683z M53.406,15.562c0-0.899,0.729-1.628,1.627-1.628s1.629,0.729,1.629,1.628
		c0,0.775-0.543,1.425-1.271,1.588c-0.113,0.025-0.232,0.04-0.357,0.04c-0.756,0-1.393-0.517-1.573-1.216
		C53.423,15.842,53.406,15.703,53.406,15.562z M48.232,6.683c0-0.899,0.727-1.629,1.627-1.629c0.896,0,1.627,0.729,1.627,1.629
		c0,0.768-0.531,1.408-1.246,1.582c-0.123,0.028-0.25,0.044-0.381,0.044c-0.749,0-1.379-0.504-1.571-1.191
		C48.251,6.979,48.232,6.832,48.232,6.683z M11.294,74.733c-0.9,0-1.629-0.729-1.629-1.629c0-0.9,0.729-1.627,1.629-1.627
		c0.453,0,0.864,0.187,1.16,0.485c0.288,0.293,0.467,0.695,0.467,1.142c0,0.432-0.17,0.823-0.443,1.112
		C12.18,74.534,11.759,74.733,11.294,74.733z M39.001,62.901l10.871-18.83l10.871,18.83H39.001z M6.167,83.61
		c-0.898,0-1.627-0.728-1.627-1.627c0-0.897,0.729-1.628,1.627-1.628c0.467,0,0.887,0.197,1.185,0.511
		c0.274,0.292,0.444,0.687,0.444,1.117c0,0.457-0.188,0.87-0.492,1.167C7.01,83.437,6.61,83.61,6.167,83.61z M83.248,80.711
		c0.141,0,0.273,0.021,0.402,0.051c0.705,0.181,1.227,0.817,1.227,1.578c0,0.898-0.73,1.627-1.629,1.627
		c-0.899,0-1.627-0.729-1.627-1.627c0-0.16,0.021-0.312,0.062-0.459C81.884,81.205,82.507,80.711,83.248,80.711z M93.5,83.967
		c-0.9,0-1.631-0.729-1.631-1.627c0-0.164,0.023-0.319,0.07-0.47c0.199-0.671,0.82-1.159,1.561-1.159
		c0.141,0,0.281,0.021,0.412,0.055c0.699,0.182,1.215,0.818,1.215,1.574C95.126,83.238,94.396,83.967,93.5,83.967z"/>
</g>
</svg>
