<?xml version="1.0" encoding="utf-8"?>
<!-- Generator: Adobe Illustrator 16.0.0, SVG Export Plug-In . SVG Version: 6.00 Build 0)  -->
<!DOCTYPE svg PUBLIC "-//W3C//DTD SVG 1.1//EN" "http://www.w3.org/Graphics/SVG/1.1/DTD/svg11.dtd">
<svg version="1.1" id="Calque_1" xmlns="http://www.w3.org/2000/svg" xmlns:xlink="http://www.w3.org/1999/xlink" x="0px" y="0px"
	 width="99.667px" height="135px" viewBox="0 0 99.667 135" enable-background="new 0 0 99.667 135" xml:space="preserve">
<g>
	<path fill="#2EABE2" d="M94.052,78.448c-0.256,0-0.504,0.024-0.746,0.077L61.692,23.767c-0.221-0.381-0.629-0.585-1.04-0.563
		c-0.419-0.028-0.833,0.177-1.056,0.563l-9.165,15.872l-0.008-0.189L36.917,62.667h-7.566L54.8,18.719
		c0.254,0.055,0.518,0.175,0.785,0.175c2.018,0,3.66-1.594,3.66-3.612c0-2.017-1.644-3.637-3.66-3.637s-3.656,1.652-3.656,3.669
		c0,0.93,0.35,1.606,0.922,2.252l-26.111,45.1h-7.697l30.6-52.823c0.248,0.054,0.504,0.17,0.771,0.17
		c2.017,0,3.657-1.594,3.657-3.61c0-2.019-1.642-3.636-3.657-3.636c-2.019,0-3.658,1.65-3.658,3.668
		c0,0.935,0.353,1.795,0.933,2.444l-31.6,54.733c-0.312,0.54-0.127,1.233,0.414,1.549c0.178,0.102,0.373,0.149,0.564,0.149
		c0.047,0,0.091,0.178,0.135,0.173c0.029,0.001,0.061,0.183,0.092,0.183h9.988c0.033,0,0.064,0.005,0.097,0.005
		c0.033,0,0.064-0.005,0.095-0.005h8.127h1.873c0.031,0,0.062,0.005,0.096,0.005c0.034,0,0.066-0.005,0.098-0.005h24.957
		l3.691,6.215l-50.994-0.064c-0.48-1.459-1.855-2.561-3.473-2.561c-2.018,0-3.66,1.619-3.66,3.637s1.643,3.646,3.66,3.646
		c1.627,0,3.01-1.075,3.48-2.549l52.295-0.503l3.849,6.181H10.202c-0.473-1-1.855-2.056-3.482-2.056
		c-2.016,0-3.656,1.882-3.656,3.896c0,2.016,1.641,3.654,3.656,3.654c1.61,0,2.979-1.496,3.467-2.496h63.275
		c0.633,0,1.143-0.389,1.143-1.018c0-0.311-0.123-0.347-0.318-0.551l-9.051-15.433h0.016l-0.838-1.631
		c-0.053-0.186-0.147-0.442-0.281-0.577l-12.396-21.51l3.791-6.586l25.562,44.304c-0.588,0.647-0.947,1.504-0.947,2.444
		c0,2.02,1.641,3.656,3.658,3.656c2.017,0,3.656-1.644,3.656-3.658c0-2.018-1.64-3.657-3.656-3.657c-0.256,0-0.51,0.024-0.752,0.077
		L56.835,33.076l3.809-6.599l30.699,53.171c-0.59,0.649-0.951,1.513-0.951,2.457c0,2.017,1.643,3.658,3.66,3.658
		c2.016,0,3.656-1.643,3.656-3.658C97.708,80.089,96.067,78.448,94.052,78.448z M53.958,15.327c0-0.899,0.729-1.628,1.627-1.628
		c0.899,0,1.629,0.729,1.629,1.628c0,0.775-0.543,1.425-1.271,1.588c-0.114,0.025-0.233,0.04-0.358,0.04
		c-0.756,0-1.392-0.517-1.573-1.216C53.976,15.607,53.958,15.469,53.958,15.327z M48.784,6.448c0-0.899,0.727-1.629,1.627-1.629
		c0.897,0,1.627,0.729,1.627,1.629c0,0.768-0.531,1.408-1.246,1.582c-0.123,0.028-0.25,0.044-0.381,0.044
		c-0.749,0-1.379-0.504-1.571-1.191C48.804,6.745,48.784,6.597,48.784,6.448z M11.847,74.499c-0.9,0-1.629-0.729-1.629-1.629
		c0-0.9,0.729-1.627,1.629-1.627c0.453,0,0.864,0.187,1.16,0.485c0.288,0.293,0.467,0.696,0.467,1.142
		c0,0.432-0.17,0.823-0.443,1.112C12.733,74.3,12.312,74.499,11.847,74.499z M39.554,62.667l10.871-18.83l10.871,18.83H39.554z
		 M6.72,83.376c-0.898,0-1.627-0.728-1.627-1.627c0-0.897,0.729-1.628,1.627-1.628c0.467,0,0.887,0.197,1.185,0.511
		c0.274,0.292,0.444,0.687,0.444,1.117c0,0.457-0.189,0.87-0.492,1.167C7.563,83.202,7.162,83.376,6.72,83.376z M83.8,80.477
		c0.141,0,0.273,0.02,0.402,0.051c0.705,0.18,1.227,0.817,1.227,1.578c0,0.898-0.73,1.627-1.629,1.627
		c-0.899,0-1.627-0.729-1.627-1.627c0-0.16,0.021-0.312,0.063-0.459C82.437,80.971,83.06,80.477,83.8,80.477z M94.052,83.732
		c-0.9,0-1.631-0.729-1.631-1.627c0-0.164,0.024-0.319,0.07-0.469c0.2-0.671,0.821-1.16,1.561-1.16c0.141,0,0.281,0.021,0.412,0.055
		c0.699,0.182,1.215,0.818,1.215,1.574C95.679,83.004,94.949,83.732,94.052,83.732z"/>
	<g>
		<path fill="#2EABE2" d="M24.893,92.543c0,0.501-0.174,0.941-0.526,1.324c-0.151,0.166-0.33,0.307-0.531,0.425h-2.4v3.669H20.97
			v-7.152h2.865c0.201,0.113,0.38,0.254,0.531,0.42C24.719,91.609,24.893,92.049,24.893,92.543z M23.69,93.868
			c0.488-0.33,0.732-0.771,0.732-1.324c0-0.548-0.244-0.985-0.732-1.315h-2.256v2.641L23.69,93.868L23.69,93.868z"/>
		<path fill="#2EABE2" d="M30.274,94.28c0.297,0.323,0.469,0.692,0.516,1.108h0.018v2.572h-0.471v-2.357
			c0-0.547-0.242-0.985-0.727-1.315h-2.233v3.674h-0.466v-7.151h2.865c0.199,0.115,0.375,0.256,0.525,0.418
			c0.355,0.383,0.533,0.824,0.533,1.322c0,0.496-0.178,0.936-0.533,1.317c-0.068,0.077-0.146,0.151-0.232,0.219
			C30.144,94.15,30.212,94.214,30.274,94.28z M27.377,91.229v2.635h2.267c0.483-0.331,0.725-0.77,0.725-1.312
			c0-0.552-0.246-0.992-0.736-1.322H27.377L27.377,91.229z"/>
		<path fill="#2EABE2" d="M36.468,91.232c0.18,0.135,0.334,0.287,0.458,0.465v5.377c-0.124,0.177-0.278,0.333-0.458,0.47
			c-0.422,0.312-0.906,0.468-1.452,0.468c-0.548,0-1.032-0.156-1.452-0.468c-0.182-0.137-0.334-0.293-0.461-0.47v-5.377
			c0.127-0.178,0.279-0.33,0.461-0.465c0.42-0.313,0.904-0.473,1.452-0.473C35.562,90.76,36.046,90.918,36.468,91.232z
			 M36.468,91.828c-0.363-0.438-0.846-0.653-1.452-0.653s-1.09,0.218-1.452,0.653v5.115c0.362,0.438,0.846,0.652,1.452,0.652
			c0.602,0,1.087-0.216,1.452-0.652V91.828z"/>
		<path fill="#2EABE2" d="M43.052,97.064l-0.022,0.028c-0.122,0.169-0.27,0.319-0.444,0.45c-0.416,0.312-0.898,0.468-1.445,0.468
			h-0.004c-0.544,0-1.026-0.155-1.448-0.468c-0.18-0.137-0.335-0.293-0.46-0.47v-5.378c0.125-0.176,0.28-0.329,0.46-0.463
			c0.422-0.314,0.905-0.474,1.452-0.474s1.029,0.158,1.452,0.474c0.181,0.134,0.334,0.287,0.46,0.463l-0.46,0.132
			c-0.366-0.437-0.851-0.653-1.452-0.653c-0.606,0-1.088,0.217-1.452,0.653v5.114c0.364,0.435,0.846,0.651,1.452,0.653
			c0.602-0.002,1.086-0.22,1.445-0.653l0.007-0.01v-2.019c-0.362-0.435-0.847-0.654-1.452-0.654v-0.42h0.006
			c0.543,0.005,1.023,0.163,1.446,0.476c0.181,0.133,0.334,0.289,0.46,0.469v2.281H43.052z"/>
		<path fill="#2EABE2" d="M48.489,94.28c0.295,0.323,0.467,0.692,0.514,1.108h0.016v2.572H48.55v-2.357
			c0-0.547-0.242-0.985-0.727-1.315h-2.232v3.674h-0.465v-7.151h2.863c0.199,0.115,0.375,0.256,0.526,0.418
			c0.354,0.383,0.532,0.824,0.532,1.322c0,0.496-0.178,0.936-0.532,1.317c-0.071,0.077-0.147,0.151-0.231,0.219
			C48.357,94.15,48.425,94.214,48.489,94.28z M45.591,91.229v2.635h2.267c0.481-0.331,0.726-0.77,0.726-1.312
			c0-0.552-0.246-0.992-0.738-1.322H45.591L45.591,91.229z"/>
		<path fill="#2EABE2" d="M54.712,91.232c0.182,0.137,0.336,0.293,0.465,0.47v6.26h-0.465v-3.655h-2.914v3.655h-0.467v-6.26
			c0.131-0.177,0.285-0.333,0.467-0.47c0.42-0.313,0.906-0.473,1.455-0.473C53.804,90.76,54.292,90.918,54.712,91.232z
			 M54.712,93.893v-2.056c-0.367-0.438-0.853-0.657-1.459-0.657c-0.609,0-1.094,0.219-1.455,0.657v2.056H54.712z"/>
		<path fill="#2EABE2" d="M64.095,91.232c0.182,0.137,0.336,0.293,0.461,0.47v6.26h-0.461v-6.124
			c-0.365-0.438-0.854-0.658-1.463-0.658c-0.605,0-1.088,0.217-1.451,0.653v6.129h-0.467v-6.129
			c-0.363-0.437-0.851-0.653-1.457-0.653c-0.609,0-1.094,0.221-1.457,0.658v6.124h-0.465v-6.26c0.129-0.177,0.285-0.333,0.465-0.47
			c0.422-0.313,0.908-0.473,1.457-0.473c0.551,0,1.037,0.158,1.457,0.473c0.084,0.062,0.16,0.127,0.234,0.199
			c0.069-0.072,0.146-0.139,0.227-0.199c0.424-0.313,0.912-0.473,1.457-0.473C63.183,90.76,63.671,90.918,64.095,91.232z"/>
		<path fill="#2EABE2" d="M73.513,91.232c0.18,0.137,0.334,0.293,0.459,0.47v6.26h-0.459v-6.124
			C73.146,91.4,72.66,91.18,72.05,91.18c-0.605,0-1.09,0.217-1.453,0.653v6.129h-0.465v-6.129c-0.365-0.437-0.853-0.653-1.457-0.653
			c-0.61,0-1.096,0.221-1.457,0.658v6.124h-0.465v-6.26c0.127-0.177,0.283-0.333,0.465-0.47c0.421-0.313,0.906-0.473,1.457-0.473
			c0.55,0,1.035,0.158,1.457,0.473c0.08,0.062,0.16,0.127,0.231,0.199c0.07-0.072,0.146-0.139,0.229-0.199
			c0.424-0.313,0.91-0.473,1.457-0.473C72.601,90.76,73.087,90.918,73.513,91.232z"/>
		<path fill="#2EABE2" d="M80.083,97.543v0.418h-3.541H76.22v-6.2c0.129-0.179,0.285-0.336,0.465-0.472
			c0.426-0.319,0.914-0.48,1.465-0.48h1.827v0.42h-1.823c-0.611,0-1.104,0.222-1.469,0.662v1.978h2.434v0.42h-2.434v3.256
			L80.083,97.543L80.083,97.543z"/>
	</g>
	<g>
		<g>
			<path fill="#2EABE2" d="M16.126,93.667H3.488c-0.249,0-0.45,0-0.45,0s0.201,0,0.45,0H16.126c0.25,0,0.449,0,0.449,0
				S16.376,93.667,16.126,93.667z"/>
		</g>
		<g>
			<path fill="#2EABE2" d="M97.065,93.667H84.429c-0.25,0-0.451,0-0.451,0s0.201,0,0.451,0H97.065c0.25,0,0.451,0,0.451,0
				S97.315,93.667,97.065,93.667z"/>
		</g>
	</g>
	<g>
		<polygon fill="#2EABE2" points="3.97,108.812 9.968,108.812 9.968,132.55 13.147,132.55 13.147,108.812 19.067,108.812 
			19.067,105.796 3.97,105.796 		"/>
		<path fill="#2EABE2" d="M28.313,119.591h8.578v-3.016h-8.578v-5.908c1.123-1.247,2.566-1.854,4.408-1.854h7.197v-3.017h-7.217
			c-2.102,0-3.992,0.619-5.621,1.845c-0.698,0.523-1.303,1.143-1.803,1.834l-0.145,0.201v22.874h15.155v-3.016H28.313V119.591z"/>
		<path fill="#2EABE2" d="M60.707,107.447c-1.615-1.213-3.498-1.826-5.603-1.826c-2.103,0-3.985,0.613-5.602,1.826
			c-0.695,0.522-1.299,1.132-1.797,1.811l-0.15,0.204v23.089h3.18v-12.888h8.739v12.888h3.179v-23.089l-0.147-0.205
			C62.005,108.579,61.401,107.97,60.707,107.447z M55.104,108.639c1.817,0,3.248,0.601,4.37,1.838v6.188h-8.739v-6.191
			C51.845,109.239,53.278,108.639,55.104,108.639z"/>
		<path fill="#2EABE2" d="M97.283,109.266c-0.486-0.683-1.089-1.295-1.789-1.822c-1.627-1.209-3.517-1.822-5.617-1.822
			c-2.088,0-3.972,0.613-5.594,1.82c-0.121,0.088-0.238,0.182-0.355,0.277c-0.113-0.095-0.23-0.188-0.35-0.271
			c-1.613-1.213-3.498-1.826-5.601-1.826s-3.985,0.613-5.603,1.826c-0.694,0.522-1.299,1.132-1.797,1.811l-0.147,0.204v23.089h3.178
			v-22.076c1.11-1.234,2.541-1.836,4.369-1.836c1.815,0,3.248,0.598,4.369,1.821v22.091h3.18v-22.092
			c1.109-1.227,2.535-1.82,4.351-1.82c1.828,0,3.268,0.602,4.389,1.838v22.074h3.16v-23.084L97.283,109.266z"/>
	</g>
</g>
</svg>
