<?xml version="1.0" encoding="utf-8"?>
<!-- Generator: Adobe Illustrator 16.0.0, SVG Export Plug-In . SVG Version: 6.00 Build 0)  -->
<!DOCTYPE svg PUBLIC "-//W3C//DTD SVG 1.1//EN" "http://www.w3.org/Graphics/SVG/1.1/DTD/svg11.dtd">
<svg version="1.1" id="Calque_1" xmlns="http://www.w3.org/2000/svg" xmlns:xlink="http://www.w3.org/1999/xlink" x="0px" y="0px"
	 width="99.667px" height="135px" viewBox="0 0 99.667 135" enable-background="new 0 0 99.667 135" xml:space="preserve">
<g>
	<path fill="#2EABE2" d="M94.052,78.448c-0.256,0-0.504,0.025-0.746,0.077L61.692,23.767c-0.221-0.381-0.629-0.585-1.04-0.563
		c-0.419-0.028-0.833,0.177-1.056,0.563l-9.165,15.872l-0.007-0.189L36.917,62.667h-7.566L54.8,18.719
		c0.254,0.055,0.518,0.175,0.785,0.175c2.018,0,3.66-1.594,3.66-3.612c0-2.017-1.643-3.637-3.66-3.637
		c-2.016,0-3.656,1.652-3.656,3.669c0,0.93,0.35,1.606,0.922,2.252l-26.111,45.1h-7.697l30.6-52.823
		c0.248,0.054,0.504,0.17,0.77,0.17c2.017,0,3.658-1.594,3.658-3.61c0-2.019-1.642-3.636-3.658-3.636
		c-2.018,0-3.657,1.65-3.657,3.668c0,0.935,0.353,1.795,0.933,2.444l-31.6,54.733c-0.312,0.54-0.127,1.233,0.414,1.549
		c0.178,0.102,0.373,0.149,0.564,0.149c0.047,0,0.091,0.178,0.135,0.173c0.029,0.001,0.061,0.183,0.092,0.183h9.988
		c0.033,0,0.064,0.005,0.097,0.005s0.064-0.005,0.095-0.005h8.127h1.873c0.031,0,0.062,0.005,0.096,0.005s0.066-0.005,0.098-0.005
		h24.957l3.691,6.215l-50.994-0.064c-0.48-1.459-1.855-2.561-3.473-2.561c-2.018,0-3.66,1.619-3.66,3.637
		c0,2.017,1.643,3.645,3.66,3.645c1.627,0,3.01-1.075,3.48-2.549l52.295-0.502l3.849,6.18H10.202c-0.473-1-1.855-2.056-3.482-2.056
		c-2.016,0-3.656,1.882-3.656,3.897s1.641,3.654,3.656,3.654c1.61,0,2.979-1.496,3.467-2.496h63.276
		c0.632,0,1.142-0.388,1.142-1.017c0-0.311-0.123-0.347-0.318-0.552l-9.051-15.432h0.016l-0.838-1.631
		c-0.053-0.186-0.148-0.442-0.281-0.577L51.737,41.947l3.791-6.586l25.561,44.304c-0.588,0.648-0.947,1.504-0.947,2.445
		c0,2.019,1.641,3.656,3.658,3.656s3.657-1.644,3.657-3.659c0-2.017-1.64-3.657-3.657-3.657c-0.256,0-0.51,0.025-0.752,0.077
		L56.835,33.076l3.809-6.599l30.699,53.172c-0.589,0.649-0.951,1.512-0.951,2.456c0,2.017,1.642,3.658,3.66,3.658
		c2.016,0,3.656-1.642,3.656-3.658C97.708,80.089,96.067,78.448,94.052,78.448z M53.958,15.327c0-0.899,0.73-1.628,1.627-1.628
		c0.9,0,1.629,0.729,1.629,1.628c0,0.775-0.543,1.425-1.27,1.588c-0.114,0.025-0.234,0.04-0.359,0.04
		c-0.755,0-1.391-0.517-1.573-1.216C53.976,15.607,53.958,15.469,53.958,15.327z M48.784,6.448c0-0.899,0.727-1.629,1.627-1.629
		c0.898,0,1.627,0.729,1.627,1.629c0,0.768-0.53,1.408-1.246,1.582c-0.123,0.028-0.25,0.044-0.381,0.044
		c-0.748,0-1.379-0.504-1.57-1.191C48.804,6.745,48.784,6.597,48.784,6.448z M11.847,74.499c-0.9,0-1.629-0.729-1.629-1.629
		s0.729-1.627,1.629-1.627c0.453,0,0.864,0.186,1.16,0.486c0.288,0.293,0.467,0.696,0.467,1.141c0,0.432-0.17,0.824-0.443,1.113
		C12.733,74.3,12.312,74.499,11.847,74.499z M39.554,62.667l10.871-18.83l10.871,18.83H39.554z M6.72,83.376
		c-0.898,0-1.627-0.728-1.627-1.627c0-0.898,0.729-1.628,1.627-1.628c0.467,0,0.887,0.197,1.185,0.511
		c0.274,0.292,0.444,0.686,0.444,1.117c0,0.457-0.189,0.87-0.492,1.167C7.563,83.202,7.162,83.376,6.72,83.376z M83.8,80.477
		c0.141,0,0.273,0.019,0.402,0.051c0.705,0.179,1.227,0.817,1.227,1.577c0,0.899-0.73,1.628-1.629,1.628s-1.627-0.729-1.627-1.628
		c0-0.159,0.021-0.312,0.064-0.458C82.437,80.971,83.06,80.477,83.8,80.477z M94.052,83.733c-0.9,0-1.63-0.729-1.63-1.628
		c0-0.163,0.024-0.319,0.069-0.468c0.201-0.671,0.822-1.16,1.561-1.16c0.141,0,0.281,0.02,0.412,0.054
		c0.699,0.182,1.215,0.818,1.215,1.574C95.679,83.004,94.949,83.733,94.052,83.733z"/>
	<path fill="#2EABE2" d="M94.052,78.448c-0.256,0-0.504,0.025-0.746,0.077L61.692,23.767c-0.221-0.381-0.629-0.585-1.04-0.563
		c-0.419-0.028-0.833,0.177-1.056,0.563l-9.165,15.872l-0.007-0.189L36.917,62.667h-7.566L54.8,18.719
		c0.254,0.055,0.518,0.175,0.785,0.175c2.018,0,3.66-1.594,3.66-3.612c0-2.017-1.643-3.637-3.66-3.637
		c-2.016,0-3.656,1.652-3.656,3.669c0,0.93,0.35,1.606,0.922,2.252l-26.111,45.1h-7.697l30.6-52.823
		c0.248,0.054,0.504,0.17,0.77,0.17c2.017,0,3.658-1.594,3.658-3.61c0-2.019-1.642-3.636-3.658-3.636
		c-2.018,0-3.657,1.65-3.657,3.668c0,0.935,0.353,1.795,0.933,2.444l-31.6,54.733c-0.312,0.54-0.127,1.233,0.414,1.549
		c0.178,0.102,0.373,0.149,0.564,0.149c0.047,0,0.091,0.178,0.135,0.173c0.029,0.001,0.061,0.183,0.092,0.183h9.988
		c0.033,0,0.064,0.005,0.097,0.005s0.064-0.005,0.095-0.005h8.127h1.873c0.031,0,0.062,0.005,0.096,0.005s0.066-0.005,0.098-0.005
		h24.957l3.691,6.215l-50.994-0.064c-0.48-1.459-1.855-2.561-3.473-2.561c-2.018,0-3.66,1.619-3.66,3.637
		c0,2.017,1.643,3.645,3.66,3.645c1.627,0,3.01-1.075,3.48-2.549l52.295-0.502l3.849,6.18H10.202c-0.473-1-1.855-2.056-3.482-2.056
		c-2.016,0-3.656,1.882-3.656,3.897s1.641,3.654,3.656,3.654c1.61,0,2.979-1.496,3.467-2.496h63.276
		c0.632,0,1.142-0.388,1.142-1.017c0-0.311-0.123-0.347-0.318-0.552l-9.051-15.432h0.016l-0.838-1.631
		c-0.053-0.186-0.148-0.442-0.281-0.577L51.737,41.947l3.791-6.586l25.561,44.304c-0.588,0.648-0.947,1.504-0.947,2.445
		c0,2.019,1.641,3.656,3.658,3.656s3.657-1.644,3.657-3.659c0-2.017-1.64-3.657-3.657-3.657c-0.256,0-0.51,0.025-0.752,0.077
		L56.835,33.076l3.809-6.599l30.699,53.172c-0.589,0.649-0.951,1.512-0.951,2.456c0,2.017,1.642,3.658,3.66,3.658
		c2.016,0,3.656-1.642,3.656-3.658C97.708,80.089,96.067,78.448,94.052,78.448z M53.958,15.327c0-0.899,0.73-1.628,1.627-1.628
		c0.9,0,1.629,0.729,1.629,1.628c0,0.775-0.543,1.425-1.27,1.588c-0.114,0.025-0.234,0.04-0.359,0.04
		c-0.755,0-1.391-0.517-1.573-1.216C53.976,15.607,53.958,15.469,53.958,15.327z M48.784,6.448c0-0.899,0.727-1.629,1.627-1.629
		c0.898,0,1.627,0.729,1.627,1.629c0,0.768-0.53,1.408-1.246,1.582c-0.123,0.028-0.25,0.044-0.381,0.044
		c-0.748,0-1.379-0.504-1.57-1.191C48.804,6.745,48.784,6.597,48.784,6.448z M11.847,74.499c-0.9,0-1.629-0.729-1.629-1.629
		s0.729-1.627,1.629-1.627c0.453,0,0.864,0.186,1.16,0.486c0.288,0.293,0.467,0.696,0.467,1.141c0,0.432-0.17,0.824-0.443,1.113
		C12.733,74.3,12.312,74.499,11.847,74.499z M39.554,62.667l10.871-18.83l10.871,18.83H39.554z M6.72,83.376
		c-0.898,0-1.627-0.728-1.627-1.627c0-0.898,0.729-1.628,1.627-1.628c0.467,0,0.887,0.197,1.185,0.511
		c0.274,0.292,0.444,0.686,0.444,1.117c0,0.457-0.189,0.87-0.492,1.167C7.563,83.202,7.162,83.376,6.72,83.376z M83.8,80.477
		c0.141,0,0.273,0.019,0.402,0.051c0.705,0.179,1.227,0.817,1.227,1.577c0,0.899-0.73,1.628-1.629,1.628s-1.627-0.729-1.627-1.628
		c0-0.159,0.021-0.312,0.064-0.458C82.437,80.971,83.06,80.477,83.8,80.477z M94.052,83.733c-0.9,0-1.63-0.729-1.63-1.628
		c0-0.163,0.024-0.319,0.069-0.468c0.201-0.671,0.822-1.16,1.561-1.16c0.141,0,0.281,0.02,0.412,0.054
		c0.699,0.182,1.215,0.818,1.215,1.574C95.679,83.004,94.949,83.733,94.052,83.733z"/>
	<g>
		<path fill="#2EABE2" d="M24.893,92.543c0,0.501-0.174,0.941-0.526,1.324c-0.151,0.166-0.33,0.307-0.531,0.425h-2.4v3.669H20.97
			v-7.152h2.865c0.201,0.113,0.38,0.253,0.531,0.419C24.719,91.61,24.893,92.049,24.893,92.543z M23.69,93.868
			c0.488-0.33,0.732-0.771,0.732-1.324c0-0.548-0.244-0.986-0.732-1.315h-2.256v2.64H23.69z"/>
		<path fill="#2EABE2" d="M30.274,94.28c0.297,0.323,0.469,0.692,0.516,1.109h0.018v2.572h-0.471v-2.358
			c0-0.546-0.242-0.985-0.727-1.315h-2.233v3.674h-0.466v-7.152h2.865c0.199,0.116,0.375,0.257,0.525,0.419
			c0.355,0.382,0.533,0.824,0.533,1.322c0,0.496-0.178,0.935-0.533,1.317c-0.068,0.077-0.146,0.152-0.232,0.219
			C30.144,94.15,30.212,94.214,30.274,94.28z M27.377,91.228v2.635h2.267c0.483-0.331,0.725-0.769,0.725-1.312
			c0-0.552-0.246-0.993-0.736-1.322H27.377z"/>
		<path fill="#2EABE2" d="M36.468,91.233c0.18,0.134,0.334,0.287,0.458,0.464v5.377c-0.124,0.177-0.278,0.333-0.458,0.47
			c-0.422,0.312-0.906,0.468-1.452,0.468c-0.548,0-1.032-0.156-1.452-0.468c-0.182-0.137-0.334-0.293-0.461-0.47v-5.377
			c0.127-0.177,0.279-0.33,0.461-0.464c0.42-0.314,0.904-0.473,1.452-0.473C35.562,90.76,36.046,90.918,36.468,91.233z
			 M36.468,91.828c-0.363-0.437-0.846-0.653-1.452-0.653s-1.09,0.217-1.452,0.653v5.115c0.362,0.438,0.846,0.653,1.452,0.653
			c0.602,0,1.087-0.216,1.452-0.653V91.828z"/>
		<path fill="#2EABE2" d="M43.052,97.064l-0.022,0.029c-0.122,0.169-0.27,0.319-0.444,0.45c-0.416,0.312-0.898,0.468-1.445,0.468
			h-0.004c-0.544,0-1.026-0.156-1.448-0.468c-0.18-0.137-0.335-0.293-0.46-0.47v-5.377c0.125-0.177,0.28-0.33,0.46-0.464
			c0.422-0.314,0.905-0.473,1.452-0.473s1.029,0.158,1.452,0.473c0.181,0.134,0.334,0.287,0.46,0.464l-0.46,0.131
			c-0.366-0.437-0.851-0.653-1.452-0.653c-0.606,0-1.088,0.217-1.452,0.653v5.115c0.364,0.434,0.846,0.651,1.452,0.653
			c0.602-0.002,1.086-0.22,1.445-0.653l0.007-0.01v-2.019c-0.362-0.435-0.847-0.654-1.452-0.654v-0.42h0.006
			c0.543,0.005,1.023,0.163,1.446,0.476c0.181,0.132,0.334,0.288,0.46,0.468V97.064z"/>
		<path fill="#2EABE2" d="M48.489,94.28c0.295,0.323,0.467,0.692,0.514,1.109h0.016v2.572H48.55v-2.358
			c0-0.546-0.242-0.985-0.727-1.315h-2.232v3.674h-0.465v-7.152h2.863c0.199,0.116,0.375,0.257,0.526,0.419
			c0.354,0.382,0.532,0.824,0.532,1.322c0,0.496-0.178,0.935-0.532,1.317c-0.071,0.077-0.147,0.152-0.231,0.219
			C48.357,94.15,48.425,94.214,48.489,94.28z M45.591,91.228v2.635h2.267c0.481-0.331,0.726-0.769,0.726-1.312
			c0-0.552-0.246-0.993-0.738-1.322H45.591z"/>
		<path fill="#2EABE2" d="M54.712,91.233c0.182,0.136,0.336,0.292,0.465,0.469v6.26h-0.465v-3.655h-2.914v3.655h-0.467v-6.26
			c0.131-0.177,0.285-0.333,0.467-0.469c0.42-0.314,0.906-0.473,1.456-0.473S54.292,90.918,54.712,91.233z M54.712,93.892v-2.055
			c-0.367-0.438-0.852-0.658-1.458-0.658c-0.61,0-1.095,0.22-1.456,0.658v2.055H54.712z"/>
		<path fill="#2EABE2" d="M64.095,91.233c0.182,0.136,0.336,0.292,0.461,0.469v6.26h-0.461v-6.124
			c-0.365-0.438-0.853-0.658-1.463-0.658c-0.605,0-1.088,0.217-1.451,0.653v6.129h-0.467v-6.129
			c-0.363-0.437-0.85-0.653-1.457-0.653c-0.609,0-1.094,0.22-1.457,0.658v6.124h-0.465v-6.26c0.129-0.177,0.285-0.333,0.465-0.469
			c0.422-0.314,0.908-0.473,1.457-0.473c0.551,0,1.037,0.158,1.457,0.473c0.084,0.061,0.16,0.126,0.234,0.199
			c0.07-0.073,0.146-0.139,0.227-0.199c0.424-0.314,0.912-0.473,1.457-0.473C63.183,90.76,63.671,90.918,64.095,91.233z"/>
		<path fill="#2EABE2" d="M73.513,91.233c0.18,0.136,0.334,0.292,0.459,0.469v6.26h-0.459v-6.124
			c-0.367-0.438-0.854-0.658-1.463-0.658c-0.605,0-1.09,0.217-1.453,0.653v6.129h-0.465v-6.129
			c-0.365-0.437-0.852-0.653-1.457-0.653c-0.61,0-1.096,0.22-1.457,0.658v6.124h-0.465v-6.26c0.127-0.177,0.283-0.333,0.465-0.469
			c0.421-0.314,0.906-0.473,1.457-0.473c0.55,0,1.036,0.158,1.457,0.473c0.08,0.061,0.16,0.126,0.232,0.199
			c0.07-0.073,0.146-0.139,0.229-0.199c0.424-0.314,0.91-0.473,1.457-0.473C72.601,90.76,73.087,90.918,73.513,91.233z"/>
		<path fill="#2EABE2" d="M80.083,97.543v0.418h-3.541H76.22v-6.2c0.129-0.179,0.285-0.336,0.465-0.472
			c0.426-0.319,0.914-0.48,1.465-0.48h1.827v0.419h-1.823c-0.611,0-1.103,0.222-1.469,0.663v1.977h2.434v0.42h-2.434v3.256H80.083z"
			/>
	</g>
	<g>
		<g>
			<path fill="#2EABE2" d="M16.126,93.667H3.488c-0.249,0-0.45,0-0.45,0s0.201,0,0.45,0H16.126c0.25,0,0.449,0,0.449,0
				S16.376,93.667,16.126,93.667z"/>
		</g>
		<g>
			<path fill="#2EABE2" d="M97.065,93.667H84.429c-0.25,0-0.451,0-0.451,0s0.201,0,0.451,0H97.065c0.25,0,0.451,0,0.451,0
				S97.315,93.667,97.065,93.667z"/>
		</g>
	</g>
	<g>
		<polygon fill="#2EABE2" points="3.97,108.812 9.968,108.812 9.968,132.55 13.147,132.55 13.147,108.812 19.067,108.812 
			19.067,105.796 3.97,105.796 		"/>
		<path fill="#2EABE2" d="M28.313,119.591h8.578v-3.016h-8.578v-5.908c1.123-1.247,2.566-1.855,4.408-1.855h7.197v-3.016h-7.217
			c-2.102,0-3.992,0.619-5.621,1.844c-0.698,0.524-1.303,1.143-1.803,1.835l-0.145,0.201v22.874h15.155v-3.016H28.313V119.591z"/>
		<path fill="#2EABE2" d="M60.706,107.447c-1.615-1.212-3.498-1.826-5.602-1.826c-2.102,0-3.986,0.614-5.602,1.826
			c-0.695,0.523-1.299,1.132-1.797,1.811l-0.15,0.204v23.089h3.18v-12.888h8.739v12.888h3.179v-23.089l-0.148-0.205
			C62.006,108.579,61.401,107.97,60.706,107.447z M55.104,108.638c1.817,0,3.248,0.601,4.37,1.838v6.188h-8.739v-6.191
			C51.845,109.239,53.278,108.638,55.104,108.638z"/>
		<path fill="#2EABE2" d="M97.282,109.266c-0.486-0.683-1.088-1.295-1.789-1.822c-1.627-1.209-3.516-1.823-5.616-1.823
			c-2.089,0-3.972,0.614-5.595,1.821c-0.121,0.087-0.238,0.181-0.355,0.277c-0.113-0.095-0.23-0.188-0.35-0.272
			c-1.613-1.212-3.498-1.826-5.6-1.826s-3.986,0.614-5.602,1.826c-0.695,0.523-1.299,1.132-1.797,1.811l-0.148,0.204v23.089h3.178
			v-22.077c1.11-1.234,2.541-1.835,4.369-1.835c1.816,0,3.248,0.597,4.369,1.821v22.091h3.18v-22.092
			c1.109-1.226,2.535-1.82,4.351-1.82c1.828,0,3.267,0.601,4.388,1.838v22.074h3.16v-23.084L97.282,109.266z"/>
	</g>
</g>
</svg>
