<?xml version="1.0" encoding="utf-8"?>
<!-- Generator: Adobe Illustrator 16.0.0, SVG Export Plug-In . SVG Version: 6.00 Build 0)  -->
<!DOCTYPE svg PUBLIC "-//W3C//DTD SVG 1.1//EN" "http://www.w3.org/Graphics/SVG/1.1/DTD/svg11.dtd">
<svg version="1.1" id="Layer_1" xmlns="http://www.w3.org/2000/svg" xmlns:xlink="http://www.w3.org/1999/xlink" x="0px" y="0px"
	 width="260px" height="100px" viewBox="-15.5 -5 260 100" enable-background="new -15.5 -5 260 100" xml:space="preserve">
<g>
	<path fill="#B22028" d="M55.915,81.863v0.899v1.78h-0.778c-0.181,0-0.291-0.092-0.33-0.273c-0.015-0.064-0.039-0.308-0.072-0.729
		c-0.032-0.424-0.051-0.662-0.056-0.722c-2.395-0.759-4.201-0.498-5.415,0.785c-0.782,0.825-1.171,1.929-1.171,3.313
		c0,1.392,0.385,2.503,1.155,3.337c0.728,0.798,1.672,1.196,2.832,1.196c0.669,0,1.175-0.064,1.517-0.192
		c0.525-0.193,0.998-0.476,1.419-0.852c0.092-0.081,0.18-0.119,0.266-0.119c0.085,0,0.164,0.035,0.233,0.104l0.608,0.666
		c-0.994,1.155-2.375,1.732-4.138,1.732c-1.648,0-2.974-0.546-3.979-1.638c-1.001-1.079-1.5-2.49-1.5-4.235
		c0-1.737,0.535-3.151,1.604-4.242c1.069-1.092,2.486-1.639,4.25-1.639C53.27,81.036,54.455,81.312,55.915,81.863z"/>
	<path fill="#B22028" d="M63.281,84.406c0.876,0,1.551,0.28,2.022,0.844c0.465,0.549,0.698,1.295,0.698,2.237v4.002
		c0.513,0.104,0.817,0.165,0.914,0.185c0.16,0.033,0.241,0.131,0.241,0.297v0.689h-2.583v-5.173c0-1.294-0.569-1.94-1.709-1.94
		c-0.791,0-1.523,0.376-2.197,1.13v4.812l0.201,0.04c0.417,0.082,0.654,0.129,0.713,0.145c0.162,0.033,0.241,0.131,0.241,0.297
		v0.689h-3.739v-0.689c0-0.166,0.08-0.264,0.242-0.297l0.915-0.185v-9.473c-0.621-0.102-0.979-0.164-1.076-0.185
		c-0.16-0.031-0.241-0.132-0.241-0.298v-0.689h2.745v4.781C61.431,84.814,62.303,84.406,63.281,84.406z"/>
	<path fill="#B22028" d="M74.197,84.703c0.478,0.199,0.885,0.479,1.218,0.844c0.335,0.363,0.592,0.804,0.77,1.317
		c0.18,0.518,0.27,1.095,0.27,1.729c0,0.644-0.089,1.22-0.27,1.731c-0.178,0.514-0.435,0.954-0.77,1.317
		c-0.333,0.363-0.741,0.644-1.218,0.84c-0.48,0.193-1.016,0.291-1.61,0.291c-0.593,0-1.129-0.098-1.608-0.291
		c-0.479-0.196-0.887-0.477-1.223-0.84c-0.338-0.363-0.596-0.804-0.778-1.317c-0.183-0.512-0.273-1.088-0.273-1.731
		c0-0.635,0.09-1.212,0.273-1.729c0.182-0.514,0.44-0.954,0.778-1.317c0.336-0.365,0.744-0.645,1.223-0.844
		c0.479-0.198,1.015-0.297,1.608-0.297C73.182,84.406,73.718,84.505,74.197,84.703z M74.385,90.853
		c0.396-0.538,0.594-1.287,0.594-2.251c0-0.967-0.197-1.72-0.594-2.263c-0.395-0.54-0.995-0.81-1.797-0.81
		c-0.405,0-0.759,0.07-1.058,0.208c-0.301,0.141-0.55,0.341-0.75,0.602c-0.201,0.264-0.351,0.587-0.451,0.967
		c-0.098,0.384-0.147,0.816-0.147,1.296c0,0.481,0.049,0.912,0.147,1.293c0.1,0.379,0.25,0.697,0.451,0.958
		c0.2,0.259,0.449,0.458,0.75,0.598c0.299,0.139,0.653,0.208,1.058,0.208C73.39,91.658,73.99,91.391,74.385,90.853z"/>
	<path fill="#B22028" d="M84.403,90.527v-4.82c-0.09-0.022-0.392-0.084-0.906-0.186c-0.165-0.032-0.248-0.13-0.248-0.298v-0.688
		h1.154h1.429v6.954c0.519,0.104,0.824,0.165,0.914,0.185c0.167,0.033,0.25,0.131,0.25,0.297v0.689h-2.014
		c-0.204,0-0.332-0.098-0.385-0.297l-0.112-0.874c-0.781,0.867-1.679,1.301-2.695,1.301c-0.867,0-1.544-0.281-2.032-0.843
		c-0.459-0.535-0.688-1.278-0.688-2.23v-4.01c-0.512-0.102-0.819-0.164-0.914-0.186c-0.161-0.032-0.241-0.13-0.241-0.298v-0.688
		h2.583v5.182c0,0.616,0.142,1.092,0.424,1.428c0.284,0.338,0.712,0.507,1.283,0.507C83.015,91.651,83.746,91.277,84.403,90.527z"/>
	<path fill="#B22028" d="M93.747,84.651c0.413,0.164,0.768,0.397,1.067,0.705c0.299,0.309,0.533,0.687,0.702,1.14
		c0.169,0.452,0.254,0.967,0.254,1.544c0,0.226-0.024,0.375-0.072,0.451c-0.049,0.073-0.141,0.11-0.274,0.11h-5.407
		c0.01,0.514,0.08,0.96,0.21,1.341c0.127,0.38,0.303,0.695,0.529,0.95c0.225,0.252,0.491,0.443,0.802,0.57
		c0.31,0.126,0.657,0.188,1.042,0.188c0.358,0,0.667-0.041,0.927-0.125c0.259-0.083,0.482-0.172,0.669-0.269
		c0.188-0.097,0.344-0.186,0.469-0.269c0.126-0.083,0.234-0.126,0.326-0.126c0.117,0,0.208,0.047,0.273,0.137l0.401,0.522
		c-0.176,0.214-0.388,0.399-0.634,0.558c-0.247,0.158-0.51,0.288-0.791,0.39c-0.281,0.101-0.572,0.177-0.872,0.228
		c-0.298,0.051-0.596,0.076-0.888,0.076c-0.562,0-1.079-0.096-1.554-0.285c-0.473-0.189-0.882-0.47-1.227-0.833
		c-0.345-0.365-0.615-0.82-0.808-1.361c-0.191-0.538-0.289-1.158-0.289-1.86c0-0.567,0.087-1.096,0.261-1.589
		c0.174-0.491,0.424-0.919,0.751-1.278c0.325-0.36,0.724-0.645,1.194-0.85c0.471-0.207,1-0.311,1.589-0.311
		C92.887,84.406,93.336,84.489,93.747,84.651z M90.803,86.055c-0.396,0.398-0.641,0.951-0.739,1.656h4.42
		c0-0.331-0.044-0.635-0.135-0.91c-0.093-0.275-0.224-0.513-0.402-0.714c-0.176-0.2-0.392-0.354-0.646-0.465
		s-0.542-0.165-0.87-0.164C91.741,85.458,91.199,85.656,90.803,86.055z"/>
	<path fill="#B22028" d="M99.179,92.254c-0.344-0.359-0.517-0.876-0.517-1.55V85.73h-0.979c-0.086,0-0.158-0.025-0.216-0.077
		c-0.06-0.05-0.09-0.129-0.09-0.235v-0.571l1.333-0.168l0.328-2.511c0.011-0.079,0.046-0.146,0.105-0.195
		c0.059-0.051,0.133-0.077,0.224-0.077h0.722v2.8h2.326v1.035h-2.326v4.877c0,0.344,0.082,0.598,0.248,0.762
		c0.167,0.167,0.38,0.249,0.643,0.249c0.151,0,0.281-0.02,0.389-0.061c0.109-0.04,0.204-0.083,0.285-0.131
		c0.08-0.049,0.149-0.093,0.204-0.134c0.057-0.04,0.107-0.06,0.15-0.06c0.074,0,0.142,0.046,0.199,0.136l0.419,0.683
		c-0.247,0.23-0.544,0.41-0.892,0.541c-0.348,0.132-0.705,0.197-1.075,0.197C100.018,92.79,99.523,92.609,99.179,92.254z"/>
	<path fill="#B22028" d="M106.203,92.254c-0.344-0.359-0.517-0.876-0.517-1.55V85.73h-0.979c-0.086,0-0.158-0.025-0.217-0.077
		c-0.058-0.05-0.087-0.129-0.087-0.235v-0.571l1.332-0.168l0.328-2.511c0.011-0.079,0.045-0.146,0.104-0.195
		c0.059-0.051,0.135-0.077,0.226-0.077h0.721v2.8h2.326v1.035h-2.326v4.877c0,0.344,0.083,0.598,0.25,0.762
		c0.166,0.167,0.379,0.249,0.641,0.249c0.15,0,0.28-0.02,0.389-0.061c0.11-0.04,0.206-0.083,0.286-0.131
		c0.08-0.049,0.148-0.093,0.205-0.134c0.055-0.04,0.106-0.06,0.147-0.06c0.075,0,0.142,0.046,0.2,0.136l0.418,0.683
		c-0.247,0.23-0.543,0.41-0.89,0.541c-0.348,0.132-0.707,0.197-1.075,0.197C107.042,92.79,106.548,92.609,106.203,92.254z"/>
	<path fill="#B22028" d="M116.281,84.651c0.412,0.164,0.767,0.397,1.066,0.705c0.299,0.309,0.533,0.687,0.702,1.14
		c0.168,0.452,0.253,0.967,0.253,1.544c0,0.226-0.024,0.375-0.071,0.451c-0.049,0.073-0.14,0.11-0.272,0.11h-5.407
		c0.01,0.514,0.079,0.96,0.208,1.341c0.127,0.38,0.304,0.695,0.528,0.95c0.226,0.252,0.493,0.443,0.803,0.57
		c0.311,0.126,0.658,0.188,1.042,0.188c0.358,0,0.667-0.041,0.925-0.125c0.262-0.083,0.482-0.172,0.67-0.269
		c0.188-0.097,0.344-0.186,0.471-0.269c0.125-0.083,0.232-0.126,0.324-0.126c0.117,0,0.209,0.047,0.273,0.137l0.4,0.522
		c-0.177,0.214-0.388,0.399-0.633,0.558c-0.247,0.158-0.511,0.288-0.791,0.39c-0.28,0.101-0.572,0.177-0.871,0.228
		c-0.298,0.051-0.596,0.076-0.889,0.076c-0.562,0-1.08-0.096-1.553-0.285c-0.474-0.189-0.882-0.47-1.227-0.833
		c-0.346-0.365-0.614-0.82-0.808-1.361c-0.192-0.538-0.288-1.158-0.288-1.86c0-0.567,0.086-1.096,0.261-1.589
		c0.173-0.491,0.424-0.919,0.75-1.278c0.325-0.36,0.723-0.645,1.195-0.85c0.47-0.207,1-0.311,1.588-0.311
		C115.42,84.406,115.87,84.489,116.281,84.651z M113.337,86.055c-0.395,0.398-0.641,0.951-0.737,1.656h4.42
		c0-0.331-0.046-0.635-0.137-0.91s-0.225-0.513-0.402-0.714c-0.175-0.2-0.393-0.354-0.645-0.465c-0.254-0.11-0.543-0.165-0.87-0.164
		C114.276,85.458,113.733,85.656,113.337,86.055z"/>
	<path fill="#B22028" d="M128.647,92.773c-1.043,0-1.893-0.366-2.551-1.1c-0.69-0.759-1.034-1.785-1.034-3.08
		c0-1.246,0.328-2.248,0.986-3.009c0.689-0.785,1.636-1.179,2.838-1.179c0.623,0,1.423,0.198,2.408,0.595v2.109h-0.643
		c-0.156,0-0.245-0.075-0.272-0.226c-0.016-0.059-0.036-0.259-0.062-0.601c-0.029-0.344-0.041-0.522-0.041-0.539
		c-0.257-0.079-0.456-0.13-0.594-0.151c-0.31-0.047-0.612-0.069-0.903-0.064c-0.29,0.007-0.584,0.076-0.879,0.213
		c-0.293,0.137-0.545,0.339-0.754,0.605c-0.41,0.54-0.617,1.289-0.617,2.246c0,0.968,0.214,1.729,0.643,2.278
		c0.417,0.53,0.991,0.794,1.725,0.794c0.667,0,1.265-0.225,1.79-0.673c0.095-0.085,0.197-0.13,0.308-0.13s0.195,0.047,0.253,0.137
		l0.401,0.522C130.968,92.356,129.97,92.773,128.647,92.773z"/>
	<path fill="#B22028" d="M139.835,90.527v-4.82c-0.092-0.022-0.395-0.084-0.906-0.186c-0.166-0.032-0.248-0.13-0.248-0.298v-0.688
		h1.154h1.428v6.954c0.519,0.104,0.822,0.165,0.915,0.185c0.165,0.033,0.248,0.131,0.248,0.297v0.689h-2.014
		c-0.203,0-0.331-0.098-0.386-0.297l-0.112-0.874c-0.78,0.867-1.679,1.301-2.694,1.301c-0.867,0-1.543-0.281-2.029-0.843
		c-0.461-0.535-0.69-1.278-0.69-2.23v-4.01c-0.514-0.102-0.818-0.164-0.915-0.186c-0.161-0.032-0.241-0.13-0.241-0.298v-0.688h2.585
		v5.182c0,0.616,0.142,1.092,0.424,1.428c0.285,0.338,0.711,0.507,1.284,0.507C138.444,91.651,139.177,91.277,139.835,90.527z"/>
	<path fill="#B22028" d="M148.246,91.969v0.691h-3.743v-0.691c0-0.143,0.104-0.268,0.244-0.296c0.142-0.029,0.912-0.182,0.912-0.182
		v-5.784c0,0-0.771-0.155-0.912-0.183c-0.14-0.028-0.244-0.156-0.244-0.297v-0.692h2.587v6.956c0,0,0.771,0.152,0.911,0.182
		C148.142,91.701,148.246,91.826,148.246,91.969z M145.451,82.373c-0.053-0.12-0.079-0.25-0.079-0.388
		c0-0.14,0.026-0.272,0.079-0.398c0.055-0.126,0.128-0.235,0.221-0.329c0.095-0.094,0.202-0.167,0.322-0.222
		c0.119-0.052,0.25-0.079,0.39-0.079c0.137,0,0.271,0.027,0.393,0.079c0.121,0.055,0.23,0.128,0.323,0.222
		c0.095,0.094,0.168,0.203,0.225,0.329s0.085,0.259,0.085,0.398c0,0.138-0.028,0.268-0.085,0.388s-0.13,0.229-0.225,0.321
		c-0.093,0.095-0.202,0.167-0.323,0.22c-0.122,0.054-0.256,0.082-0.393,0.082c-0.14,0-0.271-0.028-0.39-0.082
		c-0.12-0.053-0.228-0.125-0.322-0.22C145.579,82.602,145.506,82.493,145.451,82.373z"/>
	<path fill="#B22028" d="M155.525,84.832V85.4v1.517h-0.635c-0.154,0-0.244-0.074-0.272-0.224c-0.005-0.021-0.035-0.373-0.095-1.051
		c-0.487-0.114-0.904-0.168-1.252-0.168h-0.017c-0.454,0.005-0.823,0.119-1.106,0.345c-0.284,0.219-0.426,0.465-0.426,0.737
		c0,0.273,0.062,0.479,0.185,0.617c0.214,0.252,0.521,0.438,0.923,0.562c0.401,0.123,0.733,0.228,0.998,0.316
		c0.267,0.088,0.524,0.186,0.774,0.294c0.253,0.106,0.477,0.239,0.674,0.399c0.439,0.358,0.658,0.833,0.658,1.428
		c0,0.777-0.266,1.397-0.793,1.862c-0.553,0.492-1.266,0.74-2.144,0.745c-0.877,0.007-1.751-0.141-2.622-0.441v-2.125h0.567
		c0.136,0,0.216,0.066,0.242,0.201c0.011,0.047,0.043,0.391,0.097,1.025c0.459,0.215,1.011,0.32,1.652,0.32
		c0.529,0,0.946-0.135,1.25-0.399c0.273-0.241,0.41-0.513,0.41-0.82c0-0.304-0.06-0.529-0.182-0.677
		c-0.118-0.146-0.277-0.272-0.476-0.377c-0.198-0.104-0.426-0.192-0.683-0.269c-0.706-0.22-1.204-0.392-1.495-0.518
		c-0.292-0.124-0.536-0.271-0.734-0.437c-0.439-0.369-0.659-0.869-0.659-1.501c0-0.657,0.252-1.206,0.755-1.645
		c0.535-0.475,1.298-0.714,2.288-0.714C153.969,84.406,154.675,84.548,155.525,84.832z"/>
	<path fill="#B22028" d="M161.505,91.969v0.691h-3.744v-0.691c0-0.143,0.104-0.268,0.245-0.296c0.141-0.029,0.915-0.182,0.915-0.182
		v-5.784c0,0-0.774-0.155-0.915-0.183c-0.141-0.028-0.245-0.156-0.245-0.297v-0.692h2.587v6.956c0,0,0.771,0.152,0.912,0.182
		C161.402,91.701,161.505,91.826,161.505,91.969z M158.71,82.373c-0.053-0.12-0.078-0.25-0.078-0.388
		c0-0.14,0.025-0.272,0.078-0.398c0.055-0.126,0.128-0.235,0.222-0.329s0.201-0.167,0.321-0.222c0.118-0.052,0.25-0.079,0.388-0.079
		c0.141,0,0.271,0.027,0.393,0.079c0.124,0.055,0.233,0.128,0.325,0.222c0.094,0.094,0.17,0.203,0.226,0.329
		c0.057,0.126,0.085,0.259,0.085,0.398c0,0.138-0.028,0.268-0.085,0.388c-0.056,0.12-0.132,0.229-0.226,0.321
		c-0.092,0.095-0.201,0.167-0.325,0.22c-0.121,0.054-0.252,0.082-0.393,0.082c-0.138,0-0.27-0.028-0.388-0.082
		c-0.12-0.053-0.228-0.125-0.321-0.22C158.838,82.602,158.765,82.493,158.71,82.373z"/>
	<path fill="#B22028" d="M168.761,84.406c0.877,0,1.555,0.284,2.029,0.851c0.461,0.545,0.692,1.288,0.692,2.23v4.002
		c0.519,0.104,0.823,0.165,0.913,0.185c0.165,0.033,0.249,0.131,0.249,0.297v0.689h-2.591v-5.173c0-1.294-0.57-1.94-1.709-1.94
		c-0.791,0-1.525,0.376-2.199,1.13v4.812c0.038,0.007,0.344,0.067,0.916,0.185c0.165,0.033,0.248,0.131,0.248,0.297v0.689h-3.746
		v-0.689c0-0.166,0.08-0.264,0.24-0.297l0.915-0.185v-5.782c-0.514-0.102-0.818-0.164-0.915-0.186c-0.16-0.032-0.24-0.13-0.24-0.298
		v-0.688h1.155h0.85c0.203,0,0.331,0.099,0.387,0.297l0.111,0.882C166.858,84.843,167.755,84.406,168.761,84.406z"/>
	<path fill="#B22028" d="M179.337,84.651c0.411,0.164,0.766,0.397,1.067,0.705c0.3,0.309,0.533,0.687,0.701,1.14
		c0.17,0.452,0.252,0.967,0.252,1.544c0,0.226-0.023,0.375-0.072,0.451c-0.048,0.073-0.139,0.11-0.273,0.11h-5.405
		c0.011,0.514,0.078,0.96,0.209,1.341c0.127,0.38,0.305,0.695,0.528,0.95c0.226,0.252,0.491,0.443,0.803,0.57
		c0.31,0.126,0.657,0.188,1.042,0.188c0.359,0,0.667-0.041,0.928-0.125c0.259-0.083,0.483-0.172,0.67-0.269
		c0.188-0.097,0.343-0.186,0.469-0.269s0.233-0.126,0.324-0.126c0.117,0,0.208,0.047,0.272,0.137l0.402,0.522
		c-0.177,0.214-0.388,0.399-0.634,0.558c-0.247,0.158-0.51,0.288-0.79,0.39c-0.282,0.101-0.572,0.177-0.871,0.228
		c-0.3,0.051-0.596,0.076-0.89,0.076c-0.562,0-1.08-0.096-1.555-0.285c-0.471-0.189-0.881-0.47-1.225-0.833
		c-0.347-0.365-0.615-0.82-0.807-1.361c-0.192-0.538-0.291-1.158-0.291-1.86c0-0.567,0.088-1.096,0.264-1.589
		c0.172-0.491,0.422-0.919,0.749-1.278c0.327-0.36,0.725-0.645,1.195-0.85c0.471-0.207,1-0.311,1.59-0.311
		C178.476,84.406,178.925,84.489,179.337,84.651z M176.391,86.055c-0.395,0.398-0.641,0.951-0.736,1.656h4.42
		c0-0.331-0.045-0.635-0.137-0.91c-0.091-0.275-0.224-0.513-0.401-0.714c-0.177-0.2-0.391-0.354-0.644-0.465
		c-0.256-0.11-0.545-0.165-0.872-0.164C177.331,85.458,176.788,85.656,176.391,86.055z"/>
	<rect x="18" y="88.596" fill="#B22028" width="19.853" height="0.623"/>
	<g>
		<rect x="190.665" y="88.596" fill="#B22028" width="19.854" height="0.623"/>
	</g>
	<g>
		<g>
			<path fill="#B22028" d="M-1.304,13.069c2.241-0.487,4.33-0.154,6.236,0.978c1.908,1.14,3.059,2.73,3.468,4.774
				c0.119,0.604,0.241,1.208,0.362,1.817c0.054,0.256,0.216,0.354,0.491,0.298c0.07-0.015,0.138-0.029,0.206-0.042
				c0.276-0.054,0.39-0.21,0.34-0.465c-0.119-0.603-0.241-1.212-0.361-1.813c-0.462-2.361-1.751-4.198-3.875-5.491
				c-2.12-1.296-4.497-1.666-7.092-1.103c-2.6,0.561-4.61,1.88-6.015,3.934c-1.396,2.058-1.812,4.26-1.264,6.599
				c1.965,8.389,3.934,16.777,5.9,25.162c0.537,2.283,1.83,4.045,3.863,5.315c2.03,1.271,4.23,1.638,6.623,1.122
				c2.394-0.517,4.243-1.759,5.566-3.758c1.324-1.993,1.771-4.133,1.317-6.427c-0.86-4.344-1.718-8.681-2.577-13.015
				c-0.054-0.255-0.214-0.358-0.482-0.304c-1.793,0.357-3.587,0.721-5.38,1.098c-0.269,0.06-0.376,0.215-0.325,0.467
				c0.019,0.099,0.037,0.193,0.059,0.286c0.057,0.259,0.218,0.357,0.486,0.298c1.588-0.331,3.175-0.658,4.761-0.975
				c0.821,4.113,1.647,8.226,2.468,12.337c0.205,1.019,0.2,2.013-0.012,2.987c-0.216,0.977-0.598,1.859-1.146,2.67
				c-0.55,0.808-1.254,1.5-2.113,2.083c-0.862,0.579-1.812,0.981-2.845,1.203c-1.04,0.227-2.068,0.251-3.094,0.08
				c-1.027-0.17-1.954-0.512-2.785-1.021c-0.835-0.514-1.549-1.165-2.147-1.96c-0.597-0.797-1.013-1.698-1.251-2.717
				c-1.951-8.39-3.899-16.781-5.852-25.173c-0.472-2.025-0.079-3.956,1.189-5.777C-5.313,14.716-3.548,13.553-1.304,13.069
				 M8.224,23.829c-1.099,0.221-1.75-0.177-1.959-1.191c-0.225-1.085-0.446-2.167-0.67-3.25c-0.289-1.398-1.048-2.456-2.287-3.163
				c-1.237-0.702-2.592-0.897-4.055-0.583c-1.464,0.316-2.619,1.057-3.456,2.21c-0.836,1.15-1.094,2.429-0.777,3.824
				c1.905,8.4,3.811,16.801,5.716,25.201c0.303,1.334,1.052,2.364,2.244,3.092c1.193,0.735,2.469,0.954,3.836,0.658
				c1.369-0.297,2.442-1.015,3.221-2.18c0.782-1.156,1.042-2.404,0.765-3.745c-0.675-3.28-1.35-6.558-2.024-9.839
				c-1.176,0.242-2.352,0.489-3.527,0.74c-0.467,0.098-0.889,0.035-1.248-0.186c-0.364-0.218-0.586-0.521-0.67-0.902
				c-0.218-1.018-0.441-2.033-0.661-3.049c-0.218-1.015,0.212-1.643,1.299-1.875c2.82-0.603,5.642-1.178,8.464-1.735
				c1.092-0.208,1.733,0.2,1.931,1.22c0.921,4.789,1.843,9.574,2.768,14.365c0.295,1.533,0.271,3.01-0.064,4.435
				c-0.334,1.417-0.925,2.729-1.765,3.926c-0.84,1.197-1.863,2.213-3.067,3.061c-1.21,0.846-2.581,1.434-4.124,1.767
				c-1.544,0.335-3.04,0.364-4.488,0.092c-1.446-0.271-2.8-0.775-4.064-1.52c-1.262-0.739-2.34-1.684-3.235-2.845
				c-0.894-1.153-1.525-2.489-1.892-4.007c-2.011-8.378-4.02-16.754-6.032-25.133c-0.364-1.517-0.398-3.017-0.089-4.491
				c0.307-1.477,0.908-2.838,1.798-4.082c0.889-1.245,1.992-2.312,3.307-3.209c1.312-0.895,2.82-1.529,4.513-1.893
				C-0.373,9.177,1.258,9.128,2.826,9.4c1.562,0.277,3.006,0.8,4.33,1.562c1.322,0.766,2.426,1.755,3.317,2.973
				c0.892,1.219,1.479,2.595,1.773,4.126c0.21,1.085,0.42,2.171,0.629,3.254c0.199,1.029-0.256,1.642-1.355,1.856
				C10.421,23.39,9.323,23.604,8.224,23.829"/>
			<path fill="#B22028" d="M26.786,27.921c-1.104-6.573-2.212-13.143-3.316-19.715c3.495-0.59,6.994-1.141,10.497-1.66
				c0.28-0.043,0.402-0.194,0.363-0.45c-0.01-0.064-0.018-0.13-0.028-0.194c-0.037-0.256-0.197-0.365-0.479-0.323
				c-3.687,0.545-7.369,1.13-11.045,1.753c-0.355,0.059-0.503,0.255-0.447,0.569c2.35,13.815,4.703,27.632,7.054,41.444
				c0.054,0.319,0.244,0.451,0.57,0.396c3.387-0.566,6.779-1.106,10.175-1.611c0.26-0.036,0.37-0.189,0.333-0.444
				c-0.011-0.064-0.02-0.128-0.029-0.196c-0.048-0.321-0.203-0.46-0.463-0.421c-3.236,0.478-6.476,0.991-9.706,1.536
				c-1.106-6.575-2.213-13.147-3.314-19.72c3.36-0.567,6.723-1.095,10.092-1.597c0.268-0.04,0.386-0.187,0.346-0.448
				c-0.009-0.062-0.021-0.125-0.026-0.188c-0.041-0.26-0.196-0.369-0.465-0.332C33.523,26.825,30.151,27.354,26.786,27.921
				 M26.754,10.329c0.789,4.846,1.577,9.692,2.363,14.539c2.978-0.486,5.953-0.942,8.933-1.375c1.097-0.161,1.718,0.281,1.863,1.308
				c0.145,1.029,0.296,2.062,0.439,3.092c0.146,1.027-0.323,1.62-1.406,1.774c-2.943,0.428-5.886,0.881-8.826,1.359
				c0.796,4.882,1.589,9.758,2.384,14.639c2.852-0.465,5.714-0.905,8.573-1.324c1.053-0.152,1.653,0.291,1.8,1.318
				c0.142,1.029,0.289,2.059,0.437,3.092c0.146,1.028-0.3,1.619-1.34,1.767c-3.865,0.563-7.725,1.171-11.581,1.818
				c-0.905,0.155-1.702-0.017-2.392-0.526c-0.692-0.507-1.11-1.176-1.256-2.006c-2.425-13.802-4.849-27.606-7.276-41.408
				c-0.156-0.895,0.034-1.688,0.567-2.374c0.541-0.692,1.305-1.117,2.301-1.286c4.227-0.717,8.458-1.379,12.698-1.998
				c1.138-0.16,1.782,0.27,1.929,1.299c0.144,1.03,0.292,2.062,0.436,3.092c0.146,1.027-0.343,1.621-1.471,1.786
				C32.872,9.363,29.813,9.833,26.754,10.329"/>
			<path fill="#B22028" d="M64.558,10.53c-0.125-1.364-0.757-2.479-1.909-3.351c-1.149-0.867-2.475-1.229-3.955-1.081
				c-1.558,0.16-2.814,0.786-3.765,1.874c-0.951,1.085-1.345,2.308-1.19,3.667c0.96,8.526,1.921,17.054,2.883,25.583
				c0.16,1.426,0.792,2.565,1.892,3.422c1.097,0.859,2.37,1.217,3.823,1.066c1.387-0.141,2.527-0.74,3.428-1.807
				c0.902-1.064,1.29-2.308,1.157-3.735C66.135,27.622,65.348,19.075,64.558,10.53 M58.425,3.48c2.271-0.23,4.298,0.328,6.065,1.668
				c1.766,1.343,2.728,3.055,2.908,5.123c0.741,8.552,1.488,17.104,2.229,25.653c0.18,2.078-0.431,3.925-1.82,5.551
				c-1.378,1.63-3.112,2.545-5.214,2.761c-2.103,0.215-3.984-0.331-5.67-1.647c-1.687-1.31-2.656-2.995-2.902-5.066
				c-1.004-8.525-2.011-17.049-3.015-25.572c-0.242-2.062,0.353-3.939,1.813-5.607C54.274,4.67,56.15,3.716,58.425,3.48
				 M68.45,10.182c-0.204-2.396-1.27-4.347-3.229-5.833c-1.957-1.494-4.264-2.107-6.898-1.839c-2.632,0.273-4.787,1.342-6.438,3.204
				c-1.65,1.854-2.319,3.988-2.033,6.375c1.024,8.52,2.046,17.041,3.072,25.567c0.286,2.39,1.392,4.316,3.295,5.795
				c1.907,1.487,4.059,2.099,6.484,1.854c2.426-0.251,4.392-1.284,5.92-3.118c1.532-1.841,2.208-3.945,2.005-6.344
				C69.902,27.289,69.176,18.737,68.45,10.182 M58.057-0.109c1.714-0.174,3.334-0.044,4.856,0.408
				c1.517,0.442,2.893,1.137,4.123,2.077c1.227,0.94,2.212,2.046,2.955,3.324c0.746,1.277,1.178,2.692,1.3,4.251
				c0.683,8.554,1.363,17.107,2.042,25.666c0.127,1.558-0.06,3.039-0.542,4.453c-0.488,1.406-1.214,2.674-2.173,3.797
				c-0.961,1.132-2.088,2.049-3.373,2.754c-1.286,0.709-2.707,1.14-4.272,1.299c-1.567,0.163-3.065,0.028-4.499-0.399
				c-1.436-0.429-2.74-1.098-3.91-2.003c-1.173-0.908-2.139-2.003-2.898-3.283c-0.764-1.283-1.246-2.699-1.438-4.251
				c-1.072-8.515-2.137-17.032-3.205-25.549c-0.196-1.547-0.061-3.019,0.41-4.423c0.471-1.403,1.211-2.688,2.227-3.858
				c1.011-1.165,2.233-2.128,3.669-2.876C54.761,0.532,56.343,0.067,58.057-0.109"/>
			<path fill="#B22028" d="M95.414,8.576c-0.046-1.365-0.614-2.52-1.711-3.452c-1.095-0.938-2.394-1.373-3.884-1.308
				c-1.81,0.081-3.618,0.17-5.427,0.271c0.267,4.897,0.537,9.802,0.805,14.705c1.756-0.095,3.518-0.184,5.275-0.26
				c1.45-0.064,2.674-0.604,3.672-1.615c1.001-1.012,1.481-2.235,1.43-3.664C95.523,11.691,95.47,10.135,95.414,8.576 M89.701,1.188
				c2.278-0.103,4.271,0.572,5.954,2.012c1.681,1.441,2.545,3.205,2.606,5.286c0.044,1.559,0.093,3.12,0.137,4.676
				c0.062,2.084-0.686,3.893-2.222,5.442c-1.537,1.548-3.396,2.364-5.591,2.458c-2.679,0.123-5.357,0.262-8.031,0.419
				c-0.4-6.618-0.793-13.238-1.19-19.859C84.143,1.458,86.922,1.311,89.701,1.188 M99.422,8.449
				c-0.063-2.402-1.037-4.411-2.938-6.009c-1.9-1.597-4.186-2.345-6.825-2.225c-2.961,0.129-5.926,0.283-8.887,0.465
				c-0.428,0.025-0.635,0.201-0.612,0.522c0.868,14.024,1.739,28.04,2.607,42.061c0.02,0.258,0.158,0.377,0.42,0.363
				c0.098-0.006,0.198-0.01,0.294-0.016c0.264-0.02,0.387-0.154,0.374-0.414c-0.413-6.879-0.824-13.765-1.238-20.643
				c2.672-0.158,5.346-0.3,8.018-0.417c2.192-0.1,4.107,0.58,5.729,2.022c1.621,1.438,2.451,3.205,2.51,5.286
				c0.129,4.353,0.256,8.711,0.383,13.068c0.01,0.257,0.141,0.384,0.407,0.375c0.067,0,0.132,0,0.195-0.004
				c0.334-0.01,0.492-0.144,0.487-0.407c-0.12-4.353-0.236-8.708-0.356-13.059c-0.045-1.889-0.655-3.548-1.824-4.975
				c-1.168-1.434-2.66-2.406-4.466-2.922c1.757-0.717,3.185-1.823,4.276-3.319c1.094-1.498,1.628-3.185,1.577-5.071
				C99.506,11.569,99.464,10.01,99.422,8.449 M102.271,13.064c0.07,3.315-1.089,6.07-3.426,8.282
				c2.465,2.077,3.71,4.755,3.782,8.003c0.106,4.84,0.212,9.686,0.319,14.528c0.007,0.391-0.132,0.752-0.421,1.082
				c-0.288,0.334-0.661,0.508-1.119,0.517c-1.046,0.03-2.093,0.057-3.139,0.086c-0.458,0.019-0.84-0.131-1.148-0.447
				c-0.301-0.318-0.466-0.667-0.476-1.06c-0.168-4.843-0.335-9.681-0.501-14.523c-0.05-1.366-0.597-2.518-1.652-3.453
				c-1.055-0.938-2.305-1.376-3.737-1.312c-1.736,0.075-3.478,0.165-5.216,0.26c0.355,6.494,0.712,12.986,1.063,19.476
				c0.023,0.395-0.124,0.76-0.434,1.098c-0.309,0.346-0.655,0.526-1.052,0.552c-1.046,0.059-2.089,0.12-3.138,0.184
				c-0.456,0.036-0.844-0.101-1.161-0.407c-0.315-0.305-0.488-0.649-0.515-1.043c-0.975-14.497-1.947-29.002-2.922-43.497
				c-0.06-0.912,0.209-1.68,0.817-2.304c0.607-0.625,1.411-0.968,2.417-1.034c2.976-0.177,5.952-0.337,8.929-0.471
				c1.72-0.071,3.349,0.154,4.875,0.687c1.522,0.53,2.853,1.302,3.992,2.309c1.134,1.008,2.031,2.173,2.706,3.492
				c0.666,1.316,1.018,2.756,1.051,4.314C102.202,9.946,102.233,11.504,102.271,13.064"/>
			<path fill="#B22028" d="M123.174,0.817c2.284,0.043,4.229,0.836,5.82,2.375c1.592,1.545,2.346,3.359,2.278,5.437
				c-0.019,0.618-0.04,1.236-0.06,1.849c-0.011,0.264,0.127,0.398,0.407,0.405c0.067,0.003,0.138,0.009,0.21,0.011
				c0.28,0.006,0.421-0.116,0.432-0.381c0.021-0.618,0.042-1.232,0.064-1.85c0.085-2.402-0.745-4.481-2.51-6.227
				c-1.766-1.744-3.981-2.643-6.621-2.685c-2.644-0.046-4.889,0.778-6.711,2.46c-1.82,1.682-2.717,3.733-2.714,6.14
				c0,8.615,0.003,17.234,0.008,25.845c0.003,2.345,0.852,4.354,2.532,6.055c1.678,1.698,3.722,2.558,6.157,2.602
				c2.432,0.041,4.504-0.751,6.242-2.396c1.735-1.639,2.653-3.623,2.734-5.962c0.151-4.421,0.302-8.838,0.452-13.261
				c0.012-0.255-0.126-0.392-0.399-0.403c-1.82-0.06-3.64-0.108-5.464-0.149c-0.271-0.007-0.413,0.123-0.419,0.379
				c0,0.097-0.002,0.197-0.007,0.292c-0.005,0.263,0.129,0.392,0.403,0.402c1.61,0.037,3.226,0.081,4.836,0.131
				c-0.136,4.193-0.271,8.382-0.408,12.576c-0.029,1.039-0.262,2.009-0.689,2.905c-0.428,0.897-0.996,1.678-1.714,2.341
				c-0.714,0.664-1.555,1.178-2.518,1.547c-0.969,0.367-1.979,0.543-3.033,0.525c-1.055-0.017-2.06-0.226-3.008-0.622
				c-0.955-0.407-1.778-0.949-2.469-1.638c-0.691-0.689-1.236-1.483-1.633-2.397c-0.394-0.908-0.595-1.887-0.594-2.927
				c0.012-8.611,0.026-17.23,0.044-25.845c0-2.079,0.811-3.869,2.455-5.355C118.921,1.51,120.894,0.783,123.174,0.817
				 M129.965,13.469c-1.114-0.033-1.655-0.568-1.627-1.609c0.03-1.102,0.058-2.209,0.089-3.313c0.04-1.433-0.458-2.631-1.5-3.601
				c-1.036-0.965-2.306-1.466-3.796-1.492c-1.489-0.027-2.773,0.435-3.847,1.363c-1.071,0.933-1.604,2.121-1.616,3.545
				c-0.057,8.617-0.119,17.233-0.177,25.847c-0.006,1.365,0.485,2.539,1.471,3.523c0.988,0.985,2.174,1.488,3.566,1.513
				c1.391,0.02,2.591-0.438,3.612-1.395c1.021-0.947,1.555-2.102,1.591-3.471c0.089-3.346,0.18-6.692,0.27-10.038
				c-1.195-0.032-2.389-0.059-3.583-0.083c-0.476-0.013-0.868-0.167-1.17-0.463c-0.301-0.296-0.45-0.644-0.441-1.032
				c0.02-1.043,0.034-2.08,0.052-3.12c0.019-1.034,0.576-1.548,1.682-1.528c2.865,0.057,5.731,0.137,8.594,0.241
				c1.104,0.041,1.64,0.586,1.599,1.622c-0.193,4.875-0.384,9.744-0.578,14.619c-0.06,1.56-0.419,2.993-1.065,4.302
				c-0.646,1.313-1.519,2.453-2.602,3.423c-1.091,0.97-2.312,1.734-3.67,2.282c-1.359,0.554-2.824,0.809-4.396,0.787
				c-1.57-0.029-3.023-0.338-4.36-0.932c-1.34-0.596-2.539-1.397-3.587-2.409c-1.055-1.008-1.885-2.18-2.488-3.506
				c-0.603-1.33-0.911-2.773-0.918-4.339c-0.049-8.612-0.099-17.228-0.148-25.845c-0.009-1.56,0.301-3.028,0.931-4.394
				c0.636-1.367,1.521-2.554,2.666-3.562c1.137-1.011,2.448-1.799,3.923-2.373c1.473-0.572,3.072-0.848,4.797-0.819
				c1.72,0.028,3.315,0.358,4.769,0.979c1.453,0.622,2.734,1.456,3.845,2.501c1.103,1.046,1.954,2.264,2.537,3.653
				c0.588,1.388,0.848,2.865,0.784,4.423c-0.039,1.103-0.087,2.21-0.128,3.313c-0.043,1.039-0.622,1.536-1.731,1.496
				C132.197,13.538,131.082,13.5,129.965,13.469"/>
			<path fill="#B22028" d="M147.045,21.687c0.421-6.651,0.84-13.3,1.257-19.952c3.527,0.223,7.049,0.481,10.567,0.77
				c0.285,0.025,0.438-0.094,0.458-0.355c0-0.063,0.014-0.126,0.017-0.191c0.023-0.262-0.11-0.402-0.393-0.423
				c-3.704-0.305-7.413-0.575-11.12-0.807c-0.361-0.021-0.545,0.133-0.564,0.453c-0.854,13.987-1.707,27.971-2.562,41.952
				c-0.021,0.331,0.135,0.501,0.462,0.52c3.419,0.213,6.832,0.458,10.248,0.737c0.264,0.023,0.401-0.095,0.423-0.351
				c0.009-0.064,0.013-0.127,0.019-0.196c0.023-0.325-0.093-0.496-0.354-0.518c-3.255-0.267-6.513-0.506-9.773-0.714
				c0.419-6.649,0.837-13.298,1.259-19.952c3.388,0.216,6.773,0.462,10.157,0.743c0.275,0.021,0.422-0.095,0.444-0.356
				c0.005-0.066,0.011-0.13,0.017-0.193c0.019-0.259-0.105-0.402-0.379-0.425C153.835,22.146,150.442,21.9,147.045,21.687
				 M151.007,4.552c-0.333,4.896-0.671,9.794-1,14.688c2.996,0.204,5.991,0.437,8.984,0.693c1.103,0.095,1.607,0.664,1.512,1.697
				c-0.092,1.039-0.18,2.076-0.275,3.109c-0.09,1.039-0.682,1.505-1.767,1.413c-2.963-0.256-5.919-0.481-8.882-0.685
				c-0.336,4.93-0.676,9.862-1.01,14.792c2.875,0.198,5.755,0.418,8.628,0.663c1.057,0.088,1.538,0.655,1.447,1.691
				c-0.092,1.035-0.184,2.074-0.274,3.108c-0.098,1.036-0.662,1.507-1.706,1.419c-3.883-0.333-7.771-0.619-11.661-0.857
				c-0.914-0.06-1.648-0.409-2.201-1.062c-0.556-0.652-0.811-1.396-0.762-2.242c0.78-13.989,1.56-27.978,2.338-41.968
				c0.05-0.907,0.414-1.636,1.092-2.181c0.679-0.548,1.52-0.794,2.525-0.729c4.264,0.265,8.523,0.578,12.78,0.944
				c1.147,0.097,1.672,0.667,1.581,1.702c-0.092,1.036-0.184,2.071-0.274,3.106c-0.092,1.038-0.707,1.504-1.837,1.407
				C157.169,4.998,154.088,4.762,151.007,4.552"/>
			<path fill="#B22028" d="M186.957,4.956c0.035-0.252-0.09-0.405-0.372-0.441c-4.399-0.591-8.801-1.125-13.206-1.608
				c-0.286-0.029-0.438,0.083-0.472,0.339c-0.007,0.064-0.01,0.133-0.02,0.194c-0.03,0.258,0.103,0.406,0.384,0.438
				c2.023,0.224,4.044,0.453,6.067,0.695c-1.663,13.785-3.324,27.565-4.986,41.351c-0.032,0.255,0.083,0.404,0.343,0.435
				c0.064,0.009,0.134,0.018,0.196,0.022c0.267,0.033,0.411-0.079,0.44-0.339c1.689-13.783,3.378-27.557,5.065-41.338
				c2.021,0.248,4.04,0.508,6.06,0.779c0.279,0.041,0.439-0.074,0.477-0.331C186.938,5.085,186.948,5.021,186.957,4.956
				 M188.538,2.122c1.141,0.154,1.637,0.751,1.492,1.778c-0.144,1.034-0.287,2.062-0.432,3.094c-0.143,1.029-0.786,1.468-1.91,1.313
				c-1.581-0.22-3.166-0.429-4.754-0.633c-1.709,13.382-3.422,26.766-5.133,40.153c-0.053,0.389-0.244,0.724-0.578,1.005
				c-0.336,0.288-0.73,0.401-1.184,0.344c-1.043-0.126-2.083-0.256-3.122-0.38c-0.458-0.053-0.815-0.258-1.07-0.618
				c-0.256-0.357-0.361-0.729-0.315-1.114c1.542-13.406,3.089-26.809,4.628-40.214c-1.585-0.184-3.174-0.358-4.76-0.527
				c-1.133-0.121-1.646-0.696-1.536-1.732c0.104-1.035,0.212-2.068,0.316-3.102c0.105-1.034,0.734-1.495,1.873-1.373
				C177.56,0.7,183.053,1.369,188.538,2.122"/>
			<path fill="#B22028" d="M213.367,9.18c0.049-0.257-0.072-0.41-0.351-0.458c-4.374-0.809-8.76-1.56-13.145-2.259
				c-0.283-0.044-0.449,0.061-0.487,0.317c-0.01,0.067-0.021,0.13-0.032,0.193c-0.039,0.255,0.079,0.411,0.365,0.452
				c2.014,0.323,4.028,0.655,6.035,0.999c-2.334,13.682-4.668,27.367-7.003,41.054c-0.046,0.256,0.062,0.407,0.323,0.447
				c0.063,0.018,0.131,0.025,0.196,0.036c0.262,0.048,0.413-0.061,0.46-0.318c2.361-13.681,4.721-27.358,7.084-41.041
				c2.008,0.349,4.018,0.709,6.022,1.074c0.285,0.053,0.449-0.048,0.498-0.305C213.345,9.31,213.354,9.245,213.367,9.18
				 M215.085,6.424c1.135,0.212,1.607,0.836,1.412,1.853c-0.195,1.023-0.393,2.043-0.585,3.067
				c-0.194,1.022-0.852,1.426-1.976,1.216c-1.572-0.297-3.148-0.583-4.729-0.866c-2.364,13.281-4.731,26.567-7.1,39.85
				c-0.067,0.389-0.277,0.712-0.627,0.979c-0.348,0.271-0.75,0.364-1.201,0.285c-1.035-0.183-2.071-0.365-3.11-0.534
				c-0.449-0.078-0.797-0.298-1.037-0.667c-0.239-0.37-0.327-0.748-0.26-1.131c2.196-13.315,4.395-26.626,6.596-39.936
				c-1.583-0.266-3.168-0.518-4.746-0.764c-1.124-0.179-1.609-0.78-1.451-1.805c0.158-1.029,0.314-2.059,0.471-3.083
				c0.157-1.029,0.805-1.459,1.944-1.283C204.161,4.463,209.631,5.403,215.085,6.424"/>
			<path fill="#B22028" d="M223.537,32.182c1.386-6.512,2.778-13.034,4.166-19.552c3.476,0.741,6.939,1.516,10.397,2.324
				c0.281,0.066,0.453-0.03,0.513-0.281c0.013-0.068,0.028-0.128,0.047-0.194c0.057-0.252-0.056-0.412-0.332-0.476
				c-3.645-0.848-7.295-1.663-10.95-2.438c-0.35-0.074-0.557,0.045-0.623,0.366c-2.897,13.709-5.787,27.419-8.681,41.133
				c-0.069,0.318,0.057,0.511,0.381,0.577c3.367,0.718,6.73,1.468,10.085,2.249c0.258,0.058,0.419-0.036,0.476-0.289
				c0.015-0.061,0.028-0.123,0.045-0.188c0.07-0.319-0.017-0.506-0.276-0.565c-3.202-0.751-6.407-1.466-9.62-2.152
				c1.39-6.516,2.78-13.037,4.167-19.556c3.342,0.713,6.673,1.457,10.001,2.233c0.268,0.064,0.432-0.031,0.495-0.284
				c0.011-0.062,0.027-0.125,0.041-0.19c0.059-0.251-0.044-0.409-0.314-0.475C230.223,33.642,226.883,32.9,223.537,32.182
				 M229.984,15.813c-1.052,4.796-2.1,9.596-3.15,14.394c2.951,0.641,5.899,1.312,8.842,2.011c1.08,0.255,1.506,0.89,1.261,1.902
				c-0.246,1.012-0.488,2.025-0.73,3.036c-0.242,1.01-0.9,1.384-1.971,1.133c-2.906-0.687-5.82-1.35-8.735-1.988
				c-1.053,4.829-2.112,9.657-3.165,14.483c2.831,0.624,5.662,1.266,8.485,1.933c1.039,0.246,1.438,0.883,1.195,1.889
				c-0.243,1.011-0.485,2.024-0.73,3.037c-0.24,1.009-0.876,1.393-1.903,1.151c-3.817-0.905-7.641-1.764-11.471-2.575
				c-0.902-0.193-1.583-0.646-2.037-1.372c-0.456-0.725-0.602-1.502-0.428-2.333c2.82-13.726,5.639-27.449,8.459-41.175
				c0.185-0.894,0.653-1.562,1.404-2c0.752-0.442,1.627-0.56,2.614-0.353c4.202,0.892,8.396,1.833,12.58,2.826
				c1.126,0.266,1.568,0.907,1.328,1.919c-0.244,1.011-0.491,2.024-0.729,3.036c-0.244,1.009-0.923,1.383-2.034,1.115
				C236.045,17.17,233.015,16.478,229.984,15.813"/>
		</g>
		<g>
			<path fill="#B22028" d="M235.932,71.762l0.498-2.054C104.866,37.718-4.613,69.478-5.704,69.803l0.603,2.026
				C-4.018,71.506,104.916,39.905,235.932,71.762z"/>
			<path fill="#B22028" d="M-4.521,73.336l0.609,2.024c1.069-0.321,108.369-31.836,239.382,0.015l0.498-2.054
				C104.405,41.329-3.446,73.012-4.521,73.336z"/>
		</g>
	</g>
</g>
</svg>
