<?xml version="1.0" encoding="utf-8"?>
<!-- Generator: Adobe Illustrator 16.0.0, SVG Export Plug-In . SVG Version: 6.00 Build 0)  -->
<!DOCTYPE svg PUBLIC "-//W3C//DTD SVG 1.1//EN" "http://www.w3.org/Graphics/SVG/1.1/DTD/svg11.dtd">
<svg version="1.1" id="Calque_1" xmlns="http://www.w3.org/2000/svg" xmlns:xlink="http://www.w3.org/1999/xlink" x="0px" y="0px"
	 width="80px" height="70px" viewBox="0 0 80 70" enable-background="new 0 0 80 70" xml:space="preserve">
<path fill="#36A9E1" d="M4.292,68.583c1.317,0,2.437-1.083,2.834-2.083h51.746c0.516,0,0.936-0.364,0.936-0.882
	c0-0.252-0.1-0.519-0.262-0.687L41.105,33.048l3.1-5.358l20.9,36.245c-0.479,0.531-0.771,1.235-0.771,2.009
	c0,1.648,1.342,2.992,2.99,2.992c1.65,0,2.992-1.344,2.992-2.992c0-1.65-1.342-2.99-2.992-2.99c-0.211,0-0.416,0.02-0.613,0.064
	L45.273,25.846l3.115-5.393l25.104,43.48c-0.482,0.531-0.775,1.236-0.775,2.01c0,1.648,1.34,2.99,2.992,2.99
	c1.646,0,2.99-1.342,2.99-2.99c0-1.65-1.344-2.99-2.99-2.99c-0.209,0-0.412,0.02-0.609,0.061L49.246,18.237
	c-0.18-0.312-0.514-0.479-0.85-0.461c-0.342-0.023-0.682,0.354-0.863,0.67L28.986,50.5h-6.188l20.814-36.165
	c0.207,0.045,0.42,0.031,0.641,0.031c1.648,0,2.992-1.363,2.992-3.012c0-1.649-1.344-3-2.992-3s-2.99,1.336-2.99,2.984
	c0,0.76,0.286,1.532,0.754,2.061L20.663,50.5h-6.294L39.392,7.077c0.202,0.043,0.412,0.026,0.627,0.026
	c1.651,0,2.992-1.361,2.992-3.011s-1.341-3.002-2.992-3.002c-1.649,0-2.99,1.337-2.99,2.987c0,0.765,0.29,1.46,0.764,1.99
	L11.951,50.823c-0.254,0.443-0.102,1.153,0.34,1.409c0.145,0.084,0.304,0.268,0.46,0.268c0.038,0,37.255,0,37.255,0l3.02,5.016
	l-41.701-0.021c-0.394-1.191-1.519-2.077-2.841-2.077c-1.649,0-2.992,1.331-2.992,2.981c0,1.648,1.343,2.987,2.992,2.987
	c1.332,0,2.462-0.879,2.849-2.084l42.763-0.134l3.148,5.332H7.139c-0.386-1-1.516-1.959-2.847-1.959c-1.649,0-2.99,1.395-2.99,3.043
	S2.642,68.583,4.292,68.583z M66.047,65.568c0.162-0.555,0.672-0.957,1.277-0.957c0.115,0,0.225,0.012,0.33,0.043
	c0.574,0.146,1,0.668,1,1.289c0,0.736-0.596,1.33-1.33,1.33s-1.33-0.594-1.33-1.33C65.994,65.812,66.012,65.688,66.047,65.568z
	 M74.432,65.561c0.164-0.551,0.674-0.949,1.275-0.949c0.117,0,0.232,0.014,0.34,0.045c0.57,0.148,0.992,0.67,0.992,1.287
	c0,0.736-0.596,1.33-1.33,1.33c-0.736,0-1.332-0.594-1.332-1.33C74.375,65.809,74.396,65.682,74.432,65.561z M44.252,10.003
	c0.736,0,1.332,0.595,1.332,1.331c0,0.635-0.443,1.165-1.037,1.299c-0.096,0.021-0.193,0.033-0.295,0.033
	c-0.617,0-1.139-0.422-1.287-0.994c-0.029-0.109-0.045-0.222-0.045-0.338C42.92,10.598,43.518,10.003,44.252,10.003z M40.02,2.742
	c0.735,0,1.332,0.596,1.332,1.331c0,0.627-0.436,1.153-1.018,1.294c-0.1,0.024-0.204,0.037-0.312,0.037
	c-0.611,0-1.127-0.413-1.284-0.974c-0.03-0.115-0.048-0.233-0.048-0.357C38.69,3.337,39.286,2.742,40.02,2.742z M31.142,50.5
	l8.891-15.399L48.922,50.5H31.142z M9.453,59.301c-0.241,0.26-0.586,0.422-0.969,0.422c-0.734,0-1.33-0.598-1.33-1.33
	c0-0.736,0.596-1.334,1.33-1.334c0.374,0,0.708,0.152,0.949,0.398c0.238,0.24,0.383,0.572,0.383,0.936
	C9.815,58.742,9.676,59.064,9.453,59.301z M4.292,64.32c0.382,0,0.726,0.162,0.968,0.42c0.225,0.236,0.364,0.557,0.364,0.912
	c0,0.373-0.154,0.711-0.403,0.953c-0.24,0.232-0.567,0.379-0.929,0.379c-0.735,0-1.33-0.598-1.33-1.332S3.558,64.32,4.292,64.32z"/>
</svg>
