<?xml version="1.0" encoding="utf-8"?>
<!-- Generator: Adobe Illustrator 16.0.0, SVG Export Plug-In . SVG Version: 6.00 Build 0)  -->
<!DOCTYPE svg PUBLIC "-//W3C//DTD SVG 1.1//EN" "http://www.w3.org/Graphics/SVG/1.1/DTD/svg11.dtd">
<svg version="1.1" id="Calque_1" xmlns="http://www.w3.org/2000/svg" xmlns:xlink="http://www.w3.org/1999/xlink" x="0px" y="0px"
	 width="99.667px" height="90px" viewBox="0 0 99.667 90" enable-background="new 0 0 99.667 90" xml:space="preserve">
<path fill="#36A9E1" d="M4.593,87.404c1.674,0,3.098-1.264,3.605-2.633h65.821c0.656,0,1.189-0.482,1.189-1.14
	c0-0.319-0.127-0.668-0.334-0.881L51.421,42.186l3.939-6.817l26.59,46.104c-0.611,0.676-0.984,1.571-0.984,2.553
	c0,2.098,1.707,3.807,3.805,3.807c2.1,0,3.807-1.707,3.807-3.805s-1.707-3.805-3.807-3.805c-0.268,0-0.527,0.026-0.779,0.082
	l-27.27-47.282l3.963-6.862l31.934,55.31c-0.613,0.676-0.988,1.572-0.988,2.555c0,2.099,1.707,3.806,3.805,3.806
	s3.805-1.707,3.805-3.806c0-2.098-1.707-3.805-3.805-3.805c-0.266,0-0.523,0.027-0.773,0.08L61.775,23.343
	c-0.229-0.397-0.652-0.609-1.082-0.587c-0.434-0.029-0.865,0.185-1.098,0.586L36.004,63.85h-7.871l26.474-45.735
	c0.264,0.058,0.535,0.172,0.816,0.172c2.098,0,3.805-1.666,3.805-3.764s-1.707-3.784-3.805-3.784s-3.805,1.717-3.805,3.814
	c0,0.967,0.363,1.691,0.959,2.363L25.417,63.85H17.41L49.241,8.881c0.258,0.055,0.525,0.167,0.799,0.167
	c2.098,0,3.805-1.666,3.805-3.764c0-2.098-1.707-3.784-3.805-3.784s-3.805,1.717-3.805,3.815c0,0.973,0.368,1.866,0.971,2.54
	L14.336,64.79c-0.325,0.563-0.132,1.284,0.431,1.608c0.185,0.106,0.387,0.158,0.586,0.158c0.048,0,47.389,0,47.389,0l3.842,6.565
	l-53.045,0.065c-0.5-1.518-1.931-2.596-3.614-2.596c-2.098,0-3.805,1.717-3.805,3.814c0,2.097,1.707,3.811,3.805,3.811
	c1.694,0,3.132-1.111,3.624-2.645l54.395-0.051l4.006,6.901H8.215c-0.492-1.563-1.93-2.606-3.622-2.606
	c-2.098,0-3.805,1.723-3.805,3.819S2.495,87.404,4.593,87.404z M83.146,83.549c0.205-0.703,0.855-1.217,1.625-1.217
	c0.146,0,0.285,0.018,0.42,0.053c0.732,0.188,1.273,0.852,1.273,1.641c0,0.937-0.758,1.693-1.693,1.693s-1.691-0.758-1.691-1.693
	C83.08,83.859,83.101,83.701,83.146,83.549z M93.812,83.539c0.209-0.697,0.855-1.207,1.621-1.207c0.15,0,0.295,0.02,0.434,0.057
	c0.725,0.189,1.262,0.853,1.262,1.637c0,0.937-0.758,1.693-1.693,1.693s-1.693-0.758-1.693-1.693
	C93.742,83.855,93.765,83.693,93.812,83.539z M55.423,12.869c0.936,0,1.693,0.758,1.693,1.693c0,0.807-0.564,1.481-1.32,1.651
	c-0.119,0.027-0.244,0.042-0.373,0.042c-0.787,0-1.449-0.537-1.639-1.265c-0.035-0.138-0.055-0.28-0.055-0.429
	C53.73,13.627,54.488,12.869,55.423,12.869z M50.04,3.632c0.934,0,1.692,0.758,1.692,1.693c0,0.798-0.553,1.467-1.294,1.646
	c-0.127,0.031-0.26,0.048-0.397,0.048c-0.778,0-1.433-0.525-1.631-1.24c-0.04-0.145-0.062-0.296-0.062-0.453
	C48.347,4.39,49.105,3.632,50.04,3.632z M38.747,63.85l11.309-19.586L61.363,63.85H38.747z M11.158,75.578
	c-0.309,0.328-0.747,0.535-1.233,0.535c-0.935,0-1.693-0.76-1.693-1.693c0-0.936,0.758-1.695,1.693-1.695
	c0.473,0,0.899,0.195,1.207,0.508c0.301,0.306,0.486,0.726,0.486,1.188C11.617,74.867,11.442,75.275,11.158,75.578z M4.593,81.963
	c0.485,0,0.922,0.205,1.23,0.531c0.287,0.303,0.463,0.711,0.463,1.162c0,0.475-0.196,0.904-0.512,1.213
	c-0.305,0.297-0.722,0.48-1.181,0.48c-0.936,0-1.693-0.759-1.693-1.693C2.9,82.721,3.658,81.963,4.593,81.963z"/>
</svg>
