<?xml version="1.0" encoding="utf-8"?>
<!-- Generator: Adobe Illustrator 16.0.0, SVG Export Plug-In . SVG Version: 6.00 Build 0)  -->
<!DOCTYPE svg PUBLIC "-//W3C//DTD SVG 1.1//EN" "http://www.w3.org/Graphics/SVG/1.1/DTD/svg11.dtd">
<svg version="1.1" id="Calque_1" xmlns="http://www.w3.org/2000/svg" xmlns:xlink="http://www.w3.org/1999/xlink" x="0px" y="0px"
	 width="80px" height="70px" viewBox="10 15 80 70" enable-background="new 10 15 80 70" xml:space="preserve">
<g>
	<path fill="#2EABE2" d="M85.995,78.178c-0.21,0-0.415,0.021-0.614,0.064L59.32,33.102c-0.182-0.315-0.519-0.483-0.858-0.465
		c-0.345-0.022-0.687,0.146-0.869,0.465l-7.556,13.084L50.03,46.03L38.896,65.168h-6.237L53.638,28.94
		c0.21,0.045,0.428,0.145,0.647,0.145c1.663,0,3.017-1.314,3.017-2.978c0-1.663-1.354-2.999-3.017-2.999
		c-1.661,0-3.014,1.362-3.014,3.025c0,0.767,0.288,1.323,0.76,1.856L30.508,65.168h-6.345l25.225-43.544
		c0.204,0.045,0.416,0.141,0.636,0.141c1.663,0,3.015-1.315,3.015-2.976c0-1.666-1.353-2.998-3.015-2.998
		c-1.665,0-3.015,1.359-3.015,3.024c0,0.771,0.292,1.479,0.77,2.014l-26.05,45.118c-0.257,0.447-0.104,1.018,0.341,1.277
		c0.147,0.086,0.308,0.123,0.464,0.123c0.039,0,0.076,0.146,0.112,0.143c0.022,0.002,0.05,0.15,0.075,0.15h8.234
		c0.026,0,0.052,0.006,0.08,0.006s0.052-0.006,0.078-0.006h6.7h1.544c0.025,0,0.051,0.006,0.08,0.006
		c0.027,0,0.054-0.006,0.081-0.006H60.09l3.043,5.123l-42.037-0.051c-0.395-1.203-1.529-2.111-2.863-2.111
		c-1.664,0-3.018,1.334-3.018,2.998c0,1.662,1.355,3.006,3.018,3.006c1.341,0,2.481-0.887,2.869-2.102l43.109-0.416l3.174,5.096
		h-50.51c-0.391-0.824-1.529-1.695-2.871-1.695c-1.662,0-3.014,1.553-3.014,3.213c0,1.662,1.354,3.012,3.014,3.012
		c1.328,0,2.456-1.232,2.858-2.057h52.161c0.521,0,0.941-0.32,0.941-0.84c0-0.256-0.101-0.287-0.262-0.455l-7.461-12.721h0.013
		l-0.69-1.346c-0.044-0.152-0.121-0.363-0.232-0.475L51.113,48.087l3.125-5.429l21.073,36.523c-0.485,0.533-0.781,1.238-0.781,2.014
		c0,1.666,1.353,3.014,3.016,3.014s3.014-1.355,3.014-3.016c0-1.664-1.353-3.014-3.014-3.014c-0.211,0-0.421,0.02-0.62,0.062
		L55.316,40.775l3.139-5.439l25.308,43.832c-0.487,0.535-0.784,1.246-0.784,2.025c0,1.662,1.354,3.016,3.017,3.016
		s3.015-1.355,3.015-3.016C89.01,79.529,87.657,78.178,85.995,78.178z M52.944,26.145c0-0.742,0.601-1.342,1.341-1.342
		s1.343,0.601,1.343,1.342c0,0.639-0.448,1.174-1.048,1.309c-0.094,0.021-0.192,0.033-0.295,0.033c-0.623,0-1.148-0.427-1.296-1.002
		C52.959,26.375,52.944,26.261,52.944,26.145z M48.68,18.825c0-0.742,0.599-1.343,1.341-1.343c0.74,0,1.341,0.601,1.341,1.343
		c0,0.633-0.438,1.16-1.027,1.304c-0.102,0.023-0.206,0.036-0.314,0.036c-0.617,0-1.137-0.416-1.295-0.982
		C48.695,19.069,48.68,18.947,48.68,18.825z M18.23,74.922c-0.742,0-1.343-0.602-1.343-1.342c0-0.742,0.601-1.342,1.343-1.342
		c0.373,0,0.711,0.154,0.956,0.398c0.238,0.242,0.386,0.576,0.386,0.943c0,0.355-0.141,0.678-0.366,0.916
		C18.96,74.758,18.613,74.922,18.23,74.922z M41.07,65.168l8.961-15.522l8.962,15.522H41.07z M14.003,82.24
		c-0.74,0-1.341-0.6-1.341-1.342c0-0.74,0.601-1.342,1.341-1.342c0.385,0,0.731,0.162,0.978,0.422
		c0.226,0.24,0.366,0.566,0.366,0.92c0,0.377-0.155,0.717-0.406,0.961C14.698,82.098,14.369,82.24,14.003,82.24z M77.544,79.85
		c0.116,0,0.226,0.018,0.332,0.043c0.581,0.148,1.011,0.674,1.011,1.301c0,0.74-0.601,1.34-1.343,1.34c-0.74,0-1.341-0.6-1.341-1.34
		c0-0.131,0.018-0.258,0.051-0.379C76.42,80.258,76.935,79.85,77.544,79.85z M85.995,82.533c-0.742,0-1.344-0.6-1.344-1.34
		c0-0.137,0.02-0.264,0.058-0.387c0.164-0.553,0.677-0.957,1.286-0.957c0.116,0,0.232,0.018,0.341,0.047
		c0.576,0.148,1.001,0.674,1.001,1.297C87.337,81.934,86.735,82.533,85.995,82.533z"/>
</g>
</svg>
