<?xml version="1.0" encoding="utf-8"?>
<!-- Generator: Adobe Illustrator 16.0.0, SVG Export Plug-In . SVG Version: 6.00 Build 0)  -->
<!DOCTYPE svg PUBLIC "-//W3C//DTD SVG 1.1//EN" "http://www.w3.org/Graphics/SVG/1.1/DTD/svg11.dtd">
<svg version="1.1" id="Calque_1" xmlns="http://www.w3.org/2000/svg" xmlns:xlink="http://www.w3.org/1999/xlink" x="0px" y="0px"
	 width="134.648px" height="39.58px" viewBox="-17 47.542 134.648 39.58" enable-background="new -17 47.542 134.648 39.58"
	 xml:space="preserve">
<g>
	<g>
		<rect x="-17" y="47.542" fill="#164193" width="59.061" height="39.374"/>
	</g>
	<g>
		<polygon fill="#FFEC00" points="12.492,51.924 12.98,53.442 14.572,53.436 13.278,54.368 13.775,55.879 12.492,54.938 
			11.206,55.882 11.706,54.368 10.411,53.436 12.006,53.442 		"/>
		<polygon fill="#FFEC00" points="12.492,78.188 12.98,79.705 14.572,79.697 13.278,80.631 13.775,82.143 12.492,81.201 
			11.206,82.143 11.706,80.631 10.411,79.697 12.006,79.705 		"/>
		<polygon fill="#FFEC00" points="5.961,53.67 6.447,55.188 8.041,55.182 6.747,56.112 7.244,57.628 5.961,56.685 4.677,57.63 
			5.174,56.112 3.88,55.182 5.475,55.188 		"/>
		<polygon fill="#FFEC00" points="1.15,58.488 1.637,60.007 3.234,60 1.938,60.933 2.438,62.444 1.15,61.503 -0.133,62.446 
			0.365,60.933 -0.93,60 0.666,60.007 		"/>
		<polygon fill="#FFEC00" points="-0.621,65.038 -0.137,66.559 1.459,66.552 0.162,67.479 0.663,68.996 -0.621,68.055 
			-1.907,68.996 -1.41,67.481 -2.703,66.552 -1.109,66.559 		"/>
		<polygon fill="#FFEC00" points="1.132,71.589 1.617,73.109 3.213,73.104 1.922,74.033 2.418,75.549 1.132,74.605 -0.154,75.549 
			0.348,74.033 -0.947,73.104 0.646,73.109 		"/>
		<polygon fill="#FFEC00" points="5.961,76.408 6.447,77.926 8.041,77.919 6.747,78.85 7.244,80.365 5.961,79.422 4.677,80.365 
			5.174,78.85 3.88,77.919 5.475,77.926 		"/>
		<polygon fill="#FFEC00" points="19.03,53.67 18.545,55.188 16.95,55.182 18.244,56.112 17.743,57.628 19.03,56.685 20.316,57.63 
			19.817,56.112 21.11,55.182 19.518,55.188 		"/>
		<polygon fill="#FFEC00" points="23.841,58.488 23.355,60.007 21.76,60 23.053,60.933 22.557,62.444 23.841,61.503 25.127,62.446 
			24.627,60.933 25.92,60 24.324,60.007 		"/>
		<polygon fill="#FFEC00" points="25.613,65.038 25.129,66.559 23.531,66.552 24.826,67.479 24.328,68.996 25.613,68.055 
			26.898,68.996 26.4,67.481 27.694,66.552 26.098,66.559 		"/>
		<polygon fill="#FFEC00" points="23.857,71.589 23.371,73.109 21.778,73.104 23.07,74.033 22.575,75.549 23.857,74.605 
			25.145,75.549 24.645,74.033 25.938,73.104 24.346,73.109 		"/>
		<polygon fill="#FFEC00" points="19.03,76.408 18.545,77.926 16.95,77.919 18.244,78.85 17.743,80.365 19.03,79.422 20.316,80.365 
			19.817,78.85 21.11,77.919 19.518,77.926 		"/>
	</g>
	<g>
		<path fill="#164193" d="M55.437,69.203h-8.571V56.195h8.571v1.538h-6.84v3.562h6.84v1.538h-6.84v4.832h6.84V69.203z"/>
		<path fill="#164193" d="M63.464,61.234h-0.088c-0.244-0.056-0.482-0.101-0.711-0.127c-0.232-0.027-0.5-0.038-0.816-0.038
			c-0.508,0-0.998,0.111-1.469,0.335c-0.473,0.227-0.926,0.515-1.363,0.87v6.929h-1.643v-9.76h1.643v1.442
			c0.652-0.525,1.229-0.896,1.725-1.113c0.5-0.22,1.008-0.329,1.527-0.329c0.285,0,0.492,0.009,0.619,0.022
			c0.129,0.014,0.32,0.042,0.576,0.083V61.234z"/>
		<path fill="#164193" d="M72.123,69.203h-1.637v-1.039c-0.145,0.101-0.34,0.236-0.588,0.416c-0.248,0.176-0.488,0.317-0.721,0.422
			c-0.275,0.135-0.59,0.246-0.943,0.338c-0.357,0.09-0.773,0.134-1.248,0.134c-0.881,0-1.627-0.29-2.238-0.874
			c-0.611-0.581-0.918-1.323-0.918-2.227c0-0.74,0.16-1.338,0.477-1.796s0.77-0.815,1.357-1.08c0.598-0.262,1.309-0.44,2.141-0.532
			c0.832-0.094,1.727-0.163,2.682-0.21v-0.253c0-0.373-0.064-0.682-0.195-0.926c-0.131-0.245-0.318-0.438-0.564-0.576
			c-0.232-0.135-0.514-0.224-0.838-0.271c-0.326-0.047-0.668-0.071-1.021-0.071c-0.432,0-0.912,0.058-1.443,0.17
			c-0.529,0.113-1.076,0.279-1.641,0.494h-0.088v-1.668c0.32-0.088,0.783-0.184,1.389-0.289c0.607-0.105,1.201-0.156,1.791-0.156
			c0.688,0,1.285,0.056,1.797,0.17c0.508,0.113,0.951,0.307,1.322,0.579c0.367,0.271,0.648,0.617,0.84,1.042s0.289,0.95,0.289,1.58
			V69.203z M70.486,66.8v-2.717c-0.498,0.031-1.088,0.074-1.77,0.132c-0.676,0.057-1.215,0.141-1.609,0.253
			c-0.475,0.134-0.854,0.342-1.146,0.626c-0.289,0.281-0.434,0.671-0.434,1.165c0,0.559,0.166,0.979,0.506,1.263
			c0.336,0.282,0.852,0.426,1.545,0.426c0.576,0,1.104-0.114,1.582-0.338C69.636,67.386,70.08,67.115,70.486,66.8z"/>
		<path fill="#164193" d="M81.634,66.391c0,0.89-0.369,1.623-1.107,2.191c-0.734,0.572-1.742,0.858-3.018,0.858
			c-0.723,0-1.383-0.087-1.988-0.259c-0.602-0.17-1.109-0.358-1.516-0.564v-1.842h0.088c0.518,0.389,1.098,0.699,1.73,0.93
			c0.635,0.23,1.244,0.345,1.826,0.345c0.723,0,1.287-0.116,1.695-0.349c0.406-0.232,0.611-0.602,0.611-1.101
			c0-0.384-0.111-0.677-0.332-0.874c-0.223-0.199-0.646-0.367-1.275-0.508c-0.234-0.054-0.539-0.113-0.912-0.184
			c-0.377-0.068-0.719-0.145-1.027-0.228c-0.857-0.226-1.463-0.562-1.822-0.999c-0.359-0.441-0.539-0.982-0.539-1.621
			c0-0.402,0.084-0.781,0.25-1.137c0.166-0.353,0.418-0.673,0.756-0.952c0.326-0.272,0.742-0.489,1.246-0.65
			c0.504-0.159,1.066-0.239,1.691-0.239c0.582,0,1.17,0.071,1.766,0.212c0.6,0.144,1.096,0.317,1.494,0.521v1.757H81.16
			c-0.416-0.311-0.926-0.57-1.527-0.782c-0.6-0.212-1.189-0.319-1.762-0.319c-0.602,0-1.109,0.116-1.523,0.344
			c-0.412,0.23-0.621,0.572-0.621,1.026c0,0.402,0.127,0.707,0.379,0.91c0.242,0.204,0.639,0.369,1.186,0.499
			c0.303,0.066,0.643,0.139,1.02,0.207c0.375,0.072,0.688,0.135,0.939,0.193c0.764,0.174,1.35,0.474,1.764,0.9
			C81.427,65.109,81.634,65.68,81.634,66.391z"/>
		<path fill="#164193" d="M97.619,69.203h-1.643v-5.556c0-0.421-0.018-0.825-0.057-1.217c-0.037-0.389-0.115-0.7-0.238-0.935
			c-0.135-0.25-0.328-0.438-0.576-0.568c-0.254-0.127-0.613-0.189-1.084-0.189c-0.461,0-0.924,0.111-1.381,0.342
			c-0.461,0.23-0.92,0.525-1.381,0.879c0.018,0.137,0.033,0.291,0.045,0.47c0.01,0.177,0.018,0.353,0.018,0.527v6.247h-1.645v-5.556
			c0-0.432-0.018-0.841-0.057-1.229c-0.037-0.388-0.117-0.696-0.24-0.931c-0.133-0.248-0.328-0.438-0.576-0.563
			c-0.252-0.123-0.611-0.186-1.084-0.186c-0.447,0-0.898,0.109-1.35,0.331c-0.453,0.222-0.902,0.503-1.35,0.847v7.287h-1.645v-9.76
			h1.645v1.085c0.514-0.425,1.023-0.759,1.533-0.997c0.51-0.237,1.053-0.358,1.631-0.358c0.664,0,1.227,0.142,1.689,0.421
			c0.463,0.277,0.807,0.666,1.035,1.16c0.664-0.559,1.27-0.961,1.816-1.21c0.549-0.245,1.133-0.371,1.758-0.371
			c1.07,0,1.861,0.324,2.371,0.976c0.51,0.648,0.764,1.556,0.764,2.719V69.203z"/>
		<path fill="#164193" d="M108.056,69.203h-1.643v-1.084c-0.555,0.436-1.086,0.773-1.59,1.006c-0.508,0.232-1.066,0.349-1.678,0.349
			c-1.027,0-1.822-0.312-2.395-0.938c-0.57-0.626-0.855-1.545-0.855-2.757v-6.335h1.641v5.559c0,0.494,0.025,0.917,0.07,1.271
			c0.047,0.351,0.146,0.655,0.299,0.903c0.156,0.257,0.359,0.444,0.611,0.559c0.248,0.116,0.615,0.177,1.092,0.177
			c0.426,0,0.889-0.112,1.393-0.333c0.504-0.222,0.977-0.504,1.412-0.848v-7.287h1.643V69.203z"/>
		<path fill="#164193" d="M117.648,66.391c0,0.89-0.369,1.623-1.105,2.191c-0.738,0.572-1.742,0.858-3.018,0.858
			c-0.725,0-1.389-0.087-1.99-0.259c-0.602-0.17-1.107-0.358-1.516-0.564v-1.842h0.088c0.52,0.389,1.094,0.699,1.729,0.93
			c0.639,0.23,1.244,0.345,1.83,0.345c0.719,0,1.285-0.116,1.691-0.349c0.408-0.232,0.613-0.602,0.613-1.101
			c0-0.384-0.111-0.677-0.33-0.874c-0.223-0.199-0.648-0.367-1.277-0.508c-0.234-0.054-0.537-0.113-0.912-0.184
			c-0.379-0.068-0.721-0.145-1.027-0.228c-0.857-0.226-1.465-0.562-1.822-0.999c-0.359-0.441-0.537-0.982-0.537-1.621
			c0-0.402,0.082-0.781,0.25-1.137c0.164-0.353,0.416-0.673,0.754-0.952c0.326-0.272,0.742-0.489,1.246-0.65
			c0.502-0.159,1.066-0.239,1.689-0.239c0.584,0,1.174,0.071,1.77,0.212c0.598,0.144,1.094,0.317,1.492,0.521v1.757h-0.09
			c-0.42-0.311-0.932-0.57-1.527-0.782c-0.602-0.212-1.189-0.319-1.766-0.319c-0.602,0-1.107,0.116-1.521,0.344
			c-0.414,0.23-0.619,0.572-0.619,1.026c0,0.402,0.125,0.707,0.373,0.91c0.246,0.204,0.645,0.369,1.189,0.499
			c0.305,0.066,0.643,0.139,1.018,0.207c0.377,0.072,0.688,0.135,0.939,0.193c0.766,0.174,1.354,0.474,1.766,0.9
			C117.441,65.109,117.648,65.68,117.648,66.391z"/>
		<path fill="#164193" d="M58.453,86.854H56.72V75.643l-3.615,7.627h-1.031l-3.591-7.627v11.211h-1.616V73.843h2.359l3.469,7.245
			l3.354-7.245h2.404V86.854z"/>
		<path fill="#164193" d="M69.132,86.854H67.49V85.77c-0.553,0.436-1.082,0.771-1.59,1.004c-0.506,0.232-1.066,0.349-1.676,0.349
			c-1.027,0-1.824-0.311-2.396-0.938c-0.57-0.627-0.855-1.545-0.855-2.755v-6.335h1.643v5.557c0,0.494,0.023,0.919,0.07,1.272
			c0.045,0.351,0.146,0.652,0.297,0.903c0.156,0.255,0.363,0.442,0.611,0.559c0.25,0.116,0.615,0.175,1.092,0.175
			c0.426,0,0.889-0.11,1.395-0.333c0.504-0.22,0.975-0.504,1.41-0.846v-7.287h1.643V86.854z"/>
		<path fill="#164193" d="M79.693,86.854h-1.645v-5.559c0-0.447-0.025-0.869-0.076-1.261c-0.055-0.394-0.148-0.702-0.291-0.923
			c-0.145-0.244-0.355-0.428-0.629-0.546s-0.629-0.179-1.066-0.179c-0.447,0-0.918,0.109-1.406,0.33
			c-0.49,0.222-0.959,0.504-1.406,0.851v7.286h-1.643v-9.76h1.643v1.082c0.512-0.424,1.043-0.758,1.59-0.994
			c0.547-0.239,1.109-0.36,1.688-0.36c1.053,0,1.855,0.317,2.412,0.952c0.553,0.636,0.83,1.55,0.83,2.744V86.854z"/>
		<path fill="#164193" d="M90.095,86.854h-1.641v-1.021c-0.475,0.407-0.965,0.723-1.479,0.95c-0.512,0.229-1.068,0.34-1.668,0.34
			c-1.166,0-2.092-0.447-2.773-1.346c-0.686-0.895-1.027-2.14-1.027-3.729c0-0.827,0.119-1.562,0.354-2.211
			c0.234-0.645,0.557-1.197,0.955-1.65c0.396-0.443,0.861-0.781,1.387-1.014c0.527-0.234,1.072-0.351,1.637-0.351
			c0.512,0,0.969,0.054,1.363,0.163c0.396,0.107,0.814,0.275,1.252,0.501v-4.228h1.641V86.854z M88.455,84.45V78.85
			c-0.445-0.199-0.84-0.336-1.189-0.412s-0.73-0.113-1.146-0.113c-0.92,0-1.637,0.321-2.15,0.961
			c-0.51,0.642-0.768,1.55-0.768,2.729c0,1.158,0.199,2.039,0.596,2.641c0.395,0.604,1.031,0.905,1.904,0.905
			c0.467,0,0.939-0.103,1.414-0.312C87.593,85.041,88.041,84.777,88.455,84.45z"/>
		<path fill="#164193" d="M100.605,86.854h-1.641V85.77c-0.555,0.436-1.086,0.771-1.592,1.004s-1.066,0.349-1.678,0.349
			c-1.023,0-1.824-0.311-2.395-0.938c-0.57-0.627-0.855-1.545-0.855-2.755v-6.335h1.643v5.557c0,0.494,0.023,0.919,0.068,1.272
			c0.047,0.351,0.148,0.652,0.299,0.903c0.156,0.255,0.361,0.442,0.611,0.559c0.252,0.116,0.615,0.175,1.09,0.175
			c0.426,0,0.893-0.11,1.395-0.333c0.506-0.22,0.975-0.504,1.414-0.846v-7.287h1.641V86.854z"/>
		<path fill="#164193" d="M110.197,84.041c0,0.891-0.367,1.621-1.105,2.191c-0.738,0.572-1.742,0.856-3.018,0.856
			c-0.725,0-1.387-0.087-1.988-0.257c-0.604-0.173-1.107-0.36-1.516-0.564v-1.844h0.088c0.516,0.391,1.094,0.699,1.727,0.93
			c0.637,0.23,1.244,0.347,1.828,0.347c0.721,0,1.289-0.118,1.697-0.351c0.404-0.232,0.607-0.6,0.607-1.101
			c0-0.385-0.109-0.678-0.332-0.874c-0.221-0.199-0.645-0.367-1.273-0.508c-0.234-0.051-0.537-0.111-0.912-0.184
			c-0.375-0.068-0.721-0.145-1.027-0.226c-0.857-0.228-1.463-0.562-1.822-1.002c-0.357-0.438-0.539-0.979-0.539-1.62
			c0-0.4,0.084-0.779,0.25-1.135s0.418-0.672,0.758-0.952c0.324-0.274,0.74-0.489,1.244-0.652c0.502-0.159,1.066-0.239,1.689-0.239
			c0.582,0,1.174,0.071,1.77,0.215c0.596,0.143,1.096,0.314,1.49,0.521v1.755h-0.086c-0.422-0.311-0.93-0.57-1.531-0.782
			c-0.6-0.212-1.188-0.319-1.764-0.319c-0.602,0-1.107,0.115-1.52,0.346c-0.414,0.229-0.621,0.572-0.621,1.026
			c0,0.403,0.125,0.704,0.375,0.91c0.246,0.201,0.641,0.369,1.188,0.497c0.305,0.068,0.643,0.141,1.018,0.21
			c0.377,0.069,0.689,0.134,0.939,0.192c0.766,0.174,1.352,0.474,1.766,0.898C109.99,82.758,110.197,83.328,110.197,84.041z"/>
	</g>
</g>
</svg>
