<?xml version="1.0" encoding="utf-8"?>
<!-- Generator: Adobe Illustrator 16.0.0, SVG Export Plug-In . SVG Version: 6.00 Build 0)  -->
<!DOCTYPE svg PUBLIC "-//W3C//DTD SVG 1.1//EN" "http://www.w3.org/Graphics/SVG/1.1/DTD/svg11.dtd">
<svg version="1.1" id="Layer_1" xmlns="http://www.w3.org/2000/svg" xmlns:xlink="http://www.w3.org/1999/xlink" x="0px" y="0px"
	 width="260px" height="100px" viewBox="0 0 260 100" enable-background="new 0 0 260 100" xml:space="preserve">
<g>
	<path fill="#FFFFFF" d="M70.915,86.863v0.898v1.78h-0.777c-0.182,0-0.291-0.092-0.33-0.272c-0.016-0.064-0.039-0.309-0.072-0.729
		c-0.032-0.424-0.051-0.662-0.056-0.722c-2.396-0.76-4.201-0.498-5.415,0.785c-0.782,0.824-1.172,1.929-1.172,3.312
		c0,1.393,0.386,2.503,1.155,3.337c0.729,0.798,1.672,1.196,2.832,1.196c0.669,0,1.175-0.064,1.518-0.192
		c0.524-0.192,0.998-0.476,1.419-0.852c0.092-0.081,0.18-0.119,0.266-0.119c0.085,0,0.164,0.034,0.233,0.104l0.607,0.666
		c-0.994,1.154-2.375,1.731-4.138,1.731c-1.648,0-2.974-0.546-3.979-1.638c-1.001-1.08-1.5-2.49-1.5-4.235
		c0-1.737,0.535-3.151,1.604-4.242c1.069-1.092,2.486-1.639,4.25-1.639C68.271,86.036,69.455,86.312,70.915,86.863z"/>
	<path fill="#FFFFFF" d="M78.281,89.406c0.876,0,1.551,0.279,2.022,0.844c0.465,0.549,0.697,1.295,0.697,2.236v4.003
		c0.514,0.104,0.817,0.165,0.914,0.185c0.16,0.033,0.241,0.131,0.241,0.297v0.689h-2.583v-5.174c0-1.293-0.569-1.939-1.709-1.939
		c-0.791,0-1.523,0.376-2.197,1.13v4.812l0.201,0.04c0.417,0.082,0.654,0.129,0.713,0.145c0.162,0.033,0.241,0.131,0.241,0.297
		v0.689h-3.739v-0.689c0-0.166,0.08-0.264,0.242-0.297l0.915-0.185v-9.474c-0.621-0.102-0.979-0.164-1.076-0.185
		c-0.16-0.031-0.241-0.132-0.241-0.298v-0.689h2.745v4.781C76.432,89.814,77.304,89.406,78.281,89.406z"/>
	<path fill="#FFFFFF" d="M89.197,89.703c0.478,0.199,0.885,0.479,1.218,0.844c0.335,0.363,0.592,0.805,0.771,1.317
		c0.18,0.518,0.27,1.095,0.27,1.729c0,0.644-0.089,1.22-0.27,1.731c-0.179,0.514-0.436,0.953-0.771,1.316
		c-0.333,0.363-0.741,0.645-1.218,0.84c-0.48,0.193-1.016,0.291-1.61,0.291c-0.593,0-1.129-0.098-1.607-0.291
		c-0.479-0.195-0.888-0.477-1.224-0.84c-0.338-0.363-0.596-0.804-0.777-1.316c-0.184-0.512-0.273-1.088-0.273-1.731
		c0-0.635,0.09-1.212,0.273-1.729c0.182-0.515,0.439-0.954,0.777-1.317c0.336-0.365,0.744-0.645,1.224-0.844
		c0.479-0.198,1.015-0.297,1.607-0.297C88.183,89.406,88.718,89.505,89.197,89.703z M89.385,95.854
		c0.396-0.539,0.595-1.287,0.595-2.252c0-0.967-0.197-1.72-0.595-2.263c-0.395-0.54-0.994-0.81-1.797-0.81
		c-0.404,0-0.759,0.07-1.058,0.207c-0.301,0.142-0.55,0.342-0.75,0.603c-0.201,0.265-0.351,0.587-0.451,0.968
		c-0.098,0.383-0.146,0.815-0.146,1.295c0,0.481,0.049,0.912,0.146,1.293c0.101,0.379,0.25,0.697,0.451,0.959
		c0.2,0.258,0.449,0.457,0.75,0.598c0.299,0.139,0.653,0.208,1.058,0.208C88.391,96.658,88.99,96.391,89.385,95.854z"/>
	<path fill="#FFFFFF" d="M99.403,95.527v-4.82c-0.09-0.021-0.392-0.084-0.906-0.186c-0.165-0.032-0.248-0.131-0.248-0.299v-0.688
		h1.154h1.429v6.954c0.52,0.104,0.824,0.165,0.914,0.185c0.167,0.033,0.25,0.131,0.25,0.297v0.689h-2.014
		c-0.204,0-0.332-0.098-0.385-0.297l-0.112-0.874c-0.781,0.866-1.679,1.301-2.695,1.301c-0.867,0-1.544-0.281-2.032-0.843
		c-0.459-0.535-0.688-1.278-0.688-2.23v-4.01c-0.512-0.102-0.819-0.164-0.914-0.186c-0.161-0.032-0.241-0.131-0.241-0.299v-0.688
		h2.583v5.182c0,0.616,0.143,1.092,0.424,1.428c0.284,0.338,0.712,0.508,1.283,0.508C98.016,96.65,98.746,96.277,99.403,95.527z"/>
	<path fill="#FFFFFF" d="M108.747,89.65c0.413,0.164,0.769,0.397,1.067,0.705c0.299,0.31,0.533,0.688,0.702,1.141
		c0.169,0.452,0.254,0.967,0.254,1.544c0,0.226-0.024,0.375-0.072,0.451c-0.049,0.073-0.141,0.11-0.274,0.11h-5.406
		c0.01,0.514,0.08,0.959,0.21,1.34c0.127,0.381,0.303,0.695,0.528,0.951c0.226,0.252,0.491,0.442,0.803,0.569
		c0.31,0.126,0.656,0.188,1.042,0.188c0.357,0,0.667-0.041,0.927-0.125c0.259-0.084,0.481-0.172,0.669-0.27
		c0.188-0.097,0.344-0.186,0.469-0.27c0.126-0.082,0.234-0.125,0.326-0.125c0.117,0,0.208,0.047,0.273,0.137l0.4,0.521
		c-0.176,0.215-0.388,0.399-0.634,0.559c-0.247,0.158-0.51,0.288-0.791,0.39c-0.281,0.101-0.572,0.177-0.872,0.228
		c-0.298,0.052-0.596,0.076-0.888,0.076c-0.562,0-1.079-0.096-1.555-0.285c-0.473-0.188-0.882-0.469-1.227-0.832
		c-0.345-0.365-0.615-0.82-0.808-1.361c-0.191-0.538-0.289-1.158-0.289-1.859c0-0.567,0.087-1.097,0.261-1.59
		c0.174-0.49,0.424-0.919,0.751-1.277c0.325-0.36,0.724-0.646,1.194-0.851c0.471-0.207,1-0.311,1.589-0.311
		C107.888,89.406,108.336,89.489,108.747,89.65z M105.804,91.055c-0.396,0.398-0.642,0.951-0.739,1.656h4.42
		c0-0.331-0.044-0.635-0.135-0.91c-0.094-0.275-0.225-0.513-0.402-0.714c-0.176-0.2-0.392-0.354-0.646-0.465
		c-0.254-0.111-0.542-0.165-0.869-0.164C106.741,90.458,106.199,90.656,105.804,91.055z"/>
	<path fill="#FFFFFF" d="M114.18,97.254c-0.345-0.359-0.518-0.876-0.518-1.55V90.73h-0.979c-0.086,0-0.158-0.025-0.217-0.078
		c-0.06-0.049-0.09-0.129-0.09-0.234v-0.57l1.333-0.168l0.328-2.512c0.011-0.079,0.046-0.146,0.105-0.195
		c0.059-0.051,0.133-0.076,0.224-0.076h0.722v2.799h2.326v1.035h-2.326v4.877c0,0.345,0.082,0.599,0.248,0.763
		c0.167,0.167,0.38,0.249,0.644,0.249c0.15,0,0.281-0.02,0.389-0.061c0.109-0.041,0.204-0.084,0.285-0.132
		c0.08-0.049,0.149-0.093,0.204-0.134c0.057-0.04,0.106-0.061,0.149-0.061c0.074,0,0.143,0.047,0.199,0.137l0.419,0.683
		c-0.247,0.23-0.544,0.41-0.892,0.541c-0.348,0.132-0.705,0.197-1.075,0.197C115.019,97.79,114.523,97.609,114.18,97.254z"/>
	<path fill="#FFFFFF" d="M121.203,97.254c-0.344-0.359-0.517-0.876-0.517-1.55V90.73h-0.979c-0.086,0-0.158-0.025-0.217-0.078
		c-0.058-0.049-0.087-0.129-0.087-0.234v-0.57l1.332-0.168l0.328-2.512c0.011-0.079,0.045-0.146,0.104-0.195
		c0.06-0.051,0.136-0.076,0.227-0.076h0.721v2.799h2.326v1.035h-2.326v4.877c0,0.345,0.083,0.599,0.25,0.763
		c0.166,0.167,0.379,0.249,0.641,0.249c0.15,0,0.28-0.02,0.39-0.061s0.206-0.084,0.286-0.132c0.08-0.049,0.147-0.093,0.205-0.134
		c0.055-0.04,0.105-0.061,0.146-0.061c0.075,0,0.142,0.047,0.2,0.137l0.418,0.683c-0.247,0.23-0.543,0.41-0.89,0.541
		c-0.349,0.132-0.707,0.197-1.075,0.197C122.042,97.79,121.548,97.609,121.203,97.254z"/>
	<path fill="#FFFFFF" d="M131.281,89.65c0.412,0.164,0.767,0.397,1.066,0.705c0.299,0.31,0.532,0.688,0.701,1.141
		c0.168,0.452,0.254,0.967,0.254,1.544c0,0.226-0.024,0.375-0.071,0.451c-0.049,0.073-0.141,0.11-0.272,0.11h-5.406
		c0.01,0.514,0.078,0.959,0.207,1.34c0.128,0.381,0.305,0.695,0.528,0.951c0.227,0.252,0.493,0.442,0.803,0.569
		c0.312,0.126,0.658,0.188,1.042,0.188c0.358,0,0.667-0.041,0.926-0.125c0.262-0.084,0.481-0.172,0.67-0.27
		c0.188-0.097,0.344-0.186,0.471-0.27c0.125-0.082,0.232-0.125,0.324-0.125c0.117,0,0.209,0.047,0.272,0.137l0.4,0.521
		c-0.177,0.215-0.388,0.399-0.633,0.559c-0.247,0.158-0.511,0.288-0.791,0.39c-0.28,0.101-0.572,0.177-0.871,0.228
		c-0.298,0.052-0.596,0.076-0.889,0.076c-0.562,0-1.08-0.096-1.554-0.285c-0.474-0.188-0.882-0.469-1.227-0.832
		c-0.346-0.365-0.614-0.82-0.809-1.361c-0.191-0.538-0.287-1.158-0.287-1.859c0-0.567,0.086-1.097,0.261-1.59
		c0.173-0.49,0.424-0.919,0.75-1.277c0.325-0.36,0.723-0.646,1.194-0.851c0.471-0.207,1-0.311,1.589-0.311
		C130.42,89.406,130.87,89.489,131.281,89.65z M128.337,91.055c-0.395,0.398-0.641,0.951-0.736,1.656h4.42
		c0-0.331-0.046-0.635-0.138-0.91c-0.091-0.275-0.225-0.513-0.401-0.714c-0.175-0.2-0.394-0.354-0.646-0.465
		c-0.254-0.11-0.543-0.165-0.87-0.164C129.276,90.458,128.733,90.656,128.337,91.055z"/>
	<path fill="#FFFFFF" d="M143.647,97.773c-1.043,0-1.894-0.366-2.551-1.101c-0.69-0.759-1.034-1.784-1.034-3.08
		c0-1.245,0.328-2.248,0.985-3.009c0.689-0.785,1.637-1.179,2.839-1.179c0.622,0,1.423,0.198,2.407,0.595v2.109h-0.644
		c-0.155,0-0.244-0.075-0.271-0.227c-0.016-0.059-0.036-0.259-0.062-0.601c-0.029-0.345-0.041-0.522-0.041-0.539
		c-0.257-0.079-0.456-0.13-0.594-0.151c-0.311-0.047-0.612-0.068-0.903-0.064c-0.29,0.008-0.584,0.076-0.879,0.214
		c-0.293,0.137-0.545,0.339-0.754,0.604c-0.41,0.54-0.617,1.289-0.617,2.246c0,0.969,0.214,1.729,0.643,2.278
		c0.417,0.53,0.991,0.794,1.726,0.794c0.667,0,1.265-0.225,1.79-0.673c0.095-0.085,0.196-0.13,0.308-0.13
		c0.11,0,0.194,0.047,0.253,0.137l0.4,0.521C145.968,97.355,144.971,97.773,143.647,97.773z"/>
	<path fill="#FFFFFF" d="M154.835,95.527v-4.82c-0.092-0.021-0.396-0.084-0.905-0.186c-0.166-0.032-0.248-0.131-0.248-0.299v-0.688
		h1.153h1.429v6.954c0.519,0.104,0.821,0.165,0.914,0.185c0.165,0.033,0.248,0.131,0.248,0.297v0.689h-2.014
		c-0.203,0-0.331-0.098-0.387-0.297l-0.111-0.874c-0.78,0.866-1.68,1.301-2.693,1.301c-0.867,0-1.544-0.281-2.029-0.843
		c-0.461-0.535-0.69-1.278-0.69-2.23v-4.01c-0.515-0.102-0.817-0.164-0.915-0.186c-0.161-0.032-0.24-0.131-0.24-0.299v-0.688h2.584
		v5.182c0,0.616,0.143,1.092,0.424,1.428c0.285,0.338,0.711,0.508,1.285,0.508C153.443,96.65,154.178,96.277,154.835,95.527z"/>
	<path fill="#FFFFFF" d="M163.246,96.969v0.691h-3.743v-0.691c0-0.143,0.104-0.268,0.244-0.296c0.142-0.028,0.912-0.182,0.912-0.182
		v-5.784c0,0-0.771-0.155-0.912-0.184c-0.14-0.027-0.244-0.155-0.244-0.297v-0.691h2.587v6.956c0,0,0.771,0.151,0.911,0.182
		C163.143,96.701,163.246,96.826,163.246,96.969z M160.451,87.373c-0.053-0.12-0.079-0.25-0.079-0.389
		c0-0.14,0.026-0.271,0.079-0.397c0.055-0.126,0.128-0.235,0.221-0.329c0.096-0.094,0.202-0.167,0.322-0.222
		c0.119-0.052,0.25-0.079,0.39-0.079c0.138,0,0.271,0.027,0.394,0.079c0.121,0.055,0.229,0.128,0.322,0.222
		c0.096,0.094,0.168,0.203,0.226,0.329c0.057,0.126,0.085,0.259,0.085,0.397s-0.028,0.269-0.085,0.389
		c-0.058,0.12-0.13,0.229-0.226,0.32c-0.093,0.096-0.201,0.168-0.322,0.221c-0.123,0.054-0.256,0.082-0.394,0.082
		c-0.14,0-0.271-0.028-0.39-0.082c-0.12-0.053-0.229-0.125-0.322-0.221C160.579,87.602,160.506,87.493,160.451,87.373z"/>
	<path fill="#FFFFFF" d="M170.525,89.832V90.4v1.517h-0.635c-0.154,0-0.244-0.074-0.272-0.224c-0.005-0.021-0.035-0.373-0.095-1.051
		c-0.487-0.115-0.904-0.168-1.252-0.168h-0.018c-0.454,0.004-0.822,0.118-1.105,0.344c-0.285,0.22-0.426,0.466-0.426,0.738
		s0.062,0.479,0.185,0.616c0.214,0.252,0.521,0.438,0.923,0.562c0.4,0.123,0.732,0.229,0.998,0.316
		c0.268,0.088,0.523,0.186,0.773,0.294c0.254,0.106,0.478,0.239,0.674,0.399c0.439,0.357,0.658,0.833,0.658,1.428
		c0,0.777-0.266,1.396-0.793,1.862c-0.553,0.491-1.266,0.739-2.144,0.745c-0.877,0.007-1.751-0.141-2.622-0.441v-2.125h0.566
		c0.137,0,0.217,0.066,0.242,0.201c0.012,0.047,0.043,0.391,0.098,1.025c0.459,0.215,1.011,0.319,1.652,0.319
		c0.528,0,0.945-0.135,1.25-0.399c0.272-0.24,0.41-0.512,0.41-0.819c0-0.304-0.061-0.529-0.183-0.677
		c-0.118-0.146-0.277-0.272-0.476-0.377c-0.199-0.104-0.427-0.192-0.684-0.27c-0.706-0.22-1.204-0.392-1.495-0.518
		c-0.292-0.124-0.536-0.271-0.733-0.438c-0.439-0.369-0.659-0.869-0.659-1.501c0-0.657,0.252-1.206,0.755-1.645
		c0.535-0.476,1.298-0.714,2.288-0.714C168.969,89.406,169.675,89.548,170.525,89.832z"/>
	<path fill="#FFFFFF" d="M176.505,96.969v0.691h-3.743v-0.691c0-0.143,0.104-0.268,0.244-0.296s0.915-0.182,0.915-0.182v-5.784
		c0,0-0.774-0.155-0.915-0.184c-0.141-0.027-0.244-0.155-0.244-0.297v-0.691h2.586v6.956c0,0,0.771,0.151,0.912,0.182
		C176.402,96.701,176.505,96.826,176.505,96.969z M173.71,87.373c-0.053-0.12-0.078-0.25-0.078-0.389
		c0-0.14,0.025-0.271,0.078-0.397c0.056-0.126,0.128-0.235,0.222-0.329s0.201-0.167,0.321-0.222c0.118-0.052,0.25-0.079,0.388-0.079
		c0.142,0,0.271,0.027,0.394,0.079c0.124,0.055,0.233,0.128,0.325,0.222c0.094,0.094,0.17,0.203,0.226,0.329
		c0.058,0.126,0.085,0.259,0.085,0.397s-0.027,0.269-0.085,0.389c-0.056,0.12-0.132,0.229-0.226,0.32
		c-0.092,0.096-0.201,0.168-0.325,0.221c-0.121,0.054-0.252,0.082-0.394,0.082c-0.138,0-0.27-0.028-0.388-0.082
		c-0.12-0.053-0.228-0.125-0.321-0.221C173.838,87.602,173.766,87.493,173.71,87.373z"/>
	<path fill="#FFFFFF" d="M183.762,89.406c0.877,0,1.555,0.283,2.028,0.851c0.461,0.545,0.692,1.288,0.692,2.229v4.003
		c0.519,0.104,0.822,0.165,0.912,0.185c0.166,0.033,0.25,0.131,0.25,0.297v0.689h-2.592v-5.174c0-1.293-0.57-1.939-1.709-1.939
		c-0.791,0-1.525,0.376-2.199,1.13v4.812c0.039,0.007,0.344,0.067,0.916,0.185c0.166,0.033,0.248,0.131,0.248,0.297v0.689h-3.746
		v-0.689c0-0.166,0.08-0.264,0.24-0.297l0.915-0.185v-5.782c-0.514-0.102-0.817-0.164-0.915-0.186
		c-0.16-0.032-0.24-0.131-0.24-0.299v-0.688h1.155h0.851c0.203,0,0.33,0.099,0.387,0.297l0.111,0.882
		C181.857,89.843,182.755,89.406,183.762,89.406z"/>
	<path fill="#FFFFFF" d="M194.337,89.65c0.411,0.164,0.767,0.397,1.067,0.705c0.3,0.31,0.533,0.688,0.701,1.141
		c0.17,0.452,0.252,0.967,0.252,1.544c0,0.226-0.023,0.375-0.072,0.451c-0.049,0.073-0.139,0.11-0.273,0.11h-5.404
		c0.011,0.514,0.078,0.959,0.209,1.34c0.127,0.381,0.305,0.695,0.527,0.951c0.227,0.252,0.491,0.442,0.803,0.569
		c0.311,0.126,0.658,0.188,1.043,0.188c0.358,0,0.666-0.041,0.928-0.125c0.259-0.084,0.482-0.172,0.67-0.27
		c0.188-0.097,0.343-0.186,0.469-0.27c0.126-0.082,0.232-0.125,0.324-0.125c0.117,0,0.208,0.047,0.271,0.137l0.402,0.521
		c-0.177,0.215-0.388,0.399-0.634,0.559c-0.247,0.158-0.511,0.288-0.79,0.39c-0.282,0.101-0.572,0.177-0.871,0.228
		c-0.3,0.052-0.596,0.076-0.891,0.076c-0.562,0-1.08-0.096-1.555-0.285c-0.471-0.188-0.881-0.469-1.225-0.832
		c-0.348-0.365-0.615-0.82-0.807-1.361c-0.192-0.538-0.291-1.158-0.291-1.859c0-0.567,0.088-1.097,0.264-1.59
		c0.172-0.49,0.422-0.919,0.749-1.277c0.327-0.36,0.726-0.646,1.194-0.851c0.472-0.207,1-0.311,1.59-0.311
		C193.477,89.406,193.925,89.489,194.337,89.65z M191.391,91.055c-0.395,0.398-0.641,0.951-0.736,1.656h4.421
		c0-0.331-0.046-0.635-0.138-0.91c-0.09-0.275-0.224-0.513-0.4-0.714c-0.178-0.2-0.391-0.354-0.645-0.465
		c-0.256-0.11-0.545-0.165-0.871-0.164C192.331,90.458,191.788,90.656,191.391,91.055z"/>
	<rect x="33" y="93.596" fill="#FFFFFF" width="19.854" height="0.623"/>
	<g>
		<rect x="205.665" y="93.596" fill="#FFFFFF" width="19.854" height="0.623"/>
	</g>
	<g>
		<g>
			<path fill="#FFFFFF" d="M13.696,18.069c2.241-0.487,4.33-0.154,6.236,0.978c1.907,1.14,3.059,2.73,3.468,4.774
				c0.119,0.604,0.241,1.208,0.362,1.817c0.054,0.256,0.216,0.354,0.49,0.298c0.07-0.015,0.139-0.029,0.206-0.042
				c0.276-0.054,0.391-0.21,0.34-0.465c-0.118-0.603-0.24-1.212-0.36-1.813c-0.462-2.361-1.751-4.198-3.875-5.491
				c-2.12-1.296-4.497-1.666-7.092-1.103c-2.601,0.561-4.61,1.88-6.016,3.934c-1.396,2.058-1.812,4.26-1.264,6.599
				c1.965,8.389,3.934,16.777,5.899,25.162c0.537,2.283,1.83,4.045,3.863,5.315c2.03,1.271,4.23,1.638,6.623,1.122
				c2.395-0.518,4.243-1.76,5.566-3.758c1.323-1.993,1.771-4.133,1.316-6.428c-0.859-4.344-1.718-8.681-2.577-13.015
				c-0.054-0.255-0.214-0.358-0.481-0.304c-1.793,0.357-3.587,0.721-5.38,1.098c-0.27,0.06-0.376,0.215-0.325,0.467
				c0.019,0.099,0.037,0.193,0.059,0.286c0.058,0.259,0.219,0.357,0.486,0.298c1.588-0.331,3.175-0.658,4.761-0.975
				c0.821,4.113,1.647,8.226,2.469,12.337c0.204,1.019,0.199,2.013-0.013,2.987c-0.216,0.977-0.598,1.858-1.146,2.67
				c-0.55,0.808-1.254,1.5-2.113,2.082c-0.862,0.58-1.812,0.981-2.845,1.203c-1.04,0.228-2.068,0.252-3.094,0.08
				c-1.027-0.17-1.954-0.512-2.785-1.021c-0.835-0.515-1.55-1.165-2.147-1.96c-0.597-0.797-1.013-1.698-1.251-2.717
				c-1.951-8.39-3.898-16.781-5.852-25.173c-0.473-2.025-0.079-3.956,1.188-5.777C9.688,19.716,11.452,18.553,13.696,18.069
				 M23.225,28.829c-1.1,0.221-1.75-0.177-1.959-1.191c-0.226-1.085-0.446-2.167-0.67-3.25c-0.289-1.398-1.049-2.456-2.287-3.163
				c-1.237-0.702-2.593-0.897-4.056-0.583c-1.464,0.316-2.619,1.057-3.456,2.21c-0.836,1.15-1.094,2.429-0.776,3.824
				c1.904,8.4,3.811,16.801,5.716,25.201c0.303,1.334,1.052,2.364,2.244,3.092c1.192,0.735,2.469,0.954,3.836,0.658
				c1.369-0.297,2.441-1.015,3.221-2.18c0.782-1.156,1.042-2.404,0.765-3.745c-0.675-3.28-1.35-6.558-2.023-9.839
				c-1.176,0.242-2.353,0.489-3.527,0.74c-0.467,0.098-0.889,0.035-1.248-0.186c-0.363-0.218-0.586-0.521-0.67-0.902
				c-0.218-1.018-0.44-2.033-0.661-3.049c-0.218-1.015,0.212-1.643,1.3-1.875c2.819-0.603,5.642-1.178,8.464-1.735
				c1.092-0.208,1.732,0.2,1.931,1.22c0.921,4.789,1.843,9.574,2.768,14.365c0.296,1.533,0.271,3.01-0.063,4.435
				c-0.334,1.417-0.925,2.729-1.765,3.926c-0.841,1.197-1.863,2.214-3.067,3.062c-1.21,0.846-2.581,1.434-4.124,1.767
				c-1.544,0.335-3.04,0.364-4.488,0.093c-1.445-0.271-2.8-0.775-4.063-1.521c-1.263-0.739-2.34-1.685-3.235-2.845
				c-0.894-1.153-1.525-2.489-1.892-4.007c-2.012-8.378-4.021-16.754-6.032-25.134C3.039,26.7,3.005,25.2,3.314,23.726
				c0.307-1.477,0.908-2.838,1.798-4.082c0.889-1.245,1.992-2.312,3.307-3.209c1.312-0.895,2.82-1.529,4.514-1.893
				c1.694-0.365,3.325-0.414,4.894-0.142c1.562,0.277,3.006,0.8,4.33,1.562c1.322,0.766,2.426,1.755,3.317,2.973
				c0.892,1.219,1.479,2.595,1.772,4.126c0.21,1.085,0.42,2.171,0.629,3.254c0.199,1.029-0.256,1.642-1.354,1.856
				C25.421,28.39,24.323,28.604,23.225,28.829"/>
			<path fill="#FFFFFF" d="M41.786,32.921c-1.104-6.573-2.212-13.143-3.315-19.715c3.494-0.59,6.993-1.141,10.496-1.66
				c0.28-0.043,0.402-0.194,0.363-0.45c-0.01-0.064-0.018-0.13-0.028-0.194c-0.036-0.256-0.196-0.365-0.479-0.323
				c-3.687,0.545-7.369,1.13-11.045,1.753c-0.355,0.059-0.503,0.255-0.447,0.569c2.351,13.815,4.703,27.632,7.054,41.444
				c0.055,0.319,0.244,0.451,0.57,0.396c3.387-0.566,6.779-1.106,10.175-1.611c0.261-0.036,0.37-0.188,0.333-0.443
				c-0.011-0.064-0.02-0.128-0.028-0.196c-0.048-0.321-0.203-0.46-0.463-0.421c-3.236,0.478-6.477,0.991-9.706,1.536
				c-1.106-6.575-2.214-13.147-3.314-19.721c3.36-0.567,6.723-1.095,10.092-1.597c0.269-0.04,0.387-0.187,0.347-0.448
				c-0.01-0.062-0.021-0.125-0.026-0.188c-0.041-0.26-0.196-0.369-0.465-0.332C48.523,31.825,45.151,32.354,41.786,32.921
				 M41.754,15.329c0.789,4.846,1.577,9.692,2.363,14.539c2.979-0.486,5.953-0.942,8.933-1.375c1.098-0.161,1.719,0.281,1.863,1.308
				c0.146,1.029,0.296,2.062,0.439,3.092c0.146,1.027-0.323,1.62-1.406,1.774c-2.943,0.428-5.886,0.881-8.826,1.359
				c0.796,4.882,1.589,9.758,2.384,14.639c2.853-0.465,5.714-0.905,8.573-1.324c1.053-0.152,1.653,0.291,1.8,1.318
				c0.143,1.029,0.289,2.059,0.438,3.092c0.146,1.028-0.3,1.619-1.34,1.767c-3.865,0.563-7.726,1.172-11.581,1.818
				c-0.905,0.155-1.702-0.018-2.393-0.525c-0.691-0.508-1.109-1.177-1.256-2.006c-2.425-13.803-4.849-27.606-7.275-41.409
				c-0.156-0.895,0.033-1.688,0.566-2.374c0.541-0.692,1.305-1.117,2.301-1.286c4.228-0.717,8.458-1.379,12.698-1.998
				c1.138-0.16,1.782,0.27,1.929,1.299c0.145,1.03,0.292,2.062,0.437,3.092c0.146,1.027-0.343,1.621-1.471,1.786
				C47.872,14.363,44.813,14.833,41.754,15.329"/>
			<path fill="#FFFFFF" d="M79.559,15.53c-0.125-1.364-0.758-2.479-1.909-3.351c-1.149-0.867-2.476-1.229-3.955-1.081
				c-1.558,0.16-2.814,0.786-3.765,1.874c-0.951,1.085-1.346,2.308-1.19,3.667c0.96,8.526,1.921,17.054,2.883,25.583
				c0.16,1.426,0.792,2.565,1.893,3.422c1.097,0.859,2.369,1.217,3.822,1.066c1.388-0.141,2.527-0.74,3.429-1.807
				c0.901-1.064,1.29-2.308,1.156-3.735C81.135,32.622,80.349,24.075,79.559,15.53 M73.425,8.48c2.271-0.23,4.299,0.328,6.065,1.668
				c1.766,1.343,2.728,3.055,2.908,5.123c0.741,8.552,1.488,17.104,2.229,25.653c0.181,2.078-0.431,3.925-1.819,5.551
				c-1.378,1.63-3.112,2.545-5.215,2.761c-2.103,0.215-3.983-0.331-5.67-1.647c-1.687-1.31-2.655-2.995-2.901-5.066
				c-1.004-8.525-2.012-17.049-3.016-25.572c-0.241-2.062,0.354-3.939,1.813-5.607C69.274,9.67,71.15,8.716,73.425,8.48
				 M83.45,15.182c-0.204-2.396-1.27-4.347-3.229-5.833c-1.957-1.494-4.265-2.107-6.898-1.839c-2.632,0.273-4.787,1.342-6.438,3.204
				c-1.649,1.854-2.318,3.988-2.032,6.375c1.023,8.52,2.046,17.041,3.071,25.567c0.286,2.39,1.393,4.316,3.296,5.795
				c1.906,1.487,4.059,2.099,6.483,1.854c2.426-0.251,4.393-1.284,5.92-3.118c1.532-1.841,2.208-3.945,2.005-6.344
				C84.902,32.289,84.176,23.737,83.45,15.182 M73.058,4.891c1.714-0.174,3.334-0.044,4.855,0.408
				c1.518,0.442,2.894,1.137,4.123,2.077c1.228,0.94,2.212,2.046,2.955,3.324c0.746,1.277,1.178,2.692,1.3,4.251
				c0.684,8.554,1.363,17.107,2.042,25.666c0.127,1.558-0.06,3.039-0.542,4.453c-0.487,1.406-1.214,2.674-2.173,3.797
				c-0.961,1.132-2.088,2.049-3.373,2.754c-1.286,0.709-2.707,1.14-4.271,1.299c-1.567,0.163-3.065,0.028-4.499-0.398
				c-1.437-0.43-2.74-1.099-3.91-2.003c-1.173-0.909-2.14-2.003-2.898-3.284c-0.764-1.283-1.246-2.699-1.438-4.251
				c-1.072-8.515-2.138-17.032-3.205-25.549c-0.196-1.547-0.062-3.019,0.41-4.423c0.471-1.403,1.211-2.688,2.227-3.858
				c1.011-1.165,2.233-2.128,3.669-2.876C69.762,5.532,71.343,5.067,73.058,4.891"/>
			<path fill="#FFFFFF" d="M110.414,13.576c-0.046-1.365-0.614-2.52-1.711-3.452c-1.095-0.938-2.394-1.373-3.884-1.308
				c-1.811,0.081-3.618,0.17-5.427,0.271c0.267,4.897,0.537,9.802,0.805,14.705c1.756-0.095,3.518-0.184,5.275-0.26
				c1.449-0.064,2.674-0.604,3.672-1.615c1.001-1.012,1.48-2.235,1.43-3.664C110.523,16.691,110.471,15.135,110.414,13.576
				 M104.701,6.188c2.278-0.103,4.271,0.572,5.954,2.012c1.681,1.441,2.545,3.205,2.606,5.286c0.044,1.559,0.093,3.12,0.137,4.676
				c0.062,2.084-0.687,3.893-2.223,5.442c-1.536,1.548-3.396,2.364-5.591,2.458c-2.679,0.123-5.356,0.262-8.03,0.419
				c-0.4-6.618-0.793-13.238-1.19-19.859C99.144,6.458,101.922,6.311,104.701,6.188 M114.422,13.449
				c-0.062-2.402-1.037-4.411-2.938-6.009c-1.9-1.597-4.187-2.345-6.825-2.225c-2.961,0.129-5.926,0.283-8.887,0.465
				c-0.428,0.025-0.635,0.201-0.612,0.522c0.868,14.024,1.739,28.04,2.607,42.061c0.02,0.258,0.157,0.377,0.42,0.363
				c0.098-0.006,0.197-0.01,0.294-0.016c0.264-0.02,0.387-0.154,0.374-0.414c-0.413-6.879-0.824-13.765-1.238-20.643
				c2.672-0.158,5.346-0.3,8.018-0.417c2.192-0.1,4.107,0.58,5.729,2.022c1.621,1.438,2.451,3.205,2.51,5.286
				c0.129,4.353,0.256,8.711,0.383,13.068c0.011,0.257,0.142,0.384,0.407,0.375c0.067,0,0.132,0,0.195-0.004
				c0.334-0.01,0.492-0.144,0.487-0.407c-0.12-4.353-0.236-8.708-0.356-13.059c-0.045-1.889-0.655-3.548-1.824-4.975
				c-1.168-1.434-2.66-2.406-4.466-2.922c1.757-0.717,3.185-1.823,4.276-3.319c1.094-1.498,1.628-3.185,1.577-5.071
				C114.506,16.569,114.464,15.01,114.422,13.449 M117.271,18.064c0.069,3.315-1.089,6.07-3.426,8.282
				c2.465,2.077,3.71,4.755,3.781,8.003c0.106,4.84,0.212,9.686,0.319,14.528c0.007,0.391-0.132,0.752-0.421,1.082
				c-0.288,0.334-0.661,0.508-1.119,0.517c-1.046,0.03-2.093,0.057-3.139,0.086c-0.458,0.019-0.84-0.131-1.148-0.447
				c-0.301-0.318-0.466-0.667-0.476-1.06c-0.168-4.843-0.335-9.681-0.501-14.523c-0.051-1.366-0.598-2.518-1.652-3.453
				c-1.055-0.938-2.305-1.376-3.737-1.312c-1.735,0.075-3.478,0.165-5.216,0.26c0.355,6.494,0.712,12.986,1.063,19.476
				c0.022,0.395-0.124,0.76-0.435,1.099c-0.309,0.346-0.654,0.525-1.052,0.552c-1.046,0.059-2.089,0.12-3.138,0.184
				c-0.456,0.036-0.845-0.101-1.161-0.406c-0.315-0.306-0.488-0.649-0.516-1.044C94.325,35.39,93.354,20.885,92.378,6.39
				c-0.06-0.912,0.209-1.68,0.817-2.304c0.607-0.625,1.411-0.968,2.417-1.034c2.976-0.177,5.952-0.337,8.929-0.471
				c1.721-0.071,3.35,0.154,4.875,0.687c1.522,0.53,2.854,1.302,3.992,2.309c1.134,1.008,2.031,2.173,2.706,3.492
				c0.666,1.316,1.018,2.756,1.051,4.314C117.202,14.946,117.233,16.504,117.271,18.064"/>
			<path fill="#FFFFFF" d="M138.174,5.817c2.284,0.043,4.229,0.836,5.82,2.375c1.592,1.545,2.346,3.359,2.277,5.437
				c-0.019,0.618-0.039,1.236-0.06,1.849c-0.011,0.264,0.127,0.398,0.407,0.405c0.066,0.003,0.138,0.009,0.21,0.011
				c0.28,0.006,0.421-0.116,0.433-0.381c0.021-0.618,0.041-1.232,0.063-1.85c0.085-2.402-0.745-4.481-2.51-6.227
				c-1.767-1.744-3.981-2.643-6.621-2.685c-2.645-0.046-4.889,0.778-6.711,2.46c-1.82,1.682-2.717,3.733-2.714,6.14
				c0,8.615,0.003,17.234,0.008,25.845c0.003,2.345,0.852,4.354,2.532,6.055c1.678,1.698,3.722,2.558,6.156,2.602
				c2.433,0.041,4.505-0.751,6.242-2.396c1.735-1.639,2.653-3.623,2.733-5.962c0.152-4.421,0.303-8.838,0.453-13.261
				c0.012-0.255-0.127-0.392-0.399-0.403c-1.82-0.06-3.64-0.108-5.464-0.149c-0.271-0.007-0.413,0.123-0.419,0.379
				c0,0.097-0.002,0.197-0.007,0.292c-0.005,0.263,0.129,0.392,0.402,0.402c1.61,0.037,3.227,0.081,4.836,0.131
				c-0.136,4.193-0.271,8.382-0.407,12.576c-0.029,1.039-0.263,2.009-0.689,2.905c-0.428,0.897-0.996,1.678-1.714,2.341
				c-0.714,0.664-1.555,1.178-2.518,1.547c-0.97,0.367-1.979,0.543-3.033,0.525c-1.055-0.017-2.061-0.226-3.008-0.622
				c-0.955-0.407-1.778-0.949-2.47-1.638c-0.69-0.689-1.235-1.483-1.633-2.397c-0.394-0.908-0.595-1.887-0.594-2.927
				c0.012-8.611,0.026-17.23,0.044-25.845c0-2.079,0.811-3.869,2.455-5.355C133.921,6.51,135.895,5.783,138.174,5.817
				 M144.965,18.469c-1.113-0.033-1.654-0.568-1.627-1.609c0.03-1.102,0.059-2.209,0.09-3.313c0.039-1.433-0.458-2.631-1.5-3.601
				c-1.036-0.965-2.307-1.466-3.797-1.492c-1.488-0.027-2.772,0.435-3.847,1.363c-1.071,0.933-1.604,2.121-1.616,3.545
				c-0.057,8.617-0.119,17.233-0.177,25.847c-0.006,1.365,0.485,2.539,1.471,3.523c0.988,0.985,2.175,1.488,3.566,1.513
				c1.391,0.02,2.591-0.438,3.612-1.395c1.021-0.947,1.555-2.102,1.591-3.471c0.089-3.346,0.18-6.692,0.27-10.038
				c-1.194-0.032-2.389-0.059-3.583-0.083c-0.476-0.013-0.868-0.167-1.17-0.463c-0.301-0.296-0.45-0.644-0.44-1.032
				c0.02-1.043,0.033-2.08,0.052-3.12c0.019-1.034,0.576-1.548,1.682-1.528c2.865,0.057,5.731,0.137,8.594,0.241
				c1.104,0.041,1.641,0.586,1.6,1.622c-0.193,4.875-0.385,9.744-0.578,14.619c-0.061,1.56-0.42,2.993-1.065,4.302
				c-0.646,1.313-1.519,2.453-2.602,3.423c-1.091,0.97-2.312,1.734-3.67,2.282c-1.359,0.554-2.824,0.809-4.396,0.787
				c-1.569-0.029-3.022-0.338-4.359-0.932c-1.34-0.596-2.539-1.397-3.587-2.409c-1.056-1.008-1.886-2.18-2.488-3.506
				c-0.603-1.33-0.911-2.773-0.918-4.339c-0.049-8.612-0.099-17.228-0.148-25.845c-0.009-1.56,0.302-3.028,0.932-4.394
				c0.636-1.367,1.521-2.554,2.666-3.562c1.137-1.011,2.447-1.799,3.923-2.373c1.473-0.572,3.072-0.848,4.797-0.819
				c1.72,0.028,3.315,0.358,4.769,0.979c1.453,0.622,2.734,1.456,3.846,2.501c1.103,1.046,1.953,2.264,2.537,3.653
				c0.588,1.388,0.848,2.865,0.783,4.423c-0.039,1.103-0.087,2.21-0.128,3.313c-0.043,1.039-0.622,1.536-1.731,1.496
				C147.197,18.538,146.082,18.5,144.965,18.469"/>
			<path fill="#FFFFFF" d="M162.045,26.687c0.421-6.651,0.84-13.3,1.258-19.952c3.526,0.223,7.049,0.481,10.566,0.77
				c0.285,0.025,0.438-0.094,0.458-0.355c0-0.063,0.014-0.126,0.017-0.191c0.023-0.262-0.109-0.402-0.393-0.423
				c-3.704-0.305-7.413-0.575-11.12-0.807c-0.36-0.021-0.545,0.133-0.563,0.453c-0.854,13.987-1.707,27.971-2.562,41.952
				c-0.021,0.331,0.135,0.501,0.462,0.52c3.419,0.213,6.832,0.458,10.248,0.737c0.265,0.023,0.401-0.095,0.423-0.351
				c0.01-0.064,0.014-0.127,0.02-0.196c0.022-0.325-0.094-0.496-0.354-0.518c-3.255-0.267-6.513-0.506-9.772-0.714
				c0.418-6.649,0.836-13.298,1.258-19.952c3.389,0.216,6.773,0.462,10.158,0.743c0.274,0.021,0.422-0.095,0.443-0.356
				c0.006-0.066,0.012-0.13,0.018-0.193c0.019-0.259-0.105-0.402-0.379-0.425C168.835,27.146,165.441,26.9,162.045,26.687
				 M166.007,9.552c-0.333,4.896-0.671,9.794-1,14.688c2.996,0.204,5.991,0.437,8.984,0.693c1.103,0.095,1.606,0.664,1.512,1.697
				c-0.092,1.039-0.181,2.076-0.274,3.109c-0.09,1.039-0.683,1.505-1.768,1.413c-2.963-0.256-5.919-0.481-8.882-0.685
				c-0.336,4.93-0.677,9.862-1.011,14.792c2.875,0.198,5.756,0.418,8.629,0.663c1.057,0.088,1.537,0.655,1.447,1.691
				c-0.092,1.035-0.185,2.074-0.274,3.109c-0.099,1.035-0.662,1.507-1.706,1.419c-3.883-0.333-7.771-0.619-11.661-0.857
				c-0.914-0.06-1.647-0.409-2.2-1.062c-0.557-0.652-0.812-1.396-0.763-2.242c0.78-13.989,1.56-27.978,2.338-41.968
				c0.05-0.907,0.414-1.636,1.093-2.181c0.678-0.548,1.52-0.794,2.524-0.729c4.264,0.265,8.522,0.578,12.78,0.944
				c1.146,0.097,1.672,0.667,1.58,1.702c-0.092,1.036-0.184,2.071-0.273,3.106c-0.092,1.038-0.707,1.504-1.837,1.407
				C172.169,9.998,169.088,9.762,166.007,9.552"/>
			<path fill="#FFFFFF" d="M201.957,9.956c0.035-0.252-0.09-0.405-0.372-0.441c-4.399-0.591-8.801-1.125-13.206-1.608
				c-0.285-0.029-0.438,0.083-0.472,0.339c-0.007,0.064-0.011,0.133-0.021,0.194c-0.029,0.258,0.104,0.406,0.385,0.438
				c2.022,0.224,4.043,0.453,6.066,0.695c-1.663,13.785-3.324,27.565-4.986,41.351c-0.031,0.256,0.084,0.404,0.344,0.436
				c0.063,0.009,0.134,0.018,0.195,0.021c0.268,0.033,0.412-0.079,0.44-0.339c1.688-13.783,3.378-27.557,5.065-41.338
				c2.021,0.248,4.039,0.508,6.06,0.779c0.278,0.041,0.438-0.074,0.478-0.331C201.938,10.085,201.947,10.021,201.957,9.956
				 M203.538,7.122c1.142,0.154,1.637,0.751,1.491,1.778c-0.143,1.034-0.286,2.062-0.432,3.094c-0.143,1.029-0.785,1.468-1.91,1.313
				c-1.58-0.22-3.166-0.429-4.754-0.633c-1.709,13.382-3.422,26.766-5.133,40.153c-0.053,0.389-0.244,0.724-0.578,1.005
				c-0.336,0.288-0.729,0.401-1.184,0.344c-1.043-0.126-2.083-0.256-3.122-0.38c-0.458-0.053-0.815-0.258-1.069-0.618
				c-0.257-0.356-0.361-0.729-0.316-1.113c1.543-13.406,3.09-26.81,4.629-40.214c-1.585-0.184-3.174-0.358-4.76-0.527
				c-1.133-0.121-1.646-0.696-1.537-1.732c0.104-1.035,0.213-2.068,0.316-3.102c0.105-1.034,0.734-1.495,1.873-1.373
				C192.561,5.7,198.053,6.369,203.538,7.122"/>
			<path fill="#FFFFFF" d="M228.367,14.18c0.049-0.257-0.072-0.41-0.352-0.458c-4.373-0.809-8.76-1.56-13.145-2.259
				c-0.283-0.044-0.449,0.061-0.487,0.317c-0.01,0.067-0.021,0.13-0.032,0.193c-0.039,0.255,0.08,0.411,0.365,0.452
				c2.014,0.323,4.028,0.655,6.035,0.999c-2.334,13.682-4.668,27.367-7.003,41.055c-0.046,0.256,0.062,0.406,0.323,0.446
				c0.062,0.019,0.131,0.025,0.195,0.036c0.262,0.048,0.414-0.061,0.461-0.317c2.36-13.682,4.721-27.358,7.084-41.042
				c2.008,0.349,4.018,0.709,6.021,1.074c0.285,0.053,0.449-0.048,0.498-0.305C228.346,14.31,228.354,14.245,228.367,14.18
				 M230.085,11.424c1.136,0.212,1.606,0.836,1.412,1.853c-0.194,1.023-0.394,2.043-0.585,3.067
				c-0.194,1.022-0.852,1.426-1.977,1.216c-1.572-0.297-3.147-0.583-4.729-0.866c-2.364,13.281-4.73,26.567-7.1,39.85
				c-0.067,0.39-0.277,0.712-0.627,0.979c-0.349,0.271-0.75,0.363-1.201,0.285c-1.035-0.184-2.071-0.365-3.11-0.535
				c-0.448-0.078-0.797-0.297-1.037-0.666c-0.239-0.371-0.327-0.748-0.26-1.131c2.196-13.315,4.396-26.626,6.596-39.937
				c-1.583-0.266-3.168-0.518-4.745-0.764c-1.125-0.179-1.609-0.78-1.451-1.805c0.158-1.029,0.313-2.059,0.471-3.083
				c0.156-1.029,0.805-1.459,1.943-1.283C219.161,9.463,224.631,10.403,230.085,11.424"/>
			<path fill="#FFFFFF" d="M238.537,37.182c1.386-6.512,2.777-13.034,4.166-19.552c3.477,0.741,6.939,1.516,10.396,2.324
				c0.281,0.066,0.453-0.03,0.514-0.281c0.013-0.068,0.027-0.128,0.047-0.194c0.057-0.252-0.057-0.412-0.332-0.476
				c-3.645-0.848-7.295-1.663-10.95-2.438c-0.351-0.074-0.558,0.045-0.623,0.366c-2.897,13.709-5.787,27.419-8.681,41.133
				c-0.069,0.317,0.057,0.511,0.381,0.576c3.367,0.719,6.73,1.469,10.085,2.25c0.258,0.058,0.419-0.037,0.476-0.289
				c0.016-0.062,0.028-0.123,0.045-0.188c0.07-0.319-0.017-0.506-0.275-0.565c-3.202-0.75-6.407-1.466-9.62-2.152
				c1.39-6.515,2.78-13.036,4.167-19.555c3.342,0.713,6.673,1.457,10.001,2.233c0.269,0.064,0.433-0.031,0.495-0.284
				c0.011-0.062,0.027-0.125,0.041-0.19c0.059-0.251-0.044-0.409-0.314-0.475C245.223,38.642,241.883,37.9,238.537,37.182
				 M244.984,20.813c-1.053,4.796-2.101,9.596-3.15,14.394c2.951,0.641,5.898,1.312,8.842,2.011c1.08,0.255,1.506,0.89,1.262,1.902
				c-0.246,1.012-0.488,2.025-0.73,3.036c-0.242,1.01-0.9,1.384-1.971,1.133c-2.906-0.687-5.82-1.35-8.735-1.988
				c-1.053,4.829-2.112,9.657-3.165,14.483c2.831,0.624,5.662,1.266,8.484,1.933c1.039,0.246,1.438,0.883,1.195,1.889
				c-0.242,1.012-0.484,2.024-0.729,3.037c-0.24,1.01-0.876,1.394-1.903,1.151c-3.816-0.905-7.641-1.764-11.471-2.575
				c-0.902-0.193-1.583-0.646-2.037-1.371c-0.456-0.726-0.602-1.503-0.428-2.334c2.82-13.726,5.639-27.449,8.459-41.175
				c0.185-0.894,0.652-1.562,1.404-2c0.752-0.442,1.627-0.56,2.613-0.353c4.202,0.892,8.396,1.833,12.58,2.826
				c1.126,0.266,1.568,0.907,1.328,1.919c-0.244,1.011-0.491,2.024-0.729,3.036c-0.244,1.009-0.924,1.383-2.035,1.115
				C251.045,22.17,248.016,21.478,244.984,20.813"/>
		</g>
		<g>
			<path fill="#FFFFFF" d="M250.932,76.762l0.498-2.054C119.866,42.718,10.388,74.479,9.296,74.803l0.604,2.026
				C10.982,76.506,119.916,44.905,250.932,76.762z"/>
			<path fill="#FFFFFF" d="M10.479,78.336l0.608,2.023c1.069-0.32,108.369-31.835,239.383,0.016l0.497-2.055
				C119.405,46.329,11.555,78.012,10.479,78.336z"/>
		</g>
	</g>
</g>
</svg>
