<?xml version="1.0" encoding="utf-8"?>
<!-- Generator: Adobe Illustrator 16.0.0, SVG Export Plug-In . SVG Version: 6.00 Build 0)  -->
<!DOCTYPE svg PUBLIC "-//W3C//DTD SVG 1.1//EN" "http://www.w3.org/Graphics/SVG/1.1/DTD/svg11.dtd">
<svg version="1.1" id="Calque_1" xmlns="http://www.w3.org/2000/svg" xmlns:xlink="http://www.w3.org/1999/xlink" x="0px" y="0px"
	 width="100px" height="136px" viewBox="0 0 100 136" enable-background="new 0 0 100 136" xml:space="preserve">
<g>
	<path fill="#36A9E1" d="M4.593,86.404c1.674,0,3.098-1.264,3.605-2.633H74.02c0.655,0,1.188-0.482,1.188-1.139
		c0-0.32-0.127-0.668-0.333-0.881L51.421,41.186l3.941-6.817l26.588,46.103c-0.61,0.676-0.983,1.572-0.983,2.553
		c0,2.098,1.707,3.807,3.805,3.807s3.805-1.707,3.805-3.805s-1.707-3.805-3.805-3.805c-0.268,0-0.529,0.027-0.781,0.082
		L56.723,32.023l3.962-6.862l31.933,55.31c-0.613,0.676-0.988,1.572-0.988,2.555c0,2.098,1.707,3.805,3.805,3.805
		s3.805-1.707,3.805-3.805s-1.707-3.805-3.805-3.805c-0.265,0-0.524,0.027-0.774,0.08L61.775,22.343
		c-0.229-0.397-0.653-0.609-1.082-0.587c-0.434-0.029-0.866,0.185-1.098,0.586L36.004,62.85h-7.871l26.474-45.736
		c0.263,0.058,0.536,0.172,0.817,0.172c2.098,0,3.805-1.666,3.805-3.764s-1.707-3.784-3.805-3.784c-2.099,0-3.805,1.717-3.805,3.814
		c0,0.967,0.363,1.691,0.959,2.363L25.417,62.85H17.41L49.241,7.881c0.258,0.055,0.525,0.167,0.799,0.167
		c2.098,0,3.805-1.666,3.805-3.764S52.138,0.5,50.04,0.5s-3.805,1.717-3.805,3.815c0,0.973,0.368,1.866,0.971,2.54L14.336,63.79
		c-0.325,0.563-0.132,1.284,0.431,1.608c0.185,0.107,0.387,0.158,0.586,0.158c0.048,0,47.389,0,47.389,0l3.841,6.566l-53.045,0.066
		c-0.5-1.518-1.931-2.596-3.614-2.596c-2.098,0-3.805,1.717-3.805,3.814s1.707,3.811,3.805,3.811c1.694,0,3.132-1.111,3.624-2.645
		l54.395-0.051l4.005,6.902H8.215c-0.492-1.564-1.93-2.607-3.622-2.607c-2.098,0-3.805,1.723-3.805,3.82S2.495,86.404,4.593,86.404z
		 M83.147,82.549c0.205-0.703,0.855-1.217,1.625-1.217c0.145,0,0.285,0.018,0.42,0.053c0.731,0.188,1.273,0.852,1.273,1.641
		c0,0.936-0.759,1.693-1.693,1.693c-0.936,0-1.693-0.758-1.693-1.693C83.079,82.859,83.102,82.701,83.147,82.549z M93.812,82.539
		c0.21-0.697,0.856-1.207,1.622-1.207c0.149,0,0.294,0.02,0.432,0.057c0.726,0.189,1.262,0.852,1.262,1.637
		c0,0.936-0.758,1.693-1.693,1.693c-0.935,0-1.693-0.758-1.693-1.693C93.741,82.855,93.766,82.693,93.812,82.539z M55.424,11.869
		c0.936,0,1.693,0.758,1.693,1.693c0,0.807-0.565,1.481-1.32,1.651c-0.12,0.027-0.245,0.042-0.373,0.042
		c-0.787,0-1.449-0.537-1.639-1.265c-0.036-0.138-0.055-0.28-0.055-0.429C53.731,12.627,54.489,11.869,55.424,11.869z M50.04,2.632
		c0.935,0,1.693,0.758,1.693,1.693c0,0.798-0.553,1.467-1.295,1.646c-0.127,0.031-0.26,0.048-0.397,0.048
		c-0.778,0-1.433-0.525-1.631-1.24c-0.04-0.145-0.062-0.296-0.062-0.453C48.347,3.39,49.105,2.632,50.04,2.632z M38.747,62.85
		l11.309-19.587L61.364,62.85H38.747z M11.158,74.578c-0.309,0.328-0.747,0.535-1.233,0.535c-0.935,0-1.693-0.76-1.693-1.693
		c0-0.936,0.758-1.695,1.693-1.695c0.473,0,0.899,0.195,1.207,0.508c0.301,0.305,0.486,0.725,0.486,1.188
		C11.617,73.867,11.442,74.275,11.158,74.578z M4.593,80.963c0.485,0,0.922,0.205,1.23,0.531c0.287,0.303,0.463,0.711,0.463,1.162
		c0,0.475-0.196,0.904-0.512,1.213c-0.305,0.297-0.722,0.48-1.181,0.48c-0.936,0-1.693-0.758-1.693-1.693S3.658,80.963,4.593,80.963
		z"/>
	<path fill="#36A9E1" d="M22.071,92.08h-2.98v7.439h0.484v-3.818h2.496c0.211-0.121,0.396-0.268,0.554-0.441
		c0.365-0.396,0.547-0.855,0.547-1.375c0-0.516-0.183-0.971-0.547-1.369C22.466,92.342,22.282,92.197,22.071,92.08z M21.921,95.26
		h-2.346v-2.744h2.346c0.507,0.342,0.761,0.799,0.761,1.369C22.682,94.459,22.428,94.918,21.921,95.26z"/>
	<path fill="#36A9E1" d="M28.798,95.26c0.37-0.396,0.554-0.854,0.554-1.369c0-0.52-0.184-0.977-0.554-1.375
		c-0.157-0.17-0.34-0.314-0.547-0.436h-2.98v7.439h0.484v-3.824h2.323c0.503,0.346,0.755,0.803,0.755,1.371v2.453h0.49v-2.678
		h-0.017c-0.05-0.432-0.229-0.816-0.536-1.15c-0.065-0.07-0.137-0.137-0.213-0.203C28.645,95.42,28.726,95.344,28.798,95.26z
		 M28.113,95.256h-2.357v-2.74h2.346c0.511,0.342,0.766,0.801,0.766,1.375C28.868,94.457,28.616,94.912,28.113,95.256z"/>
	<path fill="#36A9E1" d="M33.7,92.027c-0.569,0-1.072,0.164-1.51,0.494c-0.188,0.139-0.348,0.299-0.478,0.482v5.592
		c0.13,0.184,0.29,0.346,0.478,0.488c0.438,0.324,0.941,0.488,1.51,0.488s1.072-0.164,1.51-0.488
		c0.188-0.143,0.348-0.305,0.479-0.488v-5.592c-0.131-0.184-0.291-0.344-0.479-0.482C34.772,92.191,34.269,92.027,33.7,92.027z
		 M35.21,98.461c-0.38,0.453-0.884,0.68-1.51,0.68c-0.63,0-1.133-0.227-1.51-0.68v-5.322c0.377-0.453,0.88-0.68,1.51-0.68
		c0.63,0,1.134,0.227,1.51,0.68V98.461z"/>
	<path fill="#36A9E1" d="M40.071,92.459c0.626,0,1.13,0.227,1.51,0.68l0.479-0.135c-0.131-0.184-0.291-0.344-0.479-0.482
		c-0.438-0.33-0.941-0.494-1.51-0.494s-1.072,0.164-1.51,0.494c-0.188,0.139-0.348,0.299-0.479,0.482v5.592
		c0.131,0.184,0.291,0.346,0.479,0.488c0.438,0.324,0.94,0.488,1.505,0.488h0.005c0.569,0,1.07-0.164,1.504-0.488
		c0.181-0.135,0.334-0.291,0.461-0.467l0.023-0.031v-2.371c-0.131-0.188-0.291-0.35-0.479-0.488
		c-0.438-0.324-0.939-0.488-1.504-0.492h-0.006v0.436c0.63,0,1.134,0.227,1.51,0.68v2.102l-0.006,0.01
		c-0.376,0.449-0.878,0.676-1.504,0.68c-0.63-0.004-1.133-0.23-1.51-0.68v-5.322C38.938,92.686,39.441,92.459,40.071,92.459z"/>
	<path fill="#36A9E1" d="M47.779,97.066v2.453h0.49v-2.678h-0.017c-0.05-0.432-0.229-0.816-0.536-1.15
		c-0.065-0.07-0.136-0.137-0.213-0.203c0.088-0.068,0.169-0.145,0.242-0.229c0.369-0.396,0.553-0.854,0.553-1.369
		c0-0.52-0.184-0.977-0.553-1.375c-0.157-0.17-0.339-0.314-0.547-0.436h-2.98v7.439h0.484v-3.824h2.323
		C47.527,96.041,47.779,96.498,47.779,97.066z M44.701,92.516h2.346c0.511,0.342,0.767,0.801,0.767,1.375
		c0,0.566-0.251,1.021-0.755,1.365h-2.358V92.516z"/>
	<path fill="#36A9E1" d="M54.674,99.52v-6.512c-0.135-0.184-0.297-0.346-0.484-0.486c-0.438-0.33-0.943-0.494-1.517-0.494
		c-0.572,0-1.077,0.164-1.516,0.494c-0.188,0.141-0.351,0.303-0.484,0.486v6.512h0.484v-3.803h3.032v3.803H54.674z M51.158,95.285
		v-2.137c0.376-0.457,0.882-0.686,1.516-0.686c0.63,0,1.136,0.229,1.517,0.686v2.137H51.158z"/>
	<path fill="#36A9E1" d="M63.951,92.521c-0.442-0.33-0.95-0.494-1.522-0.494c-0.568,0-1.074,0.164-1.516,0.494
		c-0.085,0.062-0.164,0.131-0.236,0.207c-0.077-0.076-0.158-0.145-0.242-0.207c-0.438-0.33-0.943-0.494-1.516-0.494
		c-0.573,0-1.078,0.164-1.517,0.494c-0.188,0.141-0.35,0.303-0.483,0.486v6.512h0.483v-6.371c0.376-0.457,0.882-0.686,1.517-0.686
		c0.63,0,1.135,0.227,1.516,0.68v6.377h0.484v-6.377c0.376-0.453,0.88-0.68,1.51-0.68c0.635,0,1.142,0.229,1.522,0.686v6.371h0.478
		v-6.512C64.298,92.824,64.138,92.662,63.951,92.521z"/>
	<path fill="#36A9E1" d="M70.713,99.52v-6.377c0.377-0.453,0.88-0.68,1.511-0.68c0.634,0,1.141,0.229,1.521,0.686v6.371h0.479
		v-6.512c-0.131-0.184-0.29-0.346-0.479-0.486c-0.441-0.33-0.949-0.494-1.521-0.494c-0.569,0-1.074,0.164-1.517,0.494
		c-0.084,0.062-0.163,0.131-0.236,0.207c-0.077-0.076-0.157-0.145-0.242-0.207c-0.438-0.33-0.943-0.494-1.516-0.494
		s-1.078,0.164-1.516,0.494c-0.189,0.141-0.351,0.303-0.485,0.486v6.512h0.485v-6.371c0.376-0.457,0.881-0.686,1.516-0.686
		c0.63,0,1.136,0.227,1.516,0.68v6.377H70.713z"/>
	<path fill="#36A9E1" d="M78.574,92.516h1.896V92.08h-1.901c-0.573,0-1.08,0.166-1.522,0.498c-0.188,0.143-0.35,0.307-0.484,0.492
		v6.449h0.335h3.683v-0.436h-3.533v-3.389h2.53V95.26h-2.53v-2.055C77.426,92.746,77.936,92.516,78.574,92.516z"/>
	<path fill="#36A9E1" d="M14.846,95.602c0-0.26-0.21-0.488-0.469-0.488H1.231c-0.259,0-0.47,0.229-0.47,0.488s0.21,0.49,0.47,0.49
		h13.146C14.636,96.092,14.846,95.861,14.846,95.602z"/>
	<path fill="#36A9E1" d="M98.572,95.113H85.426c-0.26,0-0.47,0.229-0.47,0.488s0.21,0.49,0.47,0.49h13.146
		c0.259,0,0.469-0.23,0.469-0.49S98.831,95.113,98.572,95.113z"/>
	<polygon fill="#36A9E1" points="1.407,110.807 7.646,110.807 7.646,135.5 10.954,135.5 10.954,110.807 17.111,110.807 
		17.111,107.67 1.407,107.67 	"/>
	<path fill="#36A9E1" d="M26.73,122.02h8.922v-3.137H26.73v-6.146c1.167-1.297,2.67-1.93,4.585-1.93h7.486v-3.137h-7.507
		c-2.188,0-4.154,0.645-5.847,1.916c-0.726,0.547-1.356,1.189-1.875,1.91l-0.15,0.209V135.5h15.766v-3.137H26.73V122.02z"/>
	<path fill="#36A9E1" d="M60.424,109.385c-1.68-1.26-3.64-1.898-5.826-1.898c-2.186,0-4.146,0.639-5.826,1.898
		c-0.723,0.545-1.353,1.18-1.871,1.887l-0.155,0.211V135.5h3.308v-13.406h9.089V135.5h3.309v-24.018l-0.156-0.213
		C61.778,110.564,61.148,109.93,60.424,109.385z M59.143,118.973h-9.089v-6.438c1.153-1.285,2.644-1.91,4.544-1.91
		c1.889,0,3.379,0.625,4.545,1.912V118.973z"/>
	<path fill="#36A9E1" d="M96.611,109.383c-1.692-1.258-3.658-1.896-5.843-1.896c-2.172,0-4.131,0.639-5.819,1.895
		c-0.125,0.092-0.248,0.188-0.368,0.289c-0.12-0.1-0.242-0.195-0.364-0.285c-1.679-1.26-3.64-1.898-5.825-1.898
		c-2.187,0-4.146,0.639-5.827,1.898c-0.723,0.545-1.353,1.18-1.87,1.887l-0.155,0.211V135.5h3.308v-22.965
		c1.154-1.285,2.645-1.91,4.545-1.91c1.889,0,3.378,0.621,4.545,1.895v22.98h3.308v-22.982c1.153-1.273,2.636-1.893,4.524-1.893
		c1.901,0,3.397,0.625,4.564,1.912V135.5h3.288v-24.012l-0.149-0.209C97.965,110.568,97.34,109.932,96.611,109.383z"/>
</g>
</svg>
